<svg width="24" height="24" fill="none" xmlns="http://www.w3.org/2000/svg"><path d="M22.286 0H1.66C.75 0 0 .804 0 1.768v20.518C0 23.25.75 24 1.66 24h20.626c.91 0 1.714-.75 1.714-1.714V1.768C24 .804 23.196 0 22.286 0zM7.232 20.571H3.696V9.161h3.536v11.41zM5.464 7.554c-1.178 0-2.089-.911-2.089-2.036s.91-2.09 2.09-2.09c1.124 0 2.035.965 2.035 2.09s-.91 2.036-2.036 2.036zM20.571 20.57h-3.589V15c0-1.286 0-3-1.821-3-1.875 0-2.143 1.446-2.143 2.946v5.625H9.482V9.161h3.375v1.553h.054c.482-.91 1.66-1.875 3.375-1.875 3.589 0 4.285 2.411 4.285 5.465v6.267z" fill="#fff"/></svg>