<svg width="36" height="36" fill="none" xmlns="http://www.w3.org/2000/svg"><path d="M33.429 0H2.49C1.125 0 0 1.205 0 2.652v30.777C0 34.875 1.125 36 2.491 36H33.43c1.365 0 2.57-1.125 2.57-2.571V2.652C36 1.205 34.795 0 33.429 0zm-22.58 30.857H5.544V13.741h5.303v17.116zM8.195 11.33c-1.767 0-3.133-1.366-3.133-3.053 0-1.688 1.366-3.134 3.133-3.134 1.688 0 3.054 1.446 3.054 3.134a3.052 3.052 0 01-3.054 3.053zm22.661 19.527h-5.384V22.5c0-1.929 0-4.5-2.732-4.5-2.812 0-3.214 2.17-3.214 4.42v8.437h-5.304V13.741h5.063v2.33h.08c.723-1.366 2.491-2.812 5.063-2.812 5.384 0 6.428 3.616 6.428 8.196v9.402z" fill="#5068E0"/></svg>