<svg width="36" height="36" fill="none" xmlns="http://www.w3.org/2000/svg"><path d="M32.143 0H3.857A3.858 3.858 0 000 3.857v28.286C0 34.313 1.688 36 3.857 36h28.286A3.858 3.858 0 0036 32.143V3.857C36 1.767 34.232 0 32.143 0zm-3.938 12.777v.723c0 6.91-5.303 14.946-15.026 14.946-2.974 0-5.706-.803-8.036-2.33.402.08.803.08 1.205.08 2.491 0 4.741-.884 6.59-2.25-2.33-.08-4.26-1.607-4.983-3.696.884.16 1.607.16 2.411-.08-2.41-.483-4.178-2.572-4.178-5.143v-.08a4.393 4.393 0 002.33.642 5.198 5.198 0 01-2.33-4.339c0-1.045.24-1.929.723-2.732 2.571 3.214 6.509 5.303 10.848 5.544-.723-3.535 1.928-6.508 5.143-6.508 1.527 0 2.893.642 3.857 1.687 1.205-.241 2.33-.643 3.375-1.286-.402 1.286-1.286 2.25-2.33 2.893 1.044-.08 2.089-.402 3.053-.803a12.249 12.249 0 01-2.652 2.732z" fill="#5068E0"/></svg>