<svg xmlns="http://www.w3.org/2000/svg" id="_x31_" x="0" y="0" viewBox="0 0 1680 900" xml:space="preserve"><style>.st0{fill:none;stroke:#18ffff;stroke-width:2.0307;stroke-linecap:round;stroke-miterlimit:10}.st1{stroke-linejoin:round;stroke-dasharray:3.3232,3.3232}.st1,.st2{fill:none;stroke:#18ffff;stroke-width:2}.st2,.st3,.st4{stroke-linejoin:round}.st3{fill:none;stroke:#18ffff;stroke-width:2;stroke-dasharray:3.2126,3.2126}.st4{stroke-dasharray:3.2559,3.2559}.st4,.st6{fill:none;stroke:#18ffff;stroke-width:2}.st12{fill:#18ffff}.st13,.st14{stroke-width:2}.st13{fill:none;stroke:#18ffff;stroke-dasharray:3.2768,3.2768}.st14{stroke-dasharray:3.838,3.838}.st14,.st15,.st18{fill:none;stroke:#18ffff}.st15{stroke-width:2;stroke-dasharray:4.6725,4.6725}.st18{stroke-width:1.9818}</style><g id="objects_1_"><circle class="st0" cx="441.8" cy="526.3" r="9.5"/><path class="st0" d="M466.5 520.4l5.9 5.9-5.8 5.9"/><path class="st1" d="M451.3 526.4H471"/><circle class="st0" cx="1340.2" cy="729.7" r="9.5"/><path class="st0" d="M1303.2 537.6h17.5v17.5h-17.5z"/><circle class="st0" cx="1360.2" cy="546.4" r="9.5"/><path class="st0" d="M355.6 304.9h17.5v17.5h-17.5zm6.8 363.9h17.5v17.5h-17.5zm121.8 66h17.5v17.5h-17.5zm1075.1-345h17.5v17.5h-17.5z"/><circle class="st0" cx="509.5" cy="143.9" r="9.5"/><path class="st0" d="M98.1 436.4h17.5v17.5H98.1zm132.7 214.3l6.1 6-5.9 5.8"/><path class="st1" d="M215.7 656.7h19.6"/><path class="st0" d="M1452.1 454h17.5v17.5h-17.5z"/><circle class="st0" cx="1508.5" cy="462.8" r="9.5"/><g id="sales_1_"><path class="st0" d="M1485.6 456.8l6.1 6-5.9 5.8"/><path class="st1" d="M1470.5 462.9h19.4"/></g><circle class="st0" cx="1256.7" cy="231.3" r="9.5"/><path class="st0" d="M1248 160.8h17.5v17.5H1248z"/><circle class="st0" cx="1304.4" cy="169.6" r="9.5"/><g id="sales_2_"><path class="st0" d="M1281.4 163.6l6.1 6-5.8 5.9"/><path class="st2" d="M1266.4 169.7h1.6"/><path class="st3" d="M1271.3 169.7h11.2"/><path class="st2" d="M1284.1 169.7h1.7"/></g><path class="st0" d="M1301.4 225.3l6.1 6-5.8 5.9"/><path class="st2" d="M1266.4 231.4h1.6"/><path class="st4" d="M1271.3 231.4h31.4"/><path class="st2" d="M1304.3 231.4h1.7"/><path class="st0" d="M1262.5 213.2l-6 5.8-5.9-5.7"/><path class="st2" d="M1304.4 178.4v1.6m-48 36.2v1.7"/><circle class="st0" cx="298.1" cy="365.3" r="9.5"/><path class="st0" d="M323.7 359.4l6 5.9-5.9 5.9"/><path fill="none" stroke="#18ffff" stroke-width="2.031" stroke-linejoin="round" d="M307.8 365.4h20.5"/><path class="st0" d="M303.9 347.2l-6 5.9-5.9-5.7"/><path class="st6" d="M364 323.1v1.7"/><path fill="none" stroke="#18ffff" stroke-width="2" stroke-dasharray="2.3589,2.3589" d="M364 327.1v3.6"/><path class="st6" d="M364 331.8v1.7h-1.7"/><path fill="none" stroke="#18ffff" stroke-width="2" stroke-dasharray="3.3093,3.3093" d="M359 333.5h-57.9"/><path class="st6" d="M299.5 333.5h-1.7v1.7"/><path fill="none" stroke="#18ffff" stroke-width="2" stroke-dasharray="3.0154,3.0154" d="M297.8 338.2v10.5"/><path class="st6" d="M297.8 350.2v1.7"/><circle class="st0" cx="724.9" cy="721.9" r="9.5"/><path class="st0" d="M700.1 727.8l-5.9-5.9 6-6"/><path class="st2" d="M695.6 722h1.7"/><path fill="none" stroke="#18ffff" stroke-width="2" stroke-linejoin="round" stroke-dasharray="3.2776,3.2776" d="M700.6 722H712"/><path class="st2" d="M713.7 722h1.6"/><circle class="st0" cx="122.2" cy="197.9" r="9.5"/><path class="st0" d="M174.4 227.2l-6 5.7-6-5.9"/><path fill="none" stroke="#18ffff" stroke-width="2" stroke-dasharray="3.3232,3.3232" d="M168.5 231.7v-14.8h-46v-10.4"/><circle class="st0" cx="972.4" cy="186.5" r="9.5"/><path class="st0" d="M997.1 180.7l6.1 5.8-5.8 6"/><path class="st2" d="M982.1 186.6h1.6"/><path class="st4" d="M987 186.6h11.4"/><path class="st2" d="M1000 186.6h1.7"/><path class="st0" d="M396.1 671.6l5.9 6-5.8 5.9"/><path class="st1" d="M380.9 677.6h19.7"/><circle class="st0" cx="298.1" cy="490.9" r="9.5"/></g><path class="st12" d="M1008.5 186.6l8.8-2.6 2.9-9 2.8 9 8.8 2.6-8.8 2.7-2.8 8.9-2.9-8.9-8.8-2.7m-560.6 100l8.8-2.7 2.8-8.9 2.9 8.9 8.8 2.7-8.8 2.7-2.9 8.9-2.8-8.9-8.8-2.7m864.9-55.2l8.8-2.7 2.8-8.9 2.9 8.9 8.8 2.7-8.8 2.7-2.9 8.9-2.8-8.9-8.8-2.7m-977.7 134l8.8-2.6 2.8-9 2.8 9 8.8 2.6-8.8 2.7-2.8 9-2.8-9-8.8-2.7M688.8 722l-8.8 2.6-2.8 9-2.8-9-8.8-2.6 8.8-2.7 2.8-9 2.8 9 8.8 2.7m379.3 8.1l8.8-2.7 2.8-9 2.9 9 8.8 2.7-8.8 2.7-2.9 8.9-2.8-8.9-8.8-2.7M179.2 252.5l-8.7 2.6-2.9 9-2.9-9-8.8-2.6 8.8-2.7 2.9-8.9 2.9 8.9 8.7 2.7m370-108.6l8.7-2.6 2.8-9 2.9 9 8.7 2.6-8.7 2.7-2.9 8.9-2.8-8.9-8.7-2.7m-71.3 382.5l8.8-2.6 2.8-9 2.9 9 8.8 2.6-8.8 2.7-2.9 8.9-2.8-8.9-8.8-2.7M1393 729.7l8.8-2.7 2.8-8.9 2.9 8.9 8.8 2.7-8.8 2.7-2.9 9-2.8-9-8.8-2.7m-1204.6-73l8.8-2.7 2.9-8.9 2.7 8.9 8.9 2.7-8.9 2.7-2.7 8.9-2.9-8.9-8.8-2.7m97.8 82.1l8.8-2.7 2.8-9 2.9 9 8.7 2.7-8.7 2.7-2.9 8.9-2.8-8.9-8.8-2.7m1189-446.3l8.8-2.7 2.9-8.9 2.8 8.9 8.8 2.7-8.8 2.6-2.8 9-2.9-9-8.8-2.6" id="star"/><path class="st0" d="M1069.6 655.4h17.5v17.5h-17.5z"/><circle class="st0" cx="1126" cy="664.2" r="9.5"/><g id="sales_3_"><path class="st0" d="M1103 658.2l6.1 6-5.9 5.8"/><path class="st2" d="M1088 664.2h1.6"/><path class="st3" d="M1092.9 664.2h11.2"/><path class="st2" d="M1105.7 664.2h1.7"/></g><path class="st2" d="M1126 673v1.5"/><path class="st6" d="M1079.8 714.7v-2"/><path class="st13" d="M1079.8 709.4V698"/><path class="st6" d="M1079.8 696.3v-2h1.9"/><path class="st14" d="M1085.6 694.3h36.4"/><path class="st6" d="M1124 694.3h2v-2"/><path class="st15" d="M1126 687.7v-7"/><path class="st6" d="M1126 678.3v-2"/><path class="st12" d="M1255.3 456.6l-2.7-8.8-9-2.8 9-2.9 2.7-8.8 2.7 8.8 8.9 2.9-8.9 2.8-2.7 8.8"/><circle class="st0" cx="1179.3" cy="418.7" r="9.5"/><path class="st2" d="M1188.2 418.7h1.6"/><path class="st6" d="M1239.9 444.9h-2"/><path fill="none" stroke="#18ffff" stroke-width="2" stroke-dasharray="3.7692,3.7692" d="M1234.1 444.9h-20.7"/><path class="st6" d="M1211.5 444.9h-2v-2"/><path fill="none" stroke="#18ffff" stroke-width="2" stroke-dasharray="4.4435,4.4435" d="M1209.5 438.5v-15.6"/><path class="st6" d="M1209.5 420.7v-2h-2"/><path class="st15" d="M1202.9 418.7h-7"/><path class="st6" d="M1193.5 418.7h-2m-939.6 372v-2"/><path class="st13" d="M251.9 785.4v-11.5"/><path class="st6" d="M251.9 772.3v-2h2"/><path class="st14" d="M257.7 770.3h36.5"/><path class="st6" d="M296.1 770.3h2v-2"/><path class="st15" d="M298.1 763.6v-7"/><path class="st6" d="M298.1 754.3v-2"/><path class="st0" d="M243.1 791.2h17.5v17.5h-17.5z"/><path class="st18" d="M1256.7 213.2v-2"/><path fill="none" stroke="#18ffff" stroke-width="1.982" stroke-dasharray="3.3706,3.3706" d="M1256.7 207.9v-11.8"/><path class="st18" d="M1256.7 194.4v-2h2"/><path fill="none" stroke="#18ffff" stroke-width="1.982" stroke-dasharray="3.9822,3.9822" d="M1262.7 192.4h37.8"/><path class="st18" d="M1302.5 192.4h1.9v-2m0-5.7v-2"/><path class="st12" d="M1534.4 120.7l8.8-2.7 2.8-9 2.9 9 8.8 2.7-8.8 2.7-2.9 8.9-2.8-8.9-8.8-2.7"/><path class="st0" d="M1535.8 46h17.5v17.5h-17.5z"/><circle class="st0" cx="1592.2" cy="54.8" r="9.5"/><g id="sales_4_"><path class="st0" d="M1569.2 48.8l6.1 6-5.8 5.9"/><path class="st2" d="M1554.2 54.8h1.6"/><path class="st3" d="M1559.1 54.8h11.2"/><path class="st2" d="M1571.9 54.8h1.7"/></g><path class="st2" d="M1592.2 63.5v1.7"/><path class="st6" d="M1546 105.3v-2"/><path class="st13" d="M1546 100V88.6"/><path class="st6" d="M1546 86.9v-2h2"/><path class="st14" d="M1551.9 84.9h36.4"/><path class="st6" d="M1590.2 84.9h2v-2"/><path class="st15" d="M1592.2 78.3v-7"/><path class="st6" d="M1592.2 68.9v-2"/></svg>