<svg width="72" height="64" fill="none" xmlns="http://www.w3.org/2000/svg"><path d="M33.361 26.248c0-.643.26-1.132.684-1.467.43-.34 1.043-.531 1.757-.531.674 0 1.28.19 1.71.531.426.337.693.827.693 1.467 0 2.186-.128 4.851-.257 7.525v.005c-.13 2.669-.258 5.346-.258 7.544 0 .463-.248.797-.62 1.027a2.518 2.518 0 01-1.268.345c-.562 0-1.05-.115-1.392-.34-.327-.218-.533-.546-.533-1.032 0-2.199-.129-4.875-.258-7.544v-.005c-.13-2.674-.258-5.34-.258-7.525zm-.111 22.077a2.566 2.566 0 012.588-2.588c1.37 0 2.551 1.176 2.551 2.588 0 1.377-1.182 2.588-2.551 2.588a2.589 2.589 0 01-2.588-2.588z" fill="#11171A" stroke="#fff" stroke-width=".5"/><path d="M34.695 2.254a1.507 1.507 0 012.61 0L70.294 59.39a1.507 1.507 0 01-1.306 2.26H3.012a1.507 1.507 0 01-1.306-2.26L34.695 2.254z" stroke="#11171A" stroke-width="3"/></svg>