<svg width="72" height="72" fill="none" xmlns="http://www.w3.org/2000/svg"><path d="M29.644 19.843l-1.332 7.733a1.951 1.951 0 00.763 1.944 1.965 1.965 0 002.066.18l7.2-3.6 6.826 3.557a1.973 1.973 0 002.88-2.074l-1.332-7.704 5.601-5.48a1.967 1.967 0 00-1.087-3.354l-7.812-1.138-3.485-7.027a1.966 1.966 0 00-1.77-1.08 1.966 1.966 0 00-1.765 1.08l-3.492 7.027-7.812 1.123A1.965 1.965 0 0024 14.4l5.645 5.443zm4.125-7.877a1.08 1.08 0 00.792-.59l3.6-7.2 3.6 7.2a1.079 1.079 0 00.814.59l7.977 1.152-5.76 5.573a1.08 1.08 0 00-.316.958l1.36 7.884-6.976-3.636a1.08 1.08 0 00-.987 0l-7.344 3.686 1.368-7.92a1.08 1.08 0 00-.338-.943l-5.76-5.573 7.97-1.18zM68.4 33.84a4.198 4.198 0 00-2.88-1.44 4.111 4.111 0 00-3.039 1.051l-9.972 8.957a4.486 4.486 0 00-2.506-3.47c-1.85-.778-4.42-.418-6.904-.058a16.866 16.866 0 01-4.414.273 8.64 8.64 0 01-1.894-.72c-1.886-.842-4.47-1.994-9.28-.936a15.228 15.228 0 00-6.632 3.658V38.52a1.08 1.08 0 00-1.08-1.08h-9.36a1.08 1.08 0 00-1.08 1.08V59.4a1.08 1.08 0 001.08 1.08h9.36a1.08 1.08 0 001.08-1.08v-1.498c1.44.339 7.978 1.858 12.81 1.858 5.04 0 11.202-1.152 14.997-2.801 6.991-3.031 18.504-16.114 19.44-17.172a4.27 4.27 0 00.273-5.947zM18.72 58.32h-7.2V39.6h7.2v18.72zm47.908-20.095l-.1.1c-.123.137-12.017 13.76-18.72 16.661-3.529 1.534-9.346 2.614-14.12 2.614-5.04 0-12.477-1.843-12.55-1.858a1.07 1.07 0 00-.259 0v-11.52c.785-.9 3.557-3.823 7.1-4.6 4.118-.9 6.148 0 7.92.799.764.376 1.571.657 2.404.835 1.7.16 3.416.073 5.09-.26 2.096-.287 4.472-.619 5.76-.079a2.384 2.384 0 011.124 1.484 2.75 2.75 0 01-.583 2.448c-1.642 2.203-11.628 5.5-15.725 5.176a1.084 1.084 0 00-.166 2.16h.72c4.472 0 13.01-2.635 16.136-5.27l.079-.043L63.87 35.064a2.002 2.002 0 012.233-.291c.248.123.468.296.647.507a2.103 2.103 0 01-.123 2.945z" fill="#11171A"/></svg>