<svg width="72" height="58" fill="none" xmlns="http://www.w3.org/2000/svg"><path d="M9.68 26.388a1.08 1.08 0 00.71-1.894l-7.878-6.878a1.081 1.081 0 00-1.422 1.627l7.879 6.879c.205.178.457.266.71.266zm7.274-6.852a1.08 1.08 0 101.947-.936l-4.535-9.425a1.081 1.081 0 00-1.946.937l4.534 9.424z" fill="#11171A"/><path d="M71.662 55.583V12.262c0-.013-.004-.026-.004-.039a1.16 1.16 0 00-.02-.164l-.013-.072a1.11 1.11 0 00-.063-.17c-.007-.015-.01-.031-.017-.046a.532.532 0 00-.011-.02v-.002c-.002 0-.003-.004-.004-.006C71.165 11.04 65.276.2 49.526.2 32.724.2 27.66 11.354 27.453 11.83c-.06.136-.09.283-.09.432v7.074C16.864 20.563 9.36 31.369 9.028 31.856a1.08 1.08 0 000 1.217c.332.487 7.836 11.293 18.335 12.52v10.51c0 .596.483 1.08 1.08 1.08h42.28a1.08 1.08 0 001.08-1.08 1.084 1.084 0 00-.141-.52zM65.805 9.24c1.871.539 3.28 2.636 3.697 3.316v41.958L56.249 49.26V20.033c.132-.743 1.436-7.29 7.052-10.444.846-.476 1.666-.59 2.504-.348zM11.258 32.466c1.766-2.318 8.553-10.462 17.064-11.051.04.004.079.012.12.012.085 0 .167-.012.246-.03.2-.01.4-.019.602-.019 8.05.001 14.882 8.714 16.594 11.088-1.712 2.373-8.544 11.086-16.594 11.086-8.962 0-16.2-8.682-18.032-11.086zm18.264 13.237c10.333-.177 18.25-12.135 18.584-12.649a1.083 1.083 0 000-1.18c-.334-.511-8.25-12.47-18.584-12.648v-6.722c.725-1.457 5.652-10.144 20.004-10.144 6.89 0 11.707 2.232 14.896 4.63a5.654 5.654 0 00-2.179.716c-6.872 3.86-8.094 11.748-8.143 12.082a1.017 1.017 0 00-.012.155v30.05c0 .443.27.841.682 1.005l10.156 4.026H29.522v-9.32z" fill="#11171A"/><path d="M59.408 29.922a1.08 1.08 0 00-1.08 1.08v3.149a1.08 1.08 0 002.16 0v-3.149a1.08 1.08 0 00-1.08-1.08zm-23.317 2.545c0-4.342-3.379-7.874-7.532-7.874-4.153 0-7.532 3.532-7.532 7.874 0 4.341 3.38 7.873 7.532 7.873 4.153 0 7.532-3.532 7.532-7.873zM28.56 38.18c-2.962 0-5.372-2.563-5.372-5.714 0-3.15 2.41-5.713 5.372-5.713 2.962 0 5.372 2.563 5.372 5.713s-2.41 5.714-5.372 5.714z" fill="#11171A"/></svg>