<svg width="72" height="40" fill="none" xmlns="http://www.w3.org/2000/svg"><path d="M35.934 21.916c-9.262 0-16.797 7.536-16.797 16.797v1.049H52.73v-1.049c0-9.261-7.535-16.797-16.797-16.797zM21.27 37.666c.54-7.62 6.91-13.654 14.665-13.654 7.753 0 14.125 6.034 14.664 13.654h-29.33zm14.388-17.467c5.415 0 9.82-4.406 9.82-9.82 0-5.415-4.406-9.819-9.82-9.819-5.414 0-9.818 4.405-9.818 9.819 0 5.414 4.405 9.82 9.818 9.82zm0-17.543c4.259 0 7.724 3.465 7.724 7.723s-3.465 7.724-7.724 7.724c-4.258 0-7.722-3.466-7.722-7.724s3.464-7.723 7.722-7.723zM13.476 28.054c1.902 0 3.77.508 5.404 1.468l1.063-1.806a12.764 12.764 0 00-6.467-1.758C6.443 25.958.721 31.68.721 38.714v1.049h15.607v-2.096H2.868c.528-5.39 5.084-9.613 10.608-9.613zm-.204-4.131c4.173 0 7.569-3.395 7.569-7.568 0-4.174-3.396-7.57-7.57-7.57-4.172 0-7.566 3.396-7.566 7.57 0 4.173 3.394 7.568 7.567 7.568zm0-13.041a5.48 5.48 0 015.473 5.473 5.479 5.479 0 01-5.473 5.472A5.477 5.477 0 017.8 16.355a5.477 5.477 0 015.47-5.473zm45.214 15.076a12.76 12.76 0 00-6.466 1.758l1.061 1.806a10.665 10.665 0 015.404-1.468c5.525 0 10.08 4.224 10.609 9.612H55.636v2.096h15.605v-1.048c0-7.034-5.722-12.756-12.755-12.756zm.204-2.035c4.173 0 7.569-3.395 7.569-7.568 0-4.174-3.396-7.57-7.57-7.57-4.172 0-7.566 3.396-7.566 7.57 0 4.173 3.394 7.568 7.567 7.568zm0-13.041a5.48 5.48 0 015.473 5.473 5.479 5.479 0 01-5.473 5.472 5.477 5.477 0 01-5.471-5.472 5.478 5.478 0 015.47-5.473z" fill="#11171A"/></svg>