<svg width="72" height="73" fill="none" xmlns="http://www.w3.org/2000/svg"><path d="M35.874 9.181a1.42 1.42 0 001.421-1.421V1.42a1.421 1.421 0 00-2.842 0v6.34a1.42 1.42 0 001.421 1.421zm34.739 39.644l-2.51-2.504a4.71 4.71 0 00-3.352-1.383 4.72 4.72 0 00-2.28.58l-4.73-4.726.23-.23a4.933 4.933 0 000-6.965 4.878 4.878 0 00-2.474-1.338c.128-.443.196-.907.196-1.382 0-1.32-.513-2.558-1.441-3.483a4.878 4.878 0 00-2.474-1.338c.128-.443.196-.907.196-1.382 0-1.32-.513-2.558-1.443-3.484a4.902 4.902 0 00-2.472-1.335 4.94 4.94 0 00-1.244-4.87 4.934 4.934 0 00-4.012-1.407l-9.376-1.774c-1.43-.271-3.215-.45-4.342.577a2.56 2.56 0 00-.215.223 4.942 4.942 0 00-5.186 1.14 4.89 4.89 0 00-1.44 3.484c0 .475.068.94.196 1.383a4.872 4.872 0 00-2.47 1.335 4.883 4.883 0 00-1.444 3.48c0 .477.068.942.197 1.387a4.882 4.882 0 00-2.473 1.333 4.894 4.894 0 00-1.443 3.486c0 1.01.302 1.973.86 2.786a4.899 4.899 0 00-1.892 1.178 4.933 4.933 0 00.001 6.969l.23.229-4.732 4.723a4.752 4.752 0 00-5.376.931l-2.512 2.505A4.705 4.705 0 000 52.305c0 1.27.492 2.46 1.386 3.353L13.787 68.04a1.421 1.421 0 102.009-2.01L3.394 53.646a1.881 1.881 0 01-.552-1.342c0-.509.196-.985.551-1.34l2.513-2.505a1.903 1.903 0 012.318-.284 1.435 1.435 0 00.587.502l14.407 14.386a1.417 1.417 0 00.685.693c.305.344.473.784.473 1.254 0 .509-.196.985-.552 1.34l-2.51 2.508a1.91 1.91 0 01-2.687.002l-3.135-3.136a1.421 1.421 0 10-2.01 2.01l3.138 3.138a4.731 4.731 0 003.35 1.38 4.738 4.738 0 003.352-1.382l2.511-2.508a4.705 4.705 0 001.386-3.352c0-.906-.252-1.771-.72-2.517l5.325-5.319.017-.017c.61-.63 2.308-.513 3.95-.399 1.167.081 2.468.172 3.738.025l5.832 5.825a4.718 4.718 0 00-.58 2.276c0 1.268.493 2.458 1.386 3.35l2.512 2.508a4.71 4.71 0 003.351 1.384 4.71 4.71 0 003.352-1.383L70.614 55.53A4.705 4.705 0 0072 52.178c0-1.27-.492-2.46-1.387-3.353zM32.898 14.596l6.165 1.167-3.69 3.69c-.57-.275-1.353-.787-2.211-1.608-1.175-1.124-2.015-2.421-2.092-3.23v-.002a1.254 1.254 0 01-.006-.14c.185-.046.679-.096 1.834.123zm-7.205 1.16a2.097 2.097 0 012.652-.252c.461 1.933 2.11 3.685 2.852 4.395.55.526 2.314 2.103 4.095 2.537.24.345.371.757.371 1.19 0 .56-.215 1.084-.607 1.475a2.069 2.069 0 01-1.475.608 2.07 2.07 0 01-1.478-.61l-6.41-6.398a2.065 2.065 0 01-.606-1.473c0-.56.215-1.082.606-1.473zm-3.714 6.2a2.067 2.067 0 011.474-.606c.56 0 1.086.216 1.48.609l5.16 5.15c.813.814.813 2.14.003 2.95a2.082 2.082 0 01-1.48.607 2.081 2.081 0 01-1.479-.605l-3.915-3.915-.02-.018-1.224-1.224a2.07 2.07 0 01-.61-1.476 2.068 2.068 0 01.611-1.471zm-3.72 6.201c.391-.39.915-.606 1.477-.606.557 0 1.077.213 1.466.597l3.928 3.925c.391.39.607.913.607 1.471a2.072 2.072 0 01-2.084 2.079 2.082 2.082 0 01-1.48-.606l-1.423-1.422-2.491-2.488a2.07 2.07 0 01-.609-1.475c0-.559.216-1.083.609-1.475zm-2.476 7.45a2.077 2.077 0 011.48-.61c.56 0 1.085.217 1.478.609l1.426 1.424c.391.39.607.913.607 1.471 0 .56-.216 1.082-.61 1.475a2.07 2.07 0 01-1.476.607 2.07 2.07 0 01-1.478-.61l-.179-.178-.006-.007-.009-.007-1.231-1.227a2.087 2.087 0 01-.002-2.948zm28.963 16.151a1.421 1.421 0 00-2.01 0L41.47 53.02c-1.201 1.202-3.378 1.05-5.483.904-2.287-.159-4.65-.323-6.18 1.248L24.572 60.4l-13.09-13.07 4.632-4.625c.765.47 1.649.72 2.573.72a4.89 4.89 0 003.485-1.438 4.884 4.884 0 001.444-3.485l-.001-.037h.037c1.319 0 2.556-.51 3.482-1.435a4.885 4.885 0 001.445-3.485l-.001-.037h.037a4.91 4.91 0 004.927-4.958l.038.001c1.32 0 2.56-.512 3.486-1.44a4.89 4.89 0 001.44-3.484c0-.923-.252-1.805-.72-2.57L41.849 17c.303-.301.676-.49 1.067-.568a2.09 2.09 0 011.892.565c.812.814.812 2.139.002 2.95l-1.236 1.232-.013.011-1.424 1.422a1.421 1.421 0 102.008 2.011l1.242-1.24.188-.187a2.093 2.093 0 012.95.007c.392.39.607.912.607 1.471s-.215 1.082-.61 1.475l-1.244 1.246-1.425 1.419a1.421 1.421 0 102.006 2.014l1.43-1.425a2.069 2.069 0 011.476-.608 2.074 2.074 0 012.086 2.082 2.06 2.06 0 01-.61 1.474l-2.479 2.48a1.421 1.421 0 002.01 2.01l1.215-1.216c.007-.007.015-.012.022-.02a2.069 2.069 0 011.475-.607c.561 0 1.085.216 1.477.61a2.087 2.087 0 010 2.945l-1.235 1.234-.002.001v.002L41.91 52.58a1.421 1.421 0 002.009 2.011l11.81-11.79 4.596 4.591-13.09 13.074-4.689-4.684c.327-.21.64-.458.934-.752l1.263-1.262a1.42 1.42 0 00.002-2.01zm23.86 1.76L53.373 68.733a1.886 1.886 0 01-1.343.552c-.51 0-.987-.196-1.343-.552l-2.511-2.508a1.878 1.878 0 01-.552-1.34c0-.507.196-.983.551-1.338l15.233-15.214a1.886 1.886 0 011.343-.552c.51 0 .987.196 1.344.553l2.51 2.503c.357.356.553.832.553 1.341 0 .51-.197.986-.552 1.342zM17.002 7.983c.278.277.641.415 1.004.415a1.421 1.421 0 001.004-2.427L13.831.803a1.421 1.421 0 10-2.007 2.011l5.178 5.169zm36.74.415c.363 0 .727-.138 1.004-.415l5.175-5.169a1.421 1.421 0 10-2.009-2.01l-5.175 5.168a1.421 1.421 0 001.005 2.426z" fill="#11171A"/><path d="M8.739 61.133c-.55.56-.543 1.46.017 2.01l.004.004a1.419 1.419 0 002.008-.02 1.424 1.424 0 00-2.03-1.994zm39.483-11.422a1.423 1.423 0 001.27-2.062 1.421 1.421 0 00-1.909-.629l-.008.004a1.422 1.422 0 00.646 2.687z" fill="#11171A"/></svg>