<svg width="102" height="101" fill="none" xmlns="http://www.w3.org/2000/svg"><path d="M51 17.541v65.164L17.802 50.164l56.065-23.443v46.312L28.131 26.72l55.41 24.017-55.41 22.295L50.999 17.54z" stroke="#0BE" stroke-width="2" stroke-miterlimit="10" stroke-linecap="round" stroke-linejoin="round"/><path d="M51 0c27.623 0 50 22.377 50 50s-22.377 50-50 50S1 77.623 1 50C1.082 22.377 23.377.082 51 0z" stroke="#0BE" stroke-width="2" stroke-linejoin="round" stroke-dasharray="3 3"/><path d="M47.23 16.885a3.76 3.76 0 013.771-3.77c2.131 0 3.77 1.64 3.77 3.77 0 2.131-1.639 3.77-3.77 3.77-2.05-.081-3.77-1.72-3.77-3.77zm7.542 66.23A3.76 3.76 0 0151 86.885c-2.131 0-3.77-1.64-3.77-3.77a3.76 3.76 0 013.77-3.77c2.05.081 3.77 1.72 3.77 3.77zm17.049-59.18a3.76 3.76 0 015.328 0 3.76 3.76 0 010 5.328 3.76 3.76 0 01-5.328 0 3.76 3.76 0 010-5.328zM30.18 76.066a3.76 3.76 0 01-5.327 0 3.76 3.76 0 010-5.328 3.76 3.76 0 015.327 0c.738.738 1.066 1.64 1.066 2.705a3.192 3.192 0 01-1.066 2.623zm46.885-5.246a3.76 3.76 0 010 5.327 3.76 3.76 0 01-5.328 0 3.76 3.76 0 010-5.327c.738-.738 1.64-1.066 2.705-1.066a3.192 3.192 0 012.623 1.066zm-52.13-41.64a3.76 3.76 0 010-5.327 3.76 3.76 0 015.328 0 3.76 3.76 0 010 5.327c-1.558 1.476-3.853 1.476-5.328 0zm59.181 24.59a3.76 3.76 0 01-3.77-3.77c0-2.131 1.639-3.77 3.77-3.77a3.76 3.76 0 013.77 3.77 3.76 3.76 0 01-3.77 3.77zm-66.23-7.54a3.76 3.76 0 013.77 3.77 3.76 3.76 0 01-3.77 3.77c-2.131 0-3.77-1.639-3.77-3.77a3.76 3.76 0 013.77-3.77z" fill="#0BE"/></svg>