<svg width="102" height="102" fill="none" xmlns="http://www.w3.org/2000/svg"><path d="M51.001 9.95c22.678 0 41.05 18.372 41.05 41.05 0 22.678-18.372 41.05-41.05 41.05-22.678 0-41.05-18.372-41.05-41.05.067-22.678 18.372-40.983 41.05-41.05z" stroke="#0BE" stroke-width="3" stroke-miterlimit="10" stroke-linecap="round"/><path d="M51 78.254c15.053 0 27.255-12.202 27.255-27.254 0-15.052-12.202-27.254-27.254-27.254-15.053 0-27.255 12.202-27.255 27.254 0 15.052 12.202 27.254 27.255 27.254z" stroke="#0BE" stroke-width="2" stroke-linejoin="round" stroke-dasharray="3 3"/><path d="M51 66.141c8.363 0 15.142-6.779 15.142-15.141 0-8.363-6.779-15.142-15.141-15.142-8.363 0-15.142 6.78-15.142 15.142 0 8.362 6.78 15.141 15.142 15.141z" stroke="#0BE" stroke-width="2" stroke-linejoin="round" stroke-dasharray="2.94 2.94"/><path d="M51 1v16.016m0 67.968V101" stroke="#0BE" stroke-width="2" stroke-miterlimit="10" stroke-linecap="round"/><path d="M100.327 51H84.311m-67.295 0H1" stroke="#0BE" stroke-width="1.6" stroke-miterlimit="10" stroke-linecap="round"/><path d="M51 1v16.016m0 67.968V101m50.001-50H84.984m-67.968 0H1" stroke="#0BE" stroke-width="2" stroke-miterlimit="10" stroke-linecap="round"/><path d="M51.001 57.73a6.73 6.73 0 100-13.46 6.73 6.73 0 000 13.46zM68.092 29.6a3.087 3.087 0 014.374 0 3.087 3.087 0 010 4.374 3.087 3.087 0 01-4.374 0 3.087 3.087 0 010-4.374zM33.908 72.4a3.087 3.087 0 01-4.375 0 3.087 3.087 0 010-4.375 3.087 3.087 0 014.375 0c.605.606.874 1.346.874 2.22a2.62 2.62 0 01-.874 2.154zM72.4 68.092a3.087 3.087 0 010 4.374 3.087 3.087 0 01-4.374 0 3.087 3.087 0 010-4.374c.605-.605 1.346-.874 2.22-.874a2.62 2.62 0 012.154.874zM29.6 33.907a3.087 3.087 0 010-4.374 3.087 3.087 0 014.374 0 3.087 3.087 0 010 4.374c-1.279 1.211-3.163 1.211-4.374 0zm17.363-10.094c0-2.221 1.75-4.038 4.038-4.038 2.288 0 4.037 1.75 4.037 4.038 0 2.288-1.75 4.037-4.037 4.037-2.221-.067-4.038-1.817-4.038-4.037zm8.075 54.374c0 2.22-1.75 4.037-4.037 4.037-2.288 0-4.038-1.75-4.038-4.037 0-2.221 1.75-4.038 4.038-4.038 2.22.067 4.037 1.817 4.037 4.038zm23.15-23.15c-2.22 0-4.038-1.75-4.038-4.037 0-2.288 1.75-4.038 4.038-4.038 2.22 0 4.038 1.75 4.038 4.038 0 2.22-1.75 4.037-4.038 4.037zm-54.375-8.075c2.22 0 4.038 1.75 4.038 4.038 0 2.22-1.75 4.037-4.038 4.037-2.288 0-4.038-1.75-4.038-4.037 0-2.221 1.75-4.038 4.038-4.038z" fill="#0BE"/><path d="M68.092 29.6a3.087 3.087 0 014.374 0 3.087 3.087 0 010 4.374 3.087 3.087 0 01-4.374 0 3.087 3.087 0 010-4.374zM33.908 72.4a3.087 3.087 0 01-4.375 0 3.087 3.087 0 010-4.375 3.087 3.087 0 014.375 0c.605.606.874 1.346.874 2.22a2.62 2.62 0 01-.874 2.154zM72.4 68.092a3.087 3.087 0 010 4.374 3.087 3.087 0 01-4.374 0 3.087 3.087 0 010-4.374c.605-.605 1.346-.874 2.22-.874a2.62 2.62 0 012.154.874zM29.6 33.907a3.087 3.087 0 010-4.374 3.087 3.087 0 014.374 0 3.087 3.087 0 010 4.374c-1.279 1.211-3.163 1.211-4.374 0zm17.363-10.094c0-2.221 1.75-4.038 4.038-4.038 2.288 0 4.037 1.75 4.037 4.038 0 2.288-1.75 4.037-4.037 4.037-2.221-.067-4.038-1.817-4.038-4.037zm8.075 54.374c0 2.22-1.75 4.037-4.037 4.037-2.288 0-4.038-1.75-4.038-4.037 0-2.221 1.75-4.038 4.038-4.038 2.22.067 4.037 1.817 4.037 4.038zm23.15-23.15c-2.22 0-4.038-1.75-4.038-4.037 0-2.288 1.75-4.038 4.038-4.038 2.22 0 4.038 1.75 4.038 4.038 0 2.22-1.75 4.037-4.038 4.037zm-54.375-8.075c2.22 0 4.038 1.75 4.038 4.038 0 2.22-1.75 4.037-4.038 4.037-2.288 0-4.038-1.75-4.038-4.037 0-2.221 1.75-4.038 4.038-4.038z" fill="#0BE"/></svg>