<svg width="97" height="103" fill="none" xmlns="http://www.w3.org/2000/svg"><path d="M42.177 78.098l2.948-4.384c2.343.378 4.686.453 6.953.151l2.722 4.46c.982 1.662 3.099 2.343 4.761 1.587l4.082-1.588c1.814-.68 2.797-2.57 2.494-4.383l-.982-5.14c1.814-1.36 3.628-3.024 5.064-4.762l5.064 1.285c1.89.529 3.855-.378 4.686-2.192l1.815-4.082c.83-1.814.15-3.854-1.512-4.913l-4.384-2.948c.378-2.343.453-4.686.151-6.953l4.46-2.721c1.662-.983 2.343-3.1 1.587-4.762l-1.587-4.082c-.68-1.814-2.57-2.797-4.46-2.494l-5.14 1.058c-1.36-1.814-3.023-3.628-4.762-5.064l1.285-5.064c.53-1.89-.378-3.855-2.192-4.687l-4.006-1.814c-1.814-.831-3.854-.15-4.913 1.512l-2.947 4.384c-2.344-.378-4.687-.454-6.954-.151l-2.721-4.46c-.907-1.663-3.024-2.494-4.762-1.738l-4.082 1.587c-1.814.605-2.872 2.57-2.494 4.46l.907 5.14c-1.814 1.36-3.628 3.023-5.064 4.761l-5.065-1.285c-1.89-.529-3.855.378-4.686 2.192L16.63 35.09c-.831 1.814-.151 3.855 1.512 4.913l4.384 2.948c-.378 2.343-.454 4.686-.151 6.953l-4.46 2.722c-1.663.982-2.343 3.099-1.587 4.761l1.587 4.082c.68 1.814 2.57 2.797 4.46 2.494l5.14-.982c1.36 1.814 3.023 3.628 4.761 5.064l-1.285 5.064c-.529 1.89.378 3.855 2.192 4.686l4.006 1.814c1.814.756 3.93.076 4.989-1.511z" stroke="#0BE" stroke-width="3" stroke-miterlimit="10" stroke-linecap="round"/><path d="M49.356 60.26c7.347 0 13.303-5.956 13.303-13.303s-5.956-13.303-13.303-13.303-13.303 5.956-13.303 13.303S42.009 60.26 49.356 60.26z" stroke="#0BE" stroke-width="2" stroke-linejoin="round" stroke-dasharray="3 3"/><path d="M49.358 26.17c11.49 0 20.786 9.298 20.786 20.787 0 11.489-9.297 20.786-20.786 20.786s-20.786-9.297-20.786-20.786c0-11.49 9.297-20.71 20.786-20.786z" stroke="#0BE" stroke-width="2" stroke-linejoin="round" stroke-dasharray="3 3"/><path d="M49.356 53.91a6.954 6.954 0 100-13.907 6.954 6.954 0 000 13.908z" fill="#0BE"/><path d="M51.776 101l-7.786-7.86 7.937-7.937" stroke="#0BE" stroke-width="3" stroke-miterlimit="10" stroke-linecap="round"/><path d="M3.023 46.805C3.1 21.41 23.885.85 49.282 1.001c25.396.151 46.03 20.71 45.955 46.107-.075 25.396-20.861 45.956-46.258 45.804" stroke="#0BE" stroke-width="2" stroke-linejoin="round" stroke-dasharray="3 3"/><path d="M3.175 44.538c1.738 0 3.174 1.36 3.174 3.175 0 1.738-1.36 3.174-3.174 3.174C1.36 50.887 0 49.527 0 47.713c0-1.739 1.36-3.175 3.175-3.175z" fill="#0BE"/></svg>