<svg width="105" height="105" fill="none" xmlns="http://www.w3.org/2000/svg"><path d="M92.572 84.286l9.429 9.285L92.858 103M2 12.357L11.357 3l9.357 9.143" stroke="#0BE" stroke-width="3.437" stroke-miterlimit="10" stroke-linecap="round"/><path d="M10.857 9.357v84.428h84.358" stroke="#0BE" stroke-width="2" stroke-linejoin="round" stroke-dasharray="3.44 3.44"/><path d="M32 57.357a5.286 5.286 0 100-10.571 5.286 5.286 0 000 10.571zm13.643 1.5a6.786 6.786 0 100-13.572 6.786 6.786 0 000 13.572zm14.642-2.143a4.643 4.643 0 100-9.286 4.643 4.643 0 000 9.286zm12.359.571a5.214 5.214 0 100-10.428 5.214 5.214 0 000 10.428zm0 17.357a5.214 5.214 0 100-10.428 5.214 5.214 0 000 10.428zM59.07 76.214a6.786 6.786 0 100-13.571 6.786 6.786 0 000 13.571zm-14.712-2.143a4.643 4.643 0 100-9.285 4.643 4.643 0 000 9.285zM32 74.642a5.214 5.214 0 100-10.428 5.214 5.214 0 000 10.428zm0-35.785a5.286 5.286 0 100-10.571 5.286 5.286 0 000 10.571zm25.215-.643a4.643 4.643 0 100-9.286 4.643 4.643 0 000 9.286zm15.429 2.071a6.714 6.714 0 100-13.428 6.714 6.714 0 000 13.428zm-28.286-1.428a5.286 5.286 0 100-10.571 5.286 5.286 0 000 10.571z" fill="#0BE"/></svg>