<svg width="100" height="100" fill="none" xmlns="http://www.w3.org/2000/svg"><path d="M0 10C0 4.477 4.477 0 10 0h80c5.523 0 10 4.477 10 10v80c0 5.523-4.477 10-10 10H10c-5.523 0-10-4.477-10-10V10z" fill="#F8F9FB"/><path d="M49.044 50.148c0 2.728-.44 4.755-1.321 6.08-.874 1.324-2.213 1.987-4.018 1.987-1.747 0-3.072-.684-3.974-2.052-.903-1.368-1.354-3.373-1.354-6.015 0-2.772.437-4.813 1.31-6.124.881-1.317 2.22-1.976 4.018-1.976 1.755 0 3.083.687 3.985 2.062.903 1.375 1.354 3.388 1.354 6.038zm-8.11 0c0 2.14.218 3.67.655 4.586.444.917 1.15 1.375 2.116 1.375.967 0 1.672-.465 2.116-1.396.452-.931.677-2.453.677-4.566 0-2.105-.225-3.627-.677-4.565-.444-.945-1.15-1.418-2.116-1.418-.967 0-1.672.462-2.116 1.386-.437.924-.655 2.456-.655 4.598zm10.076 1.16c0-6.145 2.503-9.217 7.509-9.217.787 0 1.453.06 1.998.182v2.106c-.545-.158-1.175-.236-1.891-.236-1.683 0-2.947.45-3.792 1.353-.845.902-1.303 2.35-1.375 4.34h.129a3.42 3.42 0 011.418-1.343c.609-.322 1.325-.483 2.148-.483 1.425 0 2.535.437 3.33 1.31.795.874 1.193 2.06 1.193 3.556 0 1.647-.462 2.95-1.386 3.91-.917.953-2.17 1.429-3.76 1.429-1.124 0-2.102-.269-2.932-.806-.831-.544-1.472-1.332-1.923-2.363-.444-1.038-.666-2.285-.666-3.738zm5.478 4.823c.867 0 1.533-.28 1.998-.838.473-.559.71-1.357.71-2.395 0-.903-.223-1.612-.667-2.128-.437-.515-1.095-.773-1.976-.773-.544 0-1.046.118-1.504.355-.459.229-.82.547-1.085.956-.265.4-.398.812-.398 1.235 0 1.01.273 1.862.817 2.557.551.687 1.253 1.03 2.105 1.03zm-34.67-35.222l-4.836 1.4-1.527 4.964-1.528-4.964-4.836-1.4 4.836-1.4 1.527-4.964 1.528 4.964 4.836 1.4zm3.636-9.545l-2.418.7-.763 2.481-.764-2.482-2.418-.7 2.418-.7.764-2.481.763 2.482 2.418.7zM90.91 83.636l-4.146 1.2-1.31 4.255-1.308-4.255-4.146-1.2 4.145-1.2 1.31-4.254 1.309 4.254 4.145 1.2z" fill="#5068E0"/><circle cx="50" cy="50" r="34.955" stroke="#11171A" stroke-dasharray="1 2"/></svg>