<svg width="100" height="100" fill="none" xmlns="http://www.w3.org/2000/svg"><path d="M0 10C0 4.477 4.477 0 10 0h80c5.523 0 10 4.477 10 10v80c0 5.523-4.477 10-10 10H10c-5.523 0-10-4.477-10-10V10z" fill="#F8F9FB"/><path d="M49.044 50.148c0 2.728-.44 4.755-1.321 6.08-.874 1.324-2.213 1.987-4.018 1.987-1.747 0-3.072-.684-3.974-2.052-.903-1.368-1.354-3.373-1.354-6.015 0-2.772.437-4.813 1.31-6.124.881-1.317 2.22-1.976 4.018-1.976 1.755 0 3.083.687 3.985 2.062.903 1.375 1.354 3.388 1.354 6.038zm-8.11 0c0 2.14.218 3.67.655 4.586.444.917 1.15 1.375 2.116 1.375.967 0 1.672-.465 2.116-1.396.452-.931.677-2.453.677-4.566 0-2.105-.225-3.627-.677-4.565-.444-.945-1.15-1.418-2.116-1.418-.967 0-1.672.462-2.116 1.386-.437.924-.655 2.456-.655 4.598zM61.612 58H50.967v-1.912l4.05-4.071c1.196-1.225 1.987-2.092 2.374-2.6.394-.516.68-.999.859-1.45.179-.451.269-.935.269-1.45 0-.71-.215-1.268-.645-1.676-.422-.408-1.01-.613-1.762-.613-.601 0-1.185.111-1.75.334-.56.221-1.207.623-1.945 1.203L51.053 44.1c.873-.738 1.722-1.26 2.546-1.569a7.454 7.454 0 012.632-.462c1.46 0 2.631.383 3.512 1.15.881.759 1.322 1.783 1.322 3.072 0 .709-.13 1.382-.387 2.02-.25.637-.641 1.296-1.171 1.976-.523.673-1.397 1.586-2.621 2.74l-2.729 2.642v.107h7.455V58zM24.545 87.273l-4.836 1.4-1.527 4.963-1.527-4.963-4.837-1.4 4.836-1.4 1.528-4.964 1.527 4.964 4.836 1.4zM11.818 73.182l-2.418.7-.764 2.482-.763-2.482-2.418-.7 2.418-.7L8.636 70l.764 2.482 2.418.7zm78.182-55l-4.145 1.2-1.31 4.254-1.309-4.254-4.145-1.2 4.145-1.2 1.31-4.255 1.308 4.255 4.146 1.2z" fill="#5068E0"/><circle cx="50" cy="50" r="34.955" stroke="#11171A" stroke-dasharray="1 2"/></svg>