<svg width="100" height="100" fill="none" xmlns="http://www.w3.org/2000/svg"><path d="M0 10C0 4.477 4.477 0 10 0h80c5.523 0 10 4.477 10 10v80c0 5.523-4.477 10-10 10H10c-5.523 0-10-4.477-10-10V10z" fill="#F8F9FB"/><path d="M49.044 50.148c0 2.728-.44 4.755-1.321 6.08-.874 1.324-2.213 1.987-4.018 1.987-1.747 0-3.072-.684-3.974-2.052-.903-1.368-1.354-3.373-1.354-6.015 0-2.772.437-4.813 1.31-6.124.881-1.317 2.22-1.976 4.018-1.976 1.755 0 3.083.687 3.985 2.062.903 1.375 1.354 3.388 1.354 6.038zm-8.11 0c0 2.14.218 3.67.655 4.586.444.917 1.15 1.375 2.116 1.375.967 0 1.672-.465 2.116-1.396.452-.931.677-2.453.677-4.566 0-2.105-.225-3.627-.677-4.565-.444-.945-1.15-1.418-2.116-1.418-.967 0-1.672.462-2.116 1.386-.437.924-.655 2.456-.655 4.598zm20.088-4.244c0 .996-.29 1.826-.87 2.492-.58.66-1.397 1.103-2.45 1.332v.087c1.26.157 2.206.55 2.836 1.181.63.623.945 1.454.945 2.492 0 1.511-.533 2.679-1.6 3.502-1.067.817-2.586 1.225-4.555 1.225-1.74 0-3.208-.283-4.404-.849v-2.245c.666.33 1.371.584 2.116.763a9.19 9.19 0 002.148.268c1.218 0 2.127-.225 2.729-.676.602-.452.902-1.15.902-2.095 0-.838-.333-1.454-.999-1.848-.666-.394-1.711-.59-3.136-.59h-1.365V48.89h1.386c2.507 0 3.76-.867 3.76-2.6 0-.673-.219-1.192-.655-1.558-.437-.365-1.082-.547-1.934-.547-.594 0-1.167.086-1.719.257-.551.165-1.203.49-1.955.978l-1.235-1.762c1.44-1.06 3.111-1.59 5.016-1.59 1.583 0 2.818.34 3.707 1.02.888.681 1.332 1.62 1.332 2.815zM21.818 20.909l-4.836 1.4-1.527 4.964-1.528-4.964-4.836-1.4 4.836-1.4 1.527-4.964 1.528 4.964 4.836 1.4zm3.636-9.545l-2.418.7-.763 2.481-.764-2.482-2.418-.7 2.418-.7.764-2.481.763 2.482 2.418.7zM90.91 83.636l-4.146 1.2-1.31 4.255-1.308-4.255-4.146-1.2 4.145-1.2 1.31-4.254 1.309 4.254 4.145 1.2z" fill="#5068E0"/><circle cx="50" cy="50" r="34.955" stroke="#11171A" stroke-dasharray="1 2"/></svg>