<svg width="100" height="100" fill="none" xmlns="http://www.w3.org/2000/svg"><path d="M0 10C0 4.477 4.477 0 10 0h80c5.523 0 10 4.477 10 10v80c0 5.523-4.477 10-10 10H10c-5.523 0-10-4.477-10-10V10z" fill="#F8F9FB"/><path d="M49.044 50.148c0 2.728-.44 4.755-1.321 6.08-.874 1.324-2.213 1.987-4.018 1.987-1.747 0-3.072-.684-3.974-2.052-.903-1.368-1.354-3.373-1.354-6.015 0-2.772.437-4.813 1.31-6.124.881-1.317 2.22-1.976 4.018-1.976 1.755 0 3.083.687 3.985 2.062.903 1.375 1.354 3.388 1.354 6.038zm-8.11 0c0 2.14.218 3.67.655 4.586.444.917 1.15 1.375 2.116 1.375.967 0 1.672-.465 2.116-1.396.452-.931.677-2.453.677-4.566 0-2.105-.225-3.627-.677-4.565-.444-.945-1.15-1.418-2.116-1.418-.967 0-1.672.462-2.116 1.386-.437.924-.655 2.456-.655 4.598zM58.379 58h-2.524V47.86c0-1.21.028-2.17.085-2.88a8.474 8.474 0 01-.612.57c-.236.208-1.038.866-2.406 1.976l-1.268-1.6 4.62-3.631h2.105V58zM21.818 20.909l-4.836 1.4-1.527 4.964-1.528-4.964-4.836-1.4 4.836-1.4 1.527-4.964 1.528 4.964 4.836 1.4zm3.636-9.545l-2.418.7-.763 2.481-.764-2.482-2.418-.7 2.418-.7.764-2.481.763 2.482 2.418.7zM90.91 83.636l-4.146 1.2-1.31 4.255-1.308-4.255-4.146-1.2 4.145-1.2 1.31-4.254 1.309 4.254 4.145 1.2z" fill="#5068E0"/><circle cx="50" cy="50" r="34.955" stroke="#11171A" stroke-dasharray="1 2"/></svg>