<svg width="100" height="100" fill="none" xmlns="http://www.w3.org/2000/svg"><path d="M0 10C0 4.477 4.477 0 10 0h80c5.523 0 10 4.477 10 10v80c0 5.523-4.477 10-10 10H10c-5.523 0-10-4.477-10-10V10z" fill="#F8F9FB"/><path d="M49.044 50.148c0 2.728-.44 4.755-1.321 6.08-.874 1.324-2.213 1.987-4.018 1.987-1.747 0-3.072-.684-3.974-2.052-.903-1.368-1.354-3.373-1.354-6.015 0-2.772.437-4.813 1.31-6.124.881-1.317 2.22-1.976 4.018-1.976 1.755 0 3.083.687 3.985 2.062.903 1.375 1.354 3.388 1.354 6.038zm-8.11 0c0 2.14.218 3.67.655 4.586.444.917 1.15 1.375 2.116 1.375.967 0 1.672-.465 2.116-1.396.452-.931.677-2.453.677-4.566 0-2.105-.225-3.627-.677-4.565-.444-.945-1.15-1.418-2.116-1.418-.967 0-1.672.462-2.116 1.386-.437.924-.655 2.456-.655 4.598zm15.36-1.956c1.584 0 2.837.42 3.76 1.257.924.838 1.386 1.98 1.386 3.427 0 1.676-.526 2.986-1.579 3.932-1.045.938-2.535 1.407-4.468 1.407-1.755 0-3.134-.283-4.136-.849v-2.288a7.56 7.56 0 001.998.763 9.08 9.08 0 002.095.268c1.138 0 2.005-.254 2.6-.762.594-.509.89-1.254.89-2.235 0-1.876-1.195-2.814-3.587-2.814-.337 0-.752.036-1.246.107-.494.065-.928.14-1.3.226l-1.128-.666.602-7.67h8.164v2.245h-5.94l-.355 3.889c.25-.043.555-.093.913-.15.365-.058.81-.087 1.332-.087zM90.91 86.364l-4.837 1.4-1.527 4.963-1.528-4.963-4.836-1.4 4.836-1.4L84.546 80l1.527 4.964 4.836 1.4zM79.09 8.636l-2.417.7-.764 2.482-.764-2.482-2.418-.7 2.418-.7.764-2.481.764 2.481 2.418.7zm-64.544 3.637l-2.419.7-.763 2.481-.764-2.481-2.418-.7 2.418-.7.764-2.482.763 2.482 2.418.7zM90 18.182l-4.145 1.2-1.31 4.254-1.309-4.254-4.145-1.2 4.145-1.2 1.31-4.255 1.308 4.255 4.146 1.2z" fill="#5068E0"/><circle cx="50" cy="50" r="34.955" stroke="#11171A" stroke-dasharray="1 2"/></svg>