<svg width="113" height="11" fill="none" xmlns="http://www.w3.org/2000/svg"><path d="M0 .082h3.3V10.92H0V.082zm6.13 0h5.252l6.565 8.238-.081-8.238h3.122V10.92h-5.295L9.218 2.763 9.3 10.92H6.13V.082zM37.375 6.84c-.016 1.576-.065 2.113-.291 2.6-.424.927-1.302 1.366-2.993 1.48-.667.064-1.967.08-4.129.08-3.122 0-4.13-.146-5.009-.714-1.072-.683-1.381-1.82-1.381-5.038 0-2.86.325-3.883 1.459-4.534C26.007.146 27.047 0 30.088 0c4.048 0 4.925.082 5.853.537.876.437 1.284 1.396 1.284 2.989v.357h-3.148c-.066-1.185-.31-1.283-3.17-1.283-2.7 0-3.187.064-3.594.423-.407.358-.472.796-.472 2.55 0 2.6.244 2.795 3.414 2.795 2.456 0 2.813-.016 3.269-.211.455-.196.65-.537.65-1.313l3.201-.004zm2.6-6.758h9.348c1.919 0 2.765.161 3.382.682.617.52.922 1.429.922 2.891 0 2.016-.487 2.812-1.869 3.12 1.35.228 1.751.797 1.723 2.437v1.708h-3.355V9.57c-.017-1.166-.342-1.414-1.821-1.382H43.26v2.73h-3.285V.083zm8.438 5.459c1.593 0 1.896-.196 1.896-1.267 0-.699-.065-.992-.275-1.22-.245-.259-.521-.308-1.513-.308h-5.267V5.54h5.159zM68.312.082v2.452h-8.764v1.87h8.26v2.144h-8.26v1.918h8.878v2.454h-12.13V.082h12.016zm7.93 0h4.422l5.937 10.838h-3.61l-1.074-1.935H74.93l-1.04 1.935h-3.743L76.242.082zm4.523 6.644L78.43 2.404l-2.317 4.322h4.652zm9.882-3.963h-4.83V.082h12.96v2.681h-4.83v8.157h-3.3V2.763zM112.886.082v2.452h-8.764v1.87h8.261v2.144h-8.261v1.918H113v2.454h-12.129V.082h12.015z" fill="#11171A"/></svg>