<svg width="92" height="92" fill="none" xmlns="http://www.w3.org/2000/svg"><path d="M0 10C0 4.477 4.477 0 10 0h72c5.523 0 10 4.477 10 10v72c0 5.523-4.477 10-10 10H10C4.477 92 0 87.523 0 82V10z" fill="#1A237E"/><path d="M46.001 20.91a25.09 25.09 0 110 50.18 25.09 25.09 0 010-50.18v0zM46 15.055V25.09m0 41.82v10.035M76.947 46H66.91m-41.819 0H15.055M46 15.055V25.09m0 41.82v10.035M76.947 46H66.91m-41.819 0H15.055" stroke="#35C8C3" stroke-width="1.6" stroke-miterlimit="10" stroke-linecap="round"/><path d="M42.863 58.119a2.651 2.651 0 012.944-2.919 2.775 2.775 0 012.133.786c.523.6.79 1.38.744 2.175a3.128 3.128 0 01-.753 2.208 2.752 2.752 0 01-2.124.836 2.883 2.883 0 01-2.166-.786 3.02 3.02 0 01-.778-2.3zm4.667-6.264h-3.412l-1.02-19.948h5.41l-.978 19.948z" fill="#35C8C3"/><path d="M11.709 21.83l.084-8.532 8.698.084m-7.694 1.003l14.302 14.302m56.453 11.208L89.574 46l-6.19 6.105m4.684-6.189l-20.24-.083" stroke="#35C8C3" stroke-width="1.6" stroke-miterlimit="10" stroke-linecap="round"/></svg>