<svg width="92" height="92" fill="none" xmlns="http://www.w3.org/2000/svg"><path d="M0 10C0 4.477 4.477 0 10 0h72c5.523 0 10 4.477 10 10v72c0 5.523-4.477 10-10 10H10C4.477 92 0 87.523 0 82V10z" fill="#1A237E"/><path d="M47.673 22.581a25.091 25.091 0 110 50.183 25.091 25.091 0 010-50.182v0zm-.001-5.854v10.036m0 41.819v10.036m30.946-30.946H68.582m-41.819 0H16.727m30.945-30.945v10.036m0 41.819v10.036m30.946-30.946H68.582m-41.819 0H16.727" stroke="#35C8C3" stroke-width="1.6" stroke-miterlimit="10" stroke-linecap="round"/><path d="M44.537 59.792a2.652 2.652 0 012.944-2.92 2.777 2.777 0 012.133.787c.523.6.79 1.38.744 2.175a3.128 3.128 0 01-.753 2.207 2.75 2.75 0 01-2.124.837 2.885 2.885 0 01-2.166-.786 3.021 3.021 0 01-.778-2.3zm4.667-6.265H45.79L44.77 33.58h5.411l-.978 19.947z" fill="#35C8C3"/><path d="M73.266 14.218l8.698-.083.083 8.53m-15.389 6.858L80.96 15.222M7.861 53.778l-6.19-6.105 6.023-6.106m15.724 5.938l-20.24.084" stroke="#35C8C3" stroke-width="1.6" stroke-miterlimit="10" stroke-linecap="round"/></svg>