<svg width="92" height="92" fill="none" xmlns="http://www.w3.org/2000/svg"><path d="M46 17.83l19.85 48.143-48.082-19.356L65.85 25.78l-39.7 40.193V25.78l48.637 20.343L46 74.418V17.83z" stroke="#35C8C3" stroke-width="1.88" stroke-linejoin="round"/><path d="M46 20.541a3.298 3.298 0 010-6.596 3.315 3.315 0 013.303 3.33A3.39 3.39 0 0146 20.54zm.001 50.856a3.317 3.317 0 013.305 3.33v.172A3.242 3.242 0 0146 78.055a3.315 3.315 0 01-3.304-3.329A3.483 3.483 0 0146 71.397zM27.988 23.426A3.237 3.237 0 0127.94 28a3.268 3.268 0 110-4.623l.05.05zm35.15 42.917a3.354 3.354 0 11.924 2.28 2.866 2.866 0 01-.924-2.28zm-37.48-3.206a3.353 3.353 0 11-2.281.925 2.867 2.867 0 012.28-.925zm42.916-35.149a3.236 3.236 0 01-4.574-.05 3.267 3.267 0 114.624 0l-.05.05zM13.945 46a3.316 3.316 0 013.33-3.304h.172A3.242 3.242 0 0120.603 46a3.317 3.317 0 01-5.667 2.33 3.353 3.353 0 01-.99-2.33zm64.109 0v.099a3.278 3.278 0 01-3.329 3.23A3.328 3.328 0 1178.054 46z" fill="#35C8C3"/><path d="M46 1a45 45 0 110 90 45 45 0 010-90v0z" stroke="#35C8C3" stroke-width="2" stroke-linejoin="round" stroke-dasharray="3.32 3.32"/></svg>