<svg width="96" height="91" fill="none" xmlns="http://www.w3.org/2000/svg"><path d="M8.237 49.814l-2.99.854-1.098 3.295-.915-3.295L0 49.814l3.234-.916.915-3.233 1.098 3.233 2.99.916z" fill="#35C8C3"/><path d="M48.576 53.243h14.26m-14.26 6.01h14.26m-14.26 6.077h14.26" stroke="#35C8C3" stroke-width="2" stroke-linejoin="round" stroke-dasharray="3.44 3.44"/><path d="M55.738 45.5a3.167 3.167 0 11.037 0h-.037z" fill="#35C8C3"/><path d="M55.671 14.515c-1.16 0-3.911 0-3.911 6.297 0 3.472 2.752 6.712 3.911 8.47 1.086-1.74 3.905-4.998 3.905-8.47 0-6.297-2.752-6.297-3.905-6.297zM67.18 73.946H43.8V41.442l11.727-8.323 11.654 8.323v32.504z" stroke="#35C8C3" stroke-width="2" stroke-linejoin="round"/><path d="M49.24 1a44.103 44.103 0 0141.98 37.342" stroke="#35C8C3" stroke-width="2" stroke-linejoin="round" stroke-dasharray="3.32 3.32"/><path d="M95.552 44.932l-3.051.855-1.098 3.294-.916-3.294-3.172-.855 3.172-.915.916-3.234 1.098 3.234 3.05.915zM47.776 91a2.136 2.136 0 100-4.271 2.136 2.136 0 000 4.27z" fill="#35C8C3"/><path d="M46.31 88.864a44.03 44.03 0 01-42.1-37.647" stroke="#35C8C3" stroke-width="2" stroke-linejoin="round" stroke-dasharray="3.32 3.32"/><path d="M43.799 71.993L33.37 69.461l8.402-31.418 13.46-5.07" stroke="#35C8C3" stroke-width="2" stroke-linejoin="round"/><path d="M33.516 68.015l-9.05-5.217 16.292-28.16 14.333-1.372" stroke="#35C8C3" stroke-width="2" stroke-linejoin="round"/></svg>