<svg width="90" height="90" fill="none" xmlns="http://www.w3.org/2000/svg"><path d="M54.473 23.79a1.635 1.635 0 01-.68-.227.9.9 0 010-1.26l7.308-7.309-7.309-7.308a.885.885 0 011.252-1.252l8.679 8.678-8.678 8.678c-.11-.117-.345 0-.572 0z" fill="#35C8C3"/><path d="M36.202 49.597h-1.48v-1.714h1.48v1.714zm-3.764 0h-1.487v-1.714h1.565l-.078 1.714zm-3.772 0H27.18v-1.714h1.487v1.714zm-3.912 0h-1.487v-1.714h1.487v1.714zm-3.772 0h-1.448v-1.714h1.48l-.032 1.714zm-3.764-.118c-.571 0-1.033-.11-1.487-.11l.227-1.713c.45.094.91.134 1.37.117l-.11 1.706zm-3.913-.57a7.508 7.508 0 01-1.502-.455l.571-1.565 1.37.345-.439 1.674zm-3.6-1.37a9.117 9.117 0 01-1.369-.783l.916-1.486c.404.256.825.486 1.26.688l-.806 1.58zm-3.38-2.168a10.167 10.167 0 01-1.142-1.025l1.252-1.26c.317.338.665.645 1.04.916l-1.15 1.37zm-2.762-2.856c-.336-.454-.571-.782-.908-1.252l1.48-.916c.225.404.487.787.782 1.143l-1.354 1.025zm-1.94-3.31a6.026 6.026 0 01-.572-1.487l1.58-.555c.129.428.28.848.455 1.26l-1.464.782zM.37 35.433a6.322 6.322 0 01-.227-1.479l1.714-.227c.017.465.094.925.227 1.37l-1.714.336zm1.37-3.99H.003a7.826 7.826 0 01.117-1.566l1.714.227a5.822 5.822 0 00-.118 1.378l.024-.04zm.454-3.545L.48 27.553a7.534 7.534 0 01.462-1.479l1.565.571c-.07.33-.18.783-.298 1.253h-.015zm1.119-3.256l-1.48-.782c.214-.482.476-.941.783-1.37l1.48.908a8.527 8.527 0 00-.783 1.244zm1.94-2.965l-1.37-1.182c.314-.408.66-.79 1.034-1.143l1.252 1.253a9.6 9.6 0 00-.916 1.032v.04zm2.637-2.512l-1.025-1.37 1.244-.978.893 1.503c-.39.237-.763.499-1.12.782l.008.063zm3.083-1.824l-.688-1.565c.461-.234.915-.344 1.487-.57l.57 1.564c-.57.188-.985.415-1.369.532v.04zm3.31-1.025l-.344-1.713c.485-.134.984-.21 1.487-.227l.22 1.659c-.464.03-.923.11-1.37.234l.008.047zm3.655-.57l-.11-1.715h1.48v1.69l-1.37.024zm39.251-.024h-1.487v-1.753h1.487v1.753zm-3.913 0h-1.424v-1.753h1.48l-.056 1.753zm-3.764 0h-1.486v-1.753h1.486v1.753zm-3.771 0h-1.487v-1.753h1.495l-.008 1.753zm-3.764 0H40.52v-1.753h1.487l-.031 1.753zm-3.772 0h-1.487v-1.753h1.487v1.753zm-3.709 0h-1.487v-1.753h1.487v1.753zm-3.764 0h-1.487v-1.753h1.487v1.753zm-3.772 0h-1.526v-1.753h1.487l.04 1.753zm-3.764 0H21.71v-1.753h1.486v1.753zm45.895 67.68h-1.479v-1.714h1.48v1.714zm-3.764 0h-1.486v-1.714h1.502l-.016 1.714zm-3.771 0h-1.487v-1.714h1.487v1.714zm-3.764 0h-1.487v-1.714h1.487v1.714zm-3.772 0h-1.487v-1.714h1.526l-.039 1.714zm-3.772 0H48.77v-1.714h1.48v1.714zm-3.764 0h-1.486v-1.714h1.486v1.714zm-3.771 0h-1.487v-1.714h1.487v1.714zm-3.764 0h-1.487v-1.714h1.487v1.714zm-3.913 0h-1.455v-1.714h1.479l-.024 1.714zm-3.764 0h-1.47v-1.714h1.486l-.016 1.714zm-3.771 0h-1.487v-1.714H27.5v1.714zm43.97 0l-.118-1.714c.462 0 .915-.117 1.487-.117l.227 1.713a6.636 6.636 0 00-1.566.118h-.03zm3.912-.571l-.344-1.714 1.369-.344.462 1.565a3.879 3.879 0 01-1.495.454l.008.039zm3.654-1.026l-.689-1.565c.43-.172.853-.36 1.26-.57l.783 1.486a8.037 8.037 0 01-1.362.65h.008zm3.537-1.948l-.908-1.37c.337-.226.783-.57 1.143-.782l1.142 1.37c-.478.234-.943.496-1.392.782h.015zm2.974-2.512l-1.26-1.142c.344-.337.571-.681.915-1.025l1.37 1.025c-.373.354-.718.736-1.033 1.142h.008zm2.285-3.31l-1.487-.782a6.26 6.26 0 00.571-1.26l1.565.688c-.13.49-.353.95-.657 1.354h.008zm1.479-3.654l-1.565-.454.344-1.37 1.714.337a7.234 7.234 0 01-.501 1.487h.008zM90 66.468l-1.713-.117v-1.37l1.713-.11v1.597zm-1.964-3.623l-.344-1.37 1.565-.461c.117.462.235 1.033.344 1.487l-1.565.344zm-1.025-3.427c-.235-.454-.344-.783-.571-1.252l1.479-.783c.227.462.461.916.688 1.377l-1.596.658zm-1.714-3.084c-.234-.344-.571-.68-.915-1.142l1.306-1.142c.376.393.722.814 1.034 1.26l-1.425 1.024zm-2.402-2.629a10.307 10.307 0 00-1.12-.892l1.034-1.37 1.252.909-1.166 1.353zm-2.966-1.94a6.265 6.265 0 00-1.26-.572l.689-1.565 1.37.689-.799 1.448zm-3.31-1.37l-1.377-.344.344-1.706 1.487.337-.454 1.713zm-3.545-.712c-.453 0-.915-.117-1.37-.117l.118-1.714c.572 0 1.025.117 1.48.117l-.228 1.714zM44.2 48.681l9.022-2.738 2.965-9.25 2.857 9.25 9.14 2.739-9.14 2.746-2.857 9.25-2.965-9.25-9.023-2.746zm4.334-12.332l-6.049 1.713-1.94 6.166-1.941-6.166-6.166-1.713 6.166-1.824 1.94-6.283 1.941 6.283 6.049 1.824zm-3.653 23.53l-6.048 1.823-1.941 6.284-1.94-6.284-6.057-1.823 6.056-1.604 1.94-6.394 1.942 6.394 6.048 1.604zM11.35 89.591l-.572-.57C10.317 88.675.731 79.63.731 73.37a10.737 10.737 0 1121.464-.58v.58c0 6.393-9.703 15.298-10.047 15.65l-.798.571zm0-25.126a9.155 9.155 0 00-8.937 8.897c0 4.695 6.746 11.644 8.913 13.702 2.042-2.058 8.929-9.023 8.929-13.702a9.273 9.273 0 00-8.905-8.92v.023z" fill="#35C8C3"/><path d="M11.31 76.547a3.537 3.537 0 100-7.074 3.537 3.537 0 000 7.074zm67.72-49.221l-.572-.57c-.454-.345-10.047-9.391-10.047-15.651A10.735 10.735 0 0183.017.725a10.735 10.735 0 016.858 9.832v.58c0 6.392-9.703 15.297-10.047 15.65l-.799.54zm0-25.118a9.14 9.14 0 00-8.906 8.905c0 4.225 5.94 10.845 8.905 13.701 2.058-2.058 8.906-9.022 8.906-13.701a9.062 9.062 0 00-8.906-8.905z" fill="#35C8C3"/><path d="M79.03 14.196a3.537 3.537 0 100-7.074 3.537 3.537 0 000 7.074z" fill="#35C8C3"/></svg>