<svg xmlns="http://www.w3.org/2000/svg" id="Слой_1" x="0" y="0" viewBox="0 0 110 110" xml:space="preserve"><style>.st0{fill:#12436a}.st1{fill:#fff}.st2{fill:#fefefe}</style><circle class="st0" cx="55.1" cy="55" r="55"/><path class="st1" d="M55 7c26.5 0 48 21.5 48 48s-21.5 48-48 48S7 81.5 7 55 28.5 7 55 7m0-1C28 6 6 27.9 6 55s21.9 49 49 49 49-21.9 49-49S82 6 55 6z"/><path class="st2" d="M55 100.5V99h-1.9l-.1 1.5h2c-.1 0-.1 0 0 0-.1 0-.1 0 0 0-.1 0-.1 0 0 0-.1 0-.1 0 0 0-.1 0-.1 0 0 0zm-4-.2l.1-1.5c-.6-.1-1.3-.1-1.9-.2l-.2 1.5c.7.1 1.3.2 2 .2zm-4-.5l.3-1.5c-.6-.1-1.3-.2-1.9-.4l-.3 1.5c.6.2 1.3.3 1.9.4zm-3.9-.9l.4-1.4c-.6-.2-1.2-.3-1.9-.5l-.5 1.4h.1c.8.2 1.4.4 1.9.5zm-3.8-1.2l.5-1.4c-.6-.2-1.2-.5-1.8-.7l-.5 1.4c.1 0 .2.1.3.1.4.2.7.3 1.1.4.3.2.3.2.4.2zm-3.7-1.5l.6-1.4c-.6-.3-1.2-.6-1.7-.9l-.7 1.3h.2c.7.5 1.2.8 1.6 1zm-3.5-1.9l.8-1.3c-.6-.3-1.1-.7-1.6-1l-.8 1.3c.3.2.7.4 1 .6.1.1.4.3.6.4zm-3.4-2.1l.9-1.2c-.5-.4-1-.8-1.6-1.2l-.9 1.2c.6.4 1.1.8 1.6 1.2 0-.1 0 0 0 0zm-3.1-2.5l1-1.1c-.5-.4-1-.8-1.4-1.3l-1 1.1c.3.3.7.6 1 .9.1.2.2.3.4.4zm-3-2.7l1.1-1.1c-.5-.5-.9-.9-1.3-1.4l-1.1 1s0 .1.1.1c.4.5.8 1 1.2 1.4zM20 84l1.2-1-1.2-1.5-1.2.9c.1.1.2.3.3.4l.1.1c.2.5.5.8.8 1.1zm-2.5-3.2l1.2-.9c-.4-.5-.7-1.1-1.1-1.6l-1.3.8s0 .1.1.1c.5.6.8 1.1 1.1 1.6zm-2.1-3.4l1.3-.7c-.3-.6-.6-1.1-.9-1.7l-1.3.7c.1.1.1.2.2.3v.1c.3.5.5.9.7 1.3zm-1.8-3.5l1.4-.6c-.3-.6-.5-1.2-.8-1.8l-1.4.6c0 .1.1.1.1.2v.1s0 .1.1.1v.1c.3.7.5 1 .6 1.3zm-1.5-3.7l1.4-.5-.6-1.8-1.4.4v.6c.5 1 .5 1.1.6 1.3zm-1.2-3.8l1.5-.4c-.2-.6-.3-1.3-.4-1.9l-1.5.3v.2l.3 1.2c.1.3.1.4.1.6zm-.8-4l1.5-.2c-.1-.6-.2-1.3-.3-1.9l-1.5.2.3 1.8v.1zm-.5-3.9l1.5-.1c0-.6-.1-1.3-.1-1.9H9.5v.8c.1.6.1.9.1 1.2zm1.4-4c0-.6 0-1.3.1-1.9l-1.5-.1v1.7l1.4.3zm.2-3.9c.1-.6.1-1.3.2-1.9l-1.4-.2c0 .3-.1.5-.1.8v.1c0 .2-.1.5-.1.7l1.4.5zm.6-3.8c.1-.6.3-1.3.4-1.9l-1.5-.3v.2c-.1.6-.2 1.1-.4 1.7l1.5.3zm.8-3.8l.6-1.8-1.4-.5c-.2.6-.4 1.3-.6 1.9l1.4.4zm1.3-3.6c.2-.6.5-1.2.7-1.8l-1.4-.6c-.3.6-.5 1.2-.8 1.9l1.5.5zm1.5-3.6c.3-.6.6-1.2.9-1.7l-1.3-.7c-.2.4-.4.9-.7 1.3 0 .1-.1.1-.1.2l1.2.9zm1.8-3.4c.3-.6.7-1.1 1-1.6L17 30c-.1.1-.2.2-.2.4v.1s0 .1-.1.1c-.1.1-.1.2-.2.3l-.3.6 1 .9zm2.2-3.2l1.2-1.5-1.2-.9c-.3.4-.6.7-.8 1.1l-.1.1c-.1.1-.2.2-.2.3l1.1.9zm2.4-3c.4-.5.9-1 1.3-1.4l-1.1-1-.1.1-.1.1v.1s0 .1-.1.1l-.1.1-.1.1.3 1.8zm2.6-2.8c.5-.4.9-.9 1.4-1.3l-1-1.1c-.1 0-.1.1-.2.1-.4.4-.8.8-1.3 1.2l1.1 1.1zm2.9-2.6l1.5-1.2-.8-1.2-.1.1c-.5.3-.9.7-1.4 1.1l.8 1.2zm3.1-2.3c.5-.4 1.1-.7 1.6-1l-.8-1.3c-.1.1-.3.2-.4.2 0 0-.1 0-.1.1 0 0-.1 0-.1.1-.1.1-.3.2-.4.3l-.1.1s-.1 0-.1.1h-.1l.5 1.4zm3.3-2c.6-.3 1.1-.6 1.7-.9l-.7-1.3-.6.3c-.2.1-.5.2-.7.4-.1 0-.2.1-.2.1l.5 1.4zm3.5-1.8c.6-.3 1.2-.5 1.8-.7l-.5-1.4c-.6.2-1.2.5-1.8.8l.5 1.3zm3.6-1.4l1.8-.6-.4-1.4-1.8.6.4 1.4zm3.7-1c.6-.2 1.3-.3 1.9-.4l-.3-1.5c-.1 0-.2 0-.3.1-.4.1-.9.2-1.3.3h-.2l.2 1.5zm3.8-.8c.6-.1 1.3-.2 1.9-.3L50 9.8c-.4 0-.7.1-1.1.1h-.3c-.2 0-.3 0-.5.1l.2 1.5zm3.8-.4c.6 0 1.3-.1 1.9-.1V9.5c-.6 0-1.1 0-1.7.1h-.2v1.5zm5.8 0l.1-1.5h-.2c-.5 0-.9 0-1.4-.1h-.1V11c.3 0 1 0 1.6.1zm3.9.4L62 10c-.2 0-.4-.1-.6-.1h-.2c-.4-.1-.8-.1-1.2-.1l-.2 1.5c.7 0 1.4.1 2 .2zm3.8.8l.4-1.5c-.3-.1-.5-.1-.8-.2-.2 0-.3-.1-.5-.1-.1 0-.2 0-.3-.1l-.3 1.5c.2.1.9.2 1.5.4zm3.7 1.1l.5-1.4c-.6-.2-1.3-.4-1.9-.6l-.4 1.4 1.8.6zm3.6 1.4l.6-1.4c-.1 0-.1 0-.2-.1-.2-.1-.4-.2-.6-.2h-.1c-.3-.1-.6-.2-.9-.4l-.6 1.3c.6.3 1.2.5 1.8.8zm3.4 1.7l.7-1.3-.6-.3c-.4-.2-.8-.4-1.1-.6l-.7 1.3c.6.3 1.2.6 1.7.9zm3.3 2l.8-1.2c-.2-.1-.4-.3-.6-.4l-.1-.1c-.2-.1-.3-.2-.5-.3l-1.2 1c.6.3 1.1.7 1.6 1zm3.1 2.3l.9-1.2c-.5-.4-1-.8-1.6-1.2l-.9 1.2c.6.4 1.1.8 1.6 1.2zm2.9 2.6l1-1.1-.1-.1-.1-.1-.1-.1-.1-.1-.3-.3-1 1.1.7.7zm2.7 2.8l1.1-1c-.4-.5-.9-1-1.3-1.5l-1.1 1c.4.6.9 1 1.3 1.5zm2.4 3.1l1.2-.9c-.1-.1-.1-.2-.2-.2-.3-.4-.6-.8-.9-1.1l-1.2.9c.3.2.7.7 1.1 1.3zm2.1 3.2l1.3-.8-.9-1.5-1.3.8c.2.4.6.9.9 1.5zm1.8 3.4l1.4-.7c-.1-.3-.3-.6-.4-.8 0-.1-.1-.2-.1-.3 0 0 0-.1-.1-.1v-.2l-1.3.7c0 .2.3.8.5 1.4zm1.6 3.5l1.4-.5c-.2-.5-.4-1.1-.6-1.6l-1.4.6c.1.3.3.9.6 1.5zm1.2 3.7l1.4-.4-.3-.9v-.1c-.1-.2-.1-.4-.2-.6l-1.4.5.5 1.5zm.9 3.8l1.5-.3c-.1-.7-.3-1.3-.4-2l-1.5.4c.1.6.2 1.2.4 1.9zm.5 3.8l1.5-.1c-.1-.7-.1-1.3-.2-2l-1.5.2c.1.6.1 1.3.2 1.9zm.2 3.9h1.5c0-.7 0-1.3-.1-2l-1.5.1c.1.6.1 1.2.1 1.9zm1.4 4c0-.1 0-.1 0 0 0-.1 0-.1 0 0 0-.1 0-.1 0 0 0-.1 0-.1 0 0 0-.1 0-.1 0 0 0-.1 0-.1 0 0 0-.1 0-.1 0 0 0-.1 0-.1 0 0 0-.5.1-.9.1-1.4v-.5l-1.5-.2c0 .6-.1 1.3-.1 1.9l1.5.2zm-.5 3.9c.1-.4.1-.8.2-1.1 0-.2.1-.5.1-.7l-1.5-.2c-.1.6-.2 1.3-.3 1.9l1.5.1zm-.9 3.9c0-.1 0-.1.1-.2.1-.5.3-1.1.4-1.6l-1.5-.4c-.1.6-.3 1.3-.4 1.9l1.4.3zm-1.1 3.9c0-.1.1-.3.1-.4v-.2c.1-.4.2-.7.3-1.1l-1.4-.4-.6 1.8 1.6.3zM96.4 74s0-.1.1-.1v-.2c.1-.3.3-.7.4-1 0 0 0-.1.1-.1l-1.4-.6c-.2.6-.5 1.2-.8 1.8l1.6.2zm-1.9 3.5c.3-.6.6-1.2 1-1.8l-1.3-.7c-.3.6-.6 1.1-.9 1.7l1.2.8zm-2.1 3.4s0-.1 0 0c0-.1 0-.1 0 0 .1-.1.1-.1 0 0 .1-.1.1-.1 0 0 .1-.1.1-.1 0 0 .1-.1.1-.1 0 0 .4-.6.8-1.1 1.1-1.7l-1.3-.8c-.3.5-.7 1.1-1.1 1.6l1.3.9zM90 84.1c0-.1.1-.1.1-.2l.9-1.2-1-1.1-1.2 1.5 1.2 1zM87.3 87l.3-.3c.3-.4.7-.7 1-1.1l-1.1-1c-.4.5-.9.9-1.3 1.4l1.1 1zm-2.9 2.8c.1-.1.2-.1.2-.2.2-.2.4-.4.7-.6l.1-.1.1-.1-1-1.1c-.5.4-1 .9-1.4 1.3l1.3.8zm-3.2 2.4c.5-.3.9-.6 1.3-1 .1 0 .1-.1.2-.1l-.9-1.2c-.5.4-1 .8-1.6 1.1l1 1.2zm-3.4 2.2l1.5-.9h.1l-.8-1.3c-.5.3-1.1.7-1.7 1l.9 1.2zm-3.5 1.8c.1-.1.3-.1.4-.2.2-.1.4-.2.7-.3.1-.1.2-.1.4-.2l-.4-1.5c-.6.3-1.2.6-1.7.9l.6 1.3zm-3.7 1.6c.3-.1.5-.2.8-.3h.2l-.6-1.4c-.6.2-1.2.5-1.8.7l1.4 1zM66.8 99c.3-.1.5-.1.8-.2h.1l.9-.3-.3-1.5c-.6.2-1.2.4-1.9.5l.4 1.5zm-3.9.8c.7-.1 1.3-.2 2-.4l-.4-1.4c-.6.1-1.3.3-1.9.4l.3 1.4zm-4 .5c.7-.1 1.3-.1 2-.2l-.2-1.5c-.6.1-1.3.2-1.9.2l.1 1.5zm-3.9.2c.1 0 .1 0 0 0 .1 0 .1 0 0 0 .1 0 .1 0 0 0 .1 0 .1 0 0 0 .1 0 .1 0 0 0h1.6l.3-1.5H55v1.5zM8.2 65H7.1l-2.8 2.5h4.5zm93.6 0h1.1l2.8 2.5h-4.5zM25.3 44.2c.1.5.2.9.4 1.4.4 1.4.8 2.7 1.2 4 0 .1.1.1.1.2.2-.4.2-.8.3-1.1.1-.5.2-.9.3-1.4l.3-1.5c.1-.5.2-1.1.4-1.6H30c0 .3-1.8 8.6-2.1 9.2h-1.6c-.3-1-.6-2-.8-2.9-.3-1-.6-1.9-.9-3-.3 1.2-.7 2.4-1 3.5-.2.7-.4 1.5-.6 2.2 0 .2-.1.3-.3.3h-1.4c-.1-.5-.2-.9-.3-1.4-.6-2.6-1.2-5.1-1.7-7.7v-.1c.6-.1 1.2-.1 1.8 0 .1.7.3 1.5.5 2.2.2 1.1.5 2.2.8 3.3 0 .1 0 .1.1.2.1-.5.3-1 .4-1.6.4-1.3.7-2.5 1.1-3.8v-.2c0-.1 0-.2.2-.2.1 0 .6-.1 1.1 0zm17 0c.1-.1.2 0 .2 0h2.6c.5 0 1.1.1 1.6.2 1.1.3 1.9 1.1 2.4 2.1.7 1.5.7 3 .1 4.5-.6 1.3-1.6 2.1-3 2.3-1.3.1-2.6.1-3.9.1v-9.2zm46.5 5.1c.7 1.3 1.4 2.7 2.2 4.1h-1.8c-.2 0-.2-.1-.2-.2-.6-1.1-1.2-2.3-1.8-3.4-.1-.1-.1-.2-.2-.3v3.9h-1.8v-9.2h2.4c.4 0 .8.1 1.2.1 1 .2 1.8 1 1.9 2.2.1.7 0 1.3-.4 1.9-.3.3-.6.6-1 .8-.3 0-.4 0-.5.1zm-6 2.4v1.7h-5.1v-9.2h5v1.7h-3.3v1.6h3.3v1.6h-3.3v2.5l3.4.1zm-46.2 1.7h-5v-9.2h5v1.7c-.1.1-.2 0-.4 0h-2.8c-.1.5-.1 1 0 1.6.5.1 1 0 1.4 0h1.5c.2 0 .3.1.3.3v1.1c0 .2-.1.3-.3.3h-2.9c-.1.8-.1 1.6 0 2.3.3.1.6 0 .8 0h2.2c.2 0 .3.1.3.3-.1.6 0 1.1-.1 1.6zm20.1 0h-5v-9.2h5v1.7c-.1.1-.2 0-.3 0h-2.9c-.1.5 0 1 0 1.4 0 .2.2.2.3.2h2.6c.4 0 .4 0 .4.4V49c0 .2-.1.3-.3.3h-2.9v2.3c.7.1 1.4 0 2.1 0h1c.1 0 .2 0 .2.1-.2.6-.1 1.2-.2 1.7zm11.2-9.2h1.7c.2 0 .2.1.2.2.4 1.1.8 2.2 1.2 3.2.4 1 .7 2 1.1 3 .1-.1.1-.2.2-.3.7-1.9 1.4-3.9 2.1-5.8.1-.4.1-.3.4-.3h1.4c0 .2 0 .3-.1.4-1 2.8-2 5.7-3.1 8.5-.1.3-.1.3-.5.3h-1.4c-1-3.1-2.1-6.1-3.2-9.2zm-9 0h1.7v7.5h2.6v1.7h-4.3v-9.2zM60 62.5v-3.8h1.1v6h-1c-.1 0-.2-.1-.2-.2-.6-1-1.3-2-1.9-3-.1-.2-.3-.5-.5-.7v3.9h-1.2v-6h1c.2 0 .2.1.3.2.7 1.1 1.4 2.1 2.1 3.2 0 .2.1.3.3.4-.1.1 0 0 0 0zm-5.1-.7c.1 1.7-1.4 3.2-3.2 3.1-1.7 0-3.1-1.4-3.1-3.2 0-1.7 1.4-3.1 3.1-3.1 1.8 0 3.2 1.5 3.2 3.2zm19.5-23.6s-.3-.8-.4-1.1c-.1-.2-.1-.2-.3-.2h-2c-.1 0-.2 0-.3.2-.1.3-.5 1.1-.5 1.1h-1.2s2.1-5.1 2.3-5.6c0-.1.1-.2.1-.3s.5-.1.7-.1c.6 0 .6 0 .8.5.7 1.8 2.1 5.5 2.1 5.5h-1.3zm-8 15.2h-1.7v-9.2h1.7v9.2zM33.1 31.9c.9.1 1.8.5 2.4 1.2-.3.2-.5.5-.8.7-.2-.1-.2-.2-.4-.3-.6-.5-1.3-.7-2-.5-.9.2-1.6 1.1-1.5 2 0 1.1.7 1.8 1.7 1.9.7.1 1.2-.1 1.8-.5.1-.1.3-.2.4-.3.3.2.5.5.8.8-.6.6-1.2 1-2.1 1.1h-1.2c-.7-.1-1.4-.4-1.9-.9-.3-.4-.6-.8-.7-1.3-.2-.6-.2-1.3 0-1.9.4-1.1 1.2-1.8 2.3-2 .2 0 .4-.1.5-.1.4.1.5.1.7.1zM69 36.8c-.1.2-.1.3-.2.5-.3.5-.7.8-1.3.9-.4.1-.7.1-1.1 0-.6-.1-1-.5-1.2-1-.1-.2 0-.3.1-.4.2-.1.5-.3.7-.4.1 0 .1.1.2.2.2.2.4.4.6.5.3.1.7 0 .8-.3.1-.2.1-.5-.2-.8-.3-.3-.6-.5-.8-.7-.4-.4-.8-.7-1.1-1.2-.4-.7-.2-1.9.8-2.2.9-.3 1.6 0 2.3.7.1.1.1.2 0 .3-.2.2-.5.4-.7.6l-.4-.4c-.2-.2-.4-.2-.6-.2s-.3.1-.4.3 0 .3.1.4c.3.3.6.5.9.8.2.2.4.4.7.6.3.3.6.7.7 1.2.1.3.1.4.1.6zm-10.8.2c.4-.2.7-.4 1-.6.1.1.2.2.2.3.1.2.2.3.4.4.4.2.9.1 1.1-.3.1-.1.1-.3 0-.4-.1-.1-.2-.3-.4-.4-.2-.1-.3-.3-.5-.4-.5-.5-1.1-.9-1.4-1.5-.4-.8.1-1.8.9-2s1.5-.1 2.1.5c.1.1.2.2.4.3-.3.3-.6.5-.8.7-.2-.1-.2-.2-.3-.3-.2-.2-.4-.3-.7-.3-.2 0-.4.1-.4.3-.1.2 0 .3.1.5l.7.7c.3.3.7.5.9.8.5.5.7 1.1.4 1.8-.2.6-.7 1-1.3 1.1-.5.1-.9.1-1.4-.1-.4-.2-.7-.5-.9-.8 0-.1 0-.2-.1-.3zm19.3 1.2v-2.6s-1.5-3-1.8-3.5H77l1.2 2s.8-1.6 1.1-2.1c0-.1.9 0 1.3 0-.2.4-1.7 3.3-1.7 3.3v2.9h-1.4zm-22.2-.1v-4.8h-1.1v-1.2h3.4v1.2h-1.1v4.8h-1.2z"/><path class="st0" d="M44.1 45.9c.7 0 1.3 0 1.9.1.9.2 1.4.8 1.7 1.6s.3 1.7 0 2.5c-.3.9-.9 1.4-1.9 1.5-.6.1-1.1 0-1.7 0v-5.7zm42.7 1.9v-1.9H88c.6.1 1 .7.7 1.3-.1.3-.3.4-.6.5-.4.1-.8.1-1.3.1zM51.7 59.7c1.1 0 2 .9 2 2s-.8 2.1-1.9 2.1-2-.9-2-2c-.1-1.2.8-2.1 1.9-2.1z"/><path d="M72.7 33.7l.8 2h-1.6l.8-2z" fill="#13436a"/><path class="st1" d="M55 15.9c.4.9.8 1.7 1.1 2.6.9.1 1.9.2 2.8.3-.7.6-1.4 1.3-2.1 1.9.2.9.4 1.9.6 2.8-.8-.5-1.6-1-2.5-1.4-.8.5-1.6 1-2.4 1.4.2-.9.4-1.8.6-2.8-.7-.6-1.4-1.3-2.1-1.9.9-.1 1.9-.2 2.8-.3.4-.9.8-1.8 1.2-2.6z"/><g id="clutch_2_"><path class="st2" d="M15.6 90.9l-.1-.2c-5.7-6.3-9.8-13.9-12-22l-.2-.6h103.3l-.2.6c-2.2 8.1-6.3 15.8-12 22l-.1.2H15.6z"/><path class="st0" d="M106 68.6c-2.2 8.2-6.3 15.7-11.9 21.8H15.8c-5.6-6.1-9.7-13.6-11.9-21.8H106m1.3-1H2.7l.3 1.3c2.2 8.2 6.4 15.9 12.1 22.2l.3.3h79.1l.3-.3c5.7-6.3 9.9-14 12.1-22.2l.4-1.3z"/><path class="st0" d="M38.2 74.6c-.7.7-1.3 1.3-1.9 2l-.4-.4c-.8-.8-1.6-1.4-2.7-1.7-3.2-.9-5.5 1.1-6.2 3.5-.4 1.3-.3 2.7.2 4 .8 2 2.5 3.2 4.7 3.2 1.2 0 2.3-.4 3.2-1.2.3-.3.6-.5.9-.8.1-.1.1-.2.2-.2.6.7 1.2 1.4 1.9 2.1-1.4 1.6-3 2.8-5.2 3-1.3.1-2.7.1-3.9-.4-1.8-.7-3.1-1.9-4-3.6-1.4-2.7-1.4-5.6-.2-8.3 1.2-2.5 3.2-4 5.9-4.3 2.7-.4 5.1.6 7 2.6.2.1.3.3.5.5zM86 87.8h-2.6c-.1-.1 0-.3 0-.4V82c0-.7 0-1.5-.2-2.2-.2-.8-.7-1.3-1.4-1.4-.8-.1-1.4.2-1.9.7-.5.7-.7 1.5-.8 2.3v6.3h-2.7V70.6h2.7v6.5c.2-.2.4-.3.6-.5.8-.6 1.6-1 2.6-1 1.7 0 3.2 1.1 3.5 2.8.1.4.2.8.1 1.3v7.8c.1.1.1.2.1.3zM45.1 76H48c.1.1 0 .3 0 .4v5.3c0 .6 0 1.3.1 1.9.3 1.5 1.7 2.2 3 1.5.8-.4 1.1-1 1.1-1.8.1-.6.1-1.2.1-1.8v-5.4c.1-.1.1-.1.2-.1H55c.2 0 .3.1.3.3v11.8h-2.4c-.1-.2 0-.4-.1-.5-.1 0-.2.1-.3.1-1.5.6-3 .6-4.5.1s-2.3-1.7-2.6-3.2c-.2-.8-.2-1.6-.3-2.4V76z"/><circle cx="69.9" cy="81.9" r="2.2" fill="#50ba99"/><path class="st0" d="M74.9 78.5c-.7.4-1.5.9-2.2 1.3l-.6-.6c-.7-.6-1.5-.7-2.4-.7-2 .1-3.3 1.7-3.2 3.7 0 .9.3 1.6.9 2.3.8.8 1.8 1 2.8.9.9-.1 1.7-.5 2.2-1.2l.1-.1c.7.5 1.4 1.1 2.2 1.6-.6.8-1.3 1.5-2.2 1.9-1 .5-2 .6-3.1.6s-2.2-.3-3.1-.9c-1.5-1-2.3-2.5-2.6-4.3-.2-1.3 0-2.6.6-3.8 1-1.9 2.5-3 4.6-3.3 1.6-.2 3 .1 4.3 1 .6.4 1 .9 1.4 1.4.3 0 .3.1.3.2zm-13.6 0v9.2h-2.7v-9.2h-1.9v-2h1.9v-4.3h2.7v4.3h2.2v2h-2.2zm-18.6 9.6H40V70.6h2.7v17.5z"/></g><path class="st2" d="M49.3 38c.1 0 .1-.1.1-.2v-3.1c0-.1-.1-.2.1-.3.2.1.3.3.4.5.7 1.1 1.4 2.1 2.1 3.1h1.2v-5.9h-1.4v3.3s0 .4-.1.3c-.1-.1-.5-.7-.7-1-.5-.9-1.1-1.7-1.6-2.5 0-.1 0-.2-.2-.2h-1v6h1.1zm-7.5-5.9h-1.1v6h1.1v-6zM39.5 37h-1.6v-4.9h-1.1v6h2.7V37zm5.2-1.2v-.5h2.2v-1.1h-2.2v-1h2.2v-1.1h-3.3v6H45c.7 0 1.3.1 1.9 0V37h-2.2v-1.2z"/></svg>