<svg width="140" height="58" fill="none" xmlns="http://www.w3.org/2000/svg"><path fill-rule="evenodd" clip-rule="evenodd" d="M139.44 28.42c-.28-.14-.7-.28-1.12-.28-.42-.14-.7-.14-1.12-.14h-.7c-.14 0-.42.14-.56.28-.14.14-.42.28-.56.42l-.56.56v11.48h-4.62V24.78h4.06l.42 2.52c.14-.14.28-.42.42-.7.14-.28.42-.56.56-.7.14-.28.42-.42.56-.7.28-.28.42-.42.7-.42.42-.14.84-.28 1.4-.28H140l-.56 3.92zM126 38.5c.42 0 .84-.14 1.54-.28v1.12c-.28.28-.56.42-.84.7-.28.28-.7.42-1.12.56-.42.14-.7.28-1.12.42-.42.14-.84.14-1.12.14-.42 0-.84 0-1.12-.14-.28-.14-.56-.28-.7-.42-.28-.14-.42-.42-.56-.7-.14-.28-.28-.42-.42-.7-.42.28-.7.56-1.12.84-.42.28-.7.42-1.12.7-.42.14-.84.42-1.26.42-.42.14-.98.14-1.54.14-1.26 0-2.24-.42-2.94-1.12-.7-.84-1.12-1.96-1.12-3.5 0-.84.14-1.54.28-2.24.28-.56.56-1.12.98-1.54.42-.42 1.12-.7 1.82-.98s1.68-.28 2.8-.42l2.8-.14v-2.38c0-.56-.14-1.12-.56-1.4-.28-.28-.98-.42-1.68-.42-.56 0-1.26.14-1.96.14-.7.14-1.54.42-2.38.7l-.56-1.68c.56-.28 1.12-.42 1.68-.7.56-.28 1.26-.42 1.82-.56.56-.14 1.26-.28 1.82-.42.7-.14 1.26-.14 1.96-.14s1.4 0 1.96.14.98.42 1.4.7c.42.28.7.7.84 1.26s.28 1.12.28 1.96v7.42c0 1.68.42 2.52 1.26 2.52zm-5.6-.84v-5.04c-1.12 0-1.96 0-2.52.14s-.98.28-1.12.42c-.14.14-.14.14-.14.42 0 .14-.14.42-.14.7v1.4c0 .7.14 1.26.28 1.82.14.42.56.7.98.7.56 0 .98 0 1.4-.14.28 0 .84-.14 1.26-.42zM98 40.88h-4.62V14.56l4.62-.98v27.3zM64.26 27.02l-1.68-.56v-.98l4.9-3.5h1.26v2.8h4.9l-.14 1.82c-.42.14-.84.14-1.4.14-.56 0-.98.14-1.54.14s-1.12.14-1.82.14v8.96c0 .56.14 1.12.28 1.4.28.42.7.56 1.26.56h.7c.28 0 .56 0 .98-.14.28 0 .7-.14.98-.14s.56-.14.7-.14v1.26c-.42.28-.84.56-1.4.7-.56.28-.98.42-1.54.7-.56.14-1.12.42-1.68.42-.56.14-1.12.14-1.68.14-.42 0-.84 0-1.12-.14-.42-.14-.7-.28-.98-.42-.28-.28-.56-.56-.7-.98-.14-.42-.28-.98-.28-1.68v-10.5zm-3.78 8.54c0 .84-.14 1.68-.56 2.24-.42.56-.84 1.12-1.26 1.54-.28.28-.56.42-.84.7-.28.28-.56.42-.98.56l-1.26.42c-.42.14-.98.14-1.68.14-1.12 0-2.1-.14-3.08-.42-.98-.28-1.82-.56-2.66-1.12l1.12-2.94c.28.14.7.42 1.12.7.42.28.84.56 1.26.7.42.28.84.42 1.4.56.42.14.98.28 1.54.28.28 0 .7 0 .98-.14.28 0 .56-.14.7-.28.14-.14.28-.28.42-.7.14-.28.14-.7.14-1.12 0-.56-.14-.98-.56-1.26-.42-.28-.84-.56-1.54-.84-.56-.28-1.26-.42-1.96-.7-.7-.28-1.26-.56-1.96-.84-.56-.42-1.12-.84-1.54-1.4-.42-.56-.56-1.4-.56-2.24 0-.56.14-1.26.56-1.82.42-.56.84-1.12 1.26-1.54.56-.56 1.12-.84 1.82-1.12.7-.28 1.4-.42 2.38-.42.7 0 1.54 0 2.38.14.84.14 1.68.14 2.38.28L59.08 28c-.42-.14-.7-.28-1.26-.42-.42-.14-.84-.28-1.26-.28-.42-.14-.84-.14-1.26-.28-.42 0-.7-.14-1.12-.14h-.84c-.28 0-.42.14-.56.14-.14.14-.14.28-.28.42 0 .28-.14.42-.14.7 0 .56.14.84.56 1.12.42.28.84.56 1.54.7.56.28 1.26.42 1.96.7.7.28 1.26.56 1.96.84.56.42 1.12.84 1.54 1.4.42.98.56 1.68.56 2.66z" fill="#fff"/><path d="M44.8 24.78h-4.62v16.1h4.62v-16.1z" fill="#fff"/><path fill-rule="evenodd" clip-rule="evenodd" d="M33.6 27.16c0-.42 0-.7-.14-1.12 0-.42-.14-.7-.14-.84l3.36-.56c.14.28.14.56.14.84v.98c0 1.26-.14 2.52-.42 3.64-.28 1.12-.7 2.38-1.12 3.5-.42 1.26-.98 2.38-1.68 3.64-.7 1.26-1.4 2.38-2.1 3.78h-3.36c-.14-.84-.42-1.68-.56-2.52-.14-.84-.42-1.54-.56-2.38-.28-.84-.42-1.54-.7-2.38-.28-.84-.56-1.54-.84-2.38h-.14c-.14.7-.42 1.54-.7 2.38-.28.84-.56 1.82-.98 2.66-.28.84-.7 1.68-.98 2.52-.42.84-.7 1.54-.98 2.1h-3.5c-.42-1.54-.7-2.94-1.12-4.48-.42-1.54-.84-2.94-1.12-4.2-.42-1.26-.7-2.38-.98-3.22-.28-.98-.56-1.54-.84-1.82-.14-.28-.42-.42-.56-.56-.28-.14-.42-.14-.7-.14h-.42l.14-1.68c.42-.14.84-.14 1.54-.28.56-.14 1.26-.14 1.82-.14.42 0 .84 0 1.26.14.28.14.56.28.84.56.28.28.56 1.12.84 1.96.28.84.56 1.82.98 2.94l.84 3.36c.28 1.12.56 2.24.7 3.08h.14c.42-.98.7-1.82.98-2.66l.84-2.52c.28-.84.56-1.68.7-2.52.28-.84.42-1.68.56-2.66l3.08-.56c.56 1.4 1.12 3.08 1.68 4.9.7 2.24 1.12 3.92 1.82 6.16h.14c.42-.84.84-1.68 1.12-2.52.28-.84.56-1.68.7-2.38.14-.84.28-1.54.28-2.24.14-.98.14-1.68.14-2.38zm-31.92-.14L0 26.46v-.98l4.9-3.5h1.26v2.8h4.9l-.14 1.82c-.42.14-.84.14-1.4.14-.56 0-.98.14-1.54.14s-1.12.14-1.82.14v8.96c0 .56.14 1.12.28 1.4.28.42.7.56 1.26.56h.7c.28 0 .56 0 .98-.14.28 0 .7-.14.98-.14.42.14.7.14.84.14v1.26c-.42.28-.84.56-1.4.7-.56.28-.98.42-1.54.7-.56.14-1.12.42-1.68.42-.56.14-1.12.14-1.68.14-.42 0-.84 0-1.12-.14-.42-.14-.7-.28-.98-.42-.28-.28-.56-.56-.7-.98-.14-.42-.28-.98-.28-1.68V27.02h-.14z" fill="#fff"/><path fill-rule="evenodd" clip-rule="evenodd" d="M112.84 10.36l-.7 1.12c-6.72 11.34-15.68 23.24-24.22 26.88-1.54.7-4.48 2.1-6.72 0 7.98-2.94 14.42-11.2 9.8-16.1-.7-.7-2.38-1.54-3.78-1.54-3.36 0-6.16 1.26-8.4 3.78-2.38 2.52-3.5 5.6-3.5 9.24 0 1.54.28 2.94.84 4.2l-1.4.56.28 2.1 2.38-.84c.42.42.84.84 1.4 1.12.7.42 1.12.56 1.68.7.7.14 1.54.28 2.24.28 11.76 0 23.66-16.52 31.78-30.8.28-.42.42-.7.56-1.12l-2.24.42zM79.8 36.54c-1.12-2.66-.56-7 1.26-9.94 3.78-5.88 13.44-3.5 6.16 4.76-1.82 2.24-4.48 4.2-7.42 5.18z" fill="#0BE"/><path fill-rule="evenodd" clip-rule="evenodd" d="M107.52 40.88h-4.62V14.56l4.62-.98v27.3z" fill="#fff"/><path d="M116.76 7.28l-.84-2.66-2.66-.84 2.66-.84.84-2.94.84 2.66 2.8.98-2.8.84-.84 2.8zM42.42 22.12l-.84-2.66-2.66-.84 2.66-.84.84-2.66.84 2.66 2.66.84-2.52.84-.98 2.66z" fill="#0BE"/></svg>