<svg xmlns="http://www.w3.org/2000/svg" id="BJcJ7lB3M" x="0" y="0" viewBox="0 0 127 126" xml:space="preserve"><style>@-webkit-keyframes Hy9gc1mgB3f_BJrCVgS2z_Animation{0%,83.33%{-webkit-transform:scale(1,1);transform:scale(1,1)}92.22%{-webkit-transform:scale(1.4,1.4);transform:scale(1.4,1.4)}}@keyframes Hy9gc1mgB3f_BJrCVgS2z_Animation{0%,83.33%{-webkit-transform:scale(1,1);transform:scale(1,1)}92.22%{-webkit-transform:scale(1.4,1.4);transform:scale(1.4,1.4)}}@-webkit-keyframes SyuG51QlSnM_rkT54eH2G_Animation{0%,50%,66.67%{-webkit-transform:scale(1,1);transform:scale(1,1)}57.78%{-webkit-transform:scale(1.1,1.1);transform:scale(1.1,1.1)}}@keyframes SyuG51QlSnM_rkT54eH2G_Animation{0%,50%,66.67%{-webkit-transform:scale(1,1);transform:scale(1,1)}57.78%{-webkit-transform:scale(1.1,1.1);transform:scale(1.1,1.1)}}@-webkit-keyframes ry8G517lS2z_HJq8VlSnz_Animation{0%,50%,66.67%{-webkit-transform:scale(1,1);transform:scale(1,1)}57.78%{-webkit-transform:scale(1.1,1.1);transform:scale(1.1,1.1)}}@keyframes ry8G517lS2z_HJq8VlSnz_Animation{0%,50%,66.67%{-webkit-transform:scale(1,1);transform:scale(1,1)}57.78%{-webkit-transform:scale(1.1,1.1);transform:scale(1.1,1.1)}}@-webkit-keyframes r1oe9ymlBhG_r1E5QgBhf_Animation{0%,33.33%,50%{-webkit-transform:scale(1,1);transform:scale(1,1)}41.11%{-webkit-transform:scale(1.3,1.3);transform:scale(1.3,1.3)}}@keyframes r1oe9ymlBhG_r1E5QgBhf_Animation{0%,33.33%,50%{-webkit-transform:scale(1,1);transform:scale(1,1)}41.11%{-webkit-transform:scale(1.3,1.3);transform:scale(1.3,1.3)}}@-webkit-keyframes HJNMqyXeB2M_Hy4vQgrhM_Animation{0%,16.67%,33.33%{-webkit-transform:scale(1,1);transform:scale(1,1)}24.44%{-webkit-transform:scale(1.2,1.2);transform:scale(1.2,1.2)}}@keyframes HJNMqyXeB2M_Hy4vQgrhM_Animation{0%,16.67%,33.33%{-webkit-transform:scale(1,1);transform:scale(1,1)}24.44%{-webkit-transform:scale(1.2,1.2);transform:scale(1.2,1.2)}}#BJcJ7lB3M *{-webkit-animation-duration:3s;animation-duration:3s;animation-iteration-count:infinite;-webkit-animation-timing-function:cubic-bezier(0,0,1,1);animation-timing-function:cubic-bezier(0,0,1,1)}</style><circle cx="30.1" cy="3.9" r="1.6" fill="#cdcdcd"/><circle cx="123.9" cy="94.7" r="1.6" fill="#cdcdcd"/><circle cx="123.9" cy="63.9" r="1.6" fill="#cdcdcd"/><circle cx="123.9" cy="33.2" r="1.6" fill="#cdcdcd"/><path d="M123.9 67.8l-1.2-2.7-2.7-1.2 2.7-1.2 1.2-2.7 1.2 2.7 2.7 1.2-2.7 1.2-1.2 2.7zm0-60l-1.2-2.7-2.7-1.2 2.7-1.2 1.2-2.7 1.2 2.7 2.7 1.2-2.7 1.2-1.2 2.7zM34 3.9l-2.7 1.2-1.2 2.7-1.2-2.7-2.7-1.2 2.7-1.2L30.1 0l1.2 2.7L34 3.9z" fill="#01acdb"/><circle cx="62.4" cy="3.9" r="1.6" fill="#cdcdcd"/><circle cx="94.4" cy="3.9" r="1.6" fill="#cdcdcd"/><circle cx="62.4" cy="3.9" r="1.6" fill="#cdcdcd"/><circle cx="94.4" cy="32.1" r="1.6" fill="#cdcdcd"/><circle cx="30.1" cy="33.2" r="1.6" fill="#cdcdcd"/><circle cx="30.1" cy="122.3" r="1.6" fill="#cdcdcd"/><g id="B1p9yXxr3M"><circle cx="3.9" cy="94.7" r="1.6" fill="#cdcdcd"/><circle cx="3.8" cy="3.9" r="1.6" fill="#cdcdcd"/><circle cx="3.9" cy="63.9" r="1.6" fill="#cdcdcd"/><circle cx="3.9" cy="33.2" r="1.6" fill="#cdcdcd"/><path d="M3.9 67.8l-1.2-2.7L0 63.9l2.7-1.2L3.9 60l1.2 2.7 2.7 1.2-2.7 1.2-1.2 2.7z" fill="#01acdb"/><circle cx="3.8" cy="122.3" r="1.6" fill="#cdcdcd"/></g><path d="M34 122.3l-2.7 1.2-1.2 2.7-1.2-2.7-2.7-1.2 2.7-1.2 1.2-2.7 1.2 2.7 2.7 1.2z" fill="#01acdb"/><circle cx="62.4" cy="122.3" r="1.6" fill="#cdcdcd"/><circle cx="30.1" cy="95.6" r="1.6" fill="#cdcdcd"/><circle cx="94.4" cy="122.3" r="1.6" fill="#cdcdcd"/><circle cx="123.9" cy="122.3" r="1.6" fill="#cdcdcd"/><path fill="#01acdb" d="M99.4 96.3l-3.8 1.1-1.2 3.9-1.2-3.9-3.8-1.1 3.8-1.1 1.2-3.9 1.2 3.9 3.8 1.1" data-animator-group="true" data-animator-type="2" id="S1YxqkQxSnM"/><path d="M41.4 49.4c-1.6-1.7-3.8-2.6-6.2-2.6-2.3 0-4.5.9-6.2 2.6-3.2 3.3-3.4 8.5-.5 11.9l-6.1 6.1c-.3.3-.3.8 0 1.1.2.1.4.2.6.2s.4 0 .5-.2l6.1-6.1c1.5 1.3 3.5 2.1 5.6 2.1 2.4 0 4.6-.9 6.2-2.6 3.4-3.5 3.4-9.1 0-12.5zm-1 11.4c-1.4 1.3-3.2 2.1-5.1 2.1-1.9 0-3.7-.7-5.1-2.1-2.8-2.8-2.8-7.4 0-10.2 1.4-1.3 3.2-2.1 5.1-2.1 1.9 0 3.7.7 5.1 2.1 2.8 2.8 2.8 7.4 0 10.2z" fill="#01acdb" data-animator-group="true" data-animator-type="2"/><path fill="#01acdb" d="M64 93.8h1.3v1.5H64zm-3.3 0H62v1.5h-1.3zm-3.3 0h1.3v1.5h-1.3zm-3.3 0h1.3v1.5h-1.3zm-3.3 0h1.3v1.5h-1.3zm-3.3 0h1.3v1.5h-1.3zm-3.3 0h1.3v1.5h-1.3zm23.7-2.9h1.5v1.3h-1.5zm0-3.3h1.5v1.3h-1.5zm0-3.3h1.5v1.3h-1.5zm-27.7 6.6h1.5v1.3h-1.5zm0-3.3h1.5v1.3h-1.5zm0-3.3h1.5v1.3h-1.5zm0-3.3h1.5v1.3h-1.5zm0-3.3h1.5V79h-1.5zm0-3.3h1.5v1.3h-1.5zm0-3.3h1.5v1.3h-1.5zm1.7 24.3c-.8 0-1.5-.5-1.7-1.2l1.4-.4c0 .1.1.2.3.2v1.4zm27.3-1.3c-.2.8-.9 1.3-1.7 1.3v-1.5c.1 0 .2-.1.2-.2l1.5.4zM44.1 68.4h1.3v1.5h-1.3zm3.3 0h1.3v1.5h-1.3zm3.3 0H52v1.5h-1.3zm-10.5 1.2c.2-.8.9-1.3 1.7-1.3v1.5c-.1 0-.2.1-.2.2l-1.5-.4zm18.6 11.8c.5.3.5.9 0 1.2l-3.5 2-3.5 2c-.5.3-1.1-.1-1.1-.6v-8.2c0-.5.6-.9 1.1-.6l3.5 2 3.5 2.2z"/><path d="M50.2 24.2v10.9c-.5-.3-1.1-.5-1.7-.5-1.8 0-3.3 1.5-3.3 3.3s1.5 3.3 3.3 3.3 3.3-1.5 3.3-3.3v-8l9-1.6v5.4c-.5-.3-1.1-.5-1.7-.5-1.8 0-3.3 1.5-3.3 3.3s1.5 3.3 3.3 3.3c1.6 0 2.9-1.1 3.2-2.6 0-.1.1-.2.1-.3v-15l-12.2 2.3zm-1.7 15.4c-.9 0-1.7-.8-1.7-1.7 0-.9.8-1.7 1.7-1.7s1.7.8 1.7 1.7c0 .9-.8 1.7-1.7 1.7zm3.3-11.3v-2.8l9-1.7v2.9l-9 1.6zm7.3 9.9c-.9 0-1.7-.8-1.7-1.7 0-.9.8-1.7 1.7-1.7 1 0 1.7.8 1.7 1.7 0 .9-.8 1.7-1.7 1.7z" fill="#01acdb" data-animator-group="true" data-animator-type="2"/><g id="SkSGcymlBhM" fill="#01acdb"><path d="M100.5 70.3V45.1H61.3v33.8h39.2v-8.6zm-1.6-23.6v21.8l-8.6-8.3c-.5-.4-1.3-.4-1.8.1L78.1 70.7l-5.3-5.9c-.5-.5-1.3-.5-1.8 0l-8.1 8V46.7h36zm-36 30.6V75l9-8.8 5.2 5.8c.2.2.5.4.9.4s.7-.1 1-.4l10.4-10.4 9.5 9.1v6.6h-36z" data-animator-group="true" data-animator-type="2"/><path d="M54 68.4h1.3v1.5H54z"/><path d="M75.6 61.1c1.4 0 2.8-.5 3.7-1.5 1-1 1.6-2.4 1.6-3.8 0-1.5-.6-2.8-1.6-3.8-2.1-2.1-5.4-2.1-7.5 0-2.1 2.1-2.1 5.4 0 7.5 1 1 2.4 1.6 3.8 1.6zM73 53.3c1.4-1.4 3.8-1.4 5.2 0 .7.7 1.1 1.6 1.1 2.6s-.4 1.9-1.1 2.6c-1.4 1.4-3.8 1.4-5.2 0-1.5-1.5-1.5-3.8 0-5.2z" data-animator-group="true" data-animator-type="2"/></g></svg>