<svg xmlns="http://www.w3.org/2000/svg" id="BybFYlS3G" x="0" y="0" viewBox="0 0 127 126" xml:space="preserve"><style>@-webkit-keyframes ryt-ttxr3M_B1sfhgB2z_Animation{0%,83.33%,98.89%{-webkit-transform:scale(1,1);transform:scale(1,1)}91.11%{-webkit-transform:scale(1.2,1.2);transform:scale(1.2,1.2)}}@keyframes ryt-ttxr3M_B1sfhgB2z_Animation{0%,83.33%,98.89%{-webkit-transform:scale(1,1);transform:scale(1,1)}91.11%{-webkit-transform:scale(1.2,1.2);transform:scale(1.2,1.2)}}@-webkit-keyframes rJ-lZYKxShG_Animation{0%,66.67%,83.33%{opacity:0}74.44%{opacity:1}}@keyframes rJ-lZYKxShG_Animation{0%,66.67%,83.33%{opacity:0}74.44%{opacity:1}}@-webkit-keyframes rJ-lZYKxShG_r1WMjgB3G_Animation{0%,66.67%,83.33%{-webkit-transform:scale(0,0);transform:scale(0,0)}74.44%{-webkit-transform:scale(1,1);transform:scale(1,1)}}@keyframes rJ-lZYKxShG_r1WMjgB3G_Animation{0%,66.67%,83.33%{-webkit-transform:scale(0,0);transform:scale(0,0)}74.44%{-webkit-transform:scale(1,1);transform:scale(1,1)}}@-webkit-keyframes SkNxbtYlB2M_r1WeoeShM_Animation{0%,50%,66.67%{-webkit-transform:scale(1,1);transform:scale(1,1)}57.78%{-webkit-transform:scale(1.4,1.4);transform:scale(1.4,1.4)}}@keyframes SkNxbtYlB2M_r1WeoeShM_Animation{0%,50%,66.67%{-webkit-transform:scale(1,1);transform:scale(1,1)}57.78%{-webkit-transform:scale(1.4,1.4);transform:scale(1.4,1.4)}}@-webkit-keyframes HJuxWYFgShz_Syf29lrhf_Animation{0%,16.67%,33.33%{-webkit-transform:scale(1,1);transform:scale(1,1)}24.44%{-webkit-transform:scale(1.3,1.3);transform:scale(1.3,1.3)}}@keyframes HJuxWYFgShz_Syf29lrhf_Animation{0%,16.67%,33.33%{-webkit-transform:scale(1,1);transform:scale(1,1)}24.44%{-webkit-transform:scale(1.3,1.3);transform:scale(1.3,1.3)}}@-webkit-keyframes B18x-YtgH2f_HyJd5xBhM_Animation{0%,33.33%,50%{-webkit-transform:scale(0,0);transform:scale(0,0)}41.11%{-webkit-transform:scale(1,1);transform:scale(1,1)}}@keyframes B18x-YtgH2f_HyJd5xBhM_Animation{0%,33.33%,50%{-webkit-transform:scale(0,0);transform:scale(0,0)}41.11%{-webkit-transform:scale(1,1);transform:scale(1,1)}}#BybFYlS3G *{-webkit-animation-duration:3s;animation-duration:3s;animation-iteration-count:infinite;-webkit-animation-timing-function:cubic-bezier(0,0,1,1);animation-timing-function:cubic-bezier(0,0,1,1)}</style><circle cx="32.4" cy="3.9" r="1.6" fill="#cdcdcd"/><circle cx="32.4" cy="32.8" r="1.6" fill="#cdcdcd"/><circle cx="1.7" cy="94.6" r="1.6" fill="#cdcdcd"/><circle cx="126.2" cy="94.6" r="1.6" fill="#cdcdcd"/><circle cx="1.6" cy="3.9" r="1.6" fill="#cdcdcd"/><circle cx="1.7" cy="63.9" r="1.6" fill="#cdcdcd"/><circle cx="126.2" cy="63.9" r="1.6" fill="#cdcdcd"/><circle cx="1.7" cy="33.2" r="1.6" fill="#cdcdcd"/><circle cx="126.2" cy="33.2" r="1.6" fill="#cdcdcd"/><circle cx="64.7" cy="3.9" r="1.6" fill="#01acdb" data-animator-group="true" data-animator-type="2"/><circle cx="96.7" cy="3.9" r="1.6" fill="#cdcdcd"/><circle cx="126.2" cy="3.9" r="1.6" fill="#cdcdcd"/><circle cx="32.4" cy="122.3" r="1.6" fill="#cdcdcd"/><circle cx="1.6" cy="122.3" r="1.6" fill="#cdcdcd"/><circle cx="64.6" cy="122.3" r="1.6" fill="#cdcdcd"/><circle cx="96.7" cy="122.3" r="1.6" fill="#cdcdcd"/><circle cx="126.2" cy="122.3" r="1.6" fill="#cdcdcd"/><path d="M68.6 122.3l-2.7 1.2-1.2 2.7-1.2-2.7-2.7-1.2 2.7-1.2 1.2-2.7 1.2 2.7 2.7 1.2z" fill="#01acdb"/><path fill="#01acdb" d="M101.2 33l-3.8 1.1-1.2 3.9-1.2-3.9-3.8-1.1 3.8-1.1 1.2-3.9 1.2 3.9 3.8 1.1" data-animator-group="true" data-animator-type="2" id="S17xbtKeH2f"/><path fill="#01acdb" d="M37.4 33l-3.8 1.1-1.2 3.9-1.2-3.9-3.8-1.1 3.8-1.1 1.2-3.9 1.2 3.9 3.8 1.1" transform="scale(0)" data-animator-group="true" data-animator-type="2" id="SyrlbFYeHnM"/><path fill="#01acdb" d="M44.3 80.4l7.3-2.2 2.3-7.4 2.3 7.4 7.3 2.2-7.3 2.2-2.3 7.4-2.3-7.4-7.3-2.2" data-animator-group="true" data-animator-type="2" id="SJDe-FtgB3M"/><circle cx="40.8" cy="62.5" r="2.5" fill="#01acdb" id="SytlWFFlBhz"/><circle cx="67.6" cy="62.5" r="2.5" fill="#01acdb" id="BkigbttxH3M"/><path fill="#01acdb" d="M39.7 57.4h1.5v1.3h-1.5z" id="rkpg-KKxShz"/><path fill="#01acdb" d="M67.1 57.4h1.5v1.3h-1.5z" id="SyJWZFFeS2G"/><path fill="#01acdb" d="M67.1 51.8h1.5v1.3h-1.5z" id="Hkb--tKgS2z"/><path fill="#01acdb" d="M39.7 51.2h1.5v1.3h-1.5z" id="Sy7-WFKlShz"/><path fill="#01acdb" d="M67.1 48.5h1.5v1.3h-1.5z" id="rySWWFterhf"/><path fill="#01acdb" d="M39.7 47.9h1.5v1.3h-1.5z" id="HkPbWtFeSnG"/><path d="M67.1 46.5c0-.4-.1-.8-.1-1.2l1.5-.2c.1.4.1.9.1 1.4h-1.5z" fill="#01acdb" id="S1tZZFYgB2M"/><path d="M41.3 46l-1.5-.2c0-.5.1-.9.2-1.4l1.5.3c-.1.5-.2.9-.2 1.3z" fill="#01acdb" id="ryj-WYFeShz"/><path d="M66.6 43.5c-.1-.4-.3-.8-.4-1.2l1.4-.6c.2.4.3.9.5 1.3l-1.5.5z" fill="#01acdb" id="rk6WbYteShf"/><path d="M41.9 43l-1.4-.5c.2-.4.3-.9.5-1.3l1.4.6c-.2.4-.3.8-.5 1.2z" fill="#01acdb" id="rk1zbYYxr2z"/><path d="M65.3 40.6c-.2-.4-.4-.7-.7-1l1.2-.9c.3.4.5.7.8 1.1l-1.3.8z" fill="#01acdb" id="SkWfWFYeShM"/><path d="M43.3 40.2l-1.2-.8c.3-.4.5-.8.8-1.1l1.2.9c-.3.3-.5.6-.8 1z" fill="#01acdb" id="rJmfZYKgr2G"/><path d="M63.4 38.2c-.3-.3-.6-.6-.9-.8l1-1.1c.4.3.7.6 1 .9l-1.1 1z" fill="#01acdb" id="ryBfbFFlrhz"/><path d="M45.4 37.8l-1-1.1c.3-.3.7-.6 1-.9l.9 1.2c-.3.3-.6.5-.9.8z" fill="#01acdb" id="rJvfWttgB2z"/><path d="M60.9 36.3c-.3-.2-.7-.4-1.1-.6l.7-1.3c.4.2.8.4 1.2.7l-.8 1.2z" fill="#01acdb" id="HyYzWtKgHhf"/><path d="M47.9 36l-.7-1.3 1.2-.6.6 1.4c-.4.1-.8.3-1.1.5z" fill="#01acdb" id="Skif-FKxS3G"/><path d="M58.1 35l-1.2-.3.3-1.5c.4.1.9.2 1.3.4l-.4 1.4z" fill="#01acdb" id="S1pMZFYlS3M"/><path d="M50.7 34.8l-.4-1.4c.4-.1.9-.2 1.3-.3l.3 1.5c-.4 0-.8.1-1.2.2z" fill="#01acdb" id="r11X-FFgBnz"/><path d="M55.1 34.4h-1.2v-1.5h1.4l-.2 1.5z" fill="#01acdb" id="SyZQWtYxH3G"/><g id="S1QX-YtxH2G" fill="#01acdb"><path d="M84.3 51.8h1.5v1.3h-1.5z" id="HkN7btteH3z"/><path d="M56.9 51.2h1.5v1.3h-1.5z" id="Sk8XbKKlBhz"/><path d="M84.3 48.5h1.5v1.3h-1.5z" id="BkOmWtKeB2z"/><path d="M56.9 47.9h1.5v1.3h-1.5z" id="HJ5m-tYxr2G"/><path d="M84.3 46.5c0-.4-.1-.8-.1-1.2l1.5-.2c.1.4.1.9.1 1.4h-1.5z" id="Hk2m-FtgrnG"/><path d="M58.5 46l-1.5-.2c0-.5.1-.9.2-1.4l1.5.3c-.1.5-.2.9-.2 1.3z" id="ByAQWtteH2z"/><path d="M83.8 43.5c-.1-.4-.3-.8-.4-1.2l1.4-.6c.2.4.3.9.5 1.3l-1.5.5z" id="BJeNZFYlrhG"/><path d="M59.1 43l-1.4-.5c.2-.4.3-.9.5-1.3l1.4.6c-.2.4-.3.8-.5 1.2z" id="B1f4ZFtxS2z"/><path d="M82.5 40.6c-.2-.4-.4-.7-.7-1l1.2-.9c.3.4.5.7.8 1.1l-1.3.8z" id="ryE4ZYFxS2f"/><path d="M60.5 40.2l-1.2-.8c.3-.4.5-.8.8-1.1l1.2.9c-.3.3-.5.6-.8 1z" id="Sk84ZtYxr3z"/><path d="M80.6 38.2c-.3-.3-.6-.6-.9-.8l1-1.1c.4.3.7.6 1 .9l-1.1 1z" id="SkONbKKlrnf"/><path d="M78.1 36.3c-.3-.2-.7-.4-1.1-.6l.7-1.3c.4.2.8.4 1.2.7l-.8 1.2z" id="Sy54ZKKlS2M"/><path d="M65.1 36l-.7-1.3 1.2-.6.6 1.4c-.4.1-.8.3-1.1.5z" id="H13NWKtlB3f"/><path d="M75.3 35l-1.2-.3.3-1.5c.4.1.9.2 1.3.4l-.4 1.4z" id="Hy0NbtFlShM"/><path d="M67.9 34.8l-.4-1.4c.4-.1.9-.2 1.3-.3l.3 1.5c-.4 0-.8.1-1.2.2z" id="rygrWtYlS2M"/><path d="M72.3 34.4h-1.2v-1.5h1.4l-.2 1.5z" id="H1fSWtYeBnf"/></g><path d="M78.9 93.6c-.4 0-.8-.4-.8-.8V54.9c0-.4.4-.8.8-.8s.8.4.8.8v37.9c0 .4-.3.8-.8.8z" fill="#01acdb" id="S1ESbFtgB3z"/><path d="M88.2 101.5c-.4 0-.8-.4-.8-.8V67c0-.4.4-.8.8-.8s.8.4.8.8v33.7c-.1.5-.4.8-.8.8z" fill="#01acdb" id="HkUBbYKxBhf"/><path d="M28.2 54h-1.6v48.4H99V54H28.2zm69.1 46.8H28.2V55.7h69.1v45.1z" fill="#01acdb"/></svg>