<svg xmlns="http://www.w3.org/2000/svg" id="r1pfIlH2f" x="0" y="0" viewBox="0 0 127 126" xml:space="preserve"><style>@-webkit-keyframes r1Ie6GIeHnG_r1cuvlB3M_Animation{0%,66.67%,83.33%{-webkit-transform:scale(1,1);transform:scale(1,1)}75.56%{-webkit-transform:scale(1.2,1.2);transform:scale(1.2,1.2)}}@keyframes r1Ie6GIeHnG_r1cuvlB3M_Animation{0%,66.67%,83.33%{-webkit-transform:scale(1,1);transform:scale(1,1)}75.56%{-webkit-transform:scale(1.2,1.2);transform:scale(1.2,1.2)}}@-webkit-keyframes H1dg6fUgrhf_BJxpUeS2M_Animation{0%,42.22%,57.78%{-webkit-transform:scale(1,1);transform:scale(1,1)}50%{-webkit-transform:scale(1.2,1.2);transform:scale(1.2,1.2)}}@keyframes H1dg6fUgrhf_BJxpUeS2M_Animation{0%,42.22%,57.78%{-webkit-transform:scale(1,1);transform:scale(1,1)}50%{-webkit-transform:scale(1.2,1.2);transform:scale(1.2,1.2)}}@-webkit-keyframes rJrWpfUxSnG_HJ3O8xBhz_Animation{0%,33.33%,50%{-webkit-transform:scale(0,0);transform:scale(0,0)}42.22%{-webkit-transform:scale(1,1);transform:scale(1,1)}}@keyframes rJrWpfUxSnG_HJ3O8xBhz_Animation{0%,33.33%,50%{-webkit-transform:scale(0,0);transform:scale(0,0)}42.22%{-webkit-transform:scale(1,1);transform:scale(1,1)}}@-webkit-keyframes ByVgpGLxr2z_rJINUlShz_Animation{0%,50%,66.67%{-webkit-transform:scale(1,1);transform:scale(1,1)}57.78%{-webkit-transform:scale(1.2,1.2);transform:scale(1.2,1.2)}}@keyframes ByVgpGLxr2z_rJINUlShz_Animation{0%,50%,66.67%{-webkit-transform:scale(1,1);transform:scale(1,1)}57.78%{-webkit-transform:scale(1.2,1.2);transform:scale(1.2,1.2)}}#r1pfIlH2f *{-webkit-animation-duration:3s;animation-duration:3s;animation-iteration-count:infinite;-webkit-animation-timing-function:cubic-bezier(0,0,1,1);animation-timing-function:cubic-bezier(0,0,1,1)}</style><circle cx="32.4" cy="3.9" r="1.6" fill="#cdcdcd"/><circle cx="1.6" cy="94.6" r="1.6" fill="#cdcdcd"/><circle cx="126.2" cy="94.6" r="1.6" fill="#cdcdcd"/><circle cx="1.6" cy="3.9" r="1.6" fill="#cdcdcd"/><circle cx="1.6" cy="63.9" r="1.6" fill="#cdcdcd"/><circle cx="126.2" cy="63.9" r="1.6" fill="#cdcdcd"/><circle cx="1.6" cy="33.2" r="1.6" fill="#cdcdcd"/><circle cx="126.2" cy="33.2" r="1.6" fill="#cdcdcd"/><circle cx="64.7" cy="3.9" r="1.6" fill="#cdcdcd"/><circle cx="96.7" cy="3.9" r="1.6" fill="#cdcdcd"/><circle cx="126.2" cy="3.9" r="1.6" fill="#cdcdcd"/><circle cx="32.4" cy="122.3" r="1.6" fill="#cdcdcd"/><circle cx="1.6" cy="122.3" r="1.6" fill="#cdcdcd"/><circle cx="64.6" cy="122.3" r="1.6" fill="#cdcdcd"/><circle cx="96.7" cy="122.3" r="1.6" fill="#cdcdcd"/><circle cx="126.2" cy="122.3" r="1.6" fill="#cdcdcd"/><path d="M68.5 3.9l-2.7 1.2-1.2 2.7-1.2-2.7-2.7-1.2 2.7-1.2L64.6 0l1.2 2.7 2.7 1.2z" fill="#01acdb"/><path d="M76 107.8h-3.9c-2.1 0-3.9-1.5-4.2-3.6l-.7-4c-1.7-.5-3.3-1.2-4.9-2l-3.3 2.3c-1.7 1.1-4 .9-5.4-.5l-2.7-2.7c-1.5-1.4-1.7-3.8-.5-5.4l2.3-3.3c-.8-1.5-1.5-3.2-2-4.9l-4-.7c-2.1-.3-3.6-2.1-3.6-4.2V75c0-2.1 1.5-3.9 3.6-4.2l4-.7c.5-1.7 1.2-3.3 2-4.9l-2.3-3.3c-1.1-1.7-.9-4 .5-5.4l2.7-2.7c1.4-1.5 3.8-1.7 5.4-.5l3.3 2.3c1.5-.8 3.2-1.5 4.9-2l.7-4c.3-2.1 2.1-3.6 4.2-3.6H76c2.1 0 3.9 1.5 4.2 3.6l.7 4c1.7.5 3.3 1.2 4.9 2l3.3-2.3c1.7-1.2 4-1 5.4.5l2.7 2.7c1.5 1.5 1.6 3.8.4 5.5l-2.3 3.3c.8 1.5 1.5 3.2 2 4.9l4 .7c2.1.3 3.6 2.1 3.6 4.2v3.8c0 2.1-1.5 3.9-3.6 4.2l-4 .7c-.5 1.7-1.1 3.3-2 4.8l2.4 3.3c1.2 1.7.9 4-.5 5.4l-2.7 2.7c-1.4 1.5-3.8 1.7-5.4.5l-3.3-2.3c-1.5.8-3.2 1.5-4.9 2l-.7 4c-.3 2.1-2.1 3.6-4.2 3.6zm-3.9-1.6H76c1.3 0 2.4-.9 2.6-2.2l.9-5 .5-.1c1.9-.5 3.7-1.2 5.4-2.2l.4-.3 4.1 2.9c1 .8 2.5.6 3.4-.3l2.7-2.7c.9-.9 1-2.3.3-3.4l-3-4.1.3-.5c1-1.7 1.7-3.5 2.2-5.4l.1-.5 5-.9c1.3-.2 2.2-1.3 2.2-2.6v-3.8c0-1.3-.9-2.4-2.2-2.6l-5-.9-.1-.5c-.5-1.9-1.2-3.7-2.2-5.4l-.3-.4 2.9-4.1c.8-1 .7-2.5-.2-3.4l-2.7-2.7c-.9-.9-2.3-1.1-3.4-.3l-4.1 2.9-.4-.3c-1.7-1-3.5-1.7-5.4-2.2l-.5-.1-.9-5c-.2-1.3-1.3-2.2-2.6-2.2h-3.9c-1.3 0-2.4.9-2.6 2.2l-.9 5-.5.1c-1.9.5-3.7 1.2-5.4 2.2l-.4.3-4.1-2.9c-1-.8-2.5-.6-3.4.3l-2.7 2.7c-.9.9-1 2.3-.3 3.4l2.9 4.1-.3.4c-1 1.7-1.7 3.5-2.2 5.4l-.1.5-5 .9c-1.3.2-2.2 1.3-2.2 2.6v3.8c0 1.3.9 2.4 2.2 2.6l5 .9.1.5c.5 1.9 1.2 3.7 2.2 5.4l.3.4-2.9 4.1c-.8 1-.6 2.5.3 3.4l2.7 2.7c.9.9 2.3 1 3.4.3l4.1-2.9.4.3c1.7 1 3.5 1.7 5.4 2.2l.5.1.9 5c.2 1.4 1.3 2.3 2.6 2.3z" fill="#01acdb" id="H1bgpzLxS3G"/><path fill="#01acdb" d="M23.2 34.2l6.7-2 2.1-6.8 2.1 6.8 6.7 2-6.7 2L32 43l-2.1-6.8-6.7-2" data-animator-group="true" data-animator-type="2" id="S1mx6zLlB3M"/><path fill="#01acdb" d="M101.6 36l-3.8 1.1-1.2 3.9-1.2-3.9-3.8-1.1 3.8-1.1 1.2-3.9 1.2 3.9 3.8 1.1" data-animator-group="true" data-animator-type="2" id="rkSgpMIgr2M"/><path fill="#01acdb" d="M37 91.8l-3.8 1.1-1.2 3.9-1.2-3.9-3.8-1.1 3.8-1.1 1.2-3.9 1.2 3.9 3.8 1.1" data-animator-group="true" data-animator-type="2" id="BywlaMIgrnG"/><path d="M22.6 75.9c-4 0-7.2-2.7-7.2-6.1 0-.4.4-.8.8-.8s.8.4.8.8c0 2.4 2.6 4.5 5.6 4.5s5.6-2.1 5.6-4.5-2.6-4.5-5.6-4.5c-.4 0-.8-.4-.8-.8s.4-.8.8-.8c4 0 7.2 2.7 7.2 6.1s-3.3 6.1-7.2 6.1z" fill="#01acdb" id="HyKlTGLgr2M"/><path d="M22.6 65.3c-4 0-7.2-2.7-7.2-6.1s3.2-6.1 7.2-6.1 7.2 2.7 7.2 6.1c0 .4-.4.8-.8.8s-.8-.4-.8-.8c0-2.4-2.6-4.5-5.6-4.5S17 56.8 17 59.2s2.6 4.5 5.6 4.5c.4 0 .8.4.8.8s-.4.8-.8.8z" fill="#01acdb" id="Hkog6M8lrnM"/><path d="M74.2 85v-1.5c.4 0 .8-.1 1.2-.1l.3 1.5c-.5.1-1 .1-1.5.1zm-2.1-.2c-.5-.1-.9-.3-1.3-.5l.6-1.4c.4.2.7.3 1.1.4l-.4 1.5zm5.6-.7l-.7-1.3c.3-.2.7-.4 1-.6l.9 1.2c-.3.3-.7.5-1.2.7zm-8.8-1c-.4-.3-.7-.6-1-1l1.2-1c.2.3.5.6.8.8l-1 1.2zm11.6-1.3l-1.2-.9c.2-.3.4-.6.6-1l1.3.7c-.2.4-.4.8-.7 1.2zm-13.8-1.5c-.2-.4-.4-.9-.5-1.4l1.5-.4c.1.4.2.7.4 1.1l-1.4.7zm15.2-1.8l-1.5-.3c.1-.4.1-.8.1-1.2H82c.1.6 0 1-.1 1.5zm-14.4-1.7l-1.5-.1c0-.5.1-1 .2-1.4l1.5.3c-.1.4-.2.8-.2 1.2zm12.9-1.5c-.1-.4-.2-.7-.4-1.1l1.4-.6c.2.4.4.9.5 1.3l-1.5.4zm-12.1-1.4l-1.3-.7c.2-.4.5-.8.8-1.2l1.2.9c-.3.4-.6.7-.7 1zM79 72.7c-.3-.3-.5-.6-.8-.8l.9-1.2c.4.3.7.6 1 1l-1.1 1zm-8.8-1l-.9-1.2c.4-.3.8-.5 1.2-.7l.7 1.3c-.4.2-.7.4-1 .6zm6.4-.7c-.4-.2-.7-.3-1.1-.4l.3-1.5c.5.1.9.3 1.4.4l-.6 1.5zm-3.7-.5l-.3-1.5c.5-.1.9-.1 1.4-.1v1.5c-.3 0-.7.1-1.1.1z" fill="#01acdb" id="HkaxpzIeSnM"/><path d="M22.6 78.8c-.4 0-.8-.4-.8-.8V50.9c0-.4.4-.8.8-.8s.8.4.8.8V78c0 .4-.4.8-.8.8z" fill="#01acdb" id="ry1-6M8eB3G"/><path d="M42.6 48.8l-1.1-1.1.9-.9 1.1 1.1-.9.9zm2.4-2.3l-1.1-1.1.9-.9 1.1 1.1-.9.9zm2.3-2.3l-1.1-1.1.9-.9 1.1 1.1-.9.9zm2.4-2.3l-1.1-1.1.9-.9 1.1 1.1-.9.9zm2.3-2.3l-1.1-1.1.9-.9 1.1 1.1-.9.9zm2.3-2.3l-1.1-1.1.9-.9 1.1 1.1-.9.9zm2.4-2.3l-.2-.1v-.2l-.8-.8.3-.3c.1-.1.3-.2.5-.2h.9v1.5l-.7.1zm17 0h-1.3v-1.5h1.3V35zm-3.3 0h-1.3v-1.5h1.3V35zm-3.3 0h-1.2v-1.5h1.3l-.1 1.5zm-3.2 0h-1.3v-1.5h1.3V35zm-3.3 0h-1.3v-1.5h1.3V35zm15.2-1.2l-1.1-1.1.9-.9 1.1 1.1-.9.9zm2.3-2.4L77 30.3l.9-.9 1.1 1.1-.9.9zm2.4-2.3L79.4 28l.9-.9 1.1 1.1-.9.9zm2.3-2.3l-1.1-1.1.9-.9 1.1 1.1-.9.9zm2.3-2.3L84 23.4l.8-.8 1.1 1.1-.8.8z" fill="#01acdb" id="HkW-pMIeHnz"/><path d="M87.9 30.7c-.4 0-.8-.3-.8-.8l-.2-8.6-8.7.1c-.5 0-.8-.4-.8-.8s.3-.8.8-.8l10.3-.1.2 10.2c0 .4-.3.8-.8.8z" fill="#01acdb" id="H1QW6GIernG"/><path d="M68.6 122.3l-2.7 1.2-1.2 2.7-1.2-2.7-2.7-1.2 2.7-1.2 1.2-2.7 1.2 2.7 2.7 1.2z" fill="#01acdb" transform="scale(0)" data-animator-group="true" data-animator-type="2"/></svg>