<svg xmlns="http://www.w3.org/2000/svg" id="BJFqV_5J3M" x="0" y="0" viewBox="0 0 127 126" xml:space="preserve"><style>@-webkit-keyframes rkQW9N_qk3G_Sk8OcCVnG_Animation{0%,66.67%,83.33%{-webkit-transform:scale(1,1);transform:scale(1,1)}75.56%{-webkit-transform:scale(1.4,1.4);transform:scale(1.4,1.4)}}@keyframes rkQW9N_qk3G_Sk8OcCVnG_Animation{0%,66.67%,83.33%{-webkit-transform:scale(1,1);transform:scale(1,1)}75.56%{-webkit-transform:scale(1.4,1.4);transform:scale(1.4,1.4)}}@-webkit-keyframes Hkb-q4Oc12G_H1Uz50V3M_Animation{0%,16.67%{-webkit-transform:scale(.7,.7);transform:scale(.7,.7)}7.78%{-webkit-transform:scale(1.1,1.1);transform:scale(1.1,1.1)}}@keyframes Hkb-q4Oc12G_H1Uz50V3M_Animation{0%,16.67%{-webkit-transform:scale(.7,.7);transform:scale(.7,.7)}7.78%{-webkit-transform:scale(1.1,1.1);transform:scale(1.1,1.1)}}@-webkit-keyframes SkGl54O9JnM_Animation{0%,33.33%,58.89%{opacity:1}47.78%{opacity:0}}@keyframes SkGl54O9JnM_Animation{0%,33.33%,58.89%{opacity:1}47.78%{opacity:0}}@-webkit-keyframes Bya5Vu51nz_Animation{0%,82.22%,98.89%{opacity:1}88.89%{opacity:0}}@keyframes Bya5Vu51nz_Animation{0%,82.22%,98.89%{opacity:1}88.89%{opacity:0}}@-webkit-keyframes Syn5N_91nG_Animation{0%,16.67%,33.33%{opacity:1}24.44%{opacity:0}}@keyframes Syn5N_91nG_Animation{0%,16.67%,33.33%{opacity:1}24.44%{opacity:0}}#BJFqV_5J3M *{-webkit-animation-duration:3s;animation-iteration-count:infinite;animation-duration:3s;-webkit-animation-timing-function:cubic-bezier(0,0,1,1);animation-timing-function:cubic-bezier(0,0,1,1)}</style><circle cx="30.1" cy="3.9" r="1.6" fill="#cdcdcd"/><circle cx="4.4" cy="94.7" r="1.6" fill="#cdcdcd"/><circle cx="30.1" cy="94.7" r="1.6" style="-webkit-animation-name:Syn5N_91nG_Animation;animation-name:Syn5N_91nG_Animation;-webkit-animation-timing-function:cubic-bezier(.42,0,.58,1);animation-timing-function:cubic-bezier(.42,0,.58,1);-webkit-transform-origin:50% 50%;transform-origin:50% 50%;transform-box:fill-box" fill="#cdcdcd"/><circle cx="93.8" cy="33.2" r="1.6" style="-webkit-animation-name:Bya5Vu51nz_Animation;animation-name:Bya5Vu51nz_Animation;-webkit-animation-timing-function:cubic-bezier(.42,0,.58,1);animation-timing-function:cubic-bezier(.42,0,.58,1);-webkit-transform-origin:50% 50%;transform-origin:50% 50%;transform-box:fill-box" fill="#cdcdcd"/><circle cx="123.9" cy="94.7" r="1.6" fill="#cdcdcd"/><circle cx="4.3" cy="3.9" r="1.6" fill="#cdcdcd"/><circle cx="4.4" cy="63.9" r="1.6" fill="#cdcdcd"/><circle cx="123.9" cy="63.9" r="1.6" fill="#cdcdcd"/><circle cx="4.4" cy="33.2" r="1.6" style="-webkit-animation-name:SkGl54O9JnM_Animation;animation-name:SkGl54O9JnM_Animation;-webkit-animation-timing-function:cubic-bezier(.42,0,.58,1);animation-timing-function:cubic-bezier(.42,0,.58,1);-webkit-transform-origin:50% 50%;transform-origin:50% 50%;transform-box:fill-box" fill="#cdcdcd"/><circle cx="123.9" cy="33.2" r="1.6" fill="#cdcdcd"/><path d="M123.9 67.8l-1.2-2.7-2.7-1.2 2.7-1.2 1.2-2.7 1.2 2.7 2.7 1.2-2.7 1.2-1.2 2.7zm0-60l-1.2-2.7-2.7-1.2 2.7-1.2 1.2-2.7 1.2 2.7 2.7 1.2-2.7 1.2-1.2 2.7zM4.4 67.8l-1.2-2.7-2.7-1.2 2.7-1.2L4.4 60l1.2 2.7 2.7 1.2-2.7 1.2-1.2 2.7zM34 3.9l-2.7 1.2-1.2 2.7-1.2-2.7-2.7-1.2 2.7-1.2L30.1 0l1.2 2.7L34 3.9z" fill="#01acdb"/><circle cx="62.4" cy="3.9" r="1.6" fill="#cdcdcd"/><circle cx="93.1" cy="3.9" r="1.6" fill="#cdcdcd"/><circle cx="30.1" cy="122.3" r="1.6" fill="#cdcdcd"/><circle cx="4.3" cy="122.3" r="1.6" fill="#cdcdcd"/><path d="M34 122.3l-2.7 1.2-1.2 2.7-1.2-2.7-2.7-1.2 2.7-1.2 1.2-2.7 1.2 2.7 2.7 1.2z" fill="#01acdb"/><circle cx="62.4" cy="122.3" r="1.6" fill="#cdcdcd"/><circle cx="95.4" cy="122.3" r="1.6" fill="#cdcdcd"/><circle cx="123.9" cy="122.3" r="1.6" fill="#cdcdcd"/><path fill="#01acdb" d="M21.3 33.2l6.6-2 2.2-6.8 2.1 6.8 6.7 2-6.7 2-2.1 6.8-2.2-6.8-6.6-2" transform="scale(.7)" data-animator-group="true" data-animator-type="2" id="H1eb54ucknG"/><path fill="#01acdb" d="M99.6 96.3l-3.8 1.1-1.2 3.9-1.2-3.9-3.8-1.1 3.8-1.1 1.2-3.9 1.2 3.9 3.8 1.1" data-animator-group="true" data-animator-type="2" id="SJzWcN_q12G"/><path d="M63.9 84.6c-.5 0-.9 0-1.4-.1l.1-1.5c.4 0 .8.1 1.3.1v1.5zm2.1-.1l-.1-1.5c.4 0 .8-.1 1.3-.2l.2 1.5c-.5.1-1 .2-1.4.2zm-5.5-.2c-.4-.1-.9-.2-1.3-.3l.4-1.5 1.2.3-.3 1.5zm8.9-.3l-.4-1.5c.4-.1.8-.2 1.2-.4l.5 1.4c-.5.2-.9.3-1.3.5zm-12.3-.6c-.4-.2-.8-.3-1.3-.5l.6-1.4c.4.2.8.3 1.2.5l-.5 1.4zm15.5-.6l-.6-1.4c.4-.2.8-.4 1.1-.6l.7 1.3c-.4.3-.8.5-1.2.7zM54 82c-.4-.2-.8-.5-1.2-.7l.8-1.3c.4.2.7.4 1.1.7L54 82zm21.6-.9l-.8-1.2c.3-.2.7-.5 1-.7l.9 1.2c-.4.2-.7.5-1.1.7zM51.2 80c-.4-.3-.7-.6-1-.9l1-1.1c.3.3.6.6 1 .8l-1 1.2zm27.1-1l-1-1.1.9-.9 1.1 1c-.3.4-.7.7-1 1zm-29.6-1.4c-.3-.3-.6-.7-.9-1l1.2-.9c.3.3.5.7.8 1l-1.1.9zm31.9-1.1l-1.2-.9c.3-.3.5-.7.7-1l1.2.8c-.1.3-.4.7-.7 1.1zm-34-1.6c-.2-.4-.5-.8-.7-1.2l1.3-.7c.2.4.4.7.6 1.1l-1.2.8zm35.9-1.3l-1.3-.7c.2-.4.4-.7.6-1.1l1.4.6c-.3.4-.5.8-.7 1.2zM45 71.9c-.2-.4-.3-.8-.5-1.3l1.4-.5c.1.4.3.8.4 1.2l-1.3.6zm38.8-1.5l-1.4-.5c.1-.4.3-.8.4-1.2l1.5.4c-.2.5-.3.9-.5 1.3zm-39.9-1.8c-.1-.4-.2-.9-.3-1.3l1.5-.2c.1.4.2.8.2 1.2l-1.4.3zm40.8-1.5l-1.5-.2c.1-.4.1-.8.2-1.2l1.5.1c-.1.4-.2.8-.2 1.3zm-41.3-1.9v-1.3h1.5v1.3h-1.5zm40-1.5c0-.4 0-.8-.1-1.3l1.5-.1c0 .4.1.9.1 1.4h-1.5zM45 61.9l-1.5-.2c0-.5.1-.9.2-1.3l1.5.2c-.1.5-.2.9-.2 1.3zm38.1-1.4l-.3-1.2 1.5-.4c.1.4.2.9.3 1.3l-1.5.3zm-37.5-1.7l-1.4-.4c.1-.4.3-.9.4-1.3l1.4.5c-.2.3-.3.7-.4 1.2zm36.7-1.4c-.1-.4-.3-.8-.5-1.2l1.4-.6c.2.4.3.8.5 1.3l-1.4.5zm-35.6-1.6l-1.4-.6.6-1.2 1.3.7c-.2.3-.4.7-.5 1.1zm34.2-1.3c-.2-.4-.4-.7-.7-1.1l1.3-.8c.2.4.5.8.7 1.2l-1.3.7zM48.2 53l-1.2-.8c.3-.4.5-.7.8-1.1l1.2.9c-.3.3-.5.6-.8 1zm31-1.1c-.3-.3-.5-.6-.8-1l1.1-1c.3.3.6.7.9 1l-1.2 1zm-28.9-1.4l-1.1-1c.3-.3.6-.6 1-.9l1 1.1c-.4.2-.7.5-.9.8zm26.7-1c-.3-.3-.6-.5-1-.8l.9-1.2c.4.3.7.6 1 .9l-.9 1.1zm-24.4-1.1l-.9-1.2c.4-.3.7-.5 1.1-.8l.8 1.3c-.3.2-.6.4-1 .7zm21.8-.8c-.4-.2-.7-.4-1.1-.6l.7-1.3c.4.2.8.4 1.2.7l-.8 1.2zm-19-.9l-.7-1.3 1.2-.6.6 1.4c-.4.1-.8.3-1.1.5zm16.2-.6c-.4-.2-.8-.3-1.2-.5l.5-1.4c.4.1.9.3 1.3.5l-.6 1.4zm-13.3-.6l-.5-1.4c.4-.1.9-.3 1.3-.4l.4 1.5-1.2.3zm10.3-.4c-.4-.1-.8-.2-1.2-.2l.2-1.5c.4.1.9.2 1.3.3l-.3 1.4zm-7.2-.3l-.2-1.5c.4-.1.9-.1 1.4-.1l.1 1.5c-.4 0-.9 0-1.3.1zm4-.1h-1.3v-1.5h1.4l-.1 1.5z" fill="#07addd" id="H14-9Vu9khM"/><path d="M69 94.7l-.2-1.5c.4-.1.8-.1 1.2-.2l.3 1.5c-.4 0-.9.1-1.3.2zm-12-.5c-.4-.1-.9-.2-1.3-.3l.4-1.4 1.2.3-.3 1.4zm15.3-.2l-.4-1.4c.4-.1.8-.2 1.2-.4l.4 1.4c-.4.2-.8.3-1.2.4zm-18.5-.7c-.4-.1-.8-.3-1.2-.5l.6-1.4c.4.2.8.3 1.2.4l-.6 1.5zm21.7-.3l-.5-1.4c.4-.2.8-.3 1.2-.5l.6 1.4c-.5.1-.9.3-1.3.5zm-24.8-1l-1.2-.6.7-1.3c.4.2.7.4 1.1.6l-.6 1.3zm27.8-.4l-.7-1.3c.4-.2.7-.4 1.1-.6l.7 1.3c-.3.2-.7.4-1.1.6zm-30.7-1.2c-.4-.2-.7-.5-1.1-.7l.8-1.2c.3.2.7.5 1.1.7l-.8 1.2zm33.6-.5l-.8-1.2c.4-.2.7-.5 1-.7l.9 1.2c-.4.2-.7.4-1.1.7zM45 88.5c-.4-.3-.7-.5-1-.8l1-1.1c.3.3.6.5 1 .8l-1 1.1zm39.1-.6l-1-1.2c.3-.3.6-.5 1-.8l1 1.1c-.3.3-.7.6-1 .9zm-41.6-1.6l-.9-.9 1.1-1 .9.9-1.1 1zm44.1-.7l-1.1-1 .9-.9 1.1 1-.9.9zm-46.4-1.7c-.3-.3-.6-.7-.8-1l1.2-.9c.3.3.5.7.8 1l-1.2.9zm48.6-.8l-1.2-.9c.3-.3.5-.7.8-1l1.2.9c-.3.3-.6.7-.8 1zm-50.6-1.9c-.2-.4-.5-.7-.7-1.1l1.3-.8c.2.4.4.7.7 1.1l-1.3.8zm52.5-.8l-1.3-.8c.2-.4.4-.7.6-1.1l1.3.7-.6 1.2zm-54.2-2.1l-.6-1.2 1.4-.6c.2.4.4.8.6 1.1l-1.4.7zm55.8-.9l-1.4-.7.1-.2c.1-.3.3-.6.4-.9l1.4.6c-.1.3-.3.6-.4.9l-.1.3zm-57.2-2.1c-.2-.4-.3-.8-.5-1.2l1.4-.5c.1.4.3.8.4 1.2l-1.3.5zm58.5-1l-1.4-.5c.1-.4.3-.8.4-1.2l1.4.4c-.1.5-.2.9-.4 1.3zM34 72.1c-.1-.4-.2-.9-.3-1.3l1.5-.3.3 1.2-1.5.4zm60.6-1l-1.5-.4.3-1.2 1.5.3c-.1.5-.2.9-.3 1.3zm-61.3-2.3c-.1-.4-.1-.9-.2-1.3l1.5-.2c0 .4.1.8.2 1.2l-1.5.3zm60.1-10.7l-.3-1.2 1.5-.4c.1.4.2.9.3 1.3l-1.5.3zm-57.9-2.2l-1.4-.4c.1-.4.2-.8.4-1.3l1.4.5c-.2.4-.3.8-.4 1.2zm57.1-.9c-.1-.4-.3-.8-.4-1.2l1.4-.5c.1.4.3.8.4 1.3l-1.4.4zm-56.1-2.1l-1.4-.6c.2-.4.3-.8.5-1.2l1.4.6c-.2.4-.4.8-.5 1.2zm55-.9c-.2-.4-.3-.8-.5-1.1l1.4-.7c.2.4.4.8.5 1.2l-1.4.6zm-54.2-.9l-1.4-.6.6-1.2 1.3.7c-.2.4-.3.7-.5 1.1zm52.8-1.9c-.2-.4-.4-.7-.6-1.1l1.3-.8c.2.4.5.8.7 1.1l-1.4.8zm-51.3-.9l-1.3-.8c.2-.4.5-.7.7-1.1l1.2.8c-.2.4-.4.7-.6 1.1zm49.6-1.8c-.2-.3-.5-.7-.8-1l1.2-.9c.3.3.5.7.8 1.1l-1.2.8zm-47.8-.8l-1.2-.9c.3-.4.5-.7.8-1l1.2 1c-.3.2-.6.5-.8.9zM86.4 44l-.9-.9 1.1-1c.3.3.6.6.9 1l-1.1.9zm-43.7-.7l-1.1-1 .9-.9 1 1.1c-.2.2-.5.4-.8.8zm41.4-1.6c-.3-.3-.6-.6-1-.8l1-1.2c.3.3.7.6 1 .9l-1 1.1zM45 41.1L44 40c.3-.3.7-.6 1-.8l.9 1.2c-.3.1-.6.4-.9.7zm36.7-1.4c-.3-.2-.7-.5-1-.7l.8-1.3c.4.2.7.5 1.1.8l-.9 1.2zm-34.2-.6l-.8-1.2c.4-.2.7-.5 1.1-.7l.8 1.3c-.4.2-.7.4-1.1.6zM79 38c-.4-.2-.7-.4-1.1-.6l.7-1.3 1.2.6L79 38zm-28.7-.5l-.7-1.3 1.2-.6.6 1.4c-.4.1-.8.3-1.1.5zm25.8-.9c-.4-.2-.8-.3-1.2-.5l.5-1.4c.4.2.8.3 1.2.5l-.5 1.4zm-22.9-.4l-.6-1.4c.4-.2.8-.3 1.2-.5l.5 1.4c-.3.2-.7.3-1.1.5zm19.9-.8c-.4-.1-.8-.2-1.2-.4l.4-1.4c.4.1.8.2 1.3.4l-.5 1.4zm-16.9-.2l-.4-1.4c.4-.1.9-.2 1.3-.3l.3 1.5c-.4-.1-.8 0-1.2.2zm13.9-.6c-.4-.1-.8-.2-1.2-.2l.2-1.5c.4.1.9.1 1.3.2l-.3 1.5z" fill="#07addd" id="r1I-94d5Jhf"/><path d="M64.9 74.6l-.1-1.5c.4 0 .8-.1 1.2-.2l.3 1.5c-.5.1-.9.2-1.4.2zm-2.1-.1c-.5-.1-.9-.1-1.4-.3l.4-1.5c.4.1.8.2 1.2.2l-.2 1.6zm5.5-.7l-.6-1.4c.4-.2.7-.3 1.1-.5l.8 1.3c-.4.2-.9.4-1.3.6zm-8.9-.3c-.4-.2-.8-.4-1.2-.7l.8-1.3c.3.2.7.4 1 .6l-.6 1.4zm11.9-1.6l-1-1.1c.3-.3.6-.5.8-.8l1.1 1-.9.9zm-14.7-.4c-.3-.3-.6-.7-.9-1l1.2-.9c.2.3.5.6.8.9l-1.1 1zm16.9-2.3l-1.3-.7c.2-.3.4-.7.5-1.1l1.4.6-.6 1.2zm-19-.5c-.2-.4-.4-.8-.5-1.3l1.4-.5c.1.4.3.7.5 1.1l-1.4.7zm20.2-2.8l-1.5-.3c.1-.4.1-.8.2-1.2l1.5.1c-.1.5-.1 1-.2 1.4zm-21.2-.6c-.1-.5-.1-.9-.1-1.4h1.5c0 .4 0 .8.1 1.2l-1.5.2zm19.8-2.7c-.1-.4-.1-.8-.2-1.2l1.4-.4c.1.4.2.9.3 1.4l-1.5.2zm-18.2-.5l-1.5-.3c.1-.5.2-.9.3-1.3l1.4.5c-.1.3-.2.7-.2 1.1zm17.3-2.3c-.2-.4-.4-.7-.6-1L73 58c.3.4.5.8.7 1.2l-1.3.6zm-16.3-.5l-1.3-.7c.2-.4.5-.8.8-1.2l1.2.9c-.3.3-.5.6-.7 1zm14.6-2c-.3-.3-.6-.5-.9-.8l.9-1.2c.4.3.7.6 1 .9l-1 1.1zM58 57l-1-1.1c.3-.3.7-.6 1.1-.9l.8 1.2c-.3.2-.6.5-.9.8zm10.2-1.4c-.4-.2-.7-.3-1.1-.5l.5-1.4c.4.1.9.3 1.3.5l-.7 1.4zm-7.6-.3l-.6-1.4c.4-.2.9-.3 1.3-.5l.4 1.4c-.4.3-.8.4-1.1.5zm4.7-.6c-.6-.1-1.2-.1-1.9-.1l-.1-1.5c.7-.1 1.5 0 2.2.1l-.2 1.5z" fill="#07addd" id="SJdbcE_9y3M"/><path d="M64.2 39.1c-3.3 0-6-2.6-6-6s2.6-6 6-6c3.3 0 6 2.6 6 6s-2.7 6-6 6zm0-10.6c-2.6 0-4.6 2.1-4.6 4.6s2.1 4.6 4.6 4.6c2.6 0 4.6-2.1 4.6-4.6s-2.1-4.6-4.6-4.6z" fill="#01acdb" id="r1qb9N_5Jhf"/><path d="M64.2 100.1c-3.3 0-6-2.6-6-6s2.6-6 6-6c3.3 0 6 2.6 6 6s-2.7 6-6 6zm0-10.6c-2.6 0-4.6 2.1-4.6 4.6s2.1 4.6 4.6 4.6c2.6 0 4.6-2.1 4.6-4.6s-2.1-4.6-4.6-4.6z" fill="#01acdb" id="Hy2bqNd5J2z"/><path d="M94.7 69.5c-3.3 0-6-2.6-6-5.9 0-3.3 2.6-6 6-6s6 2.6 6 6-2.7 5.9-6 5.9zm0-10.6c-2.6 0-4.6 2.1-4.6 4.6s2.1 4.6 4.6 4.6 4.6-2.1 4.6-4.6c0-2.5-2.1-4.6-4.6-4.6z" fill="#01acdb" id="H10ZqVO5ynM"/><path d="M33.3 68.9c-3.3 0-6-2.6-6-6 0-3.3 2.6-6 6-6s6 2.6 6 6-2.6 6-6 6zm0-10.6c-2.6 0-4.6 2.1-4.6 4.6 0 2.6 2.1 4.6 4.6 4.6s4.6-2.1 4.6-4.6c.1-2.5-2-4.6-4.6-4.6z" fill="#01acdb" id="BJlG54dq1hf"/></svg>