<svg xmlns="http://www.w3.org/2000/svg" id="BJlVSyrhG" x="0" y="0" viewBox="0 0 127 126" xml:space="preserve"><style>@-webkit-keyframes Sk9gNrkrhz_Animation{0%,75.56%,90%{opacity:1}83.33%{opacity:0}}@keyframes Sk9gNrkrhz_Animation{0%,75.56%,90%{opacity:1}83.33%{opacity:0}}@-webkit-keyframes HkVgg4r1B3f_H1_nvJr2z_Animation{0%,12.22%{-webkit-transform:scale(.5,.5);transform:scale(.5,.5)}6.67%{-webkit-transform:scale(1,1);transform:scale(1,1)}}@keyframes HkVgg4r1B3f_H1_nvJr2z_Animation{0%,12.22%{-webkit-transform:scale(.5,.5);transform:scale(.5,.5)}6.67%{-webkit-transform:scale(1,1);transform:scale(1,1)}}@-webkit-keyframes B1kelEHkr2G_ryTEPyHhz_Animation{0%,66.67%,83.33%{-webkit-transform:scale(.5,.5);transform:scale(.5,.5)}75.56%{-webkit-transform:scale(1,1);transform:scale(1,1)}}@keyframes B1kelEHkr2G_ryTEPyHhz_Animation{0%,66.67%,83.33%{-webkit-transform:scale(.5,.5);transform:scale(.5,.5)}75.56%{-webkit-transform:scale(1,1);transform:scale(1,1)}}@-webkit-keyframes HyRlNHyBhG_ryt0LJrhf_Animation{0%,6.67%{-webkit-transform:scale(0,0);transform:scale(0,0)}16.67%{-webkit-transform:scale(1,1);transform:scale(1,1)}66.67%{-webkit-transform:scale(.5,.5);transform:scale(.5,.5)}}@keyframes HyRlNHyBhG_ryt0LJrhf_Animation{0%,6.67%{-webkit-transform:scale(0,0);transform:scale(0,0)}16.67%{-webkit-transform:scale(1,1);transform:scale(1,1)}66.67%{-webkit-transform:scale(.5,.5);transform:scale(.5,.5)}}@-webkit-keyframes Skr-eVSkr3M_rJeLIyH3f_Animation{0%,34.44%{-webkit-transform:rotate(0deg);transform:rotate(0deg)}56.67%{-webkit-transform:rotate(90deg);transform:rotate(90deg)}}@keyframes Skr-eVSkr3M_rJeLIyH3f_Animation{0%,34.44%{-webkit-transform:rotate(0deg);transform:rotate(0deg)}56.67%{-webkit-transform:rotate(90deg);transform:rotate(90deg)}}@-webkit-keyframes Skr-eVSkr3M_Hyr9BJS3f_Animation{0%,12.22%,23.33%,56.67%{-webkit-transform:scale(1,1);transform:scale(1,1)}26.67%{-webkit-transform:scale(.8,.8);transform:scale(.8,.8)}33.33%,43.33%{-webkit-transform:scale(1.2,1.2);transform:scale(1.2,1.2)}}@keyframes Skr-eVSkr3M_Hyr9BJS3f_Animation{0%,12.22%,23.33%,56.67%{-webkit-transform:scale(1,1);transform:scale(1,1)}26.67%{-webkit-transform:scale(.8,.8);transform:scale(.8,.8)}33.33%,43.33%{-webkit-transform:scale(1.2,1.2);transform:scale(1.2,1.2)}}#BJlVSyrhG *{-webkit-animation-duration:3s;animation-duration:3s;animation-iteration-count:infinite;-webkit-animation-timing-function:cubic-bezier(0,0,1,1);animation-timing-function:cubic-bezier(0,0,1,1)}</style><circle cx="32.1" cy="3.9" r="1.6" fill="#cdcdcd"/><circle cx="4.4" cy="94.7" r="1.6" fill="#cdcdcd"/><circle cx="123.9" cy="94.7" r="1.6" fill="#cdcdcd"/><circle cx="4.3" cy="3.9" r="1.6" fill="#cdcdcd"/><circle cx="4.4" cy="63.9" r="1.6" fill="#cdcdcd"/><circle cx="123.9" cy="63.9" r="1.6" fill="#cdcdcd"/><circle cx="4.4" cy="33.2" r="1.6" fill="#cdcdcd"/><circle cx="32.1" cy="33.2" r="1.6" fill="#cdcdcd"/><circle cx="62.4" cy="33.2" r="1.6" fill="#cdcdcd"/><circle cx="32.1" cy="94.7" r="1.6" fill="#cdcdcd"/><circle cx="95.4" cy="94.7" r="1.6" style="-webkit-animation-name:Sk9gNrkrhz_Animation;animation-name:Sk9gNrkrhz_Animation;-webkit-transform-origin:50% 50%;transform-origin:50% 50%;transform-box:fill-box;-webkit-animation-timing-function:cubic-bezier(.42,0,.58,1);animation-timing-function:cubic-bezier(.42,0,.58,1)" fill="#cdcdcd"/><circle cx="123.9" cy="33.2" r="1.6" fill="#cdcdcd"/><path d="M123.9 67.8l-1.2-2.7-2.7-1.2 2.7-1.2 1.2-2.7 1.2 2.7 2.7 1.2-2.7 1.2-1.2 2.7zm0-60l-1.2-2.7-2.7-1.2 2.7-1.2 1.2-2.7 1.2 2.7 2.7 1.2-2.7 1.2-1.2 2.7z" fill="#01acdb"/><path d="M4.4 67.8l-1.2-2.7-2.7-1.2 2.7-1.2L4.4 60l1.2 2.7 2.7 1.2-2.7 1.2-1.2 2.7z" fill="#01acdb" transform="scale(0)" data-animator-group="true" data-animator-type="2"/><path d="M36 3.9l-2.7 1.2-1.2 2.7-1.2-2.7-2.7-1.2 2.7-1.2L32.1 0l1.2 2.7L36 3.9z" fill="#01acdb" transform="scale(.5)" data-animator-group="true" data-animator-type="2"/><circle cx="62.4" cy="3.9" r="1.6" fill="#cdcdcd"/><circle cx="93.1" cy="3.9" r="1.6" fill="#cdcdcd"/><circle cx="32.1" cy="122.3" r="1.6" fill="#cdcdcd"/><circle cx="4.3" cy="122.3" r="1.6" fill="#cdcdcd"/><path d="M36 122.3l-2.7 1.2-1.2 2.7-1.2-2.7-2.7-1.2 2.7-1.2 1.2-2.7 1.2 2.7 2.7 1.2z" fill="#01acdb" transform="scale(.5)" data-animator-group="true" data-animator-type="2"/><circle cx="62.4" cy="122.3" r="1.6" fill="#cdcdcd"/><circle cx="95.4" cy="122.3" r="1.6" fill="#cdcdcd"/><circle cx="123.9" cy="122.3" r="1.6" fill="#cdcdcd"/><path d="M33.1 83.2c-2.1 0-4.1-.8-5.6-2.3-1.5-1.5-2.3-3.5-2.3-5.6s.8-4.1 2.3-5.6c1.5-1.5 3.5-2.3 5.6-2.3s4.1.8 5.6 2.3c1.5 1.5 2.3 3.5 2.3 5.6s-.8 4.1-2.3 5.6c-1.5 1.4-3.5 2.3-5.6 2.3zm0-14.3c-1.7 0-3.3.7-4.5 1.9-1.2 1.2-1.9 2.8-1.9 4.5s.7 3.3 1.9 4.5c1.2 1.2 2.8 1.9 4.5 1.9s3.3-.7 4.5-1.9c1.2-1.2 1.9-2.8 1.9-4.5s-.7-3.3-1.9-4.5c-1.2-1.2-2.8-1.9-4.5-1.9z" fill="#01acdb" id="Hkugx4SkBhf"/><path d="M95.2 33.4c-.8 0-1.5-.3-2-.8-1.1-1.1-1.1-2.9 0-4.1 1.1-1.1 3-1.1 4.1 0 1.1 1.1 1.1 2.9 0 4.1-.6.5-1.3.8-2.1.8zm0-4.2c-.3 0-.7.1-.9.4-.5.5-.5 1.3 0 1.8s1.3.5 1.8 0 .5-1.3 0-1.8c-.2-.2-.5-.4-.9-.4z" fill="#01acdb" id="r1cxeNrJB2M"/><path d="M79.8 33.4c-.8 0-1.5-.3-2-.8-1.1-1.1-1.1-2.9 0-4.1 1.1-1.1 3-1.1 4.1 0 1.1 1.1 1.1 2.9 0 4.1-.6.5-1.3.8-2.1.8zm-.9-2c.5.5 1.3.5 1.8 0s.5-1.3 0-1.8-1.3-.5-1.8 0-.5 1.3 0 1.8z" fill="#01acdb" id="rJ2el4SkH3G"/><path d="M87.8 66.2c-9.9 0-17.9-8-17.9-17.9v-.8h6v.8c0 6.6 5.4 11.9 11.9 11.9s11.9-5.4 11.9-11.9v-.8h6v.8c0 9.9-8 17.9-17.9 17.9zM71.5 49.1c.4 8.6 7.6 15.5 16.3 15.5 8.7 0 15.9-6.9 16.3-15.5h-2.8c-.4 7.1-6.3 12.7-13.5 12.7s-13.1-5.6-13.5-12.7h-2.8z" fill="#01acdb" id="B10glVHJBhz"/><path d="M33.7 61.9h-1.5v-1.3h1.5v1.3zm0-3.4h-1.5v-1.3h1.5v1.3zm0-3.3h-1.5v-1.3h1.5v1.3zM58 52.1h-1.5v-1.2l1.5-.1v1.3zm-24.3-.2h-1.5c0-.5 0-.9.1-1.3l1.5.1c-.1.4-.1.8-.1 1.2zm22.6-3l-.3-1.2 1.4-.4c.1.4.2.9.3 1.3l-1.4.3zM34 48.8l-1.5-.3c.1-.5.2-.9.3-1.3l1.4.4c0 .4-.1.8-.2 1.2zM55.4 46c-.2-.4-.3-.7-.5-1.1l1.3-.7.6 1.2-1.4.6zm-20.5-.2l-1.4-.6.6-1.2 1.3.7c-.1.4-.3.7-.5 1.1zm18.9-2.5c-.3-.3-.5-.6-.8-.9l1.1-1.1c.3.3.6.7.9 1l-1.2 1zm-17.3-.1l-1.2-.9c.3-.4.6-.7.9-1l1.1 1.1-.8.8zm15.1-2c-.3-.2-.7-.5-1-.6l.7-1.3c.4.2.8.5 1.2.7l-.9 1.2zm-12.8-.1l-.8-1.2c.4-.3.8-.5 1.2-.7l.7 1.3c-.4.2-.8.4-1.1.6zm10-1.3l-1.2-.3.4-1.5c.4.1.9.2 1.3.4l-.5 1.4zm-7.2-.1l-.5-1.4c.4-.1.9-.3 1.3-.4l.3 1.5c-.4.1-.8.2-1.1.3zm4.2-.5h-1.2l-.1-1.5h1.4l-.1 1.5z" fill="#01acdb" id="BkeZeNryr3f"/><path d="M72.9 93.2c-.5 0-.9 0-1.4-.1l.1-1.5c.4 0 .8.1 1.2.1l.1 1.5zm2.1-.1l-.2-1.5c.4 0 .8-.1 1.2-.2l.3 1.5c-.4.1-.9.2-1.3.2zm-5.6-.3c-.4-.1-.9-.2-1.3-.4l.5-1.4 1.2.3-.4 1.5zm8.9-.5l-.5-1.4c.4-.1.8-.3 1.1-.5l.6 1.4c-.3.2-.7.4-1.2.5zm-12.1-.6c-.4-.2-.8-.4-1.2-.7l.8-1.3c.4.2.7.4 1.1.6l-.7 1.4zm15.3-.9l-.8-1.3c.3-.2.7-.5 1-.7l.9 1.2c-.4.3-.8.6-1.1.8zm-18.2-1c-.4-.3-.7-.6-1-.9l1.1-1.1c.3.3.6.6.9.8l-1 1.2zm20.8-1.2l-1.1-1c.3-.3.6-.6.8-.9l1.2.9c-.2.4-.5.7-.9 1zm-23.2-1.3c-.3-.4-.5-.7-.8-1.1l1.3-.8c.2.4.5.7.7 1l-1.2.9zm25.3-1.4l-1.3-.8c.2-.3.4-.7.6-1.1l1.4.6c-.2.5-.4.9-.7 1.3zm-27.1-1.6c-.2-.4-.3-.8-.5-1.3l1.4-.5c.1.4.3.8.5 1.1l-1.4.7zm28.5-1.6l-1.4-.5.3-1.2 1.5.3c-.1.6-.2 1-.4 1.4zM58 81.1c-.1-.4-.2-.9-.2-1.3l1.5-.2c.1.4.1.8.2 1.2l-1.5.3zm30.4-1.7l-1.5-.2c0-.4.1-.8.1-1.2l1.5.1c0 .4-.1.8-.1 1.3zm-30.8-1.7v-1h1.5v.9l-1.5.1zM88.5 76H87v-1.3h1.5V76zm0-3.3H87v-1.3h1.5v1.3z" fill="#01acdb" id="S1zWlEHkH2z"/><g data-animator-type="1"><path fill="#01acdb" d="M68.1 64.8l-7.9 2.4-2.6 8.1-2.5-8.1-8-2.4 8-2.3 2.5-8.1 2.6 8.1 7.9 2.3" data-animator-group="true" data-animator-type="2" id="SyVbgES1B3M"/></g><circle cx="33.1" cy="75.2" r="3.1" fill="#01acdb" id="rJ8bl4ryB2f"/><path d="M103.3 49.1c-.4 0-.8-.4-.8-.8V35.7c0-2.4-2-4.4-4.4-4.4-.4 0-.8-.4-.8-.8s.4-.8.8-.8c3.3 0 6 2.7 6 6v12.6c0 .5-.4.8-.8.8z" fill="#01acdb" id="BydWlVH1r3G"/><path d="M72.6 49.1c-.4 0-.8-.4-.8-.8V35.7c0-3.3 2.7-6 6-6 .4 0 .8.4.8.8s-.4.8-.8.8c-2.4 0-4.4 2-4.4 4.4v12.6c0 .5-.4.8-.8.8z" fill="#01acdb" id="r19Zg4S1r2z"/><path d="M88.5 72.2h-1.4c-2.1 0-3.7-1.7-3.7-3.7v-2.9c0-.4.4-.8.8-.8s.8.4.8.8v2.9c0 1.2 1 2.1 2.1 2.1h1.4c1.2 0 2.1-1 2.1-2.1v-3.1c0-.4.4-.8.8-.8s.8.4.8.8v3.1c0 2-1.7 3.7-3.7 3.7z" fill="#01acdb" id="rJhWx4BJShf"/><path fill="#01acdb" d="M32.2 63.2h1.6v1.3h-1.6z" id="BkCbgVB1rhf"/></svg>