<svg width="1251" height="625" fill="none" xmlns="http://www.w3.org/2000/svg"><g filter="url(#filter0_f)"><path d="M997.5 397L299.924 186.668l220.487-84.565L1093.2-34 543.578 160.648l-103.852 37.528s632.704 167.127 686.224 183.14C1179.48 397.328 712.5 510.5 712.5 510.5L439.726 624H105l44.737-71.554C316.7 484.394 649.016 406.695 997.5 397z" fill="#0BE"/><path d="M997.5 397L299.924 186.668l220.487-84.565L1093.2-34 543.578 160.648l-103.852 37.528s632.704 167.127 686.224 183.14C1179.48 397.328 712.5 510.5 712.5 510.5L439.726 624H105l44.737-71.554C316.7 484.394 649.016 406.695 997.5 397z" stroke="#5068E0"/></g><defs><filter id="filter0_f" x="-15.902" y="-154.486" width="1266.63" height="898.986" filterUnits="userSpaceOnUse" color-interpolation-filters="sRGB"><feFlood flood-opacity="0" result="BackgroundImageFix"/><feBlend in="SourceGraphic" in2="BackgroundImageFix" result="shape"/><feGaussianBlur stdDeviation="60" result="effect1_foregroundBlur"/></filter></defs></svg>