<svg width="34" height="34" fill="none" xmlns="http://www.w3.org/2000/svg"><path d="M30.714.5h-27.5C1.694.5.5 1.826.5 3.357v27.357c0 1.552 1.214 2.786 2.714 2.786h27.5c1.48 0 2.786-1.214 2.786-2.786V3.357C33.5 1.805 32.215.5 30.714.5z" stroke="#5068E0"/><path d="M14.11 20.589c2.338 2.49 5.178 4.411 7.5 4.411 1.044 0 1.958-.388 2.694-1.25.429-.508.696-1.102.696-1.688 0-.43-.154-.844-.534-1.137l-2.484-1.879c-.38-.275-.696-.413-.987-.413-.364 0-.696.224-1.068.611l-.574.604a.423.423 0 01-.308.137.726.726 0 01-.323-.094c-.502-.285-1.36-1.069-2.16-1.913-.793-.845-1.53-1.758-1.789-2.292a.89.89 0 01-.088-.345.45.45 0 01.12-.318l.575-.63c.356-.396.575-.74.575-1.137 0-.31-.138-.646-.405-1.05l-1.74-2.611A1.3 1.3 0 0012.695 9c-.534 0-1.084.258-1.561.75-.785.8-1.133 1.792-1.133 2.886 0 2.473 1.772 5.471 4.11 7.953z" fill="#5068E0"/></svg>