<svg width="56" height="56" fill="none" xmlns="http://www.w3.org/2000/svg"><path d="M28 38.36a11.49 11.49 0 00-11.48 11.48.84.84 0 00.84.84h21.28a.84.84 0 00.84-.84A11.491 11.491 0 0028 38.36zM18.234 49a9.8 9.8 0 0119.527 0H18.234zM28 36.68a5.88 5.88 0 100-11.76 5.88 5.88 0 000 11.76zm0-10.08a4.2 4.2 0 110 8.4 4.2 4.2 0 010-8.4zm13.048 2.24a11.59 11.59 0 00-4.407.84.84.84 0 10.633 1.557 9.924 9.924 0 013.774-.717c5.04 0 9.15 3.696 9.593 8.4H37.324a.84.84 0 000 1.68H51.52a.84.84 0 00.84-.84c0-6.02-5.073-10.92-11.312-10.92zm-.168-2.24a5.88 5.88 0 100-11.76 5.88 5.88 0 000 11.76zm0-10.08a4.2 4.2 0 110 8.4 4.2 4.2 0 010-8.4zM19.314 39.76a.84.84 0 00-.834-.84H5.359c.442-4.704 4.58-8.4 9.598-8.4a9.945 9.945 0 013.763.728.845.845 0 10.633-1.568 11.614 11.614 0 00-4.396-.851C8.72 28.84 3.64 33.74 3.64 39.76a.84.84 0 00.84.84h14a.84.84 0 00.834-.84zM15.12 26.6a5.88 5.88 0 100-11.76 5.88 5.88 0 000 11.76zm0-10.08a4.2 4.2 0 110 8.4 4.2 4.2 0 010-8.4zm9.8-3.214a.84.84 0 10-1.68 0c0 1.999 1.68 3.662 3.92 4.004v1.17a.84.84 0 001.68 0v-1.165c2.24-.341 3.92-2.005 3.92-4.004 0-1.999-1.68-3.662-3.92-4.004V4.553c1.294.285 2.24 1.204 2.24 2.301a.84.84 0 101.68 0c0-1.999-1.68-3.662-3.92-4.004V1.68a.84.84 0 00-1.68 0v1.165c-2.24.341-3.92 2.005-3.92 4.004 0 2 1.68 3.662 3.92 3.998v4.76c-1.288-.285-2.24-1.204-2.24-2.301zm6.16 0c0 1.12-.946 2.016-2.24 2.301V11.01c1.294.285 2.24 1.21 2.24 2.296zm-6.16-6.457c0-1.12.947-2.016 2.24-2.302V9.14c-1.293-.28-2.24-1.198-2.24-2.29z" fill="#11171A"/></svg>