<svg width="56" height="56" fill="none" xmlns="http://www.w3.org/2000/svg"><path d="M53.774 22.007a2.455 2.455 0 00-1.994-1.682l-14.884-2.162L30.24 4.675a2.455 2.455 0 00-2.215-1.377c-.947 0-1.796.528-2.216 1.377l-6.656 13.488-14.884 2.162a2.455 2.455 0 00-1.995 1.682A2.456 2.456 0 002.9 24.54l10.77 10.5-2.553 14.886a2.458 2.458 0 00.967 2.406 2.463 2.463 0 002.583.217l13.666-6.917 13.004 6.836c.838.442 1.835.37 2.601-.188a2.456 2.456 0 00.984-2.417L42.379 35.04l10.77-10.498a2.457 2.457 0 00.625-2.534zm-1.793 1.335l-11.4 11.112 2.69 15.691a.783.783 0 01-.316.78.778.778 0 01-.839.06l-13.768-7.238-14.436 7.307a.784.784 0 01-.833-.07.783.783 0 01-.312-.775l2.702-15.754-11.4-11.113a.782.782 0 01-.202-.817.783.783 0 01.643-.542l15.755-2.29L27.31 5.417a.782.782 0 01.714-.444.78.78 0 01.714.444l7.046 14.276 15.754 2.29a.781.781 0 01.643.542.78.78 0 01-.201.817z" fill="#11171A"/></svg>