<svg width="56" height="56" fill="none" xmlns="http://www.w3.org/2000/svg"><path d="M36.707 32.075v-2.41a.836.836 0 00-1.172-.768l-7.491 3.267-7.492-3.267a.837.837 0 00-1.17.768v2.274c-6.903 3.286-11.34 10.257-11.34 17.931 0 .462.374.837.837.837h38.044a.837.837 0 00.837-.837c0-7.537-4.324-14.456-11.053-17.795zm-1.674-1.133v4.27l-4.895-2.135 4.895-2.135zm-9.083 2.135l-4.895 2.135v-4.27l4.895 2.135zm-6.569.722v2.691a.837.837 0 001.172.768l7.492-3.268 7.49 3.268a.833.833 0 00.794-.067.836.836 0 00.378-.7v-2.537a18.165 18.165 0 014.972 4.069c-.012.016-.026.03-.037.046L34.7 49.033H20.631L14.165 38.09c-.015-.024-.033-.044-.05-.066a18.163 18.163 0 015.266-4.226zm-6.366 5.637l5.672 9.597H9.736a18.175 18.175 0 013.28-9.597zm23.666 9.597l6.085-9.609a18.211 18.211 0 013.3 9.61h-9.385v-.001zM27.57 27.959c6.304 0 11.432-5.128 11.432-11.432 0-.413-.025-.82-.068-1.22a.835.835 0 00-.13-.859c-.982-5.313-5.64-9.353-11.234-9.353s-10.254 4.043-11.234 9.358a.83.83 0 00-.131.86c-.043.4-.066.804-.066 1.213 0 6.305 5.128 11.433 11.431 11.433zm0-1.674c-5.38 0-9.757-4.378-9.757-9.758 0-.243.019-.482.036-.722 1.59-.057 4.991-.293 7.244-1.245 1.73-.73 4.024-2.257 4.965-2.904l7.209 3.804c.038.35.061.706.061 1.066 0 5.381-4.377 9.759-9.758 9.759zm0-19.516c4.25 0 7.865 2.736 9.2 6.537l-6.382-3.368a.836.836 0 00-.877.058c-.03.022-3.06 2.175-5.07 3.023-1.846.78-4.726 1.023-6.315 1.098 1.078-4.217 4.897-7.348 9.444-7.348z" fill="#11171A"/></svg>