<svg width="56" height="56" fill="none" xmlns="http://www.w3.org/2000/svg"><path d="M50.549 37.176h-8.852v-6.81h8.717a.837.837 0 00.837-.837v-9.38a.837.837 0 00-.837-.838h-8.631v-8.029a.837.837 0 00-.837-.837H18.95V6.591a.837.837 0 00-.837-.837H5.255a.837.837 0 00-.837.837v9.382c0 .463.374.837.837.837h5.592v5.433l.174 9.366v5.417H5.43a.837.837 0 00-.837.837v9.382c0 .462.374.837.837.837h12.857a.837.837 0 00.837-.837v-9.382a.837.837 0 00-.837-.837h-5.592v-5.433l-.174-9.366V16.81h5.592a.837.837 0 00.837-.837v-3.854h21.16v7.192H25.59a.837.837 0 00-.837.837v9.381c0 .462.375.837.837.837h14.433v6.81H25.47a.837.837 0 00-.837.838v9.381c0 .462.375.837.837.837h25.08a.837.837 0 00.837-.837v-9.381a.837.837 0 00-.837-.838zM17.45 46.407H6.267V38.7H17.45v7.707zm-.174-31.271H6.092V7.428h11.184v7.708zm9.151 5.85h23.15v7.706h-23.15v-7.707zm23.285 25.572H26.307v-7.707h23.405v7.707z" fill="#11171A"/></svg>