<svg width="56" height="56" fill="none" xmlns="http://www.w3.org/2000/svg"><path d="M11.378 10.765l6.47 2.845a11.249 11.249 0 00-1.952 6.358c0 6.247 5.076 11.378 11.378 11.378a11.355 11.355 0 0011.379-11.378c0-2.231-.67-4.462-1.896-6.303l5.689-2.677v10.82l-1.73 3.682c-.11.279-.11.558.056.78.168.224.447.391.726.391h3.29c.28 0 .558-.111.67-.39.167-.223.167-.502.055-.781l-1.505-3.681V10.263c0-.446-.056-.781-.837-1.116-.167-.055-15.506-6.86-15.506-6.86a.711.711 0 00-.67 0L11.378 9.203c-.279.112-.502.446-.502.781s.167.614.502.78zm25.546 9.203c0 5.355-4.35 9.705-9.705 9.705s-9.706-4.35-9.706-9.705c0-2.064.67-4.016 1.841-5.69l7.586 3.403a.702.702 0 00.334.056c.112 0 .223 0 .335-.056l7.474-3.346a9.454 9.454 0 011.84 5.633zm5.856 5.02l.39-.837.335.837h-.725zM27.33 3.96l13.554 6.024-13.554 6.024-13.554-6.024L27.33 3.96zm.224 29.395c-10.877 0-19.745 8.868-19.745 19.745 0 .446.39.836.836.836h37.817c.446 0 .837-.39.837-.837 0-10.876-8.869-19.744-19.745-19.744zM9.538 52.263c.446-9.594 8.366-17.235 18.071-17.235 9.706 0 17.57 7.697 18.016 17.235H9.538z" fill="#11171A"/></svg>