<svg width="56" height="56" fill="none" xmlns="http://www.w3.org/2000/svg"><path d="M20.033 13.764h28.994a.837.837 0 100-1.674H20.033a.837.837 0 100 1.674zm28.994 13.461H20.033a.837.837 0 100 1.674h28.994a.837.837 0 100-1.674zm0 14.813H20.033a.837.837 0 100 1.674h28.994a.837.837 0 100-1.674zM10.057 8.81a4.12 4.12 0 00-4.117 4.116 4.122 4.122 0 004.117 4.117 4.122 4.122 0 004.117-4.117 4.12 4.12 0 00-4.117-4.115zm0 6.56a2.446 2.446 0 01-2.442-2.444 2.444 2.444 0 012.442-2.441 2.445 2.445 0 012.442 2.44 2.445 2.445 0 01-2.442 2.444zm0 8.575a4.12 4.12 0 00-4.117 4.116 4.122 4.122 0 004.117 4.118 4.122 4.122 0 004.117-4.118 4.12 4.12 0 00-4.117-4.116zm0 6.56a2.446 2.446 0 01-2.442-2.444 2.445 2.445 0 012.442-2.442 2.445 2.445 0 012.442 2.442 2.445 2.445 0 01-2.442 2.444zm0 8.253a4.121 4.121 0 00-4.117 4.117 4.122 4.122 0 004.117 4.117 4.122 4.122 0 004.117-4.117 4.12 4.12 0 00-4.117-4.117zm0 6.56a2.445 2.445 0 01-2.442-2.443 2.445 2.445 0 012.442-2.442 2.446 2.446 0 012.442 2.442 2.445 2.445 0 01-2.442 2.443z" fill="#231F20"/></svg>