<svg width="56" height="56" fill="none" xmlns="http://www.w3.org/2000/svg"><path d="M43.866 34.015a.84.84 0 00-1.128.363l-6.599 12.87a.838.838 0 001.492.765l6.598-12.87a.837.837 0 00-.363-1.128zm11.351 6.453l-6.99-6.973a.838.838 0 00-1.183 1.187l6.395 6.379-6.395 6.38a.838.838 0 001.184 1.186l6.99-6.973a.838.838 0 000-1.186zm-22.499-6.971a.838.838 0 00-1.185-.001l-6.988 6.972a.84.84 0 000 1.187l6.988 6.972a.836.836 0 001.185 0 .838.838 0 00-.001-1.186l-6.393-6.38 6.393-6.379a.839.839 0 000-1.185zM19.83 43.511H3.239c.433-7.945 6.994-14.277 14.997-14.277 2.276 0 4.462.5 6.497 1.484a.838.838 0 00.73-1.508 16.465 16.465 0 00-7.227-1.651c-9.206 0-16.696 7.532-16.696 16.79 0 .463.375.838.838.838h17.454a.838.838 0 100-1.676zm-1.262-17.865c5.394 0 9.783-4.387 9.783-9.78s-4.388-9.781-9.783-9.781c-5.392 0-9.779 4.387-9.779 9.78 0 5.394 4.387 9.781 9.779 9.781zm0-17.885c4.47 0 8.107 3.635 8.107 8.104 0 4.47-3.637 8.106-8.107 8.106-4.468 0-8.103-3.636-8.103-8.106 0-4.469 3.635-8.104 8.103-8.104z" fill="#11171A"/></svg>