<svg xmlns="http://www.w3.org/2000/svg" xmlns:xlink="http://www.w3.org/1999/xlink" xmlns:lucid="lucid" width="720" height="880"><g transform="translate(-140 -40)" lucid:page-tab-id="7aYvDrc2n0Jz"><path d="M0 0h1870.4v1323.2H0z" fill="#fff"/><path d="M560 840c22.1 0 40 13.43 40 30s-17.9 30-40 30H440c-22.1 0-40-13.43-40-30s17.9-30 40-30z" stroke="#7ab648" stroke-width="2" fill="#c7e8ac" fill-opacity=".5"/><use xlink:href="#a" transform="translate(472.05 875.025)"/><path d="M560 520c22.1 0 40 13.43 40 30s-17.9 30-40 30H440c-22.1 0-40-13.43-40-30s17.9-30 40-30z" stroke="#7ab648" stroke-width="2" fill="#c7e8ac" fill-opacity=".5"/><use xlink:href="#b" transform="translate(464.575 555.025)"/><path d="M800 720c22.1 0 40 13.43 40 30s-17.9 30-40 30H680c-22.1 0-40-13.43-40-30s17.9-30 40-30z" stroke="#3aa6dd" stroke-width="2" fill="#c1e4f7" fill-opacity=".5"/><use xlink:href="#c" transform="translate(701.525 755.025)"/><path d="M560 320c22.1 0 40 13.43 40 30s-17.9 30-40 30H440c-22.1 0-40-13.43-40-30s17.9-30 40-30z" stroke="#7ab648" stroke-width="2" fill="#c7e8ac" fill-opacity=".5"/><use xlink:href="#d" transform="translate(460.575 355.025)"/><path d="M800 620c22.1 0 40 13.43 40 30s-17.9 30-40 30H680c-22.1 0-40-13.43-40-30s17.9-30 40-30z" stroke="#3aa6dd" stroke-width="2" fill="#c1e4f7" fill-opacity=".5"/><use xlink:href="#e" transform="translate(703.05 655.025)"/><path d="M320 620c22.1 0 40 13.43 40 30s-17.9 30-40 30H200c-22.1 0-40-13.43-40-30s17.9-30 40-30z" stroke="#de5f85" stroke-width="2" fill="#f9d2de" fill-opacity=".5"/><use xlink:href="#f" transform="translate(233.575 655.025)"/><path d="M320 420c22.1 0 40 13.43 40 30s-17.9 30-40 30H200c-22.1 0-40-13.43-40-30s17.9-30 40-30z" stroke="#de5f85" stroke-width="2" fill="#f9d2de" fill-opacity=".5"/><use xlink:href="#g" transform="translate(203.15 455.025)"/><use xlink:href="#h" transform="translate(245.05 455.025)"/><path d="M320 720c22.1 0 40 13.43 40 30s-17.9 30-40 30H200c-22.1 0-40-13.43-40-30s17.9-30 40-30z" stroke="#de5f85" stroke-width="2" fill="#f9d2de" fill-opacity=".5"/><use xlink:href="#i" transform="translate(232.025 755.025)"/><path d="M160 220h200v60H160z" stroke="#de5f85" stroke-width="2" fill="#f9d2de" fill-opacity=".5"/><use xlink:href="#j" transform="translate(180.625 246.4)"/><use xlink:href="#k" transform="translate(270.475 246.4)"/><use xlink:href="#l" transform="translate(227.525 268)"/><path d="M800 520c22.1 0 40 13.43 40 30s-17.9 30-40 30H680c-22.1 0-40-13.43-40-30s17.9-30 40-30z" fill="url(#m)"/><path d="M801 520c0 .55-.45 1-1 1s-1-.45-1-1 .45-1 1-1 1 .45 1 1zm7.86.64c0 .55-.45 1-1 1-.56 0-1-.45-1-1s.44-1 1-1c.55 0 1 .45 1 1zm7.66 1.8c0 .55-.44 1-1 1-.55 0-1-.45-1-1s.45-1 1-1c.56 0 1 .45 1 1zm7.3 2.97c0 .56-.45 1-1 1s-1-.44-1-1c0-.55.45-1 1-1s1 .45 1 1zm6.57 4.34c0 .55-.46 1-1 1-.56 0-1-.45-1-1s.44-1 1-1c.54 0 1 .45 1 1zm5.47 5.64c0 .55-.45 1-1 1-.56 0-1-.45-1-1 0-.56.44-1 1-1 .55 0 1 .44 1 1zm3.76 6.9c0 .54-.45 1-1 1s-1-.46-1-1c0-.56.45-1 1-1s1 .44 1 1zM841 550c0 .55-.45 1-1 1s-1-.45-1-1 .45-1 1-1 1 .45 1 1zm-1.38 7.73c0 .55-.45 1-1 1s-1-.45-1-1 .45-1 1-1 1 .45 1 1zm-3.73 6.9c0 .56-.46 1-1 1-.56 0-1-.44-1-1 0-.54.44-1 1-1 .54 0 1 .46 1 1zm-5.48 5.67c0 .55-.45 1-1 1-.56 0-1-.45-1-1 0-.56.44-1 1-1 .55 0 1 .44 1 1zm-6.62 4.27c0 .56-.44 1-1 1-.55 0-1-.44-1-1 0-.55.45-1 1-1 .56 0 1 .45 1 1zm-7.26 3.04c0 .56-.45 1-1 1s-1-.44-1-1c0-.54.45-1 1-1s1 .46 1 1zm-7.7 1.73c0 .55-.44 1-1 1-.54 0-1-.45-1-1 0-.56.46-1 1-1 .56 0 1 .44 1 1zM801 580c0 .55-.45 1-1 1s-1-.45-1-1 .45-1 1-1 1 .45 1 1zm-8 0c0 .55-.45 1-1 1s-1-.45-1-1 .45-1 1-1 1 .45 1 1zm-8 0c0 .55-.45 1-1 1s-1-.45-1-1 .45-1 1-1 1 .45 1 1zm-8 0c0 .55-.45 1-1 1s-1-.45-1-1 .45-1 1-1 1 .45 1 1zm-8 0c0 .55-.45 1-1 1s-1-.45-1-1 .45-1 1-1 1 .45 1 1zm-8 0c0 .55-.45 1-1 1s-1-.45-1-1 .45-1 1-1 1 .45 1 1zm-8 0c0 .55-.45 1-1 1s-1-.45-1-1 .45-1 1-1 1 .45 1 1zm-8 0c0 .55-.45 1-1 1s-1-.45-1-1 .45-1 1-1 1 .45 1 1zm-8 0c0 .55-.45 1-1 1s-1-.45-1-1 .45-1 1-1 1 .45 1 1zm-8 0c0 .55-.45 1-1 1s-1-.45-1-1 .45-1 1-1 1 .45 1 1zm-8 0c0 .55-.45 1-1 1s-1-.45-1-1 .45-1 1-1 1 .45 1 1zm-8 0c0 .55-.45 1-1 1s-1-.45-1-1 .45-1 1-1 1 .45 1 1zm-8 0c0 .55-.45 1-1 1s-1-.45-1-1 .45-1 1-1 1 .45 1 1zm-8 0c0 .55-.45 1-1 1s-1-.45-1-1 .45-1 1-1 1 .45 1 1zm-8 0c0 .55-.45 1-1 1s-1-.45-1-1 .45-1 1-1 1 .45 1 1zm-8 0c0 .55-.45 1-1 1s-1-.45-1-1 .45-1 1-1 1 .45 1 1zm-7.86-.64c0 .55-.44 1-1 1-.55 0-1-.45-1-1s.45-1 1-1c.56 0 1 .45 1 1zm-7.66-1.8c0 .55-.45 1-1 1-.56 0-1-.45-1-1s.44-1 1-1c.55 0 1 .45 1 1zm-7.3-2.97c0 .55-.45 1-1 1s-1-.45-1-1c0-.56.45-1 1-1s1 .44 1 1zm-6.57-4.34c0 .55-.44 1-1 1-.54 0-1-.45-1-1s.46-1 1-1c.56 0 1 .45 1 1zm-5.47-5.64c0 .56-.44 1-1 1-.55 0-1-.44-1-1 0-.55.45-1 1-1 .56 0 1 .45 1 1zm-3.76-6.9c0 .56-.45 1-1 1s-1-.44-1-1c0-.54.45-1 1-1s1 .46 1 1zM641 550c0 .55-.45 1-1 1s-1-.45-1-1 .45-1 1-1 1 .45 1 1zm1.38-7.73c0 .55-.45 1-1 1s-1-.45-1-1 .45-1 1-1 1 .45 1 1zm3.73-6.9c0 .54-.44 1-1 1-.54 0-1-.46-1-1 0-.56.46-1 1-1 .56 0 1 .44 1 1zm5.48-5.67c0 .56-.44 1-1 1-.55 0-1-.44-1-1 0-.55.45-1 1-1 .56 0 1 .45 1 1zm6.62-4.27c0 .55-.45 1-1 1-.56 0-1-.45-1-1 0-.56.44-1 1-1 .55 0 1 .44 1 1zm7.26-3.04c0 .54-.45 1-1 1s-1-.46-1-1c0-.56.45-1 1-1s1 .44 1 1zm7.7-1.73c0 .56-.46 1-1 1-.56 0-1-.44-1-1 0-.55.44-1 1-1 .54 0 1 .45 1 1zM681 520c0 .55-.45 1-1 1s-1-.45-1-1 .45-1 1-1 1 .45 1 1zm8 0c0 .55-.45 1-1 1s-1-.45-1-1 .45-1 1-1 1 .45 1 1zm8 0c0 .55-.45 1-1 1s-1-.45-1-1 .45-1 1-1 1 .45 1 1zm8 0c0 .55-.45 1-1 1s-1-.45-1-1 .45-1 1-1 1 .45 1 1zm8 0c0 .55-.45 1-1 1s-1-.45-1-1 .45-1 1-1 1 .45 1 1zm8 0c0 .55-.45 1-1 1s-1-.45-1-1 .45-1 1-1 1 .45 1 1zm8 0c0 .55-.45 1-1 1s-1-.45-1-1 .45-1 1-1 1 .45 1 1zm8 0c0 .55-.45 1-1 1s-1-.45-1-1 .45-1 1-1 1 .45 1 1zm8 0c0 .55-.45 1-1 1s-1-.45-1-1 .45-1 1-1 1 .45 1 1zm8 0c0 .55-.45 1-1 1s-1-.45-1-1 .45-1 1-1 1 .45 1 1zm8 0c0 .55-.45 1-1 1s-1-.45-1-1 .45-1 1-1 1 .45 1 1zm8 0c0 .55-.45 1-1 1s-1-.45-1-1 .45-1 1-1 1 .45 1 1zm8 0c0 .55-.45 1-1 1s-1-.45-1-1 .45-1 1-1 1 .45 1 1zm8 0c0 .55-.45 1-1 1s-1-.45-1-1 .45-1 1-1 1 .45 1 1zm8 0c0 .55-.45 1-1 1s-1-.45-1-1 .45-1 1-1 1 .45 1 1z" fill="#3aa6dd"/><use xlink:href="#n" transform="translate(704.575 555.025)"/><path d="M320 520c22.1 0 40 13.43 40 30s-17.9 30-40 30H200c-22.1 0-40-13.43-40-30s17.9-30 40-30z" fill="url(#o)"/><path d="M321 520c0 .55-.45 1-1 1s-1-.45-1-1 .45-1 1-1 1 .45 1 1zm7.86.64c0 .55-.45 1-1 1-.56 0-1-.45-1-1s.44-1 1-1c.55 0 1 .45 1 1zm7.66 1.8c0 .55-.44 1-1 1-.55 0-1-.45-1-1s.45-1 1-1c.56 0 1 .45 1 1zm7.3 2.97c0 .56-.45 1-1 1s-1-.44-1-1c0-.55.45-1 1-1s1 .45 1 1zm6.57 4.34c0 .55-.46 1-1 1-.56 0-1-.45-1-1s.44-1 1-1c.54 0 1 .45 1 1zm5.47 5.64c0 .55-.45 1-1 1-.56 0-1-.45-1-1 0-.56.44-1 1-1 .55 0 1 .44 1 1zm3.76 6.9c0 .54-.45 1-1 1s-1-.46-1-1c0-.56.45-1 1-1s1 .44 1 1zM361 550c0 .55-.45 1-1 1s-1-.45-1-1 .45-1 1-1 1 .45 1 1zm-1.38 7.73c0 .55-.45 1-1 1s-1-.45-1-1 .45-1 1-1 1 .45 1 1zm-3.73 6.9c0 .56-.46 1-1 1-.56 0-1-.44-1-1 0-.54.44-1 1-1 .54 0 1 .46 1 1zm-5.48 5.67c0 .55-.45 1-1 1-.56 0-1-.45-1-1 0-.56.44-1 1-1 .55 0 1 .44 1 1zm-6.62 4.27c0 .56-.44 1-1 1-.55 0-1-.44-1-1 0-.55.45-1 1-1 .56 0 1 .45 1 1zm-7.26 3.04c0 .56-.45 1-1 1s-1-.44-1-1c0-.54.45-1 1-1s1 .46 1 1zm-7.7 1.73c0 .55-.44 1-1 1-.54 0-1-.45-1-1 0-.56.46-1 1-1 .56 0 1 .44 1 1zM321 580c0 .55-.45 1-1 1s-1-.45-1-1 .45-1 1-1 1 .45 1 1zm-8 0c0 .55-.45 1-1 1s-1-.45-1-1 .45-1 1-1 1 .45 1 1zm-8 0c0 .55-.45 1-1 1s-1-.45-1-1 .45-1 1-1 1 .45 1 1zm-8 0c0 .55-.45 1-1 1s-1-.45-1-1 .45-1 1-1 1 .45 1 1zm-8 0c0 .55-.45 1-1 1s-1-.45-1-1 .45-1 1-1 1 .45 1 1zm-8 0c0 .55-.45 1-1 1s-1-.45-1-1 .45-1 1-1 1 .45 1 1zm-8 0c0 .55-.45 1-1 1s-1-.45-1-1 .45-1 1-1 1 .45 1 1zm-8 0c0 .55-.45 1-1 1s-1-.45-1-1 .45-1 1-1 1 .45 1 1zm-8 0c0 .55-.45 1-1 1s-1-.45-1-1 .45-1 1-1 1 .45 1 1zm-8 0c0 .55-.45 1-1 1s-1-.45-1-1 .45-1 1-1 1 .45 1 1zm-8 0c0 .55-.45 1-1 1s-1-.45-1-1 .45-1 1-1 1 .45 1 1zm-8 0c0 .55-.45 1-1 1s-1-.45-1-1 .45-1 1-1 1 .45 1 1zm-8 0c0 .55-.45 1-1 1s-1-.45-1-1 .45-1 1-1 1 .45 1 1zm-8 0c0 .55-.45 1-1 1s-1-.45-1-1 .45-1 1-1 1 .45 1 1zm-8 0c0 .55-.45 1-1 1s-1-.45-1-1 .45-1 1-1 1 .45 1 1zm-8 0c0 .55-.45 1-1 1s-1-.45-1-1 .45-1 1-1 1 .45 1 1zm-7.86-.64c0 .55-.44 1-1 1-.55 0-1-.45-1-1s.45-1 1-1c.56 0 1 .45 1 1zm-7.66-1.8c0 .55-.45 1-1 1-.56 0-1-.45-1-1s.44-1 1-1c.55 0 1 .45 1 1zm-7.3-2.97c0 .55-.45 1-1 1s-1-.45-1-1c0-.56.45-1 1-1s1 .44 1 1zm-6.57-4.34c0 .55-.44 1-1 1-.54 0-1-.45-1-1s.46-1 1-1c.56 0 1 .45 1 1zm-5.47-5.64c0 .56-.44 1-1 1-.55 0-1-.44-1-1 0-.55.45-1 1-1 .56 0 1 .45 1 1zm-3.76-6.9c0 .56-.45 1-1 1s-1-.44-1-1c0-.54.45-1 1-1s1 .46 1 1zM161 550c0 .55-.45 1-1 1s-1-.45-1-1 .45-1 1-1 1 .45 1 1zm1.38-7.73c0 .55-.45 1-1 1s-1-.45-1-1 .45-1 1-1 1 .45 1 1zm3.73-6.9c0 .54-.44 1-1 1-.54 0-1-.46-1-1 0-.56.46-1 1-1 .56 0 1 .44 1 1zm5.48-5.67c0 .56-.44 1-1 1-.55 0-1-.44-1-1 0-.55.45-1 1-1 .56 0 1 .45 1 1zm6.62-4.27c0 .55-.45 1-1 1-.56 0-1-.45-1-1 0-.56.44-1 1-1 .55 0 1 .44 1 1zm7.26-3.04c0 .54-.45 1-1 1s-1-.46-1-1c0-.56.45-1 1-1s1 .44 1 1zm7.7-1.73c0 .56-.46 1-1 1-.56 0-1-.44-1-1 0-.55.44-1 1-1 .54 0 1 .45 1 1zM201 520c0 .55-.45 1-1 1s-1-.45-1-1 .45-1 1-1 1 .45 1 1zm8 0c0 .55-.45 1-1 1s-1-.45-1-1 .45-1 1-1 1 .45 1 1zm8 0c0 .55-.45 1-1 1s-1-.45-1-1 .45-1 1-1 1 .45 1 1zm8 0c0 .55-.45 1-1 1s-1-.45-1-1 .45-1 1-1 1 .45 1 1zm8 0c0 .55-.45 1-1 1s-1-.45-1-1 .45-1 1-1 1 .45 1 1zm8 0c0 .55-.45 1-1 1s-1-.45-1-1 .45-1 1-1 1 .45 1 1zm8 0c0 .55-.45 1-1 1s-1-.45-1-1 .45-1 1-1 1 .45 1 1zm8 0c0 .55-.45 1-1 1s-1-.45-1-1 .45-1 1-1 1 .45 1 1zm8 0c0 .55-.45 1-1 1s-1-.45-1-1 .45-1 1-1 1 .45 1 1zm8 0c0 .55-.45 1-1 1s-1-.45-1-1 .45-1 1-1 1 .45 1 1zm8 0c0 .55-.45 1-1 1s-1-.45-1-1 .45-1 1-1 1 .45 1 1zm8 0c0 .55-.45 1-1 1s-1-.45-1-1 .45-1 1-1 1 .45 1 1zm8 0c0 .55-.45 1-1 1s-1-.45-1-1 .45-1 1-1 1 .45 1 1zm8 0c0 .55-.45 1-1 1s-1-.45-1-1 .45-1 1-1 1 .45 1 1zm8 0c0 .55-.45 1-1 1s-1-.45-1-1 .45-1 1-1 1 .45 1 1z" fill="#de5f85"/><use xlink:href="#n" transform="translate(224.575 555.025)"/><path d="M320 320c22.1 0 40 13.43 40 30s-17.9 30-40 30H200c-22.1 0-40-13.43-40-30s17.9-30 40-30z" fill="url(#p)"/><path d="M321 320c0 .55-.45 1-1 1s-1-.45-1-1 .45-1 1-1 1 .45 1 1zm7.86.64c0 .55-.45 1-1 1-.56 0-1-.45-1-1s.44-1 1-1c.55 0 1 .45 1 1zm7.66 1.8c0 .55-.44 1-1 1-.55 0-1-.45-1-1s.45-1 1-1c.56 0 1 .45 1 1zm7.3 2.97c0 .56-.45 1-1 1s-1-.44-1-1c0-.55.45-1 1-1s1 .45 1 1zm6.57 4.34c0 .55-.46 1-1 1-.56 0-1-.45-1-1s.44-1 1-1c.54 0 1 .45 1 1zm5.47 5.64c0 .55-.45 1-1 1-.56 0-1-.45-1-1 0-.56.44-1 1-1 .55 0 1 .44 1 1zm3.76 6.9c0 .54-.45 1-1 1s-1-.46-1-1c0-.56.45-1 1-1s1 .44 1 1zM361 350c0 .55-.45 1-1 1s-1-.45-1-1 .45-1 1-1 1 .45 1 1zm-1.38 7.73c0 .55-.45 1-1 1s-1-.45-1-1 .45-1 1-1 1 .45 1 1zm-3.73 6.9c0 .56-.46 1-1 1-.56 0-1-.44-1-1 0-.54.44-1 1-1 .54 0 1 .46 1 1zm-5.48 5.67c0 .55-.45 1-1 1-.56 0-1-.45-1-1 0-.56.44-1 1-1 .55 0 1 .44 1 1zm-6.62 4.27c0 .56-.44 1-1 1-.55 0-1-.44-1-1 0-.55.45-1 1-1 .56 0 1 .45 1 1zm-7.26 3.04c0 .56-.45 1-1 1s-1-.44-1-1c0-.54.45-1 1-1s1 .46 1 1zm-7.7 1.73c0 .55-.44 1-1 1-.54 0-1-.45-1-1 0-.56.46-1 1-1 .56 0 1 .44 1 1zM321 380c0 .55-.45 1-1 1s-1-.45-1-1 .45-1 1-1 1 .45 1 1zm-8 0c0 .55-.45 1-1 1s-1-.45-1-1 .45-1 1-1 1 .45 1 1zm-8 0c0 .55-.45 1-1 1s-1-.45-1-1 .45-1 1-1 1 .45 1 1zm-8 0c0 .55-.45 1-1 1s-1-.45-1-1 .45-1 1-1 1 .45 1 1zm-8 0c0 .55-.45 1-1 1s-1-.45-1-1 .45-1 1-1 1 .45 1 1zm-8 0c0 .55-.45 1-1 1s-1-.45-1-1 .45-1 1-1 1 .45 1 1zm-8 0c0 .55-.45 1-1 1s-1-.45-1-1 .45-1 1-1 1 .45 1 1zm-8 0c0 .55-.45 1-1 1s-1-.45-1-1 .45-1 1-1 1 .45 1 1zm-8 0c0 .55-.45 1-1 1s-1-.45-1-1 .45-1 1-1 1 .45 1 1zm-8 0c0 .55-.45 1-1 1s-1-.45-1-1 .45-1 1-1 1 .45 1 1zm-8 0c0 .55-.45 1-1 1s-1-.45-1-1 .45-1 1-1 1 .45 1 1zm-8 0c0 .55-.45 1-1 1s-1-.45-1-1 .45-1 1-1 1 .45 1 1zm-8 0c0 .55-.45 1-1 1s-1-.45-1-1 .45-1 1-1 1 .45 1 1zm-8 0c0 .55-.45 1-1 1s-1-.45-1-1 .45-1 1-1 1 .45 1 1zm-8 0c0 .55-.45 1-1 1s-1-.45-1-1 .45-1 1-1 1 .45 1 1zm-8 0c0 .55-.45 1-1 1s-1-.45-1-1 .45-1 1-1 1 .45 1 1zm-7.86-.64c0 .55-.44 1-1 1-.55 0-1-.45-1-1s.45-1 1-1c.56 0 1 .45 1 1zm-7.66-1.8c0 .55-.45 1-1 1-.56 0-1-.45-1-1s.44-1 1-1c.55 0 1 .45 1 1zm-7.3-2.97c0 .55-.45 1-1 1s-1-.45-1-1c0-.56.45-1 1-1s1 .44 1 1zm-6.57-4.34c0 .55-.44 1-1 1-.54 0-1-.45-1-1s.46-1 1-1c.56 0 1 .45 1 1zm-5.47-5.64c0 .56-.44 1-1 1-.55 0-1-.44-1-1 0-.55.45-1 1-1 .56 0 1 .45 1 1zm-3.76-6.9c0 .56-.45 1-1 1s-1-.44-1-1c0-.54.45-1 1-1s1 .46 1 1zM161 350c0 .55-.45 1-1 1s-1-.45-1-1 .45-1 1-1 1 .45 1 1zm1.38-7.73c0 .55-.45 1-1 1s-1-.45-1-1 .45-1 1-1 1 .45 1 1zm3.73-6.9c0 .54-.44 1-1 1-.54 0-1-.46-1-1 0-.56.46-1 1-1 .56 0 1 .44 1 1zm5.48-5.67c0 .56-.44 1-1 1-.55 0-1-.44-1-1 0-.55.45-1 1-1 .56 0 1 .45 1 1zm6.62-4.27c0 .55-.45 1-1 1-.56 0-1-.45-1-1 0-.56.44-1 1-1 .55 0 1 .44 1 1zm7.26-3.04c0 .54-.45 1-1 1s-1-.46-1-1c0-.56.45-1 1-1s1 .44 1 1zm7.7-1.73c0 .56-.46 1-1 1-.56 0-1-.44-1-1 0-.55.44-1 1-1 .54 0 1 .45 1 1zM201 320c0 .55-.45 1-1 1s-1-.45-1-1 .45-1 1-1 1 .45 1 1zm8 0c0 .55-.45 1-1 1s-1-.45-1-1 .45-1 1-1 1 .45 1 1zm8 0c0 .55-.45 1-1 1s-1-.45-1-1 .45-1 1-1 1 .45 1 1zm8 0c0 .55-.45 1-1 1s-1-.45-1-1 .45-1 1-1 1 .45 1 1zm8 0c0 .55-.45 1-1 1s-1-.45-1-1 .45-1 1-1 1 .45 1 1zm8 0c0 .55-.45 1-1 1s-1-.45-1-1 .45-1 1-1 1 .45 1 1zm8 0c0 .55-.45 1-1 1s-1-.45-1-1 .45-1 1-1 1 .45 1 1zm8 0c0 .55-.45 1-1 1s-1-.45-1-1 .45-1 1-1 1 .45 1 1zm8 0c0 .55-.45 1-1 1s-1-.45-1-1 .45-1 1-1 1 .45 1 1zm8 0c0 .55-.45 1-1 1s-1-.45-1-1 .45-1 1-1 1 .45 1 1zm8 0c0 .55-.45 1-1 1s-1-.45-1-1 .45-1 1-1 1 .45 1 1zm8 0c0 .55-.45 1-1 1s-1-.45-1-1 .45-1 1-1 1 .45 1 1zm8 0c0 .55-.45 1-1 1s-1-.45-1-1 .45-1 1-1 1 .45 1 1zm8 0c0 .55-.45 1-1 1s-1-.45-1-1 .45-1 1-1 1 .45 1 1zm8 0c0 .55-.45 1-1 1s-1-.45-1-1 .45-1 1-1 1 .45 1 1z" fill="#de5f85"/><use xlink:href="#q" transform="translate(220.575 355.025)"/><path d="M800 320c22.1 0 40 13.43 40 30s-17.9 30-40 30H680c-22.1 0-40-13.43-40-30s17.9-30 40-30z" fill="url(#r)"/><path d="M801 320c0 .55-.45 1-1 1s-1-.45-1-1 .45-1 1-1 1 .45 1 1zm7.86.64c0 .55-.45 1-1 1-.56 0-1-.45-1-1s.44-1 1-1c.55 0 1 .45 1 1zm7.66 1.8c0 .55-.44 1-1 1-.55 0-1-.45-1-1s.45-1 1-1c.56 0 1 .45 1 1zm7.3 2.97c0 .56-.45 1-1 1s-1-.44-1-1c0-.55.45-1 1-1s1 .45 1 1zm6.57 4.34c0 .55-.46 1-1 1-.56 0-1-.45-1-1s.44-1 1-1c.54 0 1 .45 1 1zm5.47 5.64c0 .55-.45 1-1 1-.56 0-1-.45-1-1 0-.56.44-1 1-1 .55 0 1 .44 1 1zm3.76 6.9c0 .54-.45 1-1 1s-1-.46-1-1c0-.56.45-1 1-1s1 .44 1 1zM841 350c0 .55-.45 1-1 1s-1-.45-1-1 .45-1 1-1 1 .45 1 1zm-1.38 7.73c0 .55-.45 1-1 1s-1-.45-1-1 .45-1 1-1 1 .45 1 1zm-3.73 6.9c0 .56-.46 1-1 1-.56 0-1-.44-1-1 0-.54.44-1 1-1 .54 0 1 .46 1 1zm-5.48 5.67c0 .55-.45 1-1 1-.56 0-1-.45-1-1 0-.56.44-1 1-1 .55 0 1 .44 1 1zm-6.62 4.27c0 .56-.44 1-1 1-.55 0-1-.44-1-1 0-.55.45-1 1-1 .56 0 1 .45 1 1zm-7.26 3.04c0 .56-.45 1-1 1s-1-.44-1-1c0-.54.45-1 1-1s1 .46 1 1zm-7.7 1.73c0 .55-.44 1-1 1-.54 0-1-.45-1-1 0-.56.46-1 1-1 .56 0 1 .44 1 1zM801 380c0 .55-.45 1-1 1s-1-.45-1-1 .45-1 1-1 1 .45 1 1zm-8 0c0 .55-.45 1-1 1s-1-.45-1-1 .45-1 1-1 1 .45 1 1zm-8 0c0 .55-.45 1-1 1s-1-.45-1-1 .45-1 1-1 1 .45 1 1zm-8 0c0 .55-.45 1-1 1s-1-.45-1-1 .45-1 1-1 1 .45 1 1zm-8 0c0 .55-.45 1-1 1s-1-.45-1-1 .45-1 1-1 1 .45 1 1zm-8 0c0 .55-.45 1-1 1s-1-.45-1-1 .45-1 1-1 1 .45 1 1zm-8 0c0 .55-.45 1-1 1s-1-.45-1-1 .45-1 1-1 1 .45 1 1zm-8 0c0 .55-.45 1-1 1s-1-.45-1-1 .45-1 1-1 1 .45 1 1zm-8 0c0 .55-.45 1-1 1s-1-.45-1-1 .45-1 1-1 1 .45 1 1zm-8 0c0 .55-.45 1-1 1s-1-.45-1-1 .45-1 1-1 1 .45 1 1zm-8 0c0 .55-.45 1-1 1s-1-.45-1-1 .45-1 1-1 1 .45 1 1zm-8 0c0 .55-.45 1-1 1s-1-.45-1-1 .45-1 1-1 1 .45 1 1zm-8 0c0 .55-.45 1-1 1s-1-.45-1-1 .45-1 1-1 1 .45 1 1zm-8 0c0 .55-.45 1-1 1s-1-.45-1-1 .45-1 1-1 1 .45 1 1zm-8 0c0 .55-.45 1-1 1s-1-.45-1-1 .45-1 1-1 1 .45 1 1zm-8 0c0 .55-.45 1-1 1s-1-.45-1-1 .45-1 1-1 1 .45 1 1zm-7.86-.64c0 .55-.44 1-1 1-.55 0-1-.45-1-1s.45-1 1-1c.56 0 1 .45 1 1zm-7.66-1.8c0 .55-.45 1-1 1-.56 0-1-.45-1-1s.44-1 1-1c.55 0 1 .45 1 1zm-7.3-2.97c0 .55-.45 1-1 1s-1-.45-1-1c0-.56.45-1 1-1s1 .44 1 1zm-6.57-4.34c0 .55-.44 1-1 1-.54 0-1-.45-1-1s.46-1 1-1c.56 0 1 .45 1 1zm-5.47-5.64c0 .56-.44 1-1 1-.55 0-1-.44-1-1 0-.55.45-1 1-1 .56 0 1 .45 1 1zm-3.76-6.9c0 .56-.45 1-1 1s-1-.44-1-1c0-.54.45-1 1-1s1 .46 1 1zM641 350c0 .55-.45 1-1 1s-1-.45-1-1 .45-1 1-1 1 .45 1 1zm1.38-7.73c0 .55-.45 1-1 1s-1-.45-1-1 .45-1 1-1 1 .45 1 1zm3.73-6.9c0 .54-.44 1-1 1-.54 0-1-.46-1-1 0-.56.46-1 1-1 .56 0 1 .44 1 1zm5.48-5.67c0 .56-.44 1-1 1-.55 0-1-.44-1-1 0-.55.45-1 1-1 .56 0 1 .45 1 1zm6.62-4.27c0 .55-.45 1-1 1-.56 0-1-.45-1-1 0-.56.44-1 1-1 .55 0 1 .44 1 1zm7.26-3.04c0 .54-.45 1-1 1s-1-.46-1-1c0-.56.45-1 1-1s1 .44 1 1zm7.7-1.73c0 .56-.46 1-1 1-.56 0-1-.44-1-1 0-.55.44-1 1-1 .54 0 1 .45 1 1zM681 320c0 .55-.45 1-1 1s-1-.45-1-1 .45-1 1-1 1 .45 1 1zm8 0c0 .55-.45 1-1 1s-1-.45-1-1 .45-1 1-1 1 .45 1 1zm8 0c0 .55-.45 1-1 1s-1-.45-1-1 .45-1 1-1 1 .45 1 1zm8 0c0 .55-.45 1-1 1s-1-.45-1-1 .45-1 1-1 1 .45 1 1zm8 0c0 .55-.45 1-1 1s-1-.45-1-1 .45-1 1-1 1 .45 1 1zm8 0c0 .55-.45 1-1 1s-1-.45-1-1 .45-1 1-1 1 .45 1 1zm8 0c0 .55-.45 1-1 1s-1-.45-1-1 .45-1 1-1 1 .45 1 1zm8 0c0 .55-.45 1-1 1s-1-.45-1-1 .45-1 1-1 1 .45 1 1zm8 0c0 .55-.45 1-1 1s-1-.45-1-1 .45-1 1-1 1 .45 1 1zm8 0c0 .55-.45 1-1 1s-1-.45-1-1 .45-1 1-1 1 .45 1 1zm8 0c0 .55-.45 1-1 1s-1-.45-1-1 .45-1 1-1 1 .45 1 1zm8 0c0 .55-.45 1-1 1s-1-.45-1-1 .45-1 1-1 1 .45 1 1zm8 0c0 .55-.45 1-1 1s-1-.45-1-1 .45-1 1-1 1 .45 1 1zm8 0c0 .55-.45 1-1 1s-1-.45-1-1 .45-1 1-1 1 .45 1 1zm8 0c0 .55-.45 1-1 1s-1-.45-1-1 .45-1 1-1 1 .45 1 1z" fill="#3aa6dd"/><use xlink:href="#q" transform="translate(700.575 355.025)"/><path d="M400 220h200v60H400z" stroke="#7ab648" stroke-width="2" fill="#c7e8ac" fill-opacity=".5"/><use xlink:href="#s" transform="translate(437.575 253.15)"/><use xlink:href="#t" transform="translate(497.475 253.15)"/><path d="M640 220h200v60H640z" stroke="#3aa6dd" stroke-width="2" fill="#c1e4f7" fill-opacity=".5"/><use xlink:href="#u" transform="translate(665.6 246.4)"/><use xlink:href="#v" transform="translate(769.45 246.4)"/><use xlink:href="#t" transform="translate(707.525 268)"/><path d="M260 282v18.5" stroke="#000" stroke-width="2" fill="none"/><path d="M261 282.03h-2V281h2z"/><path d="M260 315.76l-4.64-14.26h9.28z" stroke="#000" stroke-width="2"/><path d="M260 382v18.5" stroke="#000" stroke-width="2" fill="none"/><path d="M261 382.03h-2V381h2z"/><path d="M260 415.76l-4.64-14.26h9.28z" stroke="#000" stroke-width="2"/><path d="M260 482v18.5" stroke="#000" stroke-width="2" fill="none"/><path d="M261 482.03h-2V481h2z"/><path d="M260 515.76l-4.64-14.26h9.28z" stroke="#000" stroke-width="2"/><path d="M260 582v18.5" stroke="#000" stroke-width="2" fill="none"/><path d="M261 582.03h-2V581h2z"/><path d="M260 615.76l-4.64-14.26h9.28z" stroke="#000" stroke-width="2"/><path d="M260 682v18.5" stroke="#000" stroke-width="2" fill="none"/><path d="M261 682.03h-2V681h2z"/><path d="M260 715.76l-4.64-14.26h9.28z" stroke="#000" stroke-width="2"/><path d="M500 282v18.5" stroke="#000" stroke-width="2" fill="none"/><path d="M501 282.03h-2V281h2z"/><path d="M500 315.76l-4.64-14.26h9.28z" stroke="#000" stroke-width="2"/><path d="M500 382v118.5" stroke="#000" stroke-width="2" fill="none"/><path d="M501 382.03h-2V381h2z"/><path d="M500 515.76l-4.64-14.26h9.28z" stroke="#000" stroke-width="2"/><path d="M500 582v238.5" stroke="#000" stroke-width="2" fill="none"/><path d="M501 582.03h-2V581h2z"/><path d="M500 835.76l-4.64-14.26h9.28z" stroke="#000" stroke-width="2"/><path d="M740 282v18.5" stroke="#000" stroke-width="2" fill="none"/><path d="M741 282.03h-2V281h2z"/><path d="M740 315.76l-4.64-14.26h9.28z" stroke="#000" stroke-width="2"/><path d="M740 382v118.5" stroke="#000" stroke-width="2" fill="none"/><path d="M741 382.03h-2V381h2z"/><path d="M740 515.76l-4.64-14.26h9.28z" stroke="#000" stroke-width="2"/><path d="M740 582v18.5" stroke="#000" stroke-width="2" fill="none"/><path d="M741 582.03h-2V581h2z"/><path d="M740 615.76l-4.64-14.26h9.28z" stroke="#000" stroke-width="2"/><path d="M740 682v18.5" stroke="#000" stroke-width="2" fill="none"/><path d="M741 682.03h-2V681h2z"/><path d="M740 715.76l-4.64-14.26h9.28z" stroke="#000" stroke-width="2"/><path d="M260 782v28h240v10.5" stroke="#000" stroke-width="2" fill="none"/><path d="M261 782.03h-2V781h2z"/><path d="M500 835.76l-4.64-14.26h9.28z" stroke="#000" stroke-width="2"/><path d="M740 782v28H500v10.5" stroke="#000" stroke-width="2" fill="none"/><path d="M741 782.03h-2V781h2z"/><path d="M500 835.76l-4.64-14.26h9.28z" stroke="#000" stroke-width="2"/><path d="M600 150c0 5.52-44.77 10-100 10s-100-4.48-100-10V70c0-5.52 44.77-10 100-10s100 4.48 100 10z" stroke="#7ab648" stroke-width="2" fill="url(#w)"/><path d="M600 70c0 5.52-44.77 10-100 10s-100-4.48-100-10" stroke="#7ab648" stroke-width="2" fill="none"/><use xlink:href="#x" transform="translate(446.575 112.525)"/><use xlink:href="#y" transform="translate(468.075 134.125)"/><path d="M500 162v38.5" stroke="#000" stroke-width="2" fill="none"/><path d="M500 161h1v1.03h-2v-1.05z"/><path d="M500 215.76l-4.64-14.26h9.28z" stroke="#000" stroke-width="2"/><path d="M450.8 160.63v28.68H260v11.2" stroke="#000" stroke-width="2" fill="none"/><path d="M451.8 159.7v.95h-2v-1.1z"/><path d="M260 215.76l-4.64-14.26h9.28z" stroke="#000" stroke-width="2"/><path d="M552.3 160.4v28.8H740v11.3" stroke="#000" stroke-width="2" fill="none"/><path d="M553.3 160.43h-2v-.98l2-.1z"/><path d="M740 215.76l-4.64-14.26h9.28z" stroke="#000" stroke-width="2"/><defs><path d="M212-179c-10-28-35-45-73-45-59 0-87 40-87 99 0 60 29 101 89 101 43 0 62-24 78-52l27 14C228-24 195 4 139 4 59 4 22-46 18-125c-6-104 99-153 187-111 19 9 31 26 39 46" id="z"/><path d="M24 0v-261h32V0H24" id="A"/><path d="M100-194c62-1 85 37 85 99 1 63-27 99-86 99S16-35 15-95c0-66 28-99 85-99zM99-20c44 1 53-31 53-75 0-43-8-75-51-75s-53 32-53 75 10 74 51 75" id="B"/><path d="M135-143c-3-34-86-38-87 0 15 53 115 12 119 90S17 21 10-45l28-5c4 36 97 45 98 0-10-56-113-15-118-90-4-57 82-63 122-42 12 7 21 19 24 35" id="C"/><path d="M100-194c63 0 86 42 84 106H49c0 40 14 67 53 68 26 1 43-12 49-29l28 8c-11 28-37 45-77 45C44 4 14-33 15-96c1-61 26-98 85-98zm52 81c6-60-76-77-97-28-3 7-6 17-6 28h103" id="D"/><path d="M85-194c31 0 48 13 60 33l-1-100h32l1 261h-30c-2-10 0-23-3-31C134-8 116 4 85 4 32 4 16-35 15-94c0-66 23-100 70-100zm9 24c-40 0-46 34-46 75 0 40 6 74 45 74 42 0 51-32 51-76 0-42-9-74-50-73" id="E"/><path d="M140-251c81 0 123 46 123 126C263-53 228-8 163 1c7 30 30 48 69 40v23c-55 16-95-15-103-61C56-3 17-48 17-125c0-80 42-126 123-126zm0 227c63 0 89-41 89-101s-29-99-89-99c-61 0-89 39-89 99S79-25 140-24" id="F"/><path d="M84 4C-5 8 30-112 23-190h32v120c0 31 7 50 39 49 72-2 45-101 50-169h31l1 190h-30c-1-10 1-25-2-33-11 22-28 36-60 37" id="G"/><path d="M141-36C126-15 110 5 73 4 37 3 15-17 15-53c-1-64 63-63 125-63 3-35-9-54-41-54-24 1-41 7-42 31l-33-3c5-37 33-52 76-52 45 0 72 20 72 64v82c-1 20 7 32 28 27v20c-31 9-61-2-59-35zM48-53c0 20 12 33 32 33 41-3 63-29 60-74-43 2-92-5-92 41" id="H"/><path d="M24-231v-30h32v30H24zM24 0v-190h32V0H24" id="I"/><path d="M101-234c-31-9-42 10-38 44h38v23H63V0H32v-167H5v-23h27c-7-52 17-82 69-68v24" id="J"/><path d="M205 0l-28-72H64L36 0H1l101-248h38L239 0h-34zm-38-99l-47-123c-12 45-31 82-46 123h93" id="K"/><path d="M115-194c55 1 70 41 70 98S169 2 115 4C84 4 66-9 55-30l1 105H24l-1-265h31l2 30c10-21 28-34 59-34zm-8 174c40 0 45-34 45-75s-6-73-45-74c-42 0-51 32-51 76 0 43 10 73 51 73" id="L"/><path d="M114-163C36-179 61-72 57 0H25l-1-190h30c1 12-1 29 2 39 6-27 23-49 58-41v29" id="M"/><path d="M108 0H70L1-190h34L89-25l56-165h34" id="N"/><path d="M30-248c118-7 216 8 213 122C240-48 200 0 122 0H30v-248zM63-27c89 8 146-16 146-99s-60-101-146-95v194" id="O"/><path d="M96-169c-40 0-48 33-48 73s9 75 48 75c24 0 41-14 43-38l32 2c-6 37-31 61-74 61-59 0-76-41-82-99-10-93 101-131 147-64 4 7 5 14 7 22l-32 3c-4-21-16-35-41-35" id="P"/><path d="M179-190L93 31C79 59 56 82 12 73V49c39 6 53-20 64-50L1-190h34L92-34l54-156h33" id="Q"/><path d="M59-47c-2 24 18 29 38 22v24C64 9 27 4 27-40v-127H5v-23h24l9-43h21v43h35v23H59v120" id="R"/><path d="M240 0l2-218c-23 76-54 145-80 218h-23L58-218 59 0H30v-248h44l77 211c21-75 51-140 76-211h43V0h-30" id="S"/><path d="M190 0L58-211 59 0H30v-248h39L202-35l-2-213h31V0h-41" id="T"/><path d="M63-220v92h138v28H63V0H30v-248h175v28H63" id="U"/><path d="M117-194c89-4 53 116 60 194h-32v-121c0-31-8-49-39-48C34-167 62-67 57 0H25l-1-190h30c1 10-1 24 2 32 11-22 29-35 61-36" id="V"/><path d="M9 0v-24l116-142H16v-24h144v24L44-24h123V0H9" id="W"/><path d="M185-189c-5-48-123-54-124 2 14 75 158 14 163 119 3 78-121 87-175 55-17-10-28-26-33-46l33-7c5 56 141 63 141-1 0-78-155-14-162-118-5-82 145-84 179-34 5 7 8 16 11 25" id="X"/><path d="M177-190C167-65 218 103 67 71c-23-6-38-20-44-43l32-5c15 47 100 32 89-28v-30C133-14 115 1 83 1 29 1 15-40 15-95c0-56 16-97 71-98 29-1 48 16 59 35 1-10 0-23 2-32h30zM94-22c36 0 50-32 50-73 0-42-14-75-50-75-39 0-46 34-46 75s6 73 46 73" id="Y"/><path d="M30-248c87 1 191-15 191 75 0 78-77 80-158 76V0H30v-248zm33 125c57 0 124 11 124-50 0-59-68-47-124-48v98" id="Z"/><path fill-opacity=".5" d="M140-251c81 0 123 46 123 126C263-53 228-8 163 1c7 30 30 48 69 40v23c-55 16-95-15-103-61C56-3 17-48 17-125c0-80 42-126 123-126zm0 227c63 0 89-41 89-101s-29-99-89-99c-61 0-89 39-89 99S79-25 140-24" id="aa"/><path fill-opacity=".5" d="M84 4C-5 8 30-112 23-190h32v120c0 31 7 50 39 49 72-2 45-101 50-169h31l1 190h-30c-1-10 1-25-2-33-11 22-28 36-60 37" id="ab"/><path fill-opacity=".5" d="M141-36C126-15 110 5 73 4 37 3 15-17 15-53c-1-64 63-63 125-63 3-35-9-54-41-54-24 1-41 7-42 31l-33-3c5-37 33-52 76-52 45 0 72 20 72 64v82c-1 20 7 32 28 27v20c-31 9-61-2-59-35zM48-53c0 20 12 33 32 33 41-3 63-29 60-74-43 2-92-5-92 41" id="ac"/><path fill-opacity=".5" d="M24 0v-261h32V0H24" id="ad"/><path fill-opacity=".5" d="M24-231v-30h32v30H24zM24 0v-190h32V0H24" id="ae"/><path fill-opacity=".5" d="M101-234c-31-9-42 10-38 44h38v23H63V0H32v-167H5v-23h27c-7-52 17-82 69-68v24" id="af"/><path fill-opacity=".5" d="M100-194c63 0 86 42 84 106H49c0 40 14 67 53 68 26 1 43-12 49-29l28 8c-11 28-37 45-77 45C44 4 14-33 15-96c1-61 26-98 85-98zm52 81c6-60-76-77-97-28-3 7-6 17-6 28h103" id="ag"/><path fill-opacity=".5" d="M85-194c31 0 48 13 60 33l-1-100h32l1 261h-30c-2-10 0-23-3-31C134-8 116 4 85 4 32 4 16-35 15-94c0-66 23-100 70-100zm9 24c-40 0-46 34-46 75 0 40 6 74 45 74 42 0 51-32 51-76 0-42-9-74-50-73" id="ah"/><path fill-opacity=".5" d="M30-248c118-7 216 8 213 122C240-48 200 0 122 0H30v-248zM63-27c89 8 146-16 146-99s-60-101-146-95v194" id="ai"/><path fill-opacity=".5" d="M135-143c-3-34-86-38-87 0 15 53 115 12 119 90S17 21 10-45l28-5c4 36 97 45 98 0-10-56-113-15-118-90-4-57 82-63 122-42 12 7 21 19 24 35" id="aj"/><path fill-opacity=".5" d="M96-169c-40 0-48 33-48 73s9 75 48 75c24 0 41-14 43-38l32 2c-6 37-31 61-74 61-59 0-76-41-82-99-10-93 101-131 147-64 4 7 5 14 7 22l-32 3c-4-21-16-35-41-35" id="ak"/><path fill-opacity=".5" d="M100-194c62-1 85 37 85 99 1 63-27 99-86 99S16-35 15-95c0-66 28-99 85-99zM99-20c44 1 53-31 53-75 0-43-8-75-51-75s-53 32-53 75 10 74 51 75" id="al"/><path fill-opacity=".5" d="M108 0H70L1-190h34L89-25l56-165h34" id="am"/><path fill-opacity=".5" d="M114-163C36-179 61-72 57 0H25l-1-190h30c1 12-1 29 2 39 6-27 23-49 58-41v29" id="an"/><path fill-opacity=".5" d="M179-190L93 31C79 59 56 82 12 73V49c39 6 53-20 64-50L1-190h34L92-34l54-156h33" id="ao"/><path d="M115-194c53 0 69 39 70 98 0 66-23 100-70 100C84 3 66-7 56-30L54 0H23l1-261h32v101c10-23 28-34 59-34zm-8 174c40 0 45-34 45-75 0-40-5-75-45-74-42 0-51 32-51 76 0 43 10 73 51 73" id="ap"/><path d="M140-251c81 0 123 46 123 126C263-46 219 4 140 4 59 4 17-45 17-125s42-126 123-126zm0 227c63 0 89-41 89-101s-29-99-89-99c-61 0-89 39-89 99S79-25 140-24" id="aq"/><g id="a"><use transform="scale(.05)" xlink:href="#z"/><use transform="translate(12.95) scale(.05)" xlink:href="#A"/><use transform="translate(16.9) scale(.05)" xlink:href="#B"/><use transform="translate(26.9) scale(.05)" xlink:href="#C"/><use transform="translate(35.9) scale(.05)" xlink:href="#D"/><use transform="translate(45.9) scale(.05)" xlink:href="#E"/></g><g id="b"><use transform="scale(.05)" xlink:href="#F"/><use transform="translate(14) scale(.05)" xlink:href="#G"/><use transform="translate(24) scale(.05)" xlink:href="#H"/><use transform="translate(34) scale(.05)" xlink:href="#A"/><use transform="translate(37.95) scale(.05)" xlink:href="#I"/><use transform="translate(41.9) scale(.05)" xlink:href="#J"/><use transform="translate(46.9) scale(.05)" xlink:href="#I"/><use transform="translate(50.85) scale(.05)" xlink:href="#D"/><use transform="translate(60.85) scale(.05)" xlink:href="#E"/></g><g id="c"><use transform="scale(.05)" xlink:href="#K"/><use transform="translate(12) scale(.05)" xlink:href="#L"/><use transform="translate(22) scale(.05)" xlink:href="#L"/><use transform="translate(32) scale(.05)" xlink:href="#M"/><use transform="translate(37.95) scale(.05)" xlink:href="#B"/><use transform="translate(47.95) scale(.05)" xlink:href="#N"/><use transform="translate(56.95) scale(.05)" xlink:href="#D"/><use transform="translate(66.95) scale(.05)" xlink:href="#E"/></g><g id="d"><use transform="scale(.05)" xlink:href="#O"/><use transform="translate(12.95) scale(.05)" xlink:href="#I"/><use transform="translate(16.9) scale(.05)" xlink:href="#C"/><use transform="translate(25.9) scale(.05)" xlink:href="#P"/><use transform="translate(34.9) scale(.05)" xlink:href="#B"/><use transform="translate(44.9) scale(.05)" xlink:href="#N"/><use transform="translate(53.9) scale(.05)" xlink:href="#D"/><use transform="translate(63.9) scale(.05)" xlink:href="#M"/><use transform="translate(69.85) scale(.05)" xlink:href="#Q"/></g><g id="e"><use transform="scale(.05)" xlink:href="#K"/><use transform="translate(12) scale(.05)" xlink:href="#A"/><use transform="translate(15.95) scale(.05)" xlink:href="#A"/><use transform="translate(19.9) scale(.05)" xlink:href="#B"/><use transform="translate(29.9) scale(.05)" xlink:href="#P"/><use transform="translate(38.9) scale(.05)" xlink:href="#H"/><use transform="translate(48.9) scale(.05)" xlink:href="#R"/><use transform="translate(53.9) scale(.05)" xlink:href="#D"/><use transform="translate(63.9) scale(.05)" xlink:href="#E"/></g><g id="f"><use transform="scale(.05)" xlink:href="#S"/><use transform="translate(14.95) scale(.05)" xlink:href="#H"/><use transform="translate(24.95) scale(.05)" xlink:href="#I"/><use transform="translate(28.9) scale(.05)" xlink:href="#A"/><use transform="translate(32.85) scale(.05)" xlink:href="#D"/><use transform="translate(42.85) scale(.05)" xlink:href="#E"/></g><g id="g"><use transform="scale(.05)" xlink:href="#T"/><use transform="translate(12.95) scale(.05)" xlink:href="#O"/><use transform="translate(25.9) scale(.05)" xlink:href="#K"/></g><g id="h"><use transform="scale(.05)" xlink:href="#U"/><use transform="translate(10.95) scale(.05)" xlink:href="#I"/><use transform="translate(14.9) scale(.05)" xlink:href="#V"/><use transform="translate(24.9) scale(.05)" xlink:href="#H"/><use transform="translate(34.9) scale(.05)" xlink:href="#A"/><use transform="translate(38.85) scale(.05)" xlink:href="#I"/><use transform="translate(42.8) scale(.05)" xlink:href="#W"/><use transform="translate(51.8) scale(.05)" xlink:href="#D"/><use transform="translate(61.8) scale(.05)" xlink:href="#E"/></g><g id="i"><use transform="scale(.05)" xlink:href="#X"/><use transform="translate(12) scale(.05)" xlink:href="#I"/><use transform="translate(15.95) scale(.05)" xlink:href="#Y"/><use transform="translate(25.95) scale(.05)" xlink:href="#V"/><use transform="translate(35.95) scale(.05)" xlink:href="#D"/><use transform="translate(45.95) scale(.05)" xlink:href="#E"/></g><g id="j"><use transform="scale(.05)" xlink:href="#z"/><use transform="translate(12.95) scale(.05)" xlink:href="#B"/><use transform="translate(22.95) scale(.05)" xlink:href="#V"/><use transform="translate(32.95) scale(.05)" xlink:href="#C"/><use transform="translate(41.95) scale(.05)" xlink:href="#G"/><use transform="translate(51.95) scale(.05)" xlink:href="#A"/><use transform="translate(55.9) scale(.05)" xlink:href="#R"/><use transform="translate(60.9) scale(.05)" xlink:href="#I"/><use transform="translate(64.85) scale(.05)" xlink:href="#V"/><use transform="translate(74.85) scale(.05)" xlink:href="#Y"/></g><g id="k"><use transform="scale(.05)" xlink:href="#X"/><use transform="translate(12) scale(.05)" xlink:href="#D"/><use transform="translate(22) scale(.05)" xlink:href="#M"/><use transform="translate(27.95) scale(.05)" xlink:href="#N"/><use transform="translate(36.95) scale(.05)" xlink:href="#I"/><use transform="translate(40.9) scale(.05)" xlink:href="#P"/><use transform="translate(49.9) scale(.05)" xlink:href="#D"/><use transform="translate(59.9) scale(.05)" xlink:href="#C"/></g><g id="l"><use transform="scale(.05)" xlink:href="#Z"/><use transform="translate(12) scale(.05)" xlink:href="#M"/><use transform="translate(17.95) scale(.05)" xlink:href="#B"/><use transform="translate(27.95) scale(.05)" xlink:href="#P"/><use transform="translate(36.95) scale(.05)" xlink:href="#D"/><use transform="translate(46.95) scale(.05)" xlink:href="#C"/><use transform="translate(55.95) scale(.05)" xlink:href="#C"/></g><g id="n"><use transform="scale(.05)" xlink:href="#aa"/><use transform="translate(14) scale(.05)" xlink:href="#ab"/><use transform="translate(24) scale(.05)" xlink:href="#ac"/><use transform="translate(34) scale(.05)" xlink:href="#ad"/><use transform="translate(37.95) scale(.05)" xlink:href="#ae"/><use transform="translate(41.9) scale(.05)" xlink:href="#af"/><use transform="translate(46.9) scale(.05)" xlink:href="#ae"/><use transform="translate(50.85) scale(.05)" xlink:href="#ag"/><use transform="translate(60.85) scale(.05)" xlink:href="#ah"/></g><g id="q"><use transform="scale(.05)" xlink:href="#ai"/><use transform="translate(12.95) scale(.05)" xlink:href="#ae"/><use transform="translate(16.9) scale(.05)" xlink:href="#aj"/><use transform="translate(25.9) scale(.05)" xlink:href="#ak"/><use transform="translate(34.9) scale(.05)" xlink:href="#al"/><use transform="translate(44.9) scale(.05)" xlink:href="#am"/><use transform="translate(53.9) scale(.05)" xlink:href="#ag"/><use transform="translate(63.9) scale(.05)" xlink:href="#an"/><use transform="translate(69.85) scale(.05)" xlink:href="#ao"/></g><g id="s"><use transform="scale(.05)" xlink:href="#S"/><use transform="translate(14.95) scale(.05)" xlink:href="#H"/><use transform="translate(24.95) scale(.05)" xlink:href="#C"/><use transform="translate(33.95) scale(.05)" xlink:href="#R"/><use transform="translate(38.95) scale(.05)" xlink:href="#D"/><use transform="translate(48.95) scale(.05)" xlink:href="#M"/></g><g id="t"><use transform="scale(.05)" xlink:href="#Z"/><use transform="translate(12) scale(.05)" xlink:href="#M"/><use transform="translate(17.95) scale(.05)" xlink:href="#B"/><use transform="translate(27.95) scale(.05)" xlink:href="#P"/><use transform="translate(36.95) scale(.05)" xlink:href="#D"/><use transform="translate(46.95) scale(.05)" xlink:href="#C"/><use transform="translate(55.95) scale(.05)" xlink:href="#C"/></g><g id="u"><use transform="scale(.05)" xlink:href="#X"/><use transform="translate(12) scale(.05)" xlink:href="#G"/><use transform="translate(22) scale(.05)" xlink:href="#ap"/><use transform="translate(32) scale(.05)" xlink:href="#C"/><use transform="translate(41) scale(.05)" xlink:href="#P"/><use transform="translate(50) scale(.05)" xlink:href="#M"/><use transform="translate(55.95) scale(.05)" xlink:href="#I"/><use transform="translate(59.9) scale(.05)" xlink:href="#L"/><use transform="translate(69.9) scale(.05)" xlink:href="#R"/><use transform="translate(74.9) scale(.05)" xlink:href="#I"/><use transform="translate(78.85) scale(.05)" xlink:href="#B"/><use transform="translate(88.85) scale(.05)" xlink:href="#V"/></g><g id="v"><use transform="scale(.05)" xlink:href="#X"/><use transform="translate(12) scale(.05)" xlink:href="#H"/><use transform="translate(22) scale(.05)" xlink:href="#A"/><use transform="translate(25.95) scale(.05)" xlink:href="#D"/><use transform="translate(35.95) scale(.05)" xlink:href="#C"/></g><g id="x"><use transform="scale(.05)" xlink:href="#aq"/><use transform="translate(14) scale(.05)" xlink:href="#L"/><use transform="translate(24) scale(.05)" xlink:href="#L"/><use transform="translate(34) scale(.05)" xlink:href="#B"/><use transform="translate(44) scale(.05)" xlink:href="#M"/><use transform="translate(49.95) scale(.05)" xlink:href="#R"/><use transform="translate(54.95) scale(.05)" xlink:href="#G"/><use transform="translate(64.95) scale(.05)" xlink:href="#V"/><use transform="translate(74.95) scale(.05)" xlink:href="#I"/><use transform="translate(78.9) scale(.05)" xlink:href="#R"/><use transform="translate(83.9) scale(.05)" xlink:href="#I"/><use transform="translate(87.85) scale(.05)" xlink:href="#D"/><use transform="translate(97.85) scale(.05)" xlink:href="#C"/></g><g id="y"><use transform="scale(.05)" xlink:href="#Z"/><use transform="translate(12) scale(.05)" xlink:href="#I"/><use transform="translate(15.95) scale(.05)" xlink:href="#L"/><use transform="translate(25.95) scale(.05)" xlink:href="#D"/><use transform="translate(35.95) scale(.05)" xlink:href="#A"/><use transform="translate(39.9) scale(.05)" xlink:href="#I"/><use transform="translate(43.85) scale(.05)" xlink:href="#V"/><use transform="translate(53.85) scale(.05)" xlink:href="#D"/></g><linearGradient gradientUnits="userSpaceOnUse" id="m" x1="640" y1="580" x2="840" y2="580"><stop offset="0%" stop-color="#f4fbee" stop-opacity=".5"/><stop offset="0%" stop-color="#c7e8ac" stop-opacity=".5"/><stop offset="97.28%" stop-color="#c1e4f7" stop-opacity=".5"/></linearGradient><linearGradient gradientUnits="userSpaceOnUse" id="o" x1="360" y1="580" x2="160" y2="580"><stop offset="0%" stop-color="#f4fbee" stop-opacity=".5"/><stop offset="0%" stop-color="#c7e8ac" stop-opacity=".5"/><stop offset="100%" stop-color="#f9d2de" stop-opacity=".5"/></linearGradient><linearGradient gradientUnits="userSpaceOnUse" id="p" x1="360" y1="380" x2="160" y2="380"><stop offset="0%" stop-color="#f4fbee" stop-opacity=".5"/><stop offset="0%" stop-color="#c7e8ac" stop-opacity=".5"/><stop offset="100%" stop-color="#f9d2de" stop-opacity=".5"/></linearGradient><linearGradient gradientUnits="userSpaceOnUse" id="r" x1="640" y1="380" x2="840" y2="380"><stop offset="0%" stop-color="#f4fbee" stop-opacity=".5"/><stop offset="0%" stop-color="#c7e8ac" stop-opacity=".5"/><stop offset="97.28%" stop-color="#c1e4f7" stop-opacity=".5"/></linearGradient><linearGradient gradientUnits="userSpaceOnUse" id="w" x1="400" y1="160" x2="600" y2="160"><stop offset="2.17%" stop-color="#f9d2de"/><stop offset="49.46%" stop-color="#c7e8ac"/><stop offset="100%" stop-color="#c1e4f7"/></linearGradient></defs></g></svg>