<svg xmlns="http://www.w3.org/2000/svg" xmlns:xlink="http://www.w3.org/1999/xlink" xmlns:lucid="lucid" width="1282" height="880"><g transform="translate(-60 -20)" lucid:page-tab-id="jYXv225CA7yx"><path d="M0 0h1870.4v1323.2H0z" fill="#fff"/><path d="M530 751.6c0 49.7-40.3 90-90 90s-90-40.3-90-90 40.3-90 90-90 90 40.3 90 90z" stroke="#de5f85" stroke-width="2" fill="#f9d2de"/><path d="M1000 310c0 138.07-111.93 250-250 250S500 448.07 500 310 611.93 60 750 60s250 111.93 250 250z" stroke="#99d2f2" stroke-width="2" fill="#99d2f2" fill-opacity=".4"/><path d="M640 310c0 138.07-111.93 250-250 250S140 448.07 140 310 251.93 60 390 60s250 111.93 250 250z" stroke="#f5b5c8" stroke-width="2" fill="#f5b5c8" fill-opacity=".4"/><path d="M582.25 252.25c0 6.77-5.48 12.25-12.25 12.25s-12.25-5.48-12.25-12.25S563.23 240 570 240s12.25 5.48 12.25 12.25z" stroke="#000" stroke-width="2" fill="#fff"/><path d="M570 264.5v34.3l30 39.2m-30-39.2L540 338m0-61.25h60" stroke="#000" stroke-width="2" fill="none"/><path d="M540 240h60v120h-60z" fill="none"/><use xlink:href="#a" transform="translate(546.371 355.956)"/><path d="M260 80h240v60H260z" fill="none"/><use xlink:href="#b" transform="translate(305.902 115.456)"/><use xlink:href="#c" transform="translate(429.16 115.456)"/><path d="M630 80h240v60H630z" fill="none"/><use xlink:href="#b" transform="translate(675.902 115.456)"/><use xlink:href="#d" transform="translate(799.16 115.456)"/><path d="M220 709.6c0 6.63-26.86 12-60 12s-60-5.37-60-12v-96c0-6.63 26.86-12 60-12s60 5.37 60 12z" stroke="#de5f85" stroke-width="2" fill="#f9d2de"/><path d="M220 613.6c0 6.63-26.86 12-60 12s-60-5.37-60-12" stroke="#de5f85" stroke-width="2" fill="none"/><use xlink:href="#e" transform="translate(123.87 664.68)"/><use xlink:href="#f" transform="translate(171.191 664.68)"/><use xlink:href="#g" transform="translate(136.34 691.614)"/><path d="M1040 709.6c0 6.63-26.86 12-60 12s-60-5.37-60-12v-96c0-6.63 26.86-12 60-12s60 5.37 60 12z" stroke="#3aa6dd" stroke-width="2" fill="#c1e4f7"/><path d="M1040 613.6c0 6.63-26.86 12-60 12s-60-5.37-60-12" stroke="#3aa6dd" stroke-width="2" fill="none"/><use xlink:href="#e" transform="translate(943.87 664.68)"/><use xlink:href="#h" transform="translate(991.191 664.68)"/><use xlink:href="#g" transform="translate(956.34 691.614)"/><path d="M161.02 599.6c0 .55-.45 1-1 1s-1-.45-1-1 .45-1 1-1 1 .45 1 1zm.17-7.97c0 .55-.46 1-1 1-.56 0-1-.45-1-1s.44-1 1-1c.54 0 1 .45 1 1zm.48-7.96c0 .55-.45 1-1 1s-1-.45-1-1 .45-1 1-1 1 .45 1 1zm.83-7.93c0 .56-.44 1-1 1-.54 0-1-.44-1-1 0-.55.46-1 1-1 .56 0 1 .45 1 1zm1.28-7.87c0 .56-.44 1-1 1-.55 0-1-.44-1-1 0-.55.45-1 1-1 .56 0 1 .45 1 1zm1.7-7.78c0 .54-.45 1-1 1s-1-.46-1-1c0-.57.45-1 1-1s1 .43 1 1zm2.14-7.7c0 .56-.45 1-1 1s-1-.44-1-1c0-.54.45-1 1-1s1 .46 1 1zm2.67-7.5c0 .55-.45 1-1 1-.56 0-1-.45-1-1s.44-1 1-1c.55 0 1 .45 1 1zm3.1-7.33c0 .55-.44 1-1 1-.54 0-1-.45-1-1 0-.56.46-1 1-1 .56 0 1 .44 1 1zm3.64-7.1c0 .55-.45 1-1 1s-1-.45-1-1 .45-1 1-1 1 .45 1 1zm4.02-6.88c0 .54-.45 1-1 1s-1-.46-1-1c0-.57.45-1 1-1s1 .43 1 1zm4.38-6.67c0 .55-.45 1-1 1s-1-.45-1-1 .45-1 1-1 1 .45 1 1zm4.73-6.42c0 .56-.45 1-1 1s-1-.44-1-1c0-.54.45-1 1-1s1 .46 1 1zm5-6.2c0 .54-.46 1-1 1-.56 0-1-.46-1-1 0-.56.44-1 1-1 .54 0 1 .44 1 1zm5.23-6.02c0 .55-.45 1-1 1-.56 0-1-.45-1-1s.44-1 1-1c.55 0 1 .45 1 1zm5.37-5.88c0 .55-.44 1-1 1-.55 0-1-.45-1-1s.45-1 1-1c.56 0 1 .45 1 1zm5.5-5.77c0 .55-.45 1-1 1s-1-.45-1-1c0-.56.45-1 1-1s1 .44 1 1z"/><path d="M161.02 599.6l-.02 1.04-1-.04-1 .03.02-1.08zm49.63-114l1.02 1-.7.73-1.44-1.37.73-.77zm770.33 114c0 .55-.45 1-1 1s-1-.45-1-1 .45-1 1-1 1 .45 1 1zm-.17-7.93c0 .55-.44 1-1 1-.55 0-1-.45-1-1 0-.56.45-1 1-1 .56 0 1 .44 1 1zm-.52-7.92c0 .55-.45 1-1 1-.56 0-1-.45-1-1s.44-1 1-1c.55 0 1 .45 1 1zm-.93-7.88c0 .56-.45 1-1 1s-1-.44-1-1c0-.55.45-1 1-1s1 .45 1 1zm-1.35-7.8c0 .54-.44 1-1 1-.55 0-1-.46-1-1 0-.56.45-1 1-1 .56 0 1 .44 1 1zm-1.77-7.74c0 .55-.45 1-1 1-.56 0-1-.45-1-1s.44-1 1-1c.55 0 1 .45 1 1zm-2.3-7.6c0 .56-.46 1-1 1-.56 0-1-.44-1-1 0-.54.44-1 1-1 .54 0 1 .46 1 1zm-2.8-7.42c0 .57-.44 1-1 1-.54 0-1-.43-1-1 0-.54.46-1 1-1 .56 0 1 .46 1 1zm-3.3-7.2c0 .56-.44 1-1 1-.55 0-1-.44-1-1 0-.55.45-1 1-1 .56 0 1 .45 1 1zm-3.73-7c0 .56-.45 1-1 1s-1-.44-1-1c0-.54.45-1 1-1s1 .46 1 1zm-4.17-6.74c0 .55-.44 1-1 1-.55 0-1-.45-1-1s.45-1 1-1c.56 0 1 .45 1 1zm-4.54-6.5c0 .55-.45 1-1 1-.56 0-1-.45-1-1 0-.56.44-1 1-1 .55 0 1 .44 1 1zm-4.84-6.3c0 .56-.45 1-1 1-.56 0-1-.44-1-1 0-.54.44-1 1-1 .55 0 1 .46 1 1zm-5.08-6.08c0 .55-.45 1-1 1s-1-.45-1-1 .45-1 1-1 1 .45 1 1zm-5.3-5.9c0 .54-.44 1-1 1-.54 0-1-.46-1-1 0-.57.46-1 1-1 .56 0 1 .43 1 1zm-5.48-5.74c0 .55-.44 1-1 1-.55 0-1-.45-1-1 0-.56.45-1 1-1 .56 0 1 .44 1 1zm-5.54-5.68c0 .55-.44 1-1 1-.55 0-1-.45-1-1s.45-1 1-1c.56 0 1 .45 1 1z"/><path d="M981 600.64l-1-.04-1 .03-.02-1.04 2-.05zm-52.1-113.16l-1.43 1.4-.7-.72 1.4-1.43z"/><path d="M1180 60h80v500h-80z" fill="none"/><path d="M1180 560c5.52 0 10-4.48 10-10V320c0-5.52 4.48-10 10-10-5.52 0-10-4.48-10-10V70c0-5.52-4.48-10-10-10" stroke="#000" stroke-width="2" fill="none"/><use xlink:href="#i" transform="translate(1215 314.489)"/><path d="M1180 580h80v280h-80z" fill="none"/><path d="M1180 860c5.52 0 10-4.48 10-10V730c0-5.52 4.48-10 10-10-5.52 0-10-4.48-10-10V590c0-5.52-4.48-10-10-10" stroke="#000" stroke-width="2" fill="none"/><use xlink:href="#j" transform="translate(1215 724.489)"/><path d="M412.25 712.25c0 6.77-5.48 12.25-12.25 12.25s-12.25-5.48-12.25-12.25S393.23 700 400 700s12.25 5.48 12.25 12.25z" stroke="#000" stroke-width="2" fill="#fff"/><path d="M400 724.5v34.3l30 39.2m-30-39.2L370 798m0-61.25h60" stroke="#000" stroke-width="2" fill="none"/><path d="M370 700h60v120h-60z" fill="none"/><path d="M452.25 752.25c0 6.77-5.48 12.25-12.25 12.25s-12.25-5.48-12.25-12.25S433.23 740 440 740s12.25 5.48 12.25 12.25z" stroke="#000" stroke-width="2" fill="#fff"/><path d="M440 764.5v34.3l30 39.2m-30-39.2L410 838m0-61.25h60" stroke="#000" stroke-width="2" fill="none"/><path d="M410 740h60v120h-60z" fill="none"/><path d="M492.25 692.25c0 6.77-5.48 12.25-12.25 12.25s-12.25-5.48-12.25-12.25S473.23 680 480 680s12.25 5.48 12.25 12.25z" stroke="#000" stroke-width="2" fill="#fff"/><path d="M480 704.5v34.3l30 39.2m-30-39.2L450 778m0-61.25h60" stroke="#000" stroke-width="2" fill="none"/><path d="M450 680h60v120h-60zm-130-80.33h240v63.86H320z" fill="none"/><use xlink:href="#k" transform="translate(381.489 622.622)"/><use xlink:href="#l" transform="translate(393.272 649.556)"/><use xlink:href="#m" transform="translate(461.79 649.556)"/><path d="M790 751.6c0 49.7-40.3 90-90 90s-90-40.3-90-90 40.3-90 90-90 90 40.3 90 90z" stroke="#3aa6dd" stroke-width="2" fill="#c1e4f7"/><path d="M672.25 712.25c0 6.77-5.48 12.25-12.25 12.25s-12.25-5.48-12.25-12.25S653.23 700 660 700s12.25 5.48 12.25 12.25z" stroke="#000" stroke-width="2" fill="#fff"/><path d="M660 724.5v34.3l30 39.2m-30-39.2L630 798m0-61.25h60" stroke="#000" stroke-width="2" fill="none"/><path d="M630 700h60v120h-60z" fill="none"/><path d="M712.25 752.25c0 6.77-5.48 12.25-12.25 12.25s-12.25-5.48-12.25-12.25S693.23 740 700 740s12.25 5.48 12.25 12.25z" stroke="#000" stroke-width="2" fill="#fff"/><path d="M700 764.5v34.3l30 39.2m-30-39.2L670 838m0-61.25h60" stroke="#000" stroke-width="2" fill="none"/><path d="M670 740h60v120h-60z" fill="none"/><path d="M752.25 692.25c0 6.77-5.48 12.25-12.25 12.25s-12.25-5.48-12.25-12.25S733.23 680 740 680s12.25 5.48 12.25 12.25z" stroke="#000" stroke-width="2" fill="#fff"/><path d="M740 704.5v34.3l30 39.2m-30-39.2L710 778m0-61.25h60" stroke="#000" stroke-width="2" fill="none"/><path d="M710 680h60v120h-60zm-130-80.33h240v63.86H580z" fill="none"/><use xlink:href="#k" transform="translate(641.489 622.622)"/><use xlink:href="#l" transform="translate(653.272 649.556)"/><use xlink:href="#n" transform="translate(721.79 649.556)"/><path d="M330.5 751.6h-2m-8.06 0h-4.02m-8.04 0h-4.03m-8.04 0h-4m-8.06 0h-4.02m-8.04 0h-4.02m-8.05 0h-4m-8.06 0h-4.02m-8.04 0h-4.02m-8.05 0h-4m-8.05 0h-4.03m-8.04 0h-4.02m-8.05 0h-4m-8.05 0h-4.03m-8.04 0H160v-.44m0-8.05v-2" stroke="#000" stroke-width="2" fill="none"/><path d="M345.76 751.6l-14.26 4.64v-9.28zM160 725.84l4.64 14.26h-9.28z" stroke="#000" stroke-width="2"/><use xlink:href="#o" transform="translate(227.51 773.556)"/><path d="M809.5 751.6h2m8.06 0h4.02m8.04 0h4.03m8.04 0h4m8.06 0h4.02m8.04 0h4.02m8.05 0h4m8.06 0h4.02m8.04 0h4.02m8.05 0h4m8.05 0h4.03m8.04 0h4.02m8.05 0h4m8.05 0h4.03m8.04 0H980v-.44m0-8.05v-2" stroke="#000" stroke-width="2" fill="none"/><path d="M794.24 751.6l14.26-4.64v9.28zM980 725.84l4.64 14.26h-9.28z" stroke="#000" stroke-width="2"/><use xlink:href="#o" transform="translate(851.495 773.556)"/><path d="M532 751.6h2m1.5-6.56v-4.02m0-8.05v-4.02m0-8.05v-4.03m0-8.04v-4.03m0-8.04v-4.03m0-8.05v-4.02m0-8.05v-4m0-8.06v-4.02m0-8.05v-4.02m0-8.05v-4.02m0-8.05v-4.03m0-8.04v-4.03m0-8.04v-4.04m0-8.05v-4m0-8.06v-4.02m0-8.05v-4.02m0-8.05v-4.02m0-8.05v-4.02m0-8.04v-4.03m0-8.04v-4.04m0-8.04v-4.03m0-8.06v-4.02m0-8.05v-4.02m0-8.05v-4.02m0-8.05v-4.02m0-8.04v-4.02m0-8.05v-4.04m0-8.04v-4.03m0-8.05v-4.03m0-8.05v-4.02m0-8.05v-4.02m0-8.05v-4.02m0-8.04v-4.02m0-8.05v-4.03m0-8.05v-4.03m0-8.05v-4.03m0-8.04v-4.03m0-8.05v-4.02m0-8.05v-4.02m1.5-6.55h2" stroke="#000" stroke-width="2" fill="none"/><path d="M532.03 752.6h-1.06l.03-1v-1h1.03zM543 275.75h-3v1h-1.03v-2H543z"/><path d="M608 751.6h-2m-1.5-6.56v-4.02m0-8.05v-4.02m0-8.05v-4.03m0-8.04v-4.03m0-8.04v-4.03m0-8.05v-4.02m0-8.05v-4m0-8.06v-4.02m0-8.05v-4.02m0-8.05v-4.02m0-8.05v-4.03m0-8.04v-4.03m0-8.04v-4.04m0-8.05v-4m0-8.06v-4.02m0-8.05v-4.02m0-8.05v-4.02m0-8.05v-4.02m0-8.04v-4.03m0-8.04v-4.04m0-8.04v-4.03m0-8.06v-4.02m0-8.05v-4.02m0-8.05v-4.02m0-8.05v-4.02m0-8.04v-4.02m0-8.05v-4.04m0-8.04v-4.03m0-8.05v-4.03m0-8.05v-4.02m0-8.05v-4.02m0-8.05v-4.02m0-8.04v-4.02m0-8.05v-4.03m0-8.05v-4.03m0-8.05v-4.03m0-8.04v-4.03m0-8.05v-4.02m0-8.05v-4.02m-1.5-6.55h-2" stroke="#000" stroke-width="2" fill="none"/><path d="M609 751.6v1h-1.03v-2h1.06zm-7.97-474.85H600v-1h-3v-1h4.03z"/><defs><path d="M232-93c-1 65-40 97-104 97C67 4 28-28 28-90v-158h33c8 89-33 224 67 224 102 0 64-133 71-224h33v155" id="p"/><path d="M135-143c-3-34-86-38-87 0 15 53 115 12 119 90S17 21 10-45l28-5c4 36 97 45 98 0-10-56-113-15-118-90-4-57 82-63 122-42 12 7 21 19 24 35" id="q"/><path d="M100-194c63 0 86 42 84 106H49c0 40 14 67 53 68 26 1 43-12 49-29l28 8c-11 28-37 45-77 45C44 4 14-33 15-96c1-61 26-98 85-98zm52 81c6-60-76-77-97-28-3 7-6 17-6 28h103" id="r"/><path d="M114-163C36-179 61-72 57 0H25l-1-190h30c1 12-1 29 2 39 6-27 23-49 58-41v29" id="s"/><path d="M30-248c118-7 216 8 213 122C240-48 200 0 122 0H30v-248zM63-27c89 8 146-16 146-99s-60-101-146-95v194" id="t"/><path d="M115-194c55 1 70 41 70 98S169 2 115 4C84 4 66-9 55-30l1 105H24l-1-265h31l2 30c10-21 28-34 59-34zm-8 174c40 0 45-34 45-75s-6-73-45-74c-42 0-51 32-51 76 0 43 10 73 51 73" id="u"/><path d="M141-36C126-15 110 5 73 4 37 3 15-17 15-53c-1-64 63-63 125-63 3-35-9-54-41-54-24 1-41 7-42 31l-33-3c5-37 33-52 76-52 45 0 72 20 72 64v82c-1 20 7 32 28 27v20c-31 9-61-2-59-35zM48-53c0 20 12 33 32 33 41-3 63-29 60-74-43 2-92-5-92 41" id="v"/><path d="M59-47c-2 24 18 29 38 22v24C64 9 27 4 27-40v-127H5v-23h24l9-43h21v43h35v23H59v120" id="w"/><path d="M210-169c-67 3-38 105-44 169h-31v-121c0-29-5-50-35-48C34-165 62-65 56 0H25l-1-190h30c1 10-1 24 2 32 10-44 99-50 107 0 11-21 27-35 58-36 85-2 47 119 55 194h-31v-121c0-29-5-49-35-48" id="x"/><path d="M117-194c89-4 53 116 60 194h-32v-121c0-31-8-49-39-48C34-167 62-67 57 0H25l-1-190h30c1 10-1 24 2 32 11-22 29-35 61-36" id="y"/><path d="M158-156l-14 65h45v19h-49L124 0h-19l15-72H56L41 0H22l15-72H2v-19h39l14-65H11v-19h48l15-71h20l-16 71h64l16-71h19l-16 71h37v19h-40zm-83 0L61-91h63l14-65H75" id="z"/><path d="M27 0v-27h64v-190l-56 39v-29l58-41h29v221h61V0H27" id="A"/><path d="M101-251c82-7 93 87 43 132L82-64C71-53 59-42 53-27h129V0H18c2-99 128-94 128-182 0-28-16-43-45-43s-46 15-49 41l-32-3c6-41 34-60 81-64" id="B"/><path d="M30 0v-248h33v221h125V0H30" id="C"/><path d="M100-194c62-1 85 37 85 99 1 63-27 99-86 99S16-35 15-95c0-66 28-99 85-99zM99-20c44 1 53-31 53-75 0-43-8-75-51-75s-53 32-53 75 10 74 51 75" id="D"/><path d="M177-190C167-65 218 103 67 71c-23-6-38-20-44-43l32-5c15 47 100 32 89-28v-30C133-14 115 1 83 1 29 1 15-40 15-95c0-56 16-97 71-98 29-1 48 16 59 35 1-10 0-23 2-32h30zM94-22c36 0 50-32 50-73 0-42-14-75-50-75-39 0-46 34-46 75s6 73 46 73" id="E"/><path d="M24-231v-30h32v30H24zM24 0v-190h32V0H24" id="F"/><path d="M96-169c-40 0-48 33-48 73s9 75 48 75c24 0 41-14 43-38l32 2c-6 37-31 61-74 61-59 0-76-41-82-99-10-93 101-131 147-64 4 7 5 14 7 22l-32 3c-4-21-16-35-41-35" id="G"/><path d="M24 0v-261h32V0H24" id="H"/><path d="M30-248c87 1 191-15 191 75 0 78-77 80-158 76V0H30v-248zm33 125c57 0 124 11 124-50 0-59-68-47-124-48v98" id="I"/><path d="M106-169C34-169 62-67 57 0H25v-261h32l-1 103c12-21 28-36 61-36 89 0 53 116 60 194h-32v-121c2-32-8-49-39-48" id="J"/><path d="M179-190L93 31C79 59 56 82 12 73V49c39 6 53-20 64-50L1-190h34L92-34l54-156h33" id="K"/><path d="M143 4C61 4 22-44 18-125c-5-107 100-154 193-111 17 8 29 25 37 43l-32 9c-13-25-37-40-76-40-61 0-88 39-88 99 0 61 29 100 91 101 35 0 62-11 79-27v-45h-74v-28h105v86C228-13 192 4 143 4" id="L"/><path d="M84 4C-5 8 30-112 23-190h32v120c0 31 7 50 39 49 72-2 45-101 50-169h31l1 190h-30c-1-10 1-25-2-33-11 22-28 36-60 37" id="M"/><path d="M185-189c-5-48-123-54-124 2 14 75 158 14 163 119 3 78-121 87-175 55-17-10-28-26-33-46l33-7c5 56 141 63 141-1 0-78-155-14-162-118-5-82 145-84 179-34 5 7 8 16 11 25" id="N"/><g id="a"><use transform="scale(.06235)" xlink:href="#p"/><use transform="translate(16.148) scale(.06235)" xlink:href="#q"/><use transform="translate(27.37) scale(.06235)" xlink:href="#r"/><use transform="translate(39.839) scale(.06235)" xlink:href="#s"/></g><g id="b"><use transform="scale(.06235)" xlink:href="#t"/><use transform="translate(16.148) scale(.06235)" xlink:href="#r"/><use transform="translate(28.617) scale(.06235)" xlink:href="#u"/><use transform="translate(41.086) scale(.06235)" xlink:href="#v"/><use transform="translate(53.555) scale(.06235)" xlink:href="#s"/><use transform="translate(60.974) scale(.06235)" xlink:href="#w"/><use transform="translate(67.209) scale(.06235)" xlink:href="#x"/><use transform="translate(85.85) scale(.06235)" xlink:href="#r"/><use transform="translate(98.32) scale(.06235)" xlink:href="#y"/><use transform="translate(110.788) scale(.06235)" xlink:href="#w"/></g><g id="c"><use transform="scale(.06235)" xlink:href="#z"/><use transform="translate(12.47) scale(.06235)" xlink:href="#A"/></g><g id="d"><use transform="scale(.06235)" xlink:href="#z"/><use transform="translate(12.47) scale(.06235)" xlink:href="#B"/></g><g id="e"><use transform="scale(.06235)" xlink:href="#t"/><use transform="translate(16.148) scale(.06235)" xlink:href="#r"/><use transform="translate(28.617) scale(.06235)" xlink:href="#u"/></g><g id="f"><use transform="scale(.06235)" xlink:href="#z"/><use transform="translate(12.47) scale(.06235)" xlink:href="#A"/></g><g id="g"><use transform="scale(.06235)" xlink:href="#t"/><use transform="translate(16.148) scale(.06235)" xlink:href="#v"/><use transform="translate(28.617) scale(.06235)" xlink:href="#w"/><use transform="translate(34.851) scale(.06235)" xlink:href="#v"/></g><g id="h"><use transform="scale(.06235)" xlink:href="#z"/><use transform="translate(12.47) scale(.06235)" xlink:href="#B"/></g><g id="i"><use transform="scale(.06235)" xlink:href="#C"/><use transform="translate(12.47) scale(.06235)" xlink:href="#D"/><use transform="translate(24.938) scale(.06235)" xlink:href="#E"/><use transform="translate(37.407) scale(.06235)" xlink:href="#F"/><use transform="translate(42.333) scale(.06235)" xlink:href="#G"/><use transform="translate(53.555) scale(.06235)" xlink:href="#v"/><use transform="translate(66.024) scale(.06235)" xlink:href="#H"/></g><g id="j"><use transform="scale(.06235)" xlink:href="#I"/><use transform="translate(14.963) scale(.06235)" xlink:href="#J"/><use transform="translate(27.432) scale(.06235)" xlink:href="#K"/><use transform="translate(38.654) scale(.06235)" xlink:href="#q"/><use transform="translate(49.877) scale(.06235)" xlink:href="#F"/><use transform="translate(54.802) scale(.06235)" xlink:href="#G"/><use transform="translate(66.024) scale(.06235)" xlink:href="#v"/><use transform="translate(78.493) scale(.06235)" xlink:href="#H"/></g><g id="k"><use transform="scale(.06235)" xlink:href="#t"/><use transform="translate(16.148) scale(.06235)" xlink:href="#r"/><use transform="translate(28.617) scale(.06235)" xlink:href="#u"/><use transform="translate(41.086) scale(.06235)" xlink:href="#v"/><use transform="translate(53.555) scale(.06235)" xlink:href="#s"/><use transform="translate(60.974) scale(.06235)" xlink:href="#w"/><use transform="translate(67.209) scale(.06235)" xlink:href="#x"/><use transform="translate(85.85) scale(.06235)" xlink:href="#r"/><use transform="translate(98.32) scale(.06235)" xlink:href="#y"/><use transform="translate(110.788) scale(.06235)" xlink:href="#w"/></g><g id="l"><use transform="scale(.06235)" xlink:href="#L"/><use transform="translate(17.457) scale(.06235)" xlink:href="#s"/><use transform="translate(24.876) scale(.06235)" xlink:href="#D"/><use transform="translate(37.345) scale(.06235)" xlink:href="#M"/><use transform="translate(49.814) scale(.06235)" xlink:href="#u"/></g><g id="m"><use transform="scale(.06235)" xlink:href="#z"/><use transform="translate(12.47) scale(.06235)" xlink:href="#A"/></g><g id="n"><use transform="scale(.06235)" xlink:href="#z"/><use transform="translate(12.47) scale(.06235)" xlink:href="#B"/></g><g id="o"><use transform="scale(.06235)" xlink:href="#N"/><use transform="translate(14.963) scale(.06235)" xlink:href="#J"/><use transform="translate(27.432) scale(.06235)" xlink:href="#v"/><use transform="translate(39.901) scale(.06235)" xlink:href="#s"/><use transform="translate(47.32) scale(.06235)" xlink:href="#F"/><use transform="translate(52.246) scale(.06235)" xlink:href="#y"/><use transform="translate(64.715) scale(.06235)" xlink:href="#E"/><use transform="translate(77.184) scale(.06235)" xlink:href="#q"/></g></defs></g></svg>