<svg xmlns="http://www.w3.org/2000/svg" xmlns:xlink="http://www.w3.org/1999/xlink" xmlns:lucid="lucid" width="2621" height="1060"><g transform="translate(-67 -60)" lucid:page-tab-id="NW014U1_9GdY"><path d="M130 663c0-1.66 1.34-3 3-3h784c1.66 0 3 1.34 3 3v334c0 1.66-1.34 3-3 3H133c-1.66 0-3-1.34-3-3z" stroke="#7ab648" stroke-width="2" fill="#c7e8ac" fill-opacity=".5"/><path d="M910 670h-15v20h15z" stroke="#7ab648" fill="#c7e8ac" fill-opacity=".5"/><path d="M900 673.33h-10v3.34h10zm0 10h-10v3.34h10z" stroke="#7ab648" fill="#c7e8ac" fill-opacity=".5"/><use xlink:href="#a" transform="translate(490.08 679.41)"/><path d="M220 263c0-1.66 1.34-3 3-3h134c1.66 0 3 1.34 3 3v114c0 1.66-1.34 3-3 3H223c-1.66 0-3-1.34-3-3z" stroke="#ef8d22" stroke-width="2" fill="#ffdba9"/><path d="M200 283c0-1.66 1.34-3 3-3h34c1.66 0 3 1.34 3 3v14c0 1.66-1.34 3-3 3h-34c-1.66 0-3-1.34-3-3zm0 60c0-1.66 1.34-3 3-3h34c1.66 0 3 1.34 3 3v14c0 1.66-1.34 3-3 3h-34c-1.66 0-3-1.34-3-3z" stroke="#ef8d22" stroke-width="2" fill="#ffdba9"/><use xlink:href="#b" transform="translate(253.75 312.8)"/><use xlink:href="#c" transform="translate(239.075 334.4)"/><use xlink:href="#d" transform="translate(288.975 334.4)"/><path d="M480 263c0-1.66 1.34-3 3-3h134c1.66 0 3 1.34 3 3v114c0 1.66-1.34 3-3 3H483c-1.66 0-3-1.34-3-3z" stroke="#ef8d22" stroke-width="2" fill="#ffdba9"/><path d="M460 283c0-1.66 1.34-3 3-3h34c1.66 0 3 1.34 3 3v14c0 1.66-1.34 3-3 3h-34c-1.66 0-3-1.34-3-3zm0 60c0-1.66 1.34-3 3-3h34c1.66 0 3 1.34 3 3v14c0 1.66-1.34 3-3 3h-34c-1.66 0-3-1.34-3-3z" stroke="#ef8d22" stroke-width="2" fill="#ffdba9"/><use xlink:href="#e" transform="translate(494.375 323.6)"/><use xlink:href="#f" transform="translate(537.625 323.6)"/><path d="M740 263c0-1.66 1.34-3 3-3h134c1.66 0 3 1.34 3 3v114c0 1.66-1.34 3-3 3H743c-1.66 0-3-1.34-3-3z" stroke="#ef8d22" stroke-width="2" fill="#ffdba9"/><path d="M720 283c0-1.66 1.34-3 3-3h34c1.66 0 3 1.34 3 3v14c0 1.66-1.34 3-3 3h-34c-1.66 0-3-1.34-3-3zm0 60c0-1.66 1.34-3 3-3h34c1.66 0 3 1.34 3 3v14c0 1.66-1.34 3-3 3h-34c-1.66 0-3-1.34-3-3z" stroke="#ef8d22" stroke-width="2" fill="#ffdba9"/><use xlink:href="#g" transform="translate(753.5 323.6)"/><use xlink:href="#h" transform="translate(806.5 323.6)"/><path d="M600 968c0 6.63-26.86 12-60 12s-60-5.37-60-12v-96c0-6.63 26.86-12 60-12s60 5.37 60 12z" stroke="#7ab648" stroke-width="2" fill="#a3d977"/><path d="M600 872c0 6.63-26.86 12-60 12s-60-5.37-60-12" stroke="#7ab648" stroke-width="2" fill="none"/><use xlink:href="#i" transform="translate(500.075 935.65)"/><path d="M809.75 469.75c0 5.38-4.37 9.75-9.75 9.75s-9.75-4.37-9.75-9.75S794.62 460 800 460s9.75 4.37 9.75 9.75z" stroke="#000" stroke-width="2" fill="#fff"/><path d="M800 479.5v27.3l20 31.2m-20-31.2L780 538m0-48.75h40" stroke="#000" stroke-width="2" fill="none"/><path d="M780 460h40v100h-40z" fill="none"/><use xlink:href="#j" transform="translate(760.05 552.6)"/><path d="M549.75 469.75c0 5.38-4.37 9.75-9.75 9.75s-9.75-4.37-9.75-9.75S534.62 460 540 460s9.75 4.37 9.75 9.75z" stroke="#000" stroke-width="2" fill="#fff"/><path d="M540 479.5v27.3l20 31.2m-20-31.2L520 538m0-48.75h40" stroke="#000" stroke-width="2" fill="none"/><path d="M520 460h40v100h-40z" fill="none"/><use xlink:href="#j" transform="translate(500.05 552.6)"/><path d="M809.75 109.75c0 5.38-4.37 9.75-9.75 9.75s-9.75-4.37-9.75-9.75S794.62 100 800 100s9.75 4.37 9.75 9.75z" stroke="#000" stroke-width="2" fill="#fff"/><path d="M800 119.5v27.3l20 31.2m-20-31.2L780 178m0-48.75h40" stroke="#000" stroke-width="2" fill="none"/><path d="M780 100h40v100h-40z" fill="none"/><use xlink:href="#k" transform="translate(761.075 192.6)"/><path d="M549.75 109.75c0 5.38-4.37 9.75-9.75 9.75s-9.75-4.37-9.75-9.75S534.62 100 540 100s9.75 4.37 9.75 9.75z" stroke="#000" stroke-width="2" fill="#fff"/><path d="M540 119.5v27.3l20 31.2m-20-31.2L520 178m0-48.75h40" stroke="#000" stroke-width="2" fill="none"/><path d="M520 100h40v100h-40z" fill="none"/><use xlink:href="#k" transform="translate(501.075 192.6)"/><path d="M289.75 109.75c0 5.38-4.37 9.75-9.75 9.75s-9.75-4.37-9.75-9.75S274.62 100 280 100s9.75 4.37 9.75 9.75z" stroke="#000" stroke-width="2" fill="#fff"/><path d="M280 119.5v27.3l20 31.2m-20-31.2L260 178m0-48.75h40" stroke="#000" stroke-width="2" fill="none"/><path d="M260 100h40v100h-40z" fill="none"/><use xlink:href="#k" transform="translate(241.075 192.6)"/><path d="M540 201v39.5" stroke="#333" stroke-width="2" fill="none"/><path d="M541 201.03h-2V197h2z" fill="#333"/><path d="M540 255.76l-4.64-14.26h9.28z" stroke="#333" stroke-width="2" fill="#333"/><path d="M280 201v39.5m0-39.47V200" stroke="#333" stroke-width="2" fill="none"/><path d="M280 255.76l-4.64-14.26h9.28z" stroke="#333" stroke-width="2" fill="#333"/><path d="M800 201v39.5" stroke="#333" stroke-width="2" fill="none"/><path d="M801 201.03h-2V197h2z" fill="#333"/><path d="M800 255.76l-4.64-14.26h9.28z" stroke="#333" stroke-width="2" fill="#333"/><path d="M801 440.5h-2v-15.8h2zm0-37.4h-2V382h2z" fill="#333"/><path d="M801 382.03h-2V381h2zm-1 73.72l-4.64-14.26h9.28z" fill="#333"/><path d="M800 459l-6-18.5h12zm-3.26-16.5l3.26 10 3.26-10.03z" fill="#333"/><use xlink:href="#l" transform="translate(778.575 417.487)"/><path d="M541 440.5h-2v-13.65h2zm0-35.25h-2V382h2z" fill="#333"/><path d="M541 382.03h-2V381h2zm-1 73.72l-4.64-14.26h9.28z" fill="#333"/><path d="M540 459l-6-18.5h12zm-3.26-16.5l3.26 10 3.26-10.03z" fill="#333"/><use xlink:href="#m" transform="translate(526.55 419.654)"/><path d="M280 382v298.5" stroke="#333" stroke-width="2" fill="none"/><path d="M281 382.03h-2V381h2z" fill="#333"/><path d="M280 695.76l-4.64-14.26h9.28z" stroke="#333" stroke-width="2" fill="#333"/><path d="M800 561v59H680v60.5" stroke="#333" stroke-width="2" fill="none"/><path d="M801 561.03h-2V557h2z" fill="#333"/><path d="M680 695.76l-4.64-14.26h9.28z" stroke="#333" stroke-width="2" fill="#333"/><path d="M172.5 520h64.33l10.67 10.67v42.66h-75z" fill="#c7e8ac"/><path d="M180 520h6.44m4.3 0h6.42m4.3 0h6.42m4.3 0h6.43m4.3 0h6.43m4.3 0h3.2l1.6 1.6m2.14 2.13l3.2 3.2m2.13 2.14l1.6 1.6v3.2m0 4.26v6.4m0 4.27v6.4m0 4.27v6.4m0 4.26v3.2h-2.8m-3.76 0h-5.63m-3.74 0h-5.62m-3.75 0h-5.64m-3.75 0h-5.6m-3.76 0h-5.63m-3.74 0h-5.62m-3.75 0h-5.64m-3.75 0h-2.8v-3.2m0-4.26v-6.4m0-4.27v-6.4m0-4.27v-6.4m0-4.26v-6.4m0-4.27V520h3.22" stroke="#7ab648" stroke-width="2" fill="none"/><path d="M236.83 520.95v9.72h9.72" fill="#c7e8ac"/><path d="M236.83 520.95v2.92m0 3.88v2.92h2.92m3.88 0h2.92" stroke="#7ab648" stroke-width="2" fill="none"/><path d="M185 533.33h64.33L260 544v42.67h-75z" fill="#c7e8ac"/><path d="M192.5 533.33h6.44m4.3 0h6.42m4.3 0h6.42m4.3 0h6.43m4.3 0h6.43m4.3 0h3.2l1.6 1.6m2.14 2.14l3.2 3.2m2.13 2.13l1.6 1.6v3.2m0 4.27v6.4m0 4.26v6.4m0 4.27v6.4m0 4.27v3.2h-2.8m-3.76 0h-5.63m-3.74 0h-5.62m-3.75 0h-5.64m-3.75 0h-5.6m-3.76 0h-5.63m-3.74 0h-5.62m-3.75 0h-5.64m-3.75 0H185v-3.2m0-4.27v-6.4m0-4.27v-6.4m0-4.26v-6.4m0-4.27v-6.4m0-4.27v-3.2h3.22" stroke="#7ab648" stroke-width="2" fill="none"/><path d="M249.33 534.3v9.7h9.72" fill="#c7e8ac"/><path d="M249.33 534.3v2.9m0 3.9v2.9h2.92m3.88 0h2.92" stroke="#7ab648" stroke-width="2" fill="none"/><path d="M160 546.67h64.33L235 557.33V600h-75z" fill="#c7e8ac"/><path d="M167.5 546.67h6.44m4.3 0h6.42m4.3 0h6.42m4.3 0h6.43m4.3 0h6.43m4.3 0h3.2l1.6 1.6m2.14 2.13l3.2 3.2m2.13 2.13l1.6 1.6v3.2m0 4.27v6.4m0 4.27v6.4m0 4.26v6.4m0 4.27v3.2h-2.8m-3.76 0h-5.63m-3.74 0h-5.62m-3.75 0h-5.64m-3.75 0h-5.6m-3.76 0h-5.63m-3.74 0h-5.62m-3.75 0h-5.64m-3.75 0H160v-3.2m0-4.27v-6.4m0-4.26v-6.4m0-4.27v-6.4m0-4.27v-6.4m0-4.26v-3.2h3.22" stroke="#7ab648" stroke-width="2" fill="none"/><path d="M224.33 547.62v9.7h9.72" fill="#c7e8ac"/><path d="M224.33 547.62v2.9m0 3.9v2.9h2.92m3.88 0h2.92" stroke="#7ab648" stroke-width="2" fill="none"/><use xlink:href="#n" transform="translate(178.05 577.067)"/><path d="M480 703c0-1.66 1.34-3 3-3h414c1.66 0 3 1.34 3 3v114c0 1.66-1.34 3-3 3H483c-1.66 0-3-1.34-3-3z" stroke="#7ab648" stroke-width="2" fill="#a3d977"/><path d="M460 723c0-1.66 1.34-3 3-3h34c1.66 0 3 1.34 3 3v14c0 1.66-1.34 3-3 3h-34c-1.66 0-3-1.34-3-3zm0 60c0-1.66 1.34-3 3-3h34c1.66 0 3 1.34 3 3v14c0 1.66-1.34 3-3 3h-34c-1.66 0-3-1.34-3-3z" stroke="#7ab648" stroke-width="2" fill="#a3d977"/><use xlink:href="#o" transform="translate(642.1 763.6)"/><use xlink:href="#p" transform="translate(687.05 763.6)"/><path d="M170 703c0-1.66 1.34-3 3-3h234c1.66 0 3 1.34 3 3v114c0 1.66-1.34 3-3 3H173c-1.66 0-3-1.34-3-3z" stroke="#7ab648" stroke-width="2" fill="#a3d977"/><path d="M150 723c0-1.66 1.34-3 3-3h34c1.66 0 3 1.34 3 3v14c0 1.66-1.34 3-3 3h-34c-1.66 0-3-1.34-3-3zm0 60c0-1.66 1.34-3 3-3h34c1.66 0 3 1.34 3 3v14c0 1.66-1.34 3-3 3h-34c-1.66 0-3-1.34-3-3z" stroke="#7ab648" stroke-width="2" fill="#a3d977"/><use xlink:href="#q" transform="translate(244.15 742)"/><use xlink:href="#r" transform="translate(234.6 763.6)"/><use xlink:href="#s" transform="translate(255.575 785.2)"/><path d="M540 561v59h140v60.5" stroke="#333" stroke-width="2" fill="none"/><path d="M541 561.03h-2V557h2z" fill="#333"/><path d="M680 695.76l-4.64-14.26h9.28z" stroke="#333" stroke-width="2" fill="#333"/><path d="M632.5 520h64.33l10.67 10.67v42.66h-75z" fill="#c7e8ac"/><path d="M640 520h6.44m4.3 0h6.42m4.3 0h6.42m4.3 0h6.43m4.3 0h6.43m4.3 0h3.2l1.6 1.6m2.14 2.13l3.2 3.2m2.13 2.14l1.6 1.6v3.2m0 4.26v6.4m0 4.27v6.4m0 4.27v6.4m0 4.26v3.2h-2.8m-3.76 0h-5.63m-3.74 0h-5.62m-3.75 0h-5.64m-3.75 0h-5.6m-3.76 0h-5.63m-3.74 0h-5.62m-3.75 0h-5.64m-3.75 0h-2.8v-3.2m0-4.26v-6.4m0-4.27v-6.4m0-4.27v-6.4m0-4.26v-6.4m0-4.27V520h3.22" stroke="#7ab648" stroke-width="2" fill="none"/><path d="M696.83 520.95v9.72h9.72" fill="#c7e8ac"/><path d="M696.83 520.95v2.92m0 3.88v2.92h2.92m3.88 0h2.92" stroke="#7ab648" stroke-width="2" fill="none"/><path d="M645 533.33h64.33L720 544v42.67h-75z" fill="#c7e8ac"/><path d="M652.5 533.33h6.44m4.3 0h6.42m4.3 0h6.42m4.3 0h6.43m4.3 0h6.43m4.3 0h3.2l1.6 1.6m2.14 2.14l3.2 3.2m2.13 2.13l1.6 1.6v3.2m0 4.27v6.4m0 4.26v6.4m0 4.27v6.4m0 4.27v3.2h-2.8m-3.76 0h-5.63m-3.74 0h-5.62m-3.75 0h-5.64m-3.75 0h-5.6m-3.76 0h-5.63m-3.74 0h-5.62m-3.75 0h-5.64m-3.75 0H645v-3.2m0-4.27v-6.4m0-4.27v-6.4m0-4.26v-6.4m0-4.27v-6.4m0-4.27v-3.2h3.22" stroke="#7ab648" stroke-width="2" fill="none"/><path d="M709.33 534.3v9.7h9.72" fill="#c7e8ac"/><path d="M709.33 534.3v2.9m0 3.9v2.9h2.92m3.88 0h2.92" stroke="#7ab648" stroke-width="2" fill="none"/><path d="M620 546.67h64.33L695 557.33V600h-75z" fill="#c7e8ac"/><path d="M627.5 546.67h6.44m4.3 0h6.42m4.3 0h6.42m4.3 0h6.43m4.3 0h6.43m4.3 0h3.2l1.6 1.6m2.14 2.13l3.2 3.2m2.13 2.13l1.6 1.6v3.2m0 4.27v6.4m0 4.27v6.4m0 4.26v6.4m0 4.27v3.2h-2.8m-3.76 0h-5.63m-3.74 0h-5.62m-3.75 0h-5.64m-3.75 0h-5.6m-3.76 0h-5.63m-3.74 0h-5.62m-3.75 0h-5.64m-3.75 0H620v-3.2m0-4.27v-6.4m0-4.26v-6.4m0-4.27v-6.4m0-4.27v-6.4m0-4.26v-3.2h3.22" stroke="#7ab648" stroke-width="2" fill="none"/><path d="M684.33 547.62v9.7h9.72" fill="#c7e8ac"/><path d="M684.33 547.62v2.9m0 3.9v2.9h2.92m3.88 0h2.92" stroke="#7ab648" stroke-width="2" fill="none"/><use xlink:href="#n" transform="translate(638.05 577.067)"/><path d="M280 822v98h180.5" stroke="#333" stroke-width="2" fill="none"/><path d="M281 822.03h-2V821h2z" fill="#333"/><path d="M475.76 920l-14.26 4.64v-9.28z" stroke="#333" stroke-width="2" fill="#333"/><path d="M680 822v98h-60.5" stroke="#333" stroke-width="2" fill="none"/><path d="M681 822.03h-2V821h2z" fill="#333"/><path d="M604.24 920l14.26-4.64v9.28z" stroke="#333" stroke-width="2" fill="#333"/><path d="M740 860h160v120H740z" fill="none"/><path d="M756 860h-16v120h16" fill="none"/><path d="M757 860c0 .55-.45 1-1 1s-1-.45-1-1 .45-1 1-1 1 .45 1 1zm-8 0c0 .55-.45 1-1 1s-1-.45-1-1 .45-1 1-1 1 .45 1 1zm-8 0c0 .55-.45 1-1 1s-1-.45-1-1 .45-1 1-1 1 .45 1 1zm0 8c0 .55-.45 1-1 1s-1-.45-1-1 .45-1 1-1 1 .45 1 1zm0 8c0 .55-.45 1-1 1s-1-.45-1-1 .45-1 1-1 1 .45 1 1zm0 8c0 .55-.45 1-1 1s-1-.45-1-1 .45-1 1-1 1 .45 1 1zm0 8c0 .55-.45 1-1 1s-1-.45-1-1 .45-1 1-1 1 .45 1 1zm0 8c0 .55-.45 1-1 1s-1-.45-1-1 .45-1 1-1 1 .45 1 1zm0 8c0 .55-.45 1-1 1s-1-.45-1-1 .45-1 1-1 1 .45 1 1zm0 8c0 .55-.45 1-1 1s-1-.45-1-1 .45-1 1-1 1 .45 1 1zm0 8c0 .55-.45 1-1 1s-1-.45-1-1 .45-1 1-1 1 .45 1 1zm0 8c0 .55-.45 1-1 1s-1-.45-1-1 .45-1 1-1 1 .45 1 1zm0 8c0 .55-.45 1-1 1s-1-.45-1-1 .45-1 1-1 1 .45 1 1zm0 8c0 .55-.45 1-1 1s-1-.45-1-1 .45-1 1-1 1 .45 1 1zm0 8c0 .55-.45 1-1 1s-1-.45-1-1 .45-1 1-1 1 .45 1 1zm0 8c0 .55-.45 1-1 1s-1-.45-1-1 .45-1 1-1 1 .45 1 1zm0 8c0 .55-.45 1-1 1s-1-.45-1-1 .45-1 1-1 1 .45 1 1zm0 8c0 .55-.45 1-1 1s-1-.45-1-1 .45-1 1-1 1 .45 1 1zm8 0c0 .55-.45 1-1 1s-1-.45-1-1 .45-1 1-1 1 .45 1 1z"/><use xlink:href="#t" transform="translate(755 891.2)"/><use xlink:href="#u" transform="translate(770 891.2)"/><use xlink:href="#t" transform="translate(755 912.8)"/><use xlink:href="#v" transform="translate(770 912.8)"/><use xlink:href="#t" transform="translate(755 934.4)"/><use xlink:href="#w" transform="translate(770 934.4)"/><use xlink:href="#t" transform="translate(755 956)"/><use xlink:href="#x" transform="translate(770 956)"/><path d="M739 947.64c0 .55-.45 1-1 1s-1-.45-1-1 .45-1 1-1 1 .45 1 1zm-8 0c0 .55-.45 1-1 1s-1-.45-1-1 .45-1 1-1 1 .45 1 1zm-8 0c0 .55-.45 1-1 1s-1-.45-1-1 .45-1 1-1 1 .45 1 1zm-8 0c0 .55-.45 1-1 1s-1-.45-1-1 .45-1 1-1 1 .45 1 1zm-8 0c0 .55-.45 1-1 1s-1-.45-1-1 .45-1 1-1 1 .45 1 1zm-8 0c0 .55-.45 1-1 1s-1-.45-1-1 .45-1 1-1 1 .45 1 1zm-8 0c0 .55-.45 1-1 1s-1-.45-1-1 .45-1 1-1 1 .45 1 1zm-8 0c0 .55-.45 1-1 1s-1-.45-1-1 .45-1 1-1 1 .45 1 1zm-8 0c0 .55-.45 1-1 1s-1-.45-1-1 .45-1 1-1 1 .45 1 1zm-8 0c0 .55-.45 1-1 1s-1-.45-1-1 .45-1 1-1 1 .45 1 1zm-8 0c0 .55-.45 1-1 1s-1-.45-1-1 .45-1 1-1 1 .45 1 1zm-8 0c0 .55-.45 1-1 1s-1-.45-1-1 .45-1 1-1 1 .45 1 1zm-8 0c0 .55-.45 1-1 1s-1-.45-1-1 .45-1 1-1 1 .45 1 1zm-8 0c0 .55-.45 1-1 1s-1-.45-1-1 .45-1 1-1 1 .45 1 1zm-8 0c0 .55-.45 1-1 1s-1-.45-1-1 .45-1 1-1 1 .45 1 1zm-8 0c0 .55-.45 1-1 1s-1-.45-1-1 .45-1 1-1 1 .45 1 1zm-8 0c0 .55-.45 1-1 1s-1-.45-1-1 .45-1 1-1 1 .45 1 1z"/><path d="M739 948.64h-1.03v-2H739zm-136.97 0H601v-2h1.03z"/><path d="M1642.5 900c-78.7 0-142.5-53.73-142.5-120 0-53.02 38.6-97.74 98.47-114.13C1595 510 1832.5 480 1927.5 540c47.5-90 285-60 285 30 142.5-30 285 90 190 240 95 120 0 270-190 210-47.5 78-237.5 78-285 0-95 60-285 30-285-120z" stroke="#b2d6ef" stroke-width="2" fill="#c1e4f7"/><use xlink:href="#y" transform="translate(2043.01 499.4)"/><use xlink:href="#z" transform="translate(1963.01 521)"/><use xlink:href="#A" transform="translate(1707.01 542.6)"/><use xlink:href="#B" transform="translate(1662.01 564.2)"/><use xlink:href="#y" transform="translate(1772.01 564.2)"/><use xlink:href="#z" transform="translate(1867.91 564.2)"/><use xlink:href="#A" transform="translate(1919.91 564.2)"/><path d="M1940 273c0-1.66 1.34-3 3-3h134c1.66 0 3 1.34 3 3v114c0 1.66-1.34 3-3 3h-134c-1.66 0-3-1.34-3-3z" stroke="#ef8d22" stroke-width="2" fill="#ffdba9"/><path d="M1920 293c0-1.66 1.34-3 3-3h34c1.66 0 3 1.34 3 3v14c0 1.66-1.34 3-3 3h-34c-1.66 0-3-1.34-3-3zm0 60c0-1.66 1.34-3 3-3h34c1.66 0 3 1.34 3 3v14c0 1.66-1.34 3-3 3h-34c-1.66 0-3-1.34-3-3z" stroke="#ef8d22" stroke-width="2" fill="#ffdba9"/><use xlink:href="#e" transform="translate(1954.375 333.6)"/><use xlink:href="#f" transform="translate(1997.625 333.6)"/><path d="M2529.75 689.75c0 5.38-4.37 9.75-9.75 9.75s-9.75-4.37-9.75-9.75 4.37-9.75 9.75-9.75 9.75 4.37 9.75 9.75z" stroke="#000" stroke-width="2" fill="#fff"/><path d="M2520 699.5v27.3l20 31.2m-20-31.2l-20 31.2m0-48.75h40" stroke="#000" stroke-width="2" fill="none"/><path d="M2500 680h40v100h-40z" fill="none"/><use xlink:href="#j" transform="translate(2480.05 772.6)"/><path d="M2269.75 119.75c0 5.38-4.37 9.75-9.75 9.75s-9.75-4.37-9.75-9.75 4.37-9.75 9.75-9.75 9.75 4.37 9.75 9.75z" stroke="#000" stroke-width="2" fill="#fff"/><path d="M2260 129.5v27.3l20 31.2m-20-31.2l-20 31.2m0-48.75h40" stroke="#000" stroke-width="2" fill="none"/><path d="M2240 110h40v100h-40z" fill="none"/><use xlink:href="#k" transform="translate(2221.075 202.6)"/><path d="M2009.75 119.75c0 5.38-4.37 9.75-9.75 9.75s-9.75-4.37-9.75-9.75 4.37-9.75 9.75-9.75 9.75 4.37 9.75 9.75z" stroke="#000" stroke-width="2" fill="#fff"/><path d="M2000 129.5v27.3l20 31.2m-20-31.2l-20 31.2m0-48.75h40" stroke="#000" stroke-width="2" fill="none"/><path d="M1980 110h40v100h-40z" fill="none"/><use xlink:href="#k" transform="translate(1961.075 202.6)"/><path d="M1749.75 119.75c0 5.38-4.37 9.75-9.75 9.75s-9.75-4.37-9.75-9.75 4.37-9.75 9.75-9.75 9.75 4.37 9.75 9.75z" stroke="#000" stroke-width="2" fill="#fff"/><path d="M1740 129.5v27.3l20 31.2m-20-31.2l-20 31.2m0-48.75h40" stroke="#000" stroke-width="2" fill="none"/><path d="M1720 110h40v100h-40z" fill="none"/><use xlink:href="#k" transform="translate(1701.075 202.6)"/><path d="M2000 211v39.5" stroke="#333" stroke-width="2" fill="none"/><path d="M2001 211.03h-2V207h2z" fill="#333"/><path d="M2000 265.76l-4.64-14.26h9.28z" stroke="#333" stroke-width="2" fill="#333"/><path d="M1740 211v366.16m0-366.13V210" stroke="#333" stroke-width="2" fill="none"/><path d="M1740 592.43l-4.64-14.27h9.28z" stroke="#333" stroke-width="2" fill="#333"/><path d="M2261 580.5h-2V415.3h2zm0-186.8h-2V211h2z" fill="#333"/><path d="M2261 211.03h-2V207h2zm-1 384.73l-4.64-14.26h9.28z" fill="#333"/><path d="M2260 599l-6-18.5h12zm-3.26-16.5l3.26 10.03 3.26-10.03z" fill="#333"/><use xlink:href="#l" transform="translate(2238.575 408.1)"/><path d="M1632.5 426.67h64.33l10.67 10.66V480h-75z" fill="#c7e8ac"/><path d="M1640 426.67h6.44m4.3 0h6.42m4.3 0h6.42m4.3 0h6.43m4.3 0h6.43m4.3 0h3.2l1.6 1.6m2.14 2.13l3.2 3.2m2.13 2.13l1.6 1.6v3.2m0 4.27v6.4m0 4.27v6.4m0 4.26v6.4m0 4.27v3.2h-2.8m-3.76 0h-5.63m-3.74 0h-5.62m-3.75 0h-5.64m-3.75 0h-5.6m-3.76 0h-5.63m-3.74 0h-5.62m-3.75 0h-5.64m-3.75 0h-2.8v-3.2m0-4.27v-6.4m0-4.26v-6.4m0-4.27v-6.4m0-4.27v-6.4m0-4.26v-3.2h3.22" stroke="#7ab648" stroke-width="2" fill="none"/><path d="M1696.83 427.62v9.7h9.72" fill="#c7e8ac"/><path d="M1696.83 427.62v2.9m0 3.9v2.9h2.92m3.88 0h2.92" stroke="#7ab648" stroke-width="2" fill="none"/><path d="M1645 440h64.33l10.67 10.67v42.66h-75z" fill="#c7e8ac"/><path d="M1652.5 440h6.44m4.3 0h6.42m4.3 0h6.42m4.3 0h6.43m4.3 0h6.43m4.3 0h3.2l1.6 1.6m2.14 2.13l3.2 3.2m2.13 2.14l1.6 1.6v3.2m0 4.26v6.4m0 4.27v6.4m0 4.27v6.4m0 4.26v3.2h-2.8m-3.76 0h-5.63m-3.74 0h-5.62m-3.75 0h-5.64m-3.75 0h-5.6m-3.76 0h-5.63m-3.74 0h-5.62m-3.75 0h-5.64m-3.75 0h-2.8v-3.2m0-4.26v-6.4m0-4.27v-6.4m0-4.27v-6.4m0-4.26v-6.4m0-4.27V440h3.22" stroke="#7ab648" stroke-width="2" fill="none"/><path d="M1709.33 440.95v9.72h9.72" fill="#c7e8ac"/><path d="M1709.33 440.95v2.92m0 3.88v2.92h2.92m3.88 0h2.92" stroke="#7ab648" stroke-width="2" fill="none"/><path d="M1620 453.33h64.33L1695 464v42.67h-75z" fill="#c7e8ac"/><path d="M1627.5 453.33h6.44m4.3 0h6.42m4.3 0h6.42m4.3 0h6.43m4.3 0h6.43m4.3 0h3.2l1.6 1.6m2.14 2.14l3.2 3.2m2.13 2.13l1.6 1.6v3.2m0 4.27v6.4m0 4.26v6.4m0 4.27v6.4m0 4.27v3.2h-2.8m-3.76 0h-5.63m-3.74 0h-5.62m-3.75 0h-5.64m-3.75 0h-5.6m-3.76 0h-5.63m-3.74 0h-5.62m-3.75 0h-5.64m-3.75 0h-2.8v-3.2m0-4.27v-6.4m0-4.27v-6.4m0-4.26v-6.4m0-4.27v-6.4m0-4.27v-3.2h3.22" stroke="#7ab648" stroke-width="2" fill="none"/><path d="M1684.33 454.3v9.7h9.72" fill="#c7e8ac"/><path d="M1684.33 454.3v2.9m0 3.9v2.9h2.92m3.88 0h2.92" stroke="#7ab648" stroke-width="2" fill="none"/><use xlink:href="#n" transform="translate(1638.05 483.733)"/><path d="M2482.5 530h64.33l10.67 10.67v42.66h-75z" fill="#c7e8ac"/><path d="M2490 530h6.44m4.3 0h6.42m4.3 0h6.42m4.3 0h6.43m4.3 0h6.43m4.3 0h3.2l1.6 1.6m2.14 2.13l3.2 3.2m2.13 2.14l1.6 1.6v3.2m0 4.26v6.4m0 4.27v6.4m0 4.27v6.4m0 4.26v3.2h-2.8m-3.76 0h-5.63m-3.74 0h-5.62m-3.75 0h-5.64m-3.75 0h-5.6m-3.76 0h-5.63m-3.74 0h-5.62m-3.75 0h-5.64m-3.75 0h-2.8v-3.2m0-4.26v-6.4m0-4.27v-6.4m0-4.27v-6.4m0-4.26v-6.4m0-4.27V530h3.22" stroke="#7ab648" stroke-width="2" fill="none"/><path d="M2546.83 530.95v9.72h9.72" fill="#c7e8ac"/><path d="M2546.83 530.95v2.92m0 3.88v2.92h2.92m3.88 0h2.92" stroke="#7ab648" stroke-width="2" fill="none"/><path d="M2495 543.33h64.33L2570 554v42.67h-75z" fill="#c7e8ac"/><path d="M2502.5 543.33h6.44m4.3 0h6.42m4.3 0h6.42m4.3 0h6.43m4.3 0h6.43m4.3 0h3.2l1.6 1.6m2.14 2.14l3.2 3.2m2.13 2.13l1.6 1.6v3.2m0 4.27v6.4m0 4.26v6.4m0 4.27v6.4m0 4.27v3.2h-2.8m-3.76 0h-5.63m-3.74 0h-5.62m-3.75 0h-5.64m-3.75 0h-5.6m-3.76 0h-5.63m-3.74 0h-5.62m-3.75 0h-5.64m-3.75 0h-2.8v-3.2m0-4.27v-6.4m0-4.27v-6.4m0-4.26v-6.4m0-4.27v-6.4m0-4.27v-3.2h3.22" stroke="#7ab648" stroke-width="2" fill="none"/><path d="M2559.33 544.3v9.7h9.72" fill="#c7e8ac"/><path d="M2559.33 544.3v2.9m0 3.9v2.9h2.92m3.88 0h2.92" stroke="#7ab648" stroke-width="2" fill="none"/><path d="M2470 556.67h64.33l10.67 10.66V610h-75z" fill="#c7e8ac"/><path d="M2477.5 556.67h6.44m4.3 0h6.42m4.3 0h6.42m4.3 0h6.43m4.3 0h6.43m4.3 0h3.2l1.6 1.6m2.14 2.13l3.2 3.2m2.13 2.13l1.6 1.6v3.2m0 4.27v6.4m0 4.27v6.4m0 4.26v6.4m0 4.27v3.2h-2.8m-3.76 0h-5.63m-3.74 0h-5.62m-3.75 0h-5.64m-3.75 0h-5.6m-3.76 0h-5.63m-3.74 0h-5.62m-3.75 0h-5.64m-3.75 0h-2.8v-3.2m0-4.27v-6.4m0-4.26v-6.4m0-4.27v-6.4m0-4.27v-6.4m0-4.26v-3.2h3.22" stroke="#7ab648" stroke-width="2" fill="none"/><path d="M2534.33 557.62v9.7h9.72" fill="#c7e8ac"/><path d="M2534.33 557.62v2.9m0 3.9v2.9h2.92m3.88 0h2.92" stroke="#7ab648" stroke-width="2" fill="none"/><use xlink:href="#n" transform="translate(2488.05 587.067)"/><path d="M2060 1008c0 6.63-26.86 12-60 12s-60-5.37-60-12v-96c0-6.63 26.86-12 60-12s60 5.37 60 12z" stroke="#3aa6dd" stroke-width="2" fill="#99d2f2"/><path d="M2060 912c0 6.63-26.86 12-60 12s-60-5.37-60-12" stroke="#3aa6dd" stroke-width="2" fill="none"/><use xlink:href="#i" transform="translate(1960.075 975.65)"/><path d="M1940 743c0-1.66 1.34-3 3-3h414c1.66 0 3 1.34 3 3v114c0 1.66-1.34 3-3 3h-414c-1.66 0-3-1.34-3-3z" stroke="#3aa6dd" stroke-width="2" fill="#99d2f2"/><path d="M1920 763c0-1.66 1.34-3 3-3h34c1.66 0 3 1.34 3 3v14c0 1.66-1.34 3-3 3h-34c-1.66 0-3-1.34-3-3zm0 60c0-1.66 1.34-3 3-3h34c1.66 0 3 1.34 3 3v14c0 1.66-1.34 3-3 3h-34c-1.66 0-3-1.34-3-3z" stroke="#3aa6dd" stroke-width="2" fill="#99d2f2"/><use xlink:href="#o" transform="translate(2102.1 803.6)"/><use xlink:href="#p" transform="translate(2147.05 803.6)"/><path d="M1630 743c0-1.66 1.34-3 3-3h234c1.66 0 3 1.34 3 3v114c0 1.66-1.34 3-3 3h-234c-1.66 0-3-1.34-3-3z" stroke="#3aa6dd" stroke-width="2" fill="#99d2f2"/><path d="M1610 763c0-1.66 1.34-3 3-3h34c1.66 0 3 1.34 3 3v14c0 1.66-1.34 3-3 3h-34c-1.66 0-3-1.34-3-3zm0 60c0-1.66 1.34-3 3-3h34c1.66 0 3 1.34 3 3v14c0 1.66-1.34 3-3 3h-34c-1.66 0-3-1.34-3-3z" stroke="#3aa6dd" stroke-width="2" fill="#99d2f2"/><use xlink:href="#q" transform="translate(1704.15 782)"/><use xlink:href="#r" transform="translate(1694.6 803.6)"/><use xlink:href="#B" transform="translate(1683.65 825.2)"/><use xlink:href="#C" transform="translate(1763.5 825.2)"/><use xlink:href="#D" transform="translate(1781.45 825.2)"/><path d="M1740 862v98h180.5" stroke="#333" stroke-width="2" fill="none"/><path d="M1741 862.03h-2V861h2z" fill="#333"/><path d="M1935.76 960l-14.26 4.64v-9.28z" stroke="#333" stroke-width="2" fill="#333"/><path d="M2140 862v98h-60.5" stroke="#333" stroke-width="2" fill="none"/><path d="M2141 862.03h-2V861h2z" fill="#333"/><path d="M2064.24 960l14.26-4.64v9.28z" stroke="#333" stroke-width="2" fill="#333"/><path d="M2200 900h160v100h-160z" fill="none"/><path d="M2216 900h-16v100h16" fill="none"/><path d="M2217 900c0 .55-.45 1-1 1s-1-.45-1-1 .45-1 1-1 1 .45 1 1zm-8 0c0 .55-.45 1-1 1s-1-.45-1-1 .45-1 1-1 1 .45 1 1zm-8 0c0 .55-.45 1-1 1s-1-.45-1-1 .45-1 1-1 1 .45 1 1zm0 7.7c0 .54-.45 1-1 1s-1-.46-1-1c0-.56.45-1 1-1s1 .44 1 1zm0 7.68c0 .56-.45 1-1 1s-1-.44-1-1c0-.55.45-1 1-1s1 .45 1 1zm0 7.7c0 .55-.45 1-1 1s-1-.45-1-1c0-.56.45-1 1-1s1 .44 1 1zm0 7.7c0 .54-.45 1-1 1s-1-.46-1-1c0-.56.45-1 1-1s1 .44 1 1zm0 7.68c0 .55-.45 1-1 1s-1-.45-1-1 .45-1 1-1 1 .45 1 1zm0 7.7c0 .55-.45 1-1 1s-1-.45-1-1c0-.56.45-1 1-1s1 .44 1 1zm0 7.7c0 .54-.45 1-1 1s-1-.46-1-1c0-.57.45-1 1-1s1 .43 1 1zm0 7.68c0 .55-.45 1-1 1s-1-.45-1-1 .45-1 1-1 1 .45 1 1zm0 7.7c0 .54-.45 1-1 1s-1-.46-1-1c0-.56.45-1 1-1s1 .44 1 1zm0 7.68c0 .56-.45 1-1 1s-1-.44-1-1c0-.55.45-1 1-1s1 .45 1 1zm0 7.7c0 .55-.45 1-1 1s-1-.45-1-1c0-.56.45-1 1-1s1 .44 1 1zm0 7.7c0 .54-.45 1-1 1s-1-.46-1-1c0-.56.45-1 1-1s1 .44 1 1zm0 7.68c0 .55-.45 1-1 1s-1-.45-1-1 .45-1 1-1 1 .45 1 1zm8 0c0 .55-.45 1-1 1s-1-.45-1-1 .45-1 1-1 1 .45 1 1z"/><use xlink:href="#t" transform="translate(2215 921.2)"/><use xlink:href="#u" transform="translate(2230 921.2)"/><use xlink:href="#t" transform="translate(2215 942.8)"/><use xlink:href="#v" transform="translate(2230 942.8)"/><use xlink:href="#t" transform="translate(2215 964.4)"/><use xlink:href="#w" transform="translate(2230 964.4)"/><use xlink:href="#t" transform="translate(2215 986)"/><use xlink:href="#x" transform="translate(2230 986)"/><path d="M2199 987.64c0 .55-.45 1-1 1s-1-.45-1-1 .45-1 1-1 1 .45 1 1zm-8 0c0 .55-.45 1-1 1s-1-.45-1-1 .45-1 1-1 1 .45 1 1zm-8 0c0 .55-.45 1-1 1s-1-.45-1-1 .45-1 1-1 1 .45 1 1zm-8 0c0 .55-.45 1-1 1s-1-.45-1-1 .45-1 1-1 1 .45 1 1zm-8 0c0 .55-.45 1-1 1s-1-.45-1-1 .45-1 1-1 1 .45 1 1zm-8 0c0 .55-.45 1-1 1s-1-.45-1-1 .45-1 1-1 1 .45 1 1zm-8 0c0 .55-.45 1-1 1s-1-.45-1-1 .45-1 1-1 1 .45 1 1zm-8 0c0 .55-.45 1-1 1s-1-.45-1-1 .45-1 1-1 1 .45 1 1zm-8 0c0 .55-.45 1-1 1s-1-.45-1-1 .45-1 1-1 1 .45 1 1zm-8 0c0 .55-.45 1-1 1s-1-.45-1-1 .45-1 1-1 1 .45 1 1zm-8 0c0 .55-.45 1-1 1s-1-.45-1-1 .45-1 1-1 1 .45 1 1zm-8 0c0 .55-.45 1-1 1s-1-.45-1-1 .45-1 1-1 1 .45 1 1zm-8 0c0 .55-.45 1-1 1s-1-.45-1-1 .45-1 1-1 1 .45 1 1zm-8 0c0 .55-.45 1-1 1s-1-.45-1-1 .45-1 1-1 1 .45 1 1zm-8 0c0 .55-.45 1-1 1s-1-.45-1-1 .45-1 1-1 1 .45 1 1zm-8 0c0 .55-.45 1-1 1s-1-.45-1-1 .45-1 1-1 1 .45 1 1zm-8 0c0 .55-.45 1-1 1s-1-.45-1-1 .45-1 1-1 1 .45 1 1z"/><path d="M2199 988.64h-1.03v-2h1.03zm-136.97 0H2061v-2h1.03z"/><path d="M1940 603c0-1.66 1.34-3 3-3h174c1.66 0 3 1.34 3 3v74c0 1.66-1.34 3-3 3h-174c-1.66 0-3-1.34-3-3z" stroke="#3aa6dd" stroke-width="2" fill="#99d2f2"/><path d="M1920 613c0-1.66 1.34-3 3-3h34c1.66 0 3 1.34 3 3v14c0 1.66-1.34 3-3 3h-34c-1.66 0-3-1.34-3-3zm0 40c0-1.66 1.34-3 3-3h34c1.66 0 3 1.34 3 3v14c0 1.66-1.34 3-3 3h-34c-1.66 0-3-1.34-3-3z" stroke="#3aa6dd" stroke-width="2" fill="#99d2f2"/><use xlink:href="#E" transform="translate(2013.525 632.8)"/><use xlink:href="#F" transform="translate(2001.575 654.4)"/><path d="M2175 603c0-1.66 1.34-3 3-3h179c1.66 0 3 1.34 3 3v74c0 1.66-1.34 3-3 3h-179c-1.66 0-3-1.34-3-3z" stroke="#3aa6dd" stroke-width="2" fill="url(#G)"/><path d="M2155 613c0-1.66 1.34-3 3-3h34c1.66 0 3 1.34 3 3v14c0 1.66-1.34 3-3 3h-34c-1.66 0-3-1.34-3-3z" stroke="#3aa6dd" stroke-width="2" fill="url(#H)"/><path d="M2155 653c0-1.66 1.34-3 3-3h34c1.66 0 3 1.34 3 3v14c0 1.66-1.34 3-3 3h-34c-1.66 0-3-1.34-3-3z" stroke="#3aa6dd" stroke-width="2" fill="url(#I)"/><use xlink:href="#J" transform="translate(2244 632.8)"/><use xlink:href="#K" transform="translate(2236 654.4)"/><path d="M2071.25 682v28h410.25" stroke="#333" stroke-width="2" fill="none"/><path d="M2072.25 682.03h-2V681h2z" fill="#333"/><path d="M2496.76 710l-14.26 4.65v-9.27z" stroke="#333" stroke-width="2" fill="#333"/><use xlink:href="#L" transform="translate(2442.977 728.413)"/><path d="M2362 619.8h218v90h-21.5" stroke="#333" stroke-width="2" fill="none"/><path d="M2362.03 620.8H2361v-2h1.03z" fill="#333"/><path d="M2543.24 709.8l14.26-4.63v9.27z" stroke="#333" stroke-width="2" fill="#333"/><use xlink:href="#M" transform="translate(2576.243 724.522)"/><path d="M2001 580.5h-2V423.52h2zm0-178.58h-2V392h2z" fill="#333"/><path d="M2001 392.03h-2V391h2zm-1 203.73l-4.64-14.26h9.28z" fill="#333"/><path d="M2000 599l-6-18.5h12zm-3.26-16.5l3.26 10.03 3.26-10.03z" fill="#333"/><use xlink:href="#L" transform="translate(1986.55 416.317)"/><path d="M1665 599.67c0-1.66 1.34-3 3-3h174c1.66 0 3 1.34 3 3v74c0 1.65-1.34 3-3 3h-174c-1.66 0-3-1.35-3-3z" stroke="#3aa6dd" stroke-width="2" fill="url(#N)"/><path d="M1645 609.67c0-1.66 1.34-3 3-3h34c1.66 0 3 1.34 3 3v14c0 1.65-1.34 3-3 3h-34c-1.66 0-3-1.35-3-3z" stroke="#3aa6dd" stroke-width="2" fill="url(#O)"/><path d="M1645 649.67c0-1.66 1.34-3 3-3h34c1.66 0 3 1.34 3 3v14c0 1.65-1.34 3-3 3h-34c-1.66 0-3-1.35-3-3z" stroke="#3aa6dd" stroke-width="2" fill="url(#P)"/><use xlink:href="#Q" transform="translate(1700.875 640.267)"/><path d="M1738.8 678.67v41.83" stroke="#333" stroke-width="2" fill="none"/><path d="M1739.8 678.7h-2v-1.03h2z" fill="#333"/><path d="M1738.8 735.76l-4.65-14.26h9.28z" stroke="#333" stroke-width="2" fill="#333"/><path d="M1120 592.5h181.5V560l58.5 65-58.5 65v-32.5H1120z" stroke="#3aa6dd" stroke-width="2" fill="#c1e4f7"/><use xlink:href="#a" transform="translate(1217.075 628.556)"/><defs><path fill="#333" d="M67-125c0 53 21 87 73 88 37 1 54-22 65-47l45 17C233-25 199 4 140 4 58 4 20-42 15-125 8-235 124-281 211-232c18 10 29 29 36 50l-46 12c-8-25-30-41-62-41-52 0-71 34-72 86" id="R"/><path fill="#333" d="M240-174c0 40-23 61-54 70L253 0h-59l-57-94H76V0H24v-248c93 4 217-23 216 74zM76-134c48-2 112 12 112-38 0-48-66-32-112-35v73" id="S"/><path fill="#333" d="M230 0l2-204L168 0h-37L68-204 70 0H24v-248h70l56 185 57-185h69V0h-46" id="T"/><path fill="#333" d="M275 0h-61l-44-196L126 0H64L0-248h53L97-49l45-199h58l43 199 44-199h52" id="U"/><path fill="#333" d="M185-48c-13 30-37 53-82 52C43 2 14-33 14-96s30-98 90-98c62 0 83 45 84 108H66c0 31 8 55 39 56 18 0 30-7 34-22zm-45-69c5-46-57-63-70-21-2 6-4 13-4 21h74" id="V"/><path fill="#333" d="M135-194c52 0 70 43 70 98 0 56-19 99-73 100-30 1-46-15-58-35L72 0H24l1-261h50v104c11-23 29-37 60-37zM114-30c31 0 40-27 40-66 0-37-7-63-39-63s-41 28-41 65c0 36 8 64 40 64" id="W"/><path fill="#333" d="M137-138c1-29-70-34-71-4 15 46 118 7 119 86 1 83-164 76-172 9l43-7c4 19 20 25 44 25 33 8 57-30 24-41C81-84 22-81 20-136c-2-80 154-74 161-7" id="X"/><path fill="#333" d="M25-224v-37h50v37H25zM25 0v-190h50V0H25" id="Y"/><path fill="#333" d="M115-3C79 11 28 4 28-45v-112H4v-33h27l15-45h31v45h36v33H77v99c-1 23 16 31 38 25v30" id="Z"/><path fill="#333" d="M76-208v77h127v40H76V0H24v-248h183v40H76" id="aa"/><path fill="#333" d="M110-194c64 0 96 36 96 99 0 64-35 99-97 99-61 0-95-36-95-99 0-62 34-99 96-99zm-1 164c35 0 45-28 45-65 0-40-10-65-43-65-34 0-45 26-45 65 0 36 10 65 43 65" id="ab"/><path fill="#333" d="M135-150c-39-12-60 13-60 57V0H25l-1-190h47c2 13-1 29 3 40 6-28 27-53 61-41v41" id="ac"/><path fill="#333" d="M220-157c-53 9-28 100-34 157h-49v-107c1-27-5-49-29-50C55-147 81-57 75 0H25l-1-190h47c2 12-1 28 3 38 10-53 101-56 108 0 13-22 24-43 59-42 82 1 51 116 57 194h-49v-107c-1-25-5-48-29-50" id="ad"/><path fill="#333" d="M160-152l-12 59h37v26h-43L128 0h-28l14-67H60L46 0H20l13-67H6v-26h33l13-59H15v-26h42l15-67h27l-15 67h54l15-67h27l-14 67h28v26h-34zm-81 0L66-93h55l12-59H79" id="ae"/><path fill="#333" d="M23 0v-37h61v-169l-59 37v-38l62-41h46v211h57V0H23" id="af"/><path fill="#333" d="M24 0v-54h51V0H24" id="ag"/><path fill="#333" d="M175 0L67-191c6 58 2 128 3 191H24v-248h59L193-55c-6-58-2-129-3-193h46V0h-61" id="ah"/><path fill="#333" d="M147 0H94L2-248h55l64 206c17-72 42-137 63-206h54" id="ai"/><path fill="#333" d="M24 0v-248h52V0H24" id="aj"/><path fill="#333" d="M24-248c93 1 206-16 204 79-1 75-69 88-152 82V0H24v-248zm52 121c47 0 100 7 100-41 0-47-54-39-100-39v80" id="ak"/><path fill="#333" d="M169-182c-1-43-94-46-97-3 18 66 151 10 154 114 3 95-165 93-204 36-6-8-10-19-12-30l50-8c3 46 112 56 116 5-17-69-150-10-154-114-4-87 153-88 188-35 5 8 8 18 10 28" id="al"/><path fill="#333" d="M128 0H69L1-190h53L99-40l48-150h52" id="am"/><path fill="#333" d="M190-63c-7 42-38 67-86 67-59 0-84-38-90-98-12-110 154-137 174-36l-49 2c-2-19-15-32-35-32-30 0-35 28-38 64-6 74 65 87 74 30" id="an"/><path fill="#333" d="M24 0v-248h195v40H76v63h132v40H76v65h150V0H24" id="ao"/><path fill="#333" d="M133-34C117-15 103 5 69 4 32 3 11-16 11-54c-1-60 55-63 116-61 1-26-3-47-28-47-18 1-26 9-28 27l-52-2c7-38 36-58 82-57s74 22 75 68l1 82c-1 14 12 18 25 15v27c-30 8-71 5-69-32zm-48 3c29 0 43-24 42-57-32 0-66-3-65 30 0 17 8 27 23 27" id="ap"/><path fill="#333" d="M25 0v-261h50V0H25" id="aq"/><path fill="#333" d="M24-248c120-7 223 5 221 122C244-46 201 0 124 0H24v-248zM76-40c74 7 117-18 117-86 0-67-45-88-117-82v168" id="ar"/><path fill="#333" d="M30 0v-248h187v28H63v79h144v27H63v87h162V0H30" id="as"/><path fill="#333" d="M210-169c-67 3-38 105-44 169h-31v-121c0-29-5-50-35-48C34-165 62-65 56 0H25l-1-190h30c1 10-1 24 2 32 10-44 99-50 107 0 11-21 27-35 58-36 85-2 47 119 55 194h-31v-121c0-29-5-49-35-48" id="at"/><path fill="#333" d="M115-194c55 1 70 41 70 98S169 2 115 4C84 4 66-9 55-30l1 105H24l-1-265h31l2 30c10-21 28-34 59-34zm-8 174c40 0 45-34 45-75s-6-73-45-74c-42 0-51 32-51 76 0 43 10 73 51 73" id="au"/><path fill="#333" d="M24 0v-261h32V0H24" id="av"/><path fill="#333" d="M100-194c62-1 85 37 85 99 1 63-27 99-86 99S16-35 15-95c0-66 28-99 85-99zM99-20c44 1 53-31 53-75 0-43-8-75-51-75s-53 32-53 75 10 74 51 75" id="aw"/><path fill="#333" d="M179-190L93 31C79 59 56 82 12 73V49c39 6 53-20 64-50L1-190h34L92-34l54-156h33" id="ax"/><path fill="#333" d="M100-194c63 0 86 42 84 106H49c0 40 14 67 53 68 26 1 43-12 49-29l28 8c-11 28-37 45-77 45C44 4 14-33 15-96c1-61 26-98 85-98zm52 81c6-60-76-77-97-28-3 7-6 17-6 28h103" id="ay"/><path fill="#333" d="M212-179c-10-28-35-45-73-45-59 0-87 40-87 99 0 60 29 101 89 101 43 0 62-24 78-52l27 14C228-24 195 4 139 4 59 4 22-46 18-125c-6-104 99-153 187-111 19 9 31 26 39 46" id="az"/><path fill="#333" d="M84 4C-5 8 30-112 23-190h32v120c0 31 7 50 39 49 72-2 45-101 50-169h31l1 190h-30c-1-10 1-25-2-33-11 22-28 36-60 37" id="aA"/><path fill="#333" d="M135-143c-3-34-86-38-87 0 15 53 115 12 119 90S17 21 10-45l28-5c4 36 97 45 98 0-10-56-113-15-118-90-4-57 82-63 122-42 12 7 21 19 24 35" id="aB"/><path fill="#333" d="M59-47c-2 24 18 29 38 22v24C64 9 27 4 27-40v-127H5v-23h24l9-43h21v43h35v23H59v120" id="aC"/><path fill="#333" d="M114-163C36-179 61-72 57 0H25l-1-190h30c1 12-1 29 2 39 6-27 23-49 58-41v29" id="aD"/><path fill="#333" d="M141-36C126-15 110 5 73 4 37 3 15-17 15-53c-1-64 63-63 125-63 3-35-9-54-41-54-24 1-41 7-42 31l-33-3c5-37 33-52 76-52 45 0 72 20 72 64v82c-1 20 7 32 28 27v20c-31 9-61-2-59-35zM48-53c0 20 12 33 32 33 41-3 63-29 60-74-43 2-92-5-92 41" id="aE"/><path fill="#333" d="M24-231v-30h32v30H24zM24 0v-190h32V0H24" id="aF"/><path fill="#333" d="M96-169c-40 0-48 33-48 73s9 75 48 75c24 0 41-14 43-38l32 2c-6 37-31 61-74 61-59 0-76-41-82-99-10-93 101-131 147-64 4 7 5 14 7 22l-32 3c-4-21-16-35-41-35" id="aG"/><path fill="#333" d="M238-95c0 69-44 99-111 99C63 4 22-25 22-93v-155h51v151c-1 38 19 59 55 60 90 1 49-130 58-211h52v153" id="aH"/><path fill="#333" d="M135-194c87-1 58 113 63 194h-50c-7-57 23-157-34-157-59 0-34 97-39 157H25l-1-190h47c2 12-1 28 3 38 12-26 28-41 61-42" id="aI"/><path fill="#333" d="M121-226c-27-7-43 5-38 36h38v33H83V0H34v-157H6v-33h28c-9-59 32-81 87-68v32" id="aJ"/><path fill="#333" d="M199 0l-22-63H83L61 0H9l90-248h61L250 0h-51zm-33-102l-36-108c-10 38-24 72-36 108h72" id="aK"/><path fill="#333" d="M135-194c53 0 70 44 70 98 0 56-19 98-73 100-31 1-45-17-59-34 3 33 2 69 2 105H25l-1-265h48c2 10 0 23 3 31 11-24 29-35 60-35zM114-30c33 0 39-31 40-66 0-38-9-64-40-64-56 0-55 130 0 130" id="aL"/><path fill="#333" d="M195-6C206 82 75 100 31 46c-4-6-6-13-8-21l49-6c3 16 16 24 34 25 40 0 42-37 40-79-11 22-30 35-61 35-53 0-70-43-70-97 0-56 18-96 73-97 30 0 46 14 59 34l2-30h47zm-90-29c32 0 41-27 41-63 0-35-9-62-40-62-32 0-39 29-40 63 0 36 9 62 39 62" id="aM"/><path fill="#333" d="M0-79v-24h200v24H0" id="aT"/><path fill="#333" d="M85-194c31 0 48 13 60 33l-1-100h32l1 261h-30c-2-10 0-23-3-31C134-8 116 4 85 4 32 4 16-35 15-94c0-66 23-100 70-100zm9 24c-40 0-46 34-46 75 0 40 6 74 45 74 42 0 51-32 51-76 0-42-9-74-50-73" id="aN"/><path fill="#333" d="M117-194c89-4 53 116 60 194h-32v-121c0-31-8-49-39-48C34-167 62-67 57 0H25l-1-190h30c1 10-1 24 2 32 11-22 29-35 61-36" id="aO"/><path fill="#333" d="M85 4C-2 5 27-109 22-190h50c7 57-23 150 33 157 60-5 35-97 40-157h50l1 190h-47c-2-12 1-28-3-38-12 25-28 42-61 42" id="aP"/><path fill="#333" d="M88-194c31-1 46 15 58 34l-1-101h50l1 261h-48c-2-10 0-23-3-31C134-8 116 4 84 4 32 4 16-41 15-95c0-56 19-97 73-99zm17 164c33 0 40-30 41-66 1-37-9-64-41-64s-38 30-39 65c0 43 13 65 39 65" id="aQ"/><path fill="#333" d="M168-19C124 19 11 11 16-68c3-43 29-60 59-75-25-44-12-111 53-106 37 3 64 15 64 52 0 43-40 52-69 68 12 22 27 41 43 59 14-19 21-38 28-64l37 13c-8 29-19 52-34 74 12 10 32 16 52 10v35c-28 11-65-2-81-17zm-58-139c19-9 43-14 43-39 0-14-10-22-25-22-34 0-33 41-18 61zM60-68c-3 40 55 47 79 25-18-20-34-42-48-67-18 8-30 20-31 42" id="aU"/><path fill="#333" d="M14-72v-43h91v43H14" id="aR"/><path fill="#333" d="M24 0v-248h52v208h133V0H24" id="aS"/><g id="a"><use transform="scale(.05)" xlink:href="#R"/><use transform="translate(12.95) scale(.05)" xlink:href="#S"/><use transform="translate(25.9) scale(.05)" xlink:href="#T"/></g><g id="b"><use transform="scale(.05)" xlink:href="#U"/><use transform="translate(16.6) scale(.05)" xlink:href="#V"/><use transform="translate(26.6) scale(.05)" xlink:href="#W"/><use transform="translate(37.55) scale(.05)" xlink:href="#X"/><use transform="translate(47.55) scale(.05)" xlink:href="#Y"/><use transform="translate(52.55) scale(.05)" xlink:href="#Z"/><use transform="translate(58.5) scale(.05)" xlink:href="#V"/></g><g id="c"><use transform="scale(.05)" xlink:href="#aa"/><use transform="translate(10.95) scale(.05)" xlink:href="#ab"/><use transform="translate(21.9) scale(.05)" xlink:href="#ac"/><use transform="translate(28.9) scale(.05)" xlink:href="#ad"/></g><g id="d"><use transform="scale(.05)" xlink:href="#ae"/><use transform="translate(10) scale(.05)" xlink:href="#af"/><use transform="translate(20) scale(.05)" xlink:href="#ag"/><use transform="translate(25) scale(.05)" xlink:href="#ag"/><use transform="translate(30) scale(.05)" xlink:href="#ag"/><use transform="translate(35) scale(.05)" xlink:href="#ah"/></g><g id="e"><use transform="scale(.05)" xlink:href="#ai"/><use transform="translate(10.65) scale(.05)" xlink:href="#ab"/><use transform="translate(21.6) scale(.05)" xlink:href="#aj"/><use transform="translate(26.6) scale(.05)" xlink:href="#ak"/></g><g id="f"><use transform="scale(.05)" xlink:href="#al"/><use transform="translate(12) scale(.05)" xlink:href="#V"/><use transform="translate(22) scale(.05)" xlink:href="#ac"/><use transform="translate(29) scale(.05)" xlink:href="#am"/><use transform="translate(39) scale(.05)" xlink:href="#Y"/><use transform="translate(44) scale(.05)" xlink:href="#an"/><use transform="translate(54) scale(.05)" xlink:href="#V"/></g><g id="g"><use transform="scale(.05)" xlink:href="#ao"/><use transform="translate(12) scale(.05)" xlink:href="#ad"/><use transform="translate(28) scale(.05)" xlink:href="#ap"/><use transform="translate(38) scale(.05)" xlink:href="#Y"/><use transform="translate(43) scale(.05)" xlink:href="#aq"/></g><g id="h"><use transform="scale(.05)" xlink:href="#al"/><use transform="translate(12) scale(.05)" xlink:href="#V"/><use transform="translate(22) scale(.05)" xlink:href="#ac"/><use transform="translate(29) scale(.05)" xlink:href="#am"/><use transform="translate(39) scale(.05)" xlink:href="#V"/><use transform="translate(49) scale(.05)" xlink:href="#ac"/></g><g id="i"><use transform="scale(.05)" xlink:href="#ar"/><use transform="translate(12.95) scale(.05)" xlink:href="#ap"/><use transform="translate(22.95) scale(.05)" xlink:href="#Z"/><use transform="translate(28.9) scale(.05)" xlink:href="#ap"/><use transform="translate(38.9) scale(.05)" xlink:href="#W"/><use transform="translate(49.85) scale(.05)" xlink:href="#ap"/><use transform="translate(59.85) scale(.05)" xlink:href="#X"/><use transform="translate(69.85) scale(.05)" xlink:href="#V"/></g><g id="j"><use transform="scale(.05)" xlink:href="#as"/><use transform="translate(12) scale(.05)" xlink:href="#at"/><use transform="translate(26.95) scale(.05)" xlink:href="#au"/><use transform="translate(36.95) scale(.05)" xlink:href="#av"/><use transform="translate(40.9) scale(.05)" xlink:href="#aw"/><use transform="translate(50.9) scale(.05)" xlink:href="#ax"/><use transform="translate(59.9) scale(.05)" xlink:href="#ay"/><use transform="translate(69.9) scale(.05)" xlink:href="#ay"/></g><g id="k"><use transform="scale(.05)" xlink:href="#az"/><use transform="translate(12.95) scale(.05)" xlink:href="#aA"/><use transform="translate(22.95) scale(.05)" xlink:href="#aB"/><use transform="translate(31.95) scale(.05)" xlink:href="#aC"/><use transform="translate(36.95) scale(.05)" xlink:href="#aw"/><use transform="translate(46.95) scale(.05)" xlink:href="#at"/><use transform="translate(61.9) scale(.05)" xlink:href="#ay"/><use transform="translate(71.9) scale(.05)" xlink:href="#aD"/></g><g id="l"><use transform="scale(.05)" xlink:href="#ay"/><use transform="translate(10) scale(.05)" xlink:href="#at"/><use transform="translate(24.95) scale(.05)" xlink:href="#aE"/><use transform="translate(34.95) scale(.05)" xlink:href="#aF"/><use transform="translate(38.9) scale(.05)" xlink:href="#av"/></g><g id="m"><use transform="scale(.05)" xlink:href="#aG"/><use transform="translate(9) scale(.05)" xlink:href="#aE"/><use transform="translate(19) scale(.05)" xlink:href="#av"/><use transform="translate(22.95) scale(.05)" xlink:href="#av"/></g><g id="n"><use transform="scale(.05)" xlink:href="#ar"/><use transform="translate(12.95) scale(.05)" xlink:href="#ap"/><use transform="translate(22.95) scale(.05)" xlink:href="#Z"/><use transform="translate(28.9) scale(.05)" xlink:href="#ap"/></g><g id="o"><use transform="scale(.05)" xlink:href="#aH"/><use transform="translate(12.95) scale(.05)" xlink:href="#X"/><use transform="translate(22.95) scale(.05)" xlink:href="#V"/><use transform="translate(32.95) scale(.05)" xlink:href="#ac"/></g><g id="p"><use transform="scale(.05)" xlink:href="#aj"/><use transform="translate(5) scale(.05)" xlink:href="#aI"/><use transform="translate(15.95) scale(.05)" xlink:href="#Z"/><use transform="translate(21.9) scale(.05)" xlink:href="#V"/><use transform="translate(31.9) scale(.05)" xlink:href="#ac"/><use transform="translate(38.9) scale(.05)" xlink:href="#aJ"/><use transform="translate(44.85) scale(.05)" xlink:href="#ap"/><use transform="translate(54.85) scale(.05)" xlink:href="#an"/><use transform="translate(64.85) scale(.05)" xlink:href="#V"/></g><g id="q"><use transform="scale(.05)" xlink:href="#aK"/><use transform="translate(12.95) scale(.05)" xlink:href="#aL"/><use transform="translate(23.9) scale(.05)" xlink:href="#aL"/><use transform="translate(34.85) scale(.05)" xlink:href="#aq"/><use transform="translate(39.85) scale(.05)" xlink:href="#Y"/><use transform="translate(44.85) scale(.05)" xlink:href="#an"/><use transform="translate(54.85) scale(.05)" xlink:href="#ap"/><use transform="translate(64.85) scale(.05)" xlink:href="#Z"/><use transform="translate(70.8) scale(.05)" xlink:href="#Y"/><use transform="translate(75.8) scale(.05)" xlink:href="#ab"/><use transform="translate(86.75) scale(.05)" xlink:href="#aI"/></g><g id="r"><use transform="scale(.05)" xlink:href="#ak"/><use transform="translate(12) scale(.05)" xlink:href="#ac"/><use transform="translate(19) scale(.05)" xlink:href="#ab"/><use transform="translate(29.95) scale(.05)" xlink:href="#aM"/><use transform="translate(40.9) scale(.05)" xlink:href="#ac"/><use transform="translate(47.9) scale(.05)" xlink:href="#ap"/><use transform="translate(57.9) scale(.05)" xlink:href="#ad"/><use transform="translate(73.9) scale(.05)" xlink:href="#ad"/><use transform="translate(89.9) scale(.05)" xlink:href="#Y"/><use transform="translate(94.9) scale(.05)" xlink:href="#aI"/><use transform="translate(105.85) scale(.05)" xlink:href="#aM"/></g><g id="s"><use transform="scale(.05)" xlink:href="#aj"/><use transform="translate(5) scale(.05)" xlink:href="#aI"/><use transform="translate(15.95) scale(.05)" xlink:href="#Z"/><use transform="translate(21.9) scale(.05)" xlink:href="#V"/><use transform="translate(31.9) scale(.05)" xlink:href="#ac"/><use transform="translate(38.9) scale(.05)" xlink:href="#aJ"/><use transform="translate(44.85) scale(.05)" xlink:href="#ap"/><use transform="translate(54.85) scale(.05)" xlink:href="#an"/><use transform="translate(64.85) scale(.05)" xlink:href="#V"/></g><g id="u"><use transform="scale(.05)" xlink:href="#av"/><use transform="translate(3.95) scale(.05)" xlink:href="#ay"/><use transform="translate(13.95) scale(.05)" xlink:href="#aE"/><use transform="translate(23.95) scale(.05)" xlink:href="#aN"/><use transform="translate(33.95) scale(.05)" xlink:href="#aB"/></g><g id="v"><use transform="scale(.05)" xlink:href="#aG"/><use transform="translate(9) scale(.05)" xlink:href="#aw"/><use transform="translate(19) scale(.05)" xlink:href="#aO"/><use transform="translate(29) scale(.05)" xlink:href="#aC"/><use transform="translate(34) scale(.05)" xlink:href="#aE"/><use transform="translate(44) scale(.05)" xlink:href="#aG"/><use transform="translate(53) scale(.05)" xlink:href="#aC"/><use transform="translate(58) scale(.05)" xlink:href="#aB"/></g><g id="w"><use transform="scale(.05)" xlink:href="#aN"/><use transform="translate(10) scale(.05)" xlink:href="#ay"/><use transform="translate(20) scale(.05)" xlink:href="#aE"/><use transform="translate(30) scale(.05)" xlink:href="#av"/><use transform="translate(33.95) scale(.05)" xlink:href="#aB"/></g><g id="x"><use transform="scale(.05)" xlink:href="#aG"/><use transform="translate(9) scale(.05)" xlink:href="#aE"/><use transform="translate(19) scale(.05)" xlink:href="#aB"/><use transform="translate(28) scale(.05)" xlink:href="#ay"/><use transform="translate(38) scale(.05)" xlink:href="#aB"/></g><g id="y"><use transform="scale(.05)" xlink:href="#al"/><use transform="translate(12) scale(.05)" xlink:href="#ap"/><use transform="translate(22) scale(.05)" xlink:href="#aq"/><use transform="translate(27) scale(.05)" xlink:href="#V"/><use transform="translate(37) scale(.05)" xlink:href="#X"/><use transform="translate(47) scale(.05)" xlink:href="#aJ"/><use transform="translate(52.95) scale(.05)" xlink:href="#ab"/><use transform="translate(63.9) scale(.05)" xlink:href="#ac"/><use transform="translate(70.9) scale(.05)" xlink:href="#an"/><use transform="translate(80.9) scale(.05)" xlink:href="#V"/></g><g id="z"><use transform="scale(.05)" xlink:href="#al"/><use transform="translate(12) scale(.05)" xlink:href="#ap"/><use transform="translate(22) scale(.05)" xlink:href="#aq"/><use transform="translate(27) scale(.05)" xlink:href="#V"/><use transform="translate(37) scale(.05)" xlink:href="#X"/></g><g id="A"><use transform="scale(.05)" xlink:href="#R"/><use transform="translate(12.95) scale(.05)" xlink:href="#aq"/><use transform="translate(17.95) scale(.05)" xlink:href="#ab"/><use transform="translate(28.9) scale(.05)" xlink:href="#aP"/><use transform="translate(39.85) scale(.05)" xlink:href="#aQ"/></g><g id="B"><use transform="scale(.05)" xlink:href="#aj"/><use transform="translate(5) scale(.05)" xlink:href="#aI"/><use transform="translate(15.95) scale(.05)" xlink:href="#Z"/><use transform="translate(21.9) scale(.05)" xlink:href="#V"/><use transform="translate(31.9) scale(.05)" xlink:href="#ac"/><use transform="translate(38.9) scale(.05)" xlink:href="#aJ"/><use transform="translate(44.85) scale(.05)" xlink:href="#ap"/><use transform="translate(54.85) scale(.05)" xlink:href="#an"/><use transform="translate(64.85) scale(.05)" xlink:href="#V"/></g><g id="D"><use transform="scale(.05)" xlink:href="#R"/><use transform="translate(12.95) scale(.05)" xlink:href="#ab"/><use transform="translate(23.9) scale(.05)" xlink:href="#ac"/><use transform="translate(30.9) scale(.05)" xlink:href="#V"/></g><g id="E"><use transform="scale(.05)" xlink:href="#R"/><use transform="translate(12.95) scale(.05)" xlink:href="#ap"/><use transform="translate(22.95) scale(.05)" xlink:href="#aq"/><use transform="translate(27.95) scale(.05)" xlink:href="#aq"/></g><g id="F"><use transform="scale(.05)" xlink:href="#R"/><use transform="translate(12.95) scale(.05)" xlink:href="#V"/><use transform="translate(22.95) scale(.05)" xlink:href="#aI"/><use transform="translate(33.9) scale(.05)" xlink:href="#Z"/><use transform="translate(39.85) scale(.05)" xlink:href="#V"/><use transform="translate(49.85) scale(.05)" xlink:href="#ac"/></g><g id="J"><use transform="scale(.05)" xlink:href="#ao"/><use transform="translate(12) scale(.05)" xlink:href="#ad"/><use transform="translate(28) scale(.05)" xlink:href="#ap"/><use transform="translate(38) scale(.05)" xlink:href="#Y"/><use transform="translate(43) scale(.05)" xlink:href="#aq"/></g><g id="K"><use transform="scale(.05)" xlink:href="#al"/><use transform="translate(12) scale(.05)" xlink:href="#V"/><use transform="translate(22) scale(.05)" xlink:href="#ac"/><use transform="translate(29) scale(.05)" xlink:href="#am"/><use transform="translate(39) scale(.05)" xlink:href="#Y"/><use transform="translate(44) scale(.05)" xlink:href="#an"/><use transform="translate(54) scale(.05)" xlink:href="#V"/></g><g id="L"><use transform="scale(.05)" xlink:href="#aG"/><use transform="translate(9) scale(.05)" xlink:href="#aE"/><use transform="translate(19) scale(.05)" xlink:href="#av"/><use transform="translate(22.95) scale(.05)" xlink:href="#av"/></g><g id="M"><use transform="scale(.05)" xlink:href="#ay"/><use transform="translate(10) scale(.05)" xlink:href="#at"/><use transform="translate(24.95) scale(.05)" xlink:href="#aE"/><use transform="translate(34.95) scale(.05)" xlink:href="#aF"/><use transform="translate(38.9) scale(.05)" xlink:href="#av"/></g><g id="Q"><use transform="scale(.05)" xlink:href="#U"/><use transform="translate(16.6) scale(.05)" xlink:href="#V"/><use transform="translate(26.6) scale(.05)" xlink:href="#W"/><use transform="translate(37.55) scale(.05)" xlink:href="#aR"/><use transform="translate(43.5) scale(.05)" xlink:href="#Z"/><use transform="translate(49.45) scale(.05)" xlink:href="#ab"/><use transform="translate(60.4) scale(.05)" xlink:href="#aR"/><use transform="translate(66.35) scale(.05)" xlink:href="#aS"/><use transform="translate(77.3) scale(.05)" xlink:href="#V"/><use transform="translate(87.3) scale(.05)" xlink:href="#ap"/><use transform="translate(97.3) scale(.05)" xlink:href="#aQ"/></g><linearGradient gradientUnits="userSpaceOnUse" id="G" x1="2155" y1="600" x2="2155" y2="680"><stop offset="0%" stop-color="#ffdba9"/><stop offset="53.8%" stop-color="#99d2f2" stop-opacity=".5"/><stop offset="100%" stop-color="#99d2f2"/></linearGradient><linearGradient gradientUnits="userSpaceOnUse" id="H" x1="2155" y1="600" x2="2155" y2="680"><stop offset="0%" stop-color="#ffdba9"/><stop offset="53.8%" stop-color="#99d2f2" stop-opacity=".5"/><stop offset="100%" stop-color="#99d2f2"/></linearGradient><linearGradient gradientUnits="userSpaceOnUse" id="I" x1="2155" y1="600" x2="2155" y2="680"><stop offset="0%" stop-color="#ffdba9"/><stop offset="53.8%" stop-color="#99d2f2" stop-opacity=".5"/><stop offset="100%" stop-color="#99d2f2"/></linearGradient><linearGradient gradientUnits="userSpaceOnUse" id="N" x1="1645" y1="596.67" x2="1645" y2="676.67"><stop offset="2.17%" stop-color="#ffdba9"/><stop offset="51.09%" stop-color="#99d2f2" stop-opacity=".5"/><stop offset="98.37%" stop-color="#99d2f2"/></linearGradient><linearGradient gradientUnits="userSpaceOnUse" id="O" x1="1645" y1="596.67" x2="1645" y2="676.67"><stop offset="2.17%" stop-color="#ffdba9"/><stop offset="51.09%" stop-color="#99d2f2" stop-opacity=".5"/><stop offset="98.37%" stop-color="#99d2f2"/></linearGradient><linearGradient gradientUnits="userSpaceOnUse" id="P" x1="1645" y1="596.67" x2="1645" y2="676.67"><stop offset="2.17%" stop-color="#ffdba9"/><stop offset="51.09%" stop-color="#99d2f2" stop-opacity=".5"/><stop offset="98.37%" stop-color="#99d2f2"/></linearGradient><use transform="scale(.05)" xlink:href="#aT" id="t"/><use transform="scale(.05)" xlink:href="#aU" id="C"/></defs></g></svg>