<svg xmlns="http://www.w3.org/2000/svg" xmlns:xlink="http://www.w3.org/1999/xlink" xmlns:lucid="lucid" width="1011" height="1206"><g transform="translate(-280 -80)" lucid:page-tab-id="Fj~ctmrhqjBe"><path d="M840 421.7h300v100H840z" stroke="#3aa6dd" stroke-width="2" fill="#c1e4f7"/><use xlink:href="#a" transform="translate(955.679 474.672)"/><path d="M940 1192.85c0 6.63-26.86 12-60 12s-60-5.37-60-12v-96c0-6.63 26.86-12 60-12s60 5.37 60 12z" stroke="#7ab648" stroke-width="2" fill="#c7e8ac"/><path d="M940 1096.85c0 6.63-26.86 12-60 12s-60-5.37-60-12" stroke="#7ab648" stroke-width="2" fill="none"/><use xlink:href="#b" transform="translate(833.901 1149.572)"/><use xlink:href="#c" transform="translate(861.901 1149.572)"/><use xlink:href="#d" transform="translate(870.123 1170.906)"/><path d="M1160 1192.85c0 6.63-26.86 12-60 12s-60-5.37-60-12v-96c0-6.63 26.86-12 60-12s60 5.37 60 12z" stroke="#7ab648" stroke-width="2" fill="#c7e8ac"/><path d="M1160 1096.85c0 6.63-26.86 12-60 12s-60-5.37-60-12" stroke="#7ab648" stroke-width="2" fill="none"/><use xlink:href="#b" transform="translate(1053.901 1149.572)"/><use xlink:href="#c" transform="translate(1081.901 1149.572)"/><use xlink:href="#e" transform="translate(1090.123 1170.906)"/><path d="M880 835.4v229.95" stroke="#000" stroke-width="2" fill="none"/><path d="M881 835.43h-2v-1.03h2z"/><path d="M880 1080.6l-4.64-14.25h9.28z" stroke="#000" stroke-width="2"/><path d="M1100 835.4v229.95" stroke="#000" stroke-width="2" fill="none"/><path d="M1101 835.43h-2v-1.03h2z"/><path d="M1100 1080.6l-4.64-14.25h9.28z" stroke="#000" stroke-width="2"/><path d="M810 753.4h124l16 16v64H810z" stroke="#fcc438" stroke-width="2" fill="#ffeca9"/><path d="M934 754.35v15.05h15.05" stroke="#fcc438" stroke-width="2" fill="#ffeca9"/><use xlink:href="#f" transform="translate(838.79 785.747)"/><use xlink:href="#g" transform="translate(910.84 785.747)"/><use xlink:href="#h" transform="translate(843.58 807.08)"/><path d="M1030 753.4h124l16 16v64h-140z" stroke="#ef8d22" stroke-width="2" fill="#ffdba9"/><path d="M1154 754.35v15.05h15.05" stroke="#ef8d22" stroke-width="2" fill="#ffdba9"/><use xlink:href="#i" transform="translate(1065.679 785.747)"/><use xlink:href="#g" transform="translate(1123.95 785.747)"/><use xlink:href="#j" transform="translate(1060.988 807.08)"/><path d="M840 285.85h286l14 14v56H840z" stroke="#de5f85" stroke-width="2" fill="#f9d2de"/><path d="M1126 286.8v13.05h13.05" stroke="#de5f85" stroke-width="2" fill="#f9d2de"/><use xlink:href="#k" transform="translate(902.568 323.822)"/><use xlink:href="#l" transform="translate(942.963 323.822)"/><use xlink:href="#m" transform="translate(1039.95 323.822)"/><path d="M990 357.85v44.35" stroke="#000" stroke-width="2" fill="none"/><path d="M991 357.88h-2v-1.03h2z"/><path d="M990 417.46l-4.64-14.26h9.28z" stroke="#000" stroke-width="2"/><path d="M840 120h300v100H840z" stroke="#3aa6dd" stroke-width="2" fill="#c1e4f7"/><use xlink:href="#n" transform="translate(849.432 161.722)"/><use xlink:href="#o" transform="translate(891.802 161.722)"/><use xlink:href="#p" transform="translate(965.827 161.722)"/><use xlink:href="#q" transform="translate(986.519 161.722)"/><use xlink:href="#r" transform="translate(1071.407 161.722)"/><use xlink:href="#s" transform="translate(965.333 183.056)"/><path d="M990 222v44.35" stroke="#000" stroke-width="2" fill="none"/><path d="M991 222.03h-2V221h2z"/><path d="M990 281.6l-4.64-14.25h9.28z" stroke="#000" stroke-width="2"/><path d="M1182 472.7h-40v-2h38v-71.82h2zm0-95.42h-2V168.2h-20.5v-2h22.5z"/><path d="M1142.03 472.7H1141v-2h1.03zm16.47-300.86l-14.26-4.64 14.26-4.63z"/><path d="M1159.5 173.22l-18.5-6.02 18.5-6zm-12.03-6.02l10.03 3.26v-6.5z"/><use xlink:href="#t" transform="translate(1101.15 391.682)"/><use xlink:href="#u" transform="translate(1182 391.682)"/><use xlink:href="#v" transform="translate(1199 391.682)"/><path d="M360 421.7h180l20 20v80H360z" stroke="#de5f85" stroke-width="2" fill="#f9d2de"/><path d="M540 422.65v19.05h19.05" stroke="#de5f85" stroke-width="2" fill="#f9d2de"/><use xlink:href="#w" transform="translate(382.593 474.672)"/><use xlink:href="#x" transform="translate(410.593 474.672)"/><use xlink:href="#y" transform="translate(492.074 474.672)"/><path d="M782 471.7h38.5" stroke="#000" stroke-width="2" fill="none"/><path d="M782.03 472.7H781v-2h1.03z"/><path d="M835.76 471.7l-14.26 4.64v-9.28z" stroke="#000" stroke-width="2"/><path d="M562 471.7h58.5" stroke="#000" stroke-width="2" fill="none"/><path d="M562.03 472.7H561v-2h1.03z"/><path d="M635.76 471.7l-14.26 4.64v-9.28z" stroke="#000" stroke-width="2"/><path d="M840 587.55h300v100H840z" stroke="#3aa6dd" stroke-width="2" fill="#c1e4f7"/><use xlink:href="#z" transform="translate(903.26 640.522)"/><use xlink:href="#A" transform="translate(996.84 640.522)"/><path d="M990 523.7v44.35" stroke="#000" stroke-width="2" fill="none"/><path d="M991 523.73h-2v-1.03h2z"/><path d="M990 583.3l-4.64-14.25h9.28z" stroke="#000" stroke-width="2"/><path d="M991 794.4h-39v-2h37v-62.1h2zm0-85.7h-2v-19.15h2z"/><path d="M991 689.58h-2v-1.03h2zM952.03 794.4H951v-2h1.03z"/><path d="M991 792.4h37v2h-39v-64.1h2zm0-83.7h-2v-19.15h2z"/><path d="M991 689.58h-2v-1.03h2zm38 104.82h-1.03v-2h1.03z"/><use xlink:href="#B" transform="translate(900.15 723.113)"/><use xlink:href="#C" transform="translate(967 723.113)"/><use xlink:href="#D" transform="translate(1025.95 723.113)"/><path d="M361 587.55h180l20 20v80H361z" stroke="#de5f85" stroke-width="2" fill="#f9d2de"/><path d="M541 588.5v19.05h19.05" stroke="#de5f85" stroke-width="2" fill="#f9d2de"/><use xlink:href="#w" transform="translate(377.543 640.522)"/><use xlink:href="#E" transform="translate(405.543 640.522)"/><use xlink:href="#y" transform="translate(499.123 640.522)"/><path d="M563 637.55h57.5" stroke="#000" stroke-width="2" fill="none"/><path d="M563.03 638.55H562v-2h1.03z"/><path d="M635.76 637.55l-14.26 4.64v-9.3z" stroke="#000" stroke-width="2"/><path d="M780 1044.85h420v200.75H780z" fill="none"/><path d="M781 1044.85c0 .55-.45 1-1 1s-1-.45-1-1 .45-1 1-1 1 .45 1 1zm8.08 0c0 .55-.45 1-1 1-.56 0-1-.45-1-1s.44-1 1-1c.55 0 1 .45 1 1zm8.07 0c0 .55-.44 1-1 1-.55 0-1-.45-1-1s.45-1 1-1c.56 0 1 .45 1 1zm8.08 0c0 .55-.45 1-1 1s-1-.45-1-1 .45-1 1-1 1 .45 1 1zm8.08 0c0 .55-.44 1-1 1-.54 0-1-.45-1-1s.46-1 1-1c.56 0 1 .45 1 1zm8.08 0c0 .55-.44 1-1 1-.55 0-1-.45-1-1s.45-1 1-1c.56 0 1 .45 1 1zm8.08 0c0 .55-.45 1-1 1s-1-.45-1-1 .45-1 1-1 1 .45 1 1zm8.08 0c0 .55-.45 1-1 1s-1-.45-1-1 .45-1 1-1 1 .45 1 1zm8.08 0c0 .55-.45 1-1 1-.56 0-1-.45-1-1s.44-1 1-1c.55 0 1 .45 1 1zm8.07 0c0 .55-.46 1-1 1-.56 0-1-.45-1-1s.44-1 1-1c.54 0 1 .45 1 1zm8.07 0c0 .55-.45 1-1 1s-1-.45-1-1 .45-1 1-1 1 .45 1 1zm8.08 0c0 .55-.45 1-1 1-.56 0-1-.45-1-1s.44-1 1-1c.55 0 1 .45 1 1zm8.07 0c0 .55-.44 1-1 1-.55 0-1-.45-1-1s.45-1 1-1c.56 0 1 .45 1 1zm8.08 0c0 .55-.45 1-1 1s-1-.45-1-1 .45-1 1-1 1 .45 1 1zm8.08 0c0 .55-.45 1-1 1-.56 0-1-.45-1-1s.44-1 1-1c.55 0 1 .45 1 1zm8.07 0c0 .55-.44 1-1 1-.55 0-1-.45-1-1s.45-1 1-1c.56 0 1 .45 1 1zm8.08 0c0 .55-.45 1-1 1s-1-.45-1-1 .45-1 1-1 1 .45 1 1zm8.08 0c0 .55-.44 1-1 1-.54 0-1-.45-1-1s.46-1 1-1c.56 0 1 .45 1 1zm8.08 0c0 .55-.44 1-1 1-.55 0-1-.45-1-1s.45-1 1-1c.56 0 1 .45 1 1zm8.08 0c0 .55-.45 1-1 1s-1-.45-1-1 .45-1 1-1 1 .45 1 1zm8.08 0c0 .55-.45 1-1 1s-1-.45-1-1 .45-1 1-1 1 .45 1 1zm8.08 0c0 .55-.45 1-1 1-.56 0-1-.45-1-1s.44-1 1-1c.55 0 1 .45 1 1zm8.07 0c0 .55-.46 1-1 1-.56 0-1-.45-1-1s.44-1 1-1c.54 0 1 .45 1 1zm8.07 0c0 .55-.45 1-1 1s-1-.45-1-1 .45-1 1-1 1 .45 1 1zm8.08 0c0 .55-.45 1-1 1-.56 0-1-.45-1-1s.44-1 1-1c.55 0 1 .45 1 1zm8.07 0c0 .55-.44 1-1 1-.55 0-1-.45-1-1s.45-1 1-1c.56 0 1 .45 1 1zm8.08 0c0 .55-.45 1-1 1s-1-.45-1-1 .45-1 1-1 1 .45 1 1zm8.08 0c0 .55-.45 1-1 1-.56 0-1-.45-1-1s.44-1 1-1c.55 0 1 .45 1 1zm8.07 0c0 .55-.44 1-1 1-.55 0-1-.45-1-1s.45-1 1-1c.56 0 1 .45 1 1zm8.08 0c0 .55-.45 1-1 1s-1-.45-1-1 .45-1 1-1 1 .45 1 1zm8.08 0c0 .55-.44 1-1 1-.54 0-1-.45-1-1s.46-1 1-1c.56 0 1 .45 1 1zm8.08 0c0 .55-.44 1-1 1-.55 0-1-.45-1-1s.45-1 1-1c.56 0 1 .45 1 1zm8.08 0c0 .55-.45 1-1 1s-1-.45-1-1 .45-1 1-1 1 .45 1 1zm8.08 0c0 .55-.45 1-1 1s-1-.45-1-1 .45-1 1-1 1 .45 1 1zm8.08 0c0 .55-.45 1-1 1-.56 0-1-.45-1-1s.44-1 1-1c.55 0 1 .45 1 1zm8.07 0c0 .55-.46 1-1 1-.56 0-1-.45-1-1s.44-1 1-1c.54 0 1 .45 1 1zm8.07 0c0 .55-.45 1-1 1s-1-.45-1-1 .45-1 1-1 1 .45 1 1zm8.08 0c0 .55-.45 1-1 1-.56 0-1-.45-1-1s.44-1 1-1c.55 0 1 .45 1 1zm8.07 0c0 .55-.44 1-1 1-.55 0-1-.45-1-1s.45-1 1-1c.56 0 1 .45 1 1zm8.08 0c0 .55-.45 1-1 1s-1-.45-1-1 .45-1 1-1 1 .45 1 1zm8.08 0c0 .55-.45 1-1 1-.56 0-1-.45-1-1s.44-1 1-1c.55 0 1 .45 1 1zm8.07 0c0 .55-.44 1-1 1-.55 0-1-.45-1-1s.45-1 1-1c.56 0 1 .45 1 1zm8.08 0c0 .55-.45 1-1 1s-1-.45-1-1 .45-1 1-1 1 .45 1 1zm8.08 0c0 .55-.44 1-1 1-.54 0-1-.45-1-1s.46-1 1-1c.56 0 1 .45 1 1zm8.08 0c0 .55-.44 1-1 1-.55 0-1-.45-1-1s.45-1 1-1c.56 0 1 .45 1 1zm8.08 0c0 .55-.45 1-1 1s-1-.45-1-1 .45-1 1-1 1 .45 1 1zm8.08 0c0 .55-.45 1-1 1s-1-.45-1-1 .45-1 1-1 1 .45 1 1zm8.08 0c0 .55-.45 1-1 1-.56 0-1-.45-1-1s.44-1 1-1c.55 0 1 .45 1 1zm8.07 0c0 .55-.46 1-1 1-.56 0-1-.45-1-1s.44-1 1-1c.54 0 1 .45 1 1zm8.07 0c0 .55-.45 1-1 1s-1-.45-1-1 .45-1 1-1 1 .45 1 1zm8.08 0c0 .55-.45 1-1 1-.56 0-1-.45-1-1s.44-1 1-1c.55 0 1 .45 1 1zm8.07 0c0 .55-.44 1-1 1-.55 0-1-.45-1-1s.45-1 1-1c.56 0 1 .45 1 1zm8.08 0c0 .55-.45 1-1 1s-1-.45-1-1 .45-1 1-1 1 .45 1 1zm0 8.03c0 .55-.45 1-1 1s-1-.45-1-1 .45-1 1-1 1 .45 1 1zm0 8.03c0 .56-.45 1-1 1s-1-.44-1-1c0-.54.45-1 1-1s1 .46 1 1zm0 8.04c0 .55-.45 1-1 1s-1-.45-1-1 .45-1 1-1 1 .45 1 1zm0 8.03c0 .55-.45 1-1 1s-1-.45-1-1 .45-1 1-1 1 .45 1 1zm0 8.03c0 .55-.45 1-1 1s-1-.45-1-1 .45-1 1-1 1 .45 1 1zm0 8.03c0 .55-.45 1-1 1s-1-.45-1-1 .45-1 1-1 1 .45 1 1zm0 8.03c0 .55-.45 1-1 1s-1-.45-1-1 .45-1 1-1 1 .45 1 1zm0 8.03c0 .54-.45 1-1 1s-1-.46-1-1c0-.56.45-1 1-1s1 .44 1 1zm0 8.02c0 .55-.45 1-1 1s-1-.45-1-1 .45-1 1-1 1 .45 1 1zm0 8.03c0 .55-.45 1-1 1s-1-.45-1-1 .45-1 1-1 1 .45 1 1zm0 8.03c0 .55-.45 1-1 1s-1-.45-1-1 .45-1 1-1 1 .45 1 1zm0 8.03c0 .56-.45 1-1 1s-1-.44-1-1c0-.54.45-1 1-1s1 .46 1 1zm0 8.04c0 .55-.45 1-1 1s-1-.45-1-1 .45-1 1-1 1 .45 1 1zm0 8.03c0 .55-.45 1-1 1s-1-.45-1-1 .45-1 1-1 1 .45 1 1zm0 8.03c0 .55-.45 1-1 1s-1-.45-1-1 .45-1 1-1 1 .45 1 1zm0 8.03c0 .55-.45 1-1 1s-1-.45-1-1 .45-1 1-1 1 .45 1 1zm0 8.03c0 .55-.45 1-1 1s-1-.45-1-1 .45-1 1-1 1 .45 1 1zm0 8.03c0 .54-.45 1-1 1s-1-.46-1-1c0-.56.45-1 1-1s1 .44 1 1zm0 8.02c0 .55-.45 1-1 1s-1-.45-1-1 .45-1 1-1 1 .45 1 1zm0 8.03c0 .55-.45 1-1 1s-1-.45-1-1 .45-1 1-1 1 .45 1 1zm0 8.03c0 .55-.45 1-1 1s-1-.45-1-1 .45-1 1-1 1 .45 1 1zm0 8.03c0 .56-.45 1-1 1s-1-.44-1-1c0-.54.45-1 1-1s1 .46 1 1zm0 8.04c0 .55-.45 1-1 1s-1-.45-1-1 .45-1 1-1 1 .45 1 1zm0 8.03c0 .55-.45 1-1 1s-1-.45-1-1 .45-1 1-1 1 .45 1 1zm0 8.03c0 .55-.45 1-1 1s-1-.45-1-1 .45-1 1-1 1 .45 1 1zm-8.08 0c0 .55-.44 1-1 1-.55 0-1-.45-1-1s.45-1 1-1c.56 0 1 .45 1 1zm-8.07 0c0 .55-.45 1-1 1-.56 0-1-.45-1-1s.44-1 1-1c.55 0 1 .45 1 1zm-8.08 0c0 .55-.45 1-1 1s-1-.45-1-1 .45-1 1-1 1 .45 1 1zm-8.08 0c0 .55-.46 1-1 1-.56 0-1-.45-1-1s.44-1 1-1c.54 0 1 .45 1 1zm-8.08 0c0 .55-.45 1-1 1-.56 0-1-.45-1-1s.44-1 1-1c.55 0 1 .45 1 1zm-8.08 0c0 .55-.45 1-1 1s-1-.45-1-1 .45-1 1-1 1 .45 1 1zm-8.08 0c0 .55-.45 1-1 1s-1-.45-1-1 .45-1 1-1 1 .45 1 1zm-8.08 0c0 .55-.44 1-1 1-.55 0-1-.45-1-1s.45-1 1-1c.56 0 1 .45 1 1zm-8.07 0c0 .55-.44 1-1 1-.54 0-1-.45-1-1s.46-1 1-1c.56 0 1 .45 1 1zm-8.07 0c0 .55-.45 1-1 1s-1-.45-1-1 .45-1 1-1 1 .45 1 1zm-8.08 0c0 .55-.44 1-1 1-.55 0-1-.45-1-1s.45-1 1-1c.56 0 1 .45 1 1zm-8.07 0c0 .55-.45 1-1 1-.56 0-1-.45-1-1s.44-1 1-1c.55 0 1 .45 1 1zm-8.08 0c0 .55-.45 1-1 1s-1-.45-1-1 .45-1 1-1 1 .45 1 1zm-8.08 0c0 .55-.44 1-1 1-.55 0-1-.45-1-1s.45-1 1-1c.56 0 1 .45 1 1zm-8.07 0c0 .55-.45 1-1 1-.56 0-1-.45-1-1s.44-1 1-1c.55 0 1 .45 1 1zm-8.08 0c0 .55-.45 1-1 1s-1-.45-1-1 .45-1 1-1 1 .45 1 1zm-8.08 0c0 .55-.46 1-1 1-.56 0-1-.45-1-1s.44-1 1-1c.54 0 1 .45 1 1zm-8.08 0c0 .55-.45 1-1 1-.56 0-1-.45-1-1s.44-1 1-1c.55 0 1 .45 1 1zm-8.08 0c0 .55-.45 1-1 1s-1-.45-1-1 .45-1 1-1 1 .45 1 1zm-8.08 0c0 .55-.45 1-1 1s-1-.45-1-1 .45-1 1-1 1 .45 1 1zm-8.08 0c0 .55-.44 1-1 1-.55 0-1-.45-1-1s.45-1 1-1c.56 0 1 .45 1 1zm-8.07 0c0 .55-.44 1-1 1-.54 0-1-.45-1-1s.46-1 1-1c.56 0 1 .45 1 1zm-8.07 0c0 .55-.45 1-1 1s-1-.45-1-1 .45-1 1-1 1 .45 1 1zm-8.08 0c0 .55-.44 1-1 1-.55 0-1-.45-1-1s.45-1 1-1c.56 0 1 .45 1 1zm-8.07 0c0 .55-.45 1-1 1-.56 0-1-.45-1-1s.44-1 1-1c.55 0 1 .45 1 1zm-8.08 0c0 .55-.45 1-1 1s-1-.45-1-1 .45-1 1-1 1 .45 1 1zm-8.08 0c0 .55-.44 1-1 1-.55 0-1-.45-1-1s.45-1 1-1c.56 0 1 .45 1 1zm-8.07 0c0 .55-.45 1-1 1-.56 0-1-.45-1-1s.44-1 1-1c.55 0 1 .45 1 1zm-8.08 0c0 .55-.45 1-1 1s-1-.45-1-1 .45-1 1-1 1 .45 1 1zm-8.08 0c0 .55-.46 1-1 1-.56 0-1-.45-1-1s.44-1 1-1c.54 0 1 .45 1 1zm-8.08 0c0 .55-.45 1-1 1-.56 0-1-.45-1-1s.44-1 1-1c.55 0 1 .45 1 1zm-8.08 0c0 .55-.45 1-1 1s-1-.45-1-1 .45-1 1-1 1 .45 1 1zm-8.08 0c0 .55-.45 1-1 1s-1-.45-1-1 .45-1 1-1 1 .45 1 1zm-8.08 0c0 .55-.44 1-1 1-.55 0-1-.45-1-1s.45-1 1-1c.56 0 1 .45 1 1zm-8.07 0c0 .55-.44 1-1 1-.54 0-1-.45-1-1s.46-1 1-1c.56 0 1 .45 1 1zm-8.07 0c0 .55-.45 1-1 1s-1-.45-1-1 .45-1 1-1 1 .45 1 1zm-8.08 0c0 .55-.44 1-1 1-.55 0-1-.45-1-1s.45-1 1-1c.56 0 1 .45 1 1zm-8.07 0c0 .55-.45 1-1 1-.56 0-1-.45-1-1s.44-1 1-1c.55 0 1 .45 1 1zm-8.08 0c0 .55-.45 1-1 1s-1-.45-1-1 .45-1 1-1 1 .45 1 1zm-8.08 0c0 .55-.44 1-1 1-.55 0-1-.45-1-1s.45-1 1-1c.56 0 1 .45 1 1zm-8.07 0c0 .55-.45 1-1 1-.56 0-1-.45-1-1s.44-1 1-1c.55 0 1 .45 1 1zm-8.08 0c0 .55-.45 1-1 1s-1-.45-1-1 .45-1 1-1 1 .45 1 1zm-8.08 0c0 .55-.46 1-1 1-.56 0-1-.45-1-1s.44-1 1-1c.54 0 1 .45 1 1zm-8.08 0c0 .55-.45 1-1 1-.56 0-1-.45-1-1s.44-1 1-1c.55 0 1 .45 1 1zm-8.08 0c0 .55-.45 1-1 1s-1-.45-1-1 .45-1 1-1 1 .45 1 1zm-8.08 0c0 .55-.45 1-1 1s-1-.45-1-1 .45-1 1-1 1 .45 1 1zm-8.08 0c0 .55-.44 1-1 1-.55 0-1-.45-1-1s.45-1 1-1c.56 0 1 .45 1 1zm-8.07 0c0 .55-.44 1-1 1-.54 0-1-.45-1-1s.46-1 1-1c.56 0 1 .45 1 1zm-8.07 0c0 .55-.45 1-1 1s-1-.45-1-1 .45-1 1-1 1 .45 1 1zm-8.08 0c0 .55-.44 1-1 1-.55 0-1-.45-1-1s.45-1 1-1c.56 0 1 .45 1 1zm-8.07 0c0 .55-.45 1-1 1-.56 0-1-.45-1-1s.44-1 1-1c.55 0 1 .45 1 1zm-8.08 0c0 .55-.45 1-1 1s-1-.45-1-1 .45-1 1-1 1 .45 1 1zm0-8.03c0 .55-.45 1-1 1s-1-.45-1-1 .45-1 1-1 1 .45 1 1zm0-8.03c0 .55-.45 1-1 1s-1-.45-1-1 .45-1 1-1 1 .45 1 1zm0-8.03c0 .56-.45 1-1 1s-1-.44-1-1c0-.54.45-1 1-1s1 .46 1 1zm0-8.02c0 .55-.45 1-1 1s-1-.45-1-1 .45-1 1-1 1 .45 1 1zm0-8.03c0 .55-.45 1-1 1s-1-.45-1-1 .45-1 1-1 1 .45 1 1zm0-8.03c0 .55-.45 1-1 1s-1-.45-1-1 .45-1 1-1 1 .45 1 1zm0-8.03c0 .54-.45 1-1 1s-1-.46-1-1c0-.56.45-1 1-1s1 .44 1 1zm0-8.04c0 .55-.45 1-1 1s-1-.45-1-1 .45-1 1-1 1 .45 1 1zm0-8.03c0 .55-.45 1-1 1s-1-.45-1-1 .45-1 1-1 1 .45 1 1zm0-8.03c0 .55-.45 1-1 1s-1-.45-1-1 .45-1 1-1 1 .45 1 1zm0-8.03c0 .55-.45 1-1 1s-1-.45-1-1 .45-1 1-1 1 .45 1 1zm0-8.03c0 .55-.45 1-1 1s-1-.45-1-1 .45-1 1-1 1 .45 1 1zm0-8.03c0 .56-.45 1-1 1s-1-.44-1-1c0-.54.45-1 1-1s1 .46 1 1zm0-8.02c0 .55-.45 1-1 1s-1-.45-1-1 .45-1 1-1 1 .45 1 1zm0-8.03c0 .55-.45 1-1 1s-1-.45-1-1 .45-1 1-1 1 .45 1 1zm0-8.03c0 .55-.45 1-1 1s-1-.45-1-1 .45-1 1-1 1 .45 1 1zm0-8.03c0 .54-.45 1-1 1s-1-.46-1-1c0-.56.45-1 1-1s1 .44 1 1zm0-8.04c0 .55-.45 1-1 1s-1-.45-1-1 .45-1 1-1 1 .45 1 1zm0-8.03c0 .55-.45 1-1 1s-1-.45-1-1 .45-1 1-1 1 .45 1 1zm0-8.03c0 .55-.45 1-1 1s-1-.45-1-1 .45-1 1-1 1 .45 1 1zm0-8.03c0 .55-.45 1-1 1s-1-.45-1-1 .45-1 1-1 1 .45 1 1zm0-8.03c0 .55-.45 1-1 1s-1-.45-1-1 .45-1 1-1 1 .45 1 1zm0-8.03c0 .56-.45 1-1 1s-1-.44-1-1c0-.54.45-1 1-1s1 .46 1 1zm0-8.02c0 .55-.45 1-1 1s-1-.45-1-1 .45-1 1-1 1 .45 1 1z"/><path d="M840 899.25h300v100H840z" stroke="#3aa6dd" stroke-width="2" fill="#c1e4f7"/><use xlink:href="#F" transform="translate(914.568 952.222)"/><use xlink:href="#G" transform="translate(1003.358 952.222)"/><path d="M870 1044.85h240v60H870z" fill="none"/><use xlink:href="#H" transform="translate(930.6 1067.375)"/><use xlink:href="#I" transform="translate(999.5 1067.375)"/><use xlink:href="#J" transform="translate(961.525 1088.975)"/><path d="M640 421.7h140V700H640z" stroke="#3aa6dd" stroke-width="2" fill="#c1e4f7"/><use xlink:href="#K" transform="translate(668.074 554.407)"/><use xlink:href="#L" transform="translate(678.963 575.74)"/><path d="M782 634.6h38.5" stroke="#000" stroke-width="2" fill="none"/><path d="M782.03 635.6H781v-2h1.03z"/><path d="M835.76 634.6l-14.26 4.62v-9.27z" stroke="#000" stroke-width="2"/><path d="M320 386.8h280V720H320z" fill="none"/><path d="M321 386.8c0 .55-.45 1-1 1s-1-.45-1-1 .45-1 1-1 1 .45 1 1zm8 0c0 .55-.45 1-1 1s-1-.45-1-1 .45-1 1-1 1 .45 1 1zm8 0c0 .55-.45 1-1 1s-1-.45-1-1 .45-1 1-1 1 .45 1 1zm8 0c0 .55-.45 1-1 1s-1-.45-1-1 .45-1 1-1 1 .45 1 1zm8 0c0 .55-.45 1-1 1s-1-.45-1-1 .45-1 1-1 1 .45 1 1zm8 0c0 .55-.45 1-1 1s-1-.45-1-1 .45-1 1-1 1 .45 1 1zm8 0c0 .55-.45 1-1 1s-1-.45-1-1 .45-1 1-1 1 .45 1 1zm8 0c0 .55-.45 1-1 1s-1-.45-1-1 .45-1 1-1 1 .45 1 1zm8 0c0 .55-.45 1-1 1s-1-.45-1-1 .45-1 1-1 1 .45 1 1zm8 0c0 .55-.45 1-1 1s-1-.45-1-1 .45-1 1-1 1 .45 1 1zm8 0c0 .55-.45 1-1 1s-1-.45-1-1 .45-1 1-1 1 .45 1 1zm8 0c0 .55-.45 1-1 1s-1-.45-1-1 .45-1 1-1 1 .45 1 1zm8 0c0 .55-.45 1-1 1s-1-.45-1-1 .45-1 1-1 1 .45 1 1zm8 0c0 .55-.45 1-1 1s-1-.45-1-1 .45-1 1-1 1 .45 1 1zm8 0c0 .55-.45 1-1 1s-1-.45-1-1 .45-1 1-1 1 .45 1 1zm8 0c0 .55-.45 1-1 1s-1-.45-1-1 .45-1 1-1 1 .45 1 1zm8 0c0 .55-.45 1-1 1s-1-.45-1-1 .45-1 1-1 1 .45 1 1zm8 0c0 .55-.45 1-1 1s-1-.45-1-1 .45-1 1-1 1 .45 1 1zm8 0c0 .55-.45 1-1 1s-1-.45-1-1 .45-1 1-1 1 .45 1 1zm8 0c0 .55-.45 1-1 1s-1-.45-1-1 .45-1 1-1 1 .45 1 1zm8 0c0 .55-.45 1-1 1s-1-.45-1-1 .45-1 1-1 1 .45 1 1zm8 0c0 .55-.45 1-1 1s-1-.45-1-1 .45-1 1-1 1 .45 1 1zm8 0c0 .55-.45 1-1 1s-1-.45-1-1 .45-1 1-1 1 .45 1 1zm8 0c0 .55-.45 1-1 1s-1-.45-1-1 .45-1 1-1 1 .45 1 1zm8 0c0 .55-.45 1-1 1s-1-.45-1-1 .45-1 1-1 1 .45 1 1zm8 0c0 .55-.45 1-1 1s-1-.45-1-1 .45-1 1-1 1 .45 1 1zm8 0c0 .55-.45 1-1 1s-1-.45-1-1 .45-1 1-1 1 .45 1 1zm8 0c0 .55-.45 1-1 1s-1-.45-1-1 .45-1 1-1 1 .45 1 1zm8 0c0 .55-.45 1-1 1s-1-.45-1-1 .45-1 1-1 1 .45 1 1zm8 0c0 .55-.45 1-1 1s-1-.45-1-1 .45-1 1-1 1 .45 1 1zm8 0c0 .55-.45 1-1 1s-1-.45-1-1 .45-1 1-1 1 .45 1 1zm8 0c0 .55-.45 1-1 1s-1-.45-1-1 .45-1 1-1 1 .45 1 1zm8 0c0 .55-.45 1-1 1s-1-.45-1-1 .45-1 1-1 1 .45 1 1zm8 0c0 .55-.45 1-1 1s-1-.45-1-1 .45-1 1-1 1 .45 1 1zm8 0c0 .55-.45 1-1 1s-1-.45-1-1 .45-1 1-1 1 .45 1 1zm8 0c0 .55-.45 1-1 1s-1-.45-1-1 .45-1 1-1 1 .45 1 1zm0 7.93c0 .56-.45 1-1 1s-1-.44-1-1c0-.55.45-1 1-1s1 .45 1 1zm0 7.94c0 .55-.45 1-1 1s-1-.45-1-1c0-.56.45-1 1-1s1 .44 1 1zm0 7.93c0 .55-.45 1-1 1s-1-.45-1-1 .45-1 1-1 1 .45 1 1zm0 7.93c0 .56-.45 1-1 1s-1-.44-1-1c0-.55.45-1 1-1s1 .45 1 1zm0 7.94c0 .55-.45 1-1 1s-1-.45-1-1c0-.56.45-1 1-1s1 .44 1 1zm0 7.93c0 .55-.45 1-1 1s-1-.45-1-1 .45-1 1-1 1 .45 1 1zm0 7.93c0 .56-.45 1-1 1s-1-.44-1-1c0-.55.45-1 1-1s1 .45 1 1zm0 7.94c0 .55-.45 1-1 1s-1-.45-1-1c0-.56.45-1 1-1s1 .44 1 1zm0 7.93c0 .55-.45 1-1 1s-1-.45-1-1 .45-1 1-1 1 .45 1 1zm0 7.93c0 .56-.45 1-1 1s-1-.44-1-1c0-.55.45-1 1-1s1 .45 1 1zm0 7.94c0 .55-.45 1-1 1s-1-.45-1-1c0-.56.45-1 1-1s1 .44 1 1zm0 7.93c0 .55-.45 1-1 1s-1-.45-1-1 .45-1 1-1 1 .45 1 1zm0 7.93c0 .56-.45 1-1 1s-1-.44-1-1c0-.55.45-1 1-1s1 .45 1 1zm0 7.94c0 .55-.45 1-1 1s-1-.45-1-1c0-.56.45-1 1-1s1 .44 1 1zm0 7.93c0 .55-.45 1-1 1s-1-.45-1-1 .45-1 1-1 1 .45 1 1zm0 7.93c0 .56-.45 1-1 1s-1-.44-1-1c0-.55.45-1 1-1s1 .45 1 1zm0 7.94c0 .55-.45 1-1 1s-1-.45-1-1c0-.56.45-1 1-1s1 .44 1 1zm0 7.93c0 .55-.45 1-1 1s-1-.45-1-1 .45-1 1-1 1 .45 1 1zm0 7.93c0 .56-.45 1-1 1s-1-.44-1-1c0-.55.45-1 1-1s1 .45 1 1zm0 7.94c0 .55-.45 1-1 1s-1-.45-1-1c0-.56.45-1 1-1s1 .44 1 1zm0 7.93c0 .55-.45 1-1 1s-1-.45-1-1 .45-1 1-1 1 .45 1 1zm0 7.93c0 .56-.45 1-1 1s-1-.44-1-1c0-.55.45-1 1-1s1 .45 1 1zm0 7.94c0 .55-.45 1-1 1s-1-.45-1-1c0-.56.45-1 1-1s1 .44 1 1zm0 7.93c0 .55-.45 1-1 1s-1-.45-1-1 .45-1 1-1 1 .45 1 1zm0 7.93c0 .56-.45 1-1 1s-1-.44-1-1c0-.55.45-1 1-1s1 .45 1 1zm0 7.94c0 .55-.45 1-1 1s-1-.45-1-1c0-.56.45-1 1-1s1 .44 1 1zm0 7.93c0 .55-.45 1-1 1s-1-.45-1-1 .45-1 1-1 1 .45 1 1zm0 7.93c0 .56-.45 1-1 1s-1-.44-1-1c0-.55.45-1 1-1s1 .45 1 1zm0 7.94c0 .55-.45 1-1 1s-1-.45-1-1c0-.56.45-1 1-1s1 .44 1 1zm0 7.93c0 .55-.45 1-1 1s-1-.45-1-1 .45-1 1-1 1 .45 1 1zm0 7.93c0 .56-.45 1-1 1s-1-.44-1-1c0-.55.45-1 1-1s1 .45 1 1zm0 7.94c0 .55-.45 1-1 1s-1-.45-1-1c0-.56.45-1 1-1s1 .44 1 1zm0 7.93c0 .55-.45 1-1 1s-1-.45-1-1 .45-1 1-1 1 .45 1 1zm0 7.93c0 .56-.45 1-1 1s-1-.44-1-1c0-.55.45-1 1-1s1 .45 1 1zm0 7.94c0 .55-.45 1-1 1s-1-.45-1-1c0-.56.45-1 1-1s1 .44 1 1zm0 7.93c0 .55-.45 1-1 1s-1-.45-1-1 .45-1 1-1 1 .45 1 1zm0 7.93c0 .56-.45 1-1 1s-1-.44-1-1c0-.55.45-1 1-1s1 .45 1 1zm0 7.94c0 .55-.45 1-1 1s-1-.45-1-1c0-.56.45-1 1-1s1 .44 1 1zm0 7.93c0 .55-.45 1-1 1s-1-.45-1-1 .45-1 1-1 1 .45 1 1zm0 7.93c0 .56-.45 1-1 1s-1-.44-1-1c0-.55.45-1 1-1s1 .45 1 1zm0 7.94c0 .55-.45 1-1 1s-1-.45-1-1c0-.56.45-1 1-1s1 .44 1 1zm0 7.93c0 .55-.45 1-1 1s-1-.45-1-1 .45-1 1-1 1 .45 1 1zm-8 0c0 .55-.45 1-1 1s-1-.45-1-1 .45-1 1-1 1 .45 1 1zm-8 0c0 .55-.45 1-1 1s-1-.45-1-1 .45-1 1-1 1 .45 1 1zm-8 0c0 .55-.45 1-1 1s-1-.45-1-1 .45-1 1-1 1 .45 1 1zm-8 0c0 .55-.45 1-1 1s-1-.45-1-1 .45-1 1-1 1 .45 1 1zm-8 0c0 .55-.45 1-1 1s-1-.45-1-1 .45-1 1-1 1 .45 1 1zm-8 0c0 .55-.45 1-1 1s-1-.45-1-1 .45-1 1-1 1 .45 1 1zm-8 0c0 .55-.45 1-1 1s-1-.45-1-1 .45-1 1-1 1 .45 1 1zm-8 0c0 .55-.45 1-1 1s-1-.45-1-1 .45-1 1-1 1 .45 1 1zm-8 0c0 .55-.45 1-1 1s-1-.45-1-1 .45-1 1-1 1 .45 1 1zm-8 0c0 .55-.45 1-1 1s-1-.45-1-1 .45-1 1-1 1 .45 1 1zm-8 0c0 .55-.45 1-1 1s-1-.45-1-1 .45-1 1-1 1 .45 1 1zm-8 0c0 .55-.45 1-1 1s-1-.45-1-1 .45-1 1-1 1 .45 1 1zm-8 0c0 .55-.45 1-1 1s-1-.45-1-1 .45-1 1-1 1 .45 1 1zm-8 0c0 .55-.45 1-1 1s-1-.45-1-1 .45-1 1-1 1 .45 1 1zm-8 0c0 .55-.45 1-1 1s-1-.45-1-1 .45-1 1-1 1 .45 1 1zm-8 0c0 .55-.45 1-1 1s-1-.45-1-1 .45-1 1-1 1 .45 1 1zm-8 0c0 .55-.45 1-1 1s-1-.45-1-1 .45-1 1-1 1 .45 1 1zm-8 0c0 .55-.45 1-1 1s-1-.45-1-1 .45-1 1-1 1 .45 1 1zm-8 0c0 .55-.45 1-1 1s-1-.45-1-1 .45-1 1-1 1 .45 1 1zm-8 0c0 .55-.45 1-1 1s-1-.45-1-1 .45-1 1-1 1 .45 1 1zm-8 0c0 .55-.45 1-1 1s-1-.45-1-1 .45-1 1-1 1 .45 1 1zm-8 0c0 .55-.45 1-1 1s-1-.45-1-1 .45-1 1-1 1 .45 1 1zm-8 0c0 .55-.45 1-1 1s-1-.45-1-1 .45-1 1-1 1 .45 1 1zm-8 0c0 .55-.45 1-1 1s-1-.45-1-1 .45-1 1-1 1 .45 1 1zm-8 0c0 .55-.45 1-1 1s-1-.45-1-1 .45-1 1-1 1 .45 1 1zm-8 0c0 .55-.45 1-1 1s-1-.45-1-1 .45-1 1-1 1 .45 1 1zm-8 0c0 .55-.45 1-1 1s-1-.45-1-1 .45-1 1-1 1 .45 1 1zm-8 0c0 .55-.45 1-1 1s-1-.45-1-1 .45-1 1-1 1 .45 1 1zm-8 0c0 .55-.45 1-1 1s-1-.45-1-1 .45-1 1-1 1 .45 1 1zm-8 0c0 .55-.45 1-1 1s-1-.45-1-1 .45-1 1-1 1 .45 1 1zm-8 0c0 .55-.45 1-1 1s-1-.45-1-1 .45-1 1-1 1 .45 1 1zm-8 0c0 .55-.45 1-1 1s-1-.45-1-1 .45-1 1-1 1 .45 1 1zm-8 0c0 .55-.45 1-1 1s-1-.45-1-1 .45-1 1-1 1 .45 1 1zm-8 0c0 .55-.45 1-1 1s-1-.45-1-1 .45-1 1-1 1 .45 1 1zm-8 0c0 .55-.45 1-1 1s-1-.45-1-1 .45-1 1-1 1 .45 1 1zm0-7.93c0 .55-.45 1-1 1s-1-.45-1-1c0-.56.45-1 1-1s1 .44 1 1zm0-7.94c0 .56-.45 1-1 1s-1-.44-1-1c0-.55.45-1 1-1s1 .45 1 1zm0-7.93c0 .55-.45 1-1 1s-1-.45-1-1 .45-1 1-1 1 .45 1 1zm0-7.93c0 .55-.45 1-1 1s-1-.45-1-1c0-.56.45-1 1-1s1 .44 1 1zm0-7.94c0 .56-.45 1-1 1s-1-.44-1-1c0-.55.45-1 1-1s1 .45 1 1zm0-7.93c0 .55-.45 1-1 1s-1-.45-1-1 .45-1 1-1 1 .45 1 1zm0-7.93c0 .55-.45 1-1 1s-1-.45-1-1c0-.56.45-1 1-1s1 .44 1 1zm0-7.94c0 .56-.45 1-1 1s-1-.44-1-1c0-.55.45-1 1-1s1 .45 1 1zm0-7.93c0 .55-.45 1-1 1s-1-.45-1-1 .45-1 1-1 1 .45 1 1zm0-7.93c0 .55-.45 1-1 1s-1-.45-1-1c0-.56.45-1 1-1s1 .44 1 1zm0-7.94c0 .56-.45 1-1 1s-1-.44-1-1c0-.55.45-1 1-1s1 .45 1 1zm0-7.93c0 .55-.45 1-1 1s-1-.45-1-1 .45-1 1-1 1 .45 1 1zm0-7.93c0 .55-.45 1-1 1s-1-.45-1-1c0-.56.45-1 1-1s1 .44 1 1zm0-7.94c0 .56-.45 1-1 1s-1-.44-1-1c0-.55.45-1 1-1s1 .45 1 1zm0-7.93c0 .55-.45 1-1 1s-1-.45-1-1 .45-1 1-1 1 .45 1 1zm0-7.93c0 .55-.45 1-1 1s-1-.45-1-1c0-.56.45-1 1-1s1 .44 1 1zm0-7.94c0 .56-.45 1-1 1s-1-.44-1-1c0-.55.45-1 1-1s1 .45 1 1zm0-7.93c0 .55-.45 1-1 1s-1-.45-1-1 .45-1 1-1 1 .45 1 1zm0-7.93c0 .55-.45 1-1 1s-1-.45-1-1c0-.56.45-1 1-1s1 .44 1 1zm0-7.94c0 .56-.45 1-1 1s-1-.44-1-1c0-.55.45-1 1-1s1 .45 1 1zm0-7.93c0 .55-.45 1-1 1s-1-.45-1-1 .45-1 1-1 1 .45 1 1zm0-7.93c0 .55-.45 1-1 1s-1-.45-1-1c0-.56.45-1 1-1s1 .44 1 1zm0-7.94c0 .56-.45 1-1 1s-1-.44-1-1c0-.55.45-1 1-1s1 .45 1 1zm0-7.93c0 .55-.45 1-1 1s-1-.45-1-1 .45-1 1-1 1 .45 1 1zm0-7.93c0 .55-.45 1-1 1s-1-.45-1-1c0-.56.45-1 1-1s1 .44 1 1zm0-7.94c0 .56-.45 1-1 1s-1-.44-1-1c0-.55.45-1 1-1s1 .45 1 1zm0-7.93c0 .55-.45 1-1 1s-1-.45-1-1 .45-1 1-1 1 .45 1 1zm0-7.93c0 .55-.45 1-1 1s-1-.45-1-1c0-.56.45-1 1-1s1 .44 1 1zm0-7.94c0 .56-.45 1-1 1s-1-.44-1-1c0-.55.45-1 1-1s1 .45 1 1zm0-7.93c0 .55-.45 1-1 1s-1-.45-1-1 .45-1 1-1 1 .45 1 1zm0-7.93c0 .55-.45 1-1 1s-1-.45-1-1c0-.56.45-1 1-1s1 .44 1 1zm0-7.94c0 .56-.45 1-1 1s-1-.44-1-1c0-.55.45-1 1-1s1 .45 1 1zm0-7.93c0 .55-.45 1-1 1s-1-.45-1-1 .45-1 1-1 1 .45 1 1zm0-7.93c0 .55-.45 1-1 1s-1-.45-1-1c0-.56.45-1 1-1s1 .44 1 1zm0-7.94c0 .56-.45 1-1 1s-1-.44-1-1c0-.55.45-1 1-1s1 .45 1 1zm0-7.93c0 .55-.45 1-1 1s-1-.45-1-1 .45-1 1-1 1 .45 1 1zm0-7.93c0 .55-.45 1-1 1s-1-.45-1-1c0-.56.45-1 1-1s1 .44 1 1zm0-7.94c0 .56-.45 1-1 1s-1-.44-1-1c0-.55.45-1 1-1s1 .45 1 1zm0-7.93c0 .55-.45 1-1 1s-1-.45-1-1 .45-1 1-1 1 .45 1 1zm0-7.93c0 .55-.45 1-1 1s-1-.45-1-1c0-.56.45-1 1-1s1 .44 1 1zm0-7.94c0 .56-.45 1-1 1s-1-.44-1-1c0-.55.45-1 1-1s1 .45 1 1zm0-7.93c0 .55-.45 1-1 1s-1-.45-1-1 .45-1 1-1 1 .45 1 1z"/><path d="M341 521.7h240v60H341z" fill="none"/><use xlink:href="#H" transform="translate(362.65 556.725)"/><use xlink:href="#M" transform="translate(431.55 556.725)"/><use xlink:href="#N" transform="translate(502.4 556.725)"/><defs><path d="M137 0h-34L2-248h35l83 218 83-218h36" id="O"/><path d="M141-36C126-15 110 5 73 4 37 3 15-17 15-53c-1-64 63-63 125-63 3-35-9-54-41-54-24 1-41 7-42 31l-33-3c5-37 33-52 76-52 45 0 72 20 72 64v82c-1 20 7 32 28 27v20c-31 9-61-2-59-35zM48-53c0 20 12 33 32 33 41-3 63-29 60-74-43 2-92-5-92 41" id="P"/><path d="M24 0v-261h32V0H24" id="Q"/><path d="M24-231v-30h32v30H24zM24 0v-190h32V0H24" id="R"/><path d="M85-194c31 0 48 13 60 33l-1-100h32l1 261h-30c-2-10 0-23-3-31C134-8 116 4 85 4 32 4 16-35 15-94c0-66 23-100 70-100zm9 24c-40 0-46 34-46 75 0 40 6 74 45 74 42 0 51-32 51-76 0-42-9-74-50-73" id="S"/><path d="M59-47c-2 24 18 29 38 22v24C64 9 27 4 27-40v-127H5v-23h24l9-43h21v43h35v23H59v120" id="T"/><path d="M100-194c62-1 85 37 85 99 1 63-27 99-86 99S16-35 15-95c0-66 28-99 85-99zM99-20c44 1 53-31 53-75 0-43-8-75-51-75s-53 32-53 75 10 74 51 75" id="U"/><path d="M114-163C36-179 61-72 57 0H25l-1-190h30c1 12-1 29 2 39 6-27 23-49 58-41v29" id="V"/><path d="M143 4C61 4 22-44 18-125c-5-107 100-154 193-111 17 8 29 25 37 43l-32 9c-13-25-37-40-76-40-61 0-88 39-88 99 0 61 29 100 91 101 35 0 62-11 79-27v-45h-74v-28h105v86C228-13 192 4 143 4" id="W"/><path d="M30 0v-248h33v221h125V0H30" id="X"/><path d="M205 0l-28-72H64L36 0H1l101-248h38L239 0h-34zm-38-99l-47-123c-12 45-31 82-46 123h93" id="Y"/><path d="M96-169c-40 0-48 33-48 73s9 75 48 75c24 0 41-14 43-38l32 2c-6 37-31 61-74 61-59 0-76-41-82-99-10-93 101-131 147-64 4 7 5 14 7 22l-32 3c-4-21-16-35-41-35" id="Z"/><path d="M84 4C-5 8 30-112 23-190h32v120c0 31 7 50 39 49 72-2 45-101 50-169h31l1 190h-30c-1-10 1-25-2-33-11 22-28 36-60 37" id="aa"/><path d="M117-194c89-4 53 116 60 194h-32v-121c0-31-8-49-39-48C34-167 62-67 57 0H25l-1-190h30c1 10-1 24 2 32 11-22 29-35 61-36" id="ab"/><path d="M158-156l-14 65h45v19h-49L124 0h-19l15-72H56L41 0H22l15-72H2v-19h39l14-65H11v-19h48l15-71h20l-16 71h64l16-71h19l-16 71h37v19h-40zm-83 0L61-91h63l14-65H75" id="ac"/><path d="M27 0v-27h64v-190l-56 39v-29l58-41h29v221h61V0H27" id="ad"/><path d="M101-251c82-7 93 87 43 132L82-64C71-53 59-42 53-27h129V0H18c2-99 128-94 128-182 0-28-16-43-45-43s-46 15-49 41l-32-3c6-41 34-60 81-64" id="ae"/><path d="M33 0v-248h34V0H33" id="af"/><path d="M210-169c-67 3-38 105-44 169h-31v-121c0-29-5-50-35-48C34-165 62-65 56 0H25l-1-190h30c1 10-1 24 2 32 10-44 99-50 107 0 11-21 27-35 58-36 85-2 47 119 55 194h-31v-121c0-29-5-49-35-48" id="ag"/><path d="M100-194c63 0 86 42 84 106H49c0 40 14 67 53 68 26 1 43-12 49-29l28 8c-11 28-37 45-77 45C44 4 14-33 15-96c1-61 26-98 85-98zm52 81c6-60-76-77-97-28-3 7-6 17-6 28h103" id="ah"/><path d="M135-143c-3-34-86-38-87 0 15 53 115 12 119 90S17 21 10-45l28-5c4 36 97 45 98 0-10-56-113-15-118-90-4-57 82-63 122-42 12 7 21 19 24 35" id="ai"/><path d="M118-107v75H92v-75H18v-26h74v-75h26v75h74v26h-74" id="aA"/><path d="M115-194c53 0 69 39 70 98 0 66-23 100-70 100C84 3 66-7 56-30L54 0H23l1-261h32v101c10-23 28-34 59-34zm-8 174c40 0 45-34 45-75 0-40-5-75-45-74-42 0-51 32-51 76 0 43 10 73 51 73" id="aj"/><path d="M30 0v-248h187v28H63v79h144v27H63v87h162V0H30" id="ak"/><path d="M141 0L90-78 38 0H4l68-98-65-92h35l48 74 47-74h35l-64 92 68 98h-35" id="al"/><path d="M115-194c55 1 70 41 70 98S169 2 115 4C84 4 66-9 55-30l1 105H24l-1-265h31l2 30c10-21 28-34 59-34zm-8 174c40 0 45-34 45-75s-6-73-45-74c-42 0-51 32-51 76 0 43 10 73 51 73" id="am"/><path d="M233-177c-1 41-23 64-60 70L243 0h-38l-65-103H63V0H30v-248c88 3 205-21 203 71zM63-129c60-2 137 13 137-47 0-61-80-42-137-45v92" id="an"/><path d="M206 0h-36l-40-164L89 0H53L-1-190h32L70-26l43-164h34l41 164 42-164h31" id="ao"/><path d="M127-220V0H93v-220H8v-28h204v28h-85" id="ap"/><path d="M30-248c118-7 216 8 213 122C240-48 200 0 122 0H30v-248zM63-27c89 8 146-16 146-99s-60-101-146-95v194" id="aq"/><path d="M232-93c-1 65-40 97-104 97C67 4 28-28 28-90v-158h33c8 89-33 224 67 224 102 0 64-133 71-224h33v155" id="ar"/><path d="M101-234c-31-9-42 10-38 44h38v23H63V0H32v-167H5v-23h27c-7-52 17-82 69-68v24" id="as"/><path d="M177-190C167-65 218 103 67 71c-23-6-38-20-44-43l32-5c15 47 100 32 89-28v-30C133-14 115 1 83 1 29 1 15-40 15-95c0-56 16-97 71-98 29-1 48 16 59 35 1-10 0-23 2-32h30zM94-22c36 0 50-32 50-73 0-42-14-75-50-75-39 0-46 34-46 75s6 73 46 73" id="at"/><path d="M185-189c-5-48-123-54-124 2 14 75 158 14 163 119 3 78-121 87-175 55-17-10-28-26-33-46l33-7c5 56 141 63 141-1 0-78-155-14-162-118-5-82 145-84 179-34 5 7 8 16 11 25" id="au"/><path d="M108 0H70L1-190h34L89-25l56-165h34" id="av"/><path d="M234-2c-28 10-62 0-77-18C117 19 8 12 13-65c3-43 29-61 60-76-25-40-17-114 47-108 35 3 59 15 59 50 0 44-40 53-71 69 14 26 32 50 51 72 14-21 24-43 30-72l26 8c-9 33-21 57-38 82 13 13 33 22 57 15v23zM97-151c25-10 52-18 56-48-1-18-13-29-33-29-42 0-39 50-23 77zM42-66c-3 51 71 58 98 28-20-24-41-51-56-80-23 10-40 24-42 52" id="aB"/><path d="M143 0L79-87 56-68V0H24v-261h32v163l83-92h37l-77 82L181 0h-38" id="aw"/><path d="M30-248c87 1 191-15 191 75 0 78-77 80-158 76V0H30v-248zm33 125c57 0 124 11 124-50 0-59-68-47-124-48v98" id="ax"/><path d="M197 0v-115H63V0H30v-248h33v105h134v-105h34V0h-34" id="ay"/><path d="M179-190L93 31C79 59 56 82 12 73V49c39 6 53-20 64-50L1-190h34L92-34l54-156h33" id="az"/><g id="a"><use transform="scale(.04938)" xlink:href="#O"/><use transform="translate(10.519) scale(.04938)" xlink:href="#P"/><use transform="translate(20.395) scale(.04938)" xlink:href="#Q"/><use transform="translate(24.296) scale(.04938)" xlink:href="#R"/><use transform="translate(28.198) scale(.04938)" xlink:href="#S"/><use transform="translate(38.074) scale(.04938)" xlink:href="#P"/><use transform="translate(47.95) scale(.04938)" xlink:href="#T"/><use transform="translate(52.889) scale(.04938)" xlink:href="#U"/><use transform="translate(62.765) scale(.04938)" xlink:href="#V"/></g><g id="b"><use transform="scale(.04938)" xlink:href="#W"/><use transform="translate(13.827) scale(.04938)" xlink:href="#X"/></g><g id="c"><use transform="scale(.04938)" xlink:href="#Y"/><use transform="translate(11.852) scale(.04938)" xlink:href="#Z"/><use transform="translate(20.74) scale(.04938)" xlink:href="#Z"/><use transform="translate(29.63) scale(.04938)" xlink:href="#U"/><use transform="translate(39.506) scale(.04938)" xlink:href="#aa"/><use transform="translate(49.383) scale(.04938)" xlink:href="#ab"/><use transform="translate(59.26) scale(.04938)" xlink:href="#T"/></g><g id="d"><use transform="scale(.04938)" xlink:href="#ac"/><use transform="translate(9.877) scale(.04938)" xlink:href="#ad"/></g><g id="e"><use transform="scale(.04938)" xlink:href="#ac"/><use transform="translate(9.877) scale(.04938)" xlink:href="#ae"/></g><g id="f"><use transform="scale(.04938)" xlink:href="#af"/><use transform="translate(4.938) scale(.04938)" xlink:href="#ab"/><use transform="translate(14.815) scale(.04938)" xlink:href="#Z"/><use transform="translate(23.704) scale(.04938)" xlink:href="#U"/><use transform="translate(33.58) scale(.04938)" xlink:href="#ag"/><use transform="translate(48.346) scale(.04938)" xlink:href="#ah"/><use transform="translate(58.222) scale(.04938)" xlink:href="#ai"/></g><g id="h"><use transform="scale(.04938)" xlink:href="#X"/><use transform="translate(9.877) scale(.04938)" xlink:href="#R"/><use transform="translate(13.778) scale(.04938)" xlink:href="#P"/><use transform="translate(23.654) scale(.04938)" xlink:href="#aj"/><use transform="translate(33.53) scale(.04938)" xlink:href="#R"/><use transform="translate(37.432) scale(.04938)" xlink:href="#Q"/><use transform="translate(41.333) scale(.04938)" xlink:href="#R"/><use transform="translate(45.235) scale(.04938)" xlink:href="#T"/><use transform="translate(50.173) scale(.04938)" xlink:href="#R"/><use transform="translate(54.074) scale(.04938)" xlink:href="#ah"/><use transform="translate(63.95) scale(.04938)" xlink:href="#ai"/></g><g id="i"><use transform="scale(.04938)" xlink:href="#Y"/><use transform="translate(11.852) scale(.04938)" xlink:href="#ai"/><use transform="translate(20.74) scale(.04938)" xlink:href="#ai"/><use transform="translate(29.63) scale(.04938)" xlink:href="#ah"/><use transform="translate(39.506) scale(.04938)" xlink:href="#T"/><use transform="translate(44.444) scale(.04938)" xlink:href="#ai"/></g><g id="j"><use transform="scale(.04938)" xlink:href="#ak"/><use transform="translate(11.852) scale(.04938)" xlink:href="#al"/><use transform="translate(20.74) scale(.04938)" xlink:href="#am"/><use transform="translate(30.617) scale(.04938)" xlink:href="#ah"/><use transform="translate(40.494) scale(.04938)" xlink:href="#ab"/><use transform="translate(50.37) scale(.04938)" xlink:href="#ai"/><use transform="translate(59.26) scale(.04938)" xlink:href="#ah"/><use transform="translate(69.136) scale(.04938)" xlink:href="#ai"/></g><g id="k"><use transform="scale(.04938)" xlink:href="#an"/><use transform="translate(12.79) scale(.04938)" xlink:href="#P"/><use transform="translate(22.667) scale(.04938)" xlink:href="#ao"/></g><g id="l"><use transform="scale(.04938)" xlink:href="#ap"/><use transform="translate(10.173) scale(.04938)" xlink:href="#V"/><use transform="translate(16.05) scale(.04938)" xlink:href="#P"/><use transform="translate(25.926) scale(.04938)" xlink:href="#ab"/><use transform="translate(35.802) scale(.04938)" xlink:href="#ai"/><use transform="translate(44.691) scale(.04938)" xlink:href="#P"/><use transform="translate(54.568) scale(.04938)" xlink:href="#Z"/><use transform="translate(63.457) scale(.04938)" xlink:href="#T"/><use transform="translate(68.395) scale(.04938)" xlink:href="#R"/><use transform="translate(72.296) scale(.04938)" xlink:href="#U"/><use transform="translate(82.173) scale(.04938)" xlink:href="#ab"/></g><g id="m"><use transform="scale(.04938)" xlink:href="#aq"/><use transform="translate(12.79) scale(.04938)" xlink:href="#P"/><use transform="translate(22.667) scale(.04938)" xlink:href="#T"/><use transform="translate(27.605) scale(.04938)" xlink:href="#P"/></g><g id="n"><use transform="scale(.04938)" xlink:href="#ar"/><use transform="translate(12.79) scale(.04938)" xlink:href="#ai"/><use transform="translate(21.679) scale(.04938)" xlink:href="#ah"/><use transform="translate(31.556) scale(.04938)" xlink:href="#V"/></g><g id="o"><use transform="scale(.04938)" xlink:href="#af"/><use transform="translate(4.938) scale(.04938)" xlink:href="#ab"/><use transform="translate(14.815) scale(.04938)" xlink:href="#T"/><use transform="translate(19.753) scale(.04938)" xlink:href="#ah"/><use transform="translate(29.63) scale(.04938)" xlink:href="#V"/><use transform="translate(35.506) scale(.04938)" xlink:href="#as"/><use transform="translate(40.444) scale(.04938)" xlink:href="#P"/><use transform="translate(50.321) scale(.04938)" xlink:href="#Z"/><use transform="translate(59.21) scale(.04938)" xlink:href="#ah"/></g><g id="p"><use transform="scale(.04938)" xlink:href="#U"/><use transform="translate(9.877) scale(.04938)" xlink:href="#V"/></g><g id="q"><use transform="scale(.04938)" xlink:href="#af"/><use transform="translate(4.938) scale(.04938)" xlink:href="#ab"/><use transform="translate(14.815) scale(.04938)" xlink:href="#T"/><use transform="translate(19.753) scale(.04938)" xlink:href="#ah"/><use transform="translate(29.63) scale(.04938)" xlink:href="#at"/><use transform="translate(39.506) scale(.04938)" xlink:href="#V"/><use transform="translate(45.383) scale(.04938)" xlink:href="#P"/><use transform="translate(55.26) scale(.04938)" xlink:href="#T"/><use transform="translate(60.198) scale(.04938)" xlink:href="#ah"/><use transform="translate(70.074) scale(.04938)" xlink:href="#S"/></g><g id="r"><use transform="scale(.04938)" xlink:href="#au"/><use transform="translate(11.852) scale(.04938)" xlink:href="#ah"/><use transform="translate(21.728) scale(.04938)" xlink:href="#V"/><use transform="translate(27.605) scale(.04938)" xlink:href="#av"/><use transform="translate(36.494) scale(.04938)" xlink:href="#R"/><use transform="translate(40.395) scale(.04938)" xlink:href="#Z"/><use transform="translate(49.284) scale(.04938)" xlink:href="#ah"/></g><g id="s"><use transform="scale(.04938)" xlink:href="#Y"/><use transform="translate(11.852) scale(.04938)" xlink:href="#Z"/><use transform="translate(20.74) scale(.04938)" xlink:href="#T"/><use transform="translate(25.679) scale(.04938)" xlink:href="#R"/><use transform="translate(29.58) scale(.04938)" xlink:href="#U"/><use transform="translate(39.457) scale(.04938)" xlink:href="#ab"/></g><g id="t"><use transform="scale(.05)" xlink:href="#av"/><use transform="translate(9) scale(.05)" xlink:href="#P"/><use transform="translate(19) scale(.05)" xlink:href="#Q"/><use transform="translate(22.95) scale(.05)" xlink:href="#R"/><use transform="translate(26.9) scale(.05)" xlink:href="#S"/><use transform="translate(36.9) scale(.05)" xlink:href="#P"/><use transform="translate(46.9) scale(.05)" xlink:href="#T"/><use transform="translate(51.9) scale(.05)" xlink:href="#R"/><use transform="translate(55.85) scale(.05)" xlink:href="#U"/><use transform="translate(65.85) scale(.05)" xlink:href="#ab"/></g><g id="v"><use transform="scale(.05)" xlink:href="#V"/><use transform="translate(5.95) scale(.05)" xlink:href="#U"/><use transform="translate(15.95) scale(.05)" xlink:href="#Q"/><use transform="translate(19.9) scale(.05)" xlink:href="#Q"/><use transform="translate(23.85) scale(.05)" xlink:href="#aj"/><use transform="translate(33.85) scale(.05)" xlink:href="#P"/><use transform="translate(43.85) scale(.05)" xlink:href="#Z"/><use transform="translate(52.85) scale(.05)" xlink:href="#aw"/></g><g id="w"><use transform="scale(.04938)" xlink:href="#W"/><use transform="translate(13.827) scale(.04938)" xlink:href="#X"/></g><g id="x"><use transform="scale(.04938)" xlink:href="#O"/><use transform="translate(10.519) scale(.04938)" xlink:href="#P"/><use transform="translate(20.395) scale(.04938)" xlink:href="#Q"/><use transform="translate(24.296) scale(.04938)" xlink:href="#R"/><use transform="translate(28.198) scale(.04938)" xlink:href="#S"/><use transform="translate(38.074) scale(.04938)" xlink:href="#P"/><use transform="translate(47.95) scale(.04938)" xlink:href="#T"/><use transform="translate(52.889) scale(.04938)" xlink:href="#R"/><use transform="translate(56.79) scale(.04938)" xlink:href="#U"/><use transform="translate(66.667) scale(.04938)" xlink:href="#ab"/></g><g id="y"><use transform="scale(.04938)" xlink:href="#an"/><use transform="translate(12.79) scale(.04938)" xlink:href="#aa"/><use transform="translate(22.667) scale(.04938)" xlink:href="#Q"/><use transform="translate(26.568) scale(.04938)" xlink:href="#ah"/><use transform="translate(36.444) scale(.04938)" xlink:href="#ai"/></g><g id="z"><use transform="scale(.04938)" xlink:href="#aq"/><use transform="translate(12.79) scale(.04938)" xlink:href="#R"/><use transform="translate(16.691) scale(.04938)" xlink:href="#ai"/><use transform="translate(25.58) scale(.04938)" xlink:href="#T"/><use transform="translate(30.519) scale(.04938)" xlink:href="#V"/><use transform="translate(36.395) scale(.04938)" xlink:href="#R"/><use transform="translate(40.296) scale(.04938)" xlink:href="#aj"/><use transform="translate(50.173) scale(.04938)" xlink:href="#aa"/><use transform="translate(60.05) scale(.04938)" xlink:href="#T"/><use transform="translate(64.988) scale(.04938)" xlink:href="#R"/><use transform="translate(68.889) scale(.04938)" xlink:href="#U"/><use transform="translate(78.765) scale(.04938)" xlink:href="#ab"/></g><g id="A"><use transform="scale(.04938)" xlink:href="#ax"/><use transform="translate(11.852) scale(.04938)" xlink:href="#V"/><use transform="translate(17.728) scale(.04938)" xlink:href="#U"/><use transform="translate(27.605) scale(.04938)" xlink:href="#Z"/><use transform="translate(36.494) scale(.04938)" xlink:href="#ah"/><use transform="translate(46.37) scale(.04938)" xlink:href="#ai"/><use transform="translate(55.26) scale(.04938)" xlink:href="#ai"/><use transform="translate(64.148) scale(.04938)" xlink:href="#U"/><use transform="translate(74.025) scale(.04938)" xlink:href="#V"/></g><g id="B"><use transform="scale(.05)" xlink:href="#aj"/><use transform="translate(10) scale(.05)" xlink:href="#aa"/><use transform="translate(20) scale(.05)" xlink:href="#R"/><use transform="translate(23.95) scale(.05)" xlink:href="#Q"/><use transform="translate(27.9) scale(.05)" xlink:href="#S"/><use transform="translate(37.9) scale(.05)" xlink:href="#R"/><use transform="translate(41.85) scale(.05)" xlink:href="#ab"/><use transform="translate(51.85) scale(.05)" xlink:href="#at"/></g><g id="C"><use transform="scale(.05)" xlink:href="#S"/><use transform="translate(10) scale(.05)" xlink:href="#U"/><use transform="translate(20) scale(.05)" xlink:href="#aa"/><use transform="translate(30) scale(.05)" xlink:href="#aj"/><use transform="translate(40) scale(.05)" xlink:href="#Q"/><use transform="translate(43.95) scale(.05)" xlink:href="#ah"/></g><g id="D"><use transform="scale(.05)" xlink:href="#ah"/><use transform="translate(10) scale(.05)" xlink:href="#ab"/><use transform="translate(20) scale(.05)" xlink:href="#T"/><use transform="translate(25) scale(.05)" xlink:href="#V"/><use transform="translate(30.95) scale(.05)" xlink:href="#R"/><use transform="translate(34.9) scale(.05)" xlink:href="#ah"/><use transform="translate(44.9) scale(.05)" xlink:href="#ai"/></g><g id="E"><use transform="scale(.04938)" xlink:href="#aq"/><use transform="translate(12.79) scale(.04938)" xlink:href="#R"/><use transform="translate(16.691) scale(.04938)" xlink:href="#ai"/><use transform="translate(25.58) scale(.04938)" xlink:href="#T"/><use transform="translate(30.519) scale(.04938)" xlink:href="#V"/><use transform="translate(36.395) scale(.04938)" xlink:href="#R"/><use transform="translate(40.296) scale(.04938)" xlink:href="#aj"/><use transform="translate(50.173) scale(.04938)" xlink:href="#aa"/><use transform="translate(60.05) scale(.04938)" xlink:href="#T"/><use transform="translate(64.988) scale(.04938)" xlink:href="#R"/><use transform="translate(68.889) scale(.04938)" xlink:href="#U"/><use transform="translate(78.765) scale(.04938)" xlink:href="#ab"/></g><g id="F"><use transform="scale(.04938)" xlink:href="#af"/><use transform="translate(4.938) scale(.04938)" xlink:href="#ab"/><use transform="translate(14.815) scale(.04938)" xlink:href="#T"/><use transform="translate(19.753) scale(.04938)" xlink:href="#ah"/><use transform="translate(29.63) scale(.04938)" xlink:href="#at"/><use transform="translate(39.506) scale(.04938)" xlink:href="#V"/><use transform="translate(45.383) scale(.04938)" xlink:href="#P"/><use transform="translate(55.26) scale(.04938)" xlink:href="#T"/><use transform="translate(60.198) scale(.04938)" xlink:href="#R"/><use transform="translate(64.099) scale(.04938)" xlink:href="#U"/><use transform="translate(73.975) scale(.04938)" xlink:href="#ab"/></g><g id="G"><use transform="scale(.04938)" xlink:href="#ay"/><use transform="translate(12.79) scale(.04938)" xlink:href="#P"/><use transform="translate(22.667) scale(.04938)" xlink:href="#ab"/><use transform="translate(32.543) scale(.04938)" xlink:href="#S"/><use transform="translate(42.42) scale(.04938)" xlink:href="#Q"/><use transform="translate(46.321) scale(.04938)" xlink:href="#ah"/><use transform="translate(56.198) scale(.04938)" xlink:href="#V"/></g><g id="H"><use transform="scale(.05)" xlink:href="#ah"/><use transform="translate(10) scale(.05)" xlink:href="#al"/><use transform="translate(19) scale(.05)" xlink:href="#T"/><use transform="translate(24) scale(.05)" xlink:href="#ah"/><use transform="translate(34) scale(.05)" xlink:href="#V"/><use transform="translate(39.95) scale(.05)" xlink:href="#ab"/><use transform="translate(49.95) scale(.05)" xlink:href="#P"/><use transform="translate(59.95) scale(.05)" xlink:href="#Q"/></g><g id="I"><use transform="scale(.05)" xlink:href="#Q"/><use transform="translate(3.95) scale(.05)" xlink:href="#ah"/><use transform="translate(13.95) scale(.05)" xlink:href="#S"/><use transform="translate(23.95) scale(.05)" xlink:href="#at"/><use transform="translate(33.95) scale(.05)" xlink:href="#ah"/><use transform="translate(43.95) scale(.05)" xlink:href="#V"/></g><g id="J"><use transform="scale(.05)" xlink:href="#ai"/><use transform="translate(9) scale(.05)" xlink:href="#az"/><use transform="translate(18) scale(.05)" xlink:href="#ai"/><use transform="translate(27) scale(.05)" xlink:href="#T"/><use transform="translate(32) scale(.05)" xlink:href="#ah"/><use transform="translate(42) scale(.05)" xlink:href="#ag"/></g><g id="K"><use transform="scale(.04938)" xlink:href="#af"/><use transform="translate(4.938) scale(.04938)" xlink:href="#ab"/><use transform="translate(14.815) scale(.04938)" xlink:href="#T"/><use transform="translate(19.753) scale(.04938)" xlink:href="#ah"/><use transform="translate(29.63) scale(.04938)" xlink:href="#at"/><use transform="translate(39.506) scale(.04938)" xlink:href="#V"/><use transform="translate(45.383) scale(.04938)" xlink:href="#P"/><use transform="translate(55.26) scale(.04938)" xlink:href="#T"/><use transform="translate(60.198) scale(.04938)" xlink:href="#R"/><use transform="translate(64.099) scale(.04938)" xlink:href="#U"/><use transform="translate(73.975) scale(.04938)" xlink:href="#ab"/></g><g id="L"><use transform="scale(.04938)" xlink:href="#ay"/><use transform="translate(12.79) scale(.04938)" xlink:href="#P"/><use transform="translate(22.667) scale(.04938)" xlink:href="#ab"/><use transform="translate(32.543) scale(.04938)" xlink:href="#S"/><use transform="translate(42.42) scale(.04938)" xlink:href="#Q"/><use transform="translate(46.321) scale(.04938)" xlink:href="#ah"/><use transform="translate(56.198) scale(.04938)" xlink:href="#V"/></g><g id="M"><use transform="scale(.05)" xlink:href="#as"/><use transform="translate(5) scale(.05)" xlink:href="#R"/><use transform="translate(8.95) scale(.05)" xlink:href="#ab"/><use transform="translate(18.95) scale(.05)" xlink:href="#P"/><use transform="translate(28.95) scale(.05)" xlink:href="#ab"/><use transform="translate(38.95) scale(.05)" xlink:href="#Z"/><use transform="translate(47.95) scale(.05)" xlink:href="#R"/><use transform="translate(51.9) scale(.05)" xlink:href="#P"/><use transform="translate(61.9) scale(.05)" xlink:href="#Q"/></g><g id="N"><use transform="scale(.05)" xlink:href="#ai"/><use transform="translate(9) scale(.05)" xlink:href="#az"/><use transform="translate(18) scale(.05)" xlink:href="#ai"/><use transform="translate(27) scale(.05)" xlink:href="#T"/><use transform="translate(32) scale(.05)" xlink:href="#ah"/><use transform="translate(42) scale(.05)" xlink:href="#ag"/></g><use transform="scale(.04938)" xlink:href="#aA" id="g"/><use transform="scale(.05)" xlink:href="#aB" id="u"/></defs></g></svg>