<svg xmlns="http://www.w3.org/2000/svg" xmlns:xlink="http://www.w3.org/1999/xlink" xmlns:lucid="lucid" width="1169" height="1983.19"><g transform="translate(-51 -115.557)" lucid:page-tab-id="aFhC16COgtEf"><path d="M0 0h1870.4v2582.4H0z" fill="#fff"/><path d="M427.96 336.7c-4.92 0-9-4.02-9-8.95 0-4.92 4.08-8.74 9-8.74 4.68 0 8.76 4.03 8.76 8.75 0 4.93-4.08 8.95-8.76 8.95zm17.16-30.77l-7.32 3.62-4.2-1.9-2.76-7.65h-6.24l-2.52 7.64-4.2 1.9-7.44-3.4-4.56 4.42 3.6 7.24-1.8 4.32-7.68 2.62v6.33l7.68 2.52 1.8 4.2-3.6 7.45 4.56 4.53 7.2-3.62 4.2 1.8 2.76 7.65h6.24l2.52-7.63 4.32-1.8 7.44 3.4 4.44-4.52-3.6-7.24 1.8-4.52 7.68-2.6v-6.35l-7.68-2.5-1.8-4.23 3.6-7.44-4.44-4.23z" fill="#c1e4f7"/><path d="M480.64 374.2c-6.96 0-12.6-5.72-12.6-12.66s5.64-12.57 12.6-12.57S493 354.6 493 361.54c.24 7.04-5.4 12.67-12.36 12.67zm24.48-43.73l-10.08 5.23-6.12-2.52-3.84-10.86h-9l-3.36 10.86-6.36 2.52-10.32-4.93-6.36 6.34 5.16 10.16-2.52 6.04-10.8 3.82v8.95l10.8 3.62 2.76 6.02-4.92 10.36 6.24 6.33 10.2-5.12 6.12 2.42 3.84 10.86h9l3.6-10.86 6-2.42 10.32 4.93 6.36-6.32-5.16-10.16 2.52-6.34 10.8-3.82v-9.05l-10.8-3.6-2.52-6.04 4.92-10.36-6.48-6.03z" fill="#c1e4f7"/><use xlink:href="#a" transform="translate(437.525 423.957)"/><path d="M567.96 336.7c-4.92 0-9-4.02-9-8.95 0-4.92 4.08-8.74 9-8.74 4.68 0 8.76 4.03 8.76 8.75 0 4.93-4.08 8.95-8.76 8.95zm17.16-30.77l-7.32 3.62-4.2-1.9-2.76-7.65h-6.24l-2.52 7.64-4.2 1.9-7.44-3.4-4.56 4.42 3.6 7.24-1.8 4.32-7.68 2.62v6.33l7.68 2.52 1.8 4.2-3.6 7.45 4.56 4.53 7.2-3.62 4.2 1.8 2.76 7.65h6.24l2.52-7.63 4.32-1.8 7.44 3.4 4.44-4.52-3.6-7.24 1.8-4.52 7.68-2.6v-6.35l-7.68-2.5-1.8-4.23 3.6-7.44-4.44-4.23z" fill="#99d5ca"/><path d="M620.64 374.2c-6.96 0-12.6-5.72-12.6-12.66s5.64-12.57 12.6-12.57S633 354.6 633 361.54c.24 7.04-5.4 12.67-12.36 12.67zm24.48-43.73l-10.08 5.23-6.12-2.52-3.84-10.86h-9l-3.36 10.86-6.36 2.52-10.32-4.93-6.36 6.34 5.16 10.16-2.52 6.04-10.8 3.82v8.95l10.8 3.62 2.76 6.02-4.92 10.36 6.24 6.33 10.2-5.12 6.12 2.42 3.84 10.86h9l3.6-10.86 6-2.42 10.32 4.93 6.36-6.32-5.16-10.16 2.52-6.34 10.8-3.82v-9.05l-10.8-3.6-2.52-6.04 4.92-10.36-6.48-6.03z" fill="#99d5ca"/><use xlink:href="#b" transform="translate(564.55 423.957)"/><path d="M707.96 336.7c-4.92 0-9-4.02-9-8.95 0-4.92 4.08-8.74 9-8.74 4.68 0 8.76 4.03 8.76 8.75 0 4.93-4.08 8.95-8.76 8.95zm17.16-30.77l-7.32 3.62-4.2-1.9-2.76-7.65h-6.24l-2.52 7.64-4.2 1.9-7.44-3.4-4.56 4.42 3.6 7.24-1.8 4.32-7.68 2.62v6.33l7.68 2.52 1.8 4.2-3.6 7.45 4.56 4.53 7.2-3.62 4.2 1.8 2.76 7.65h6.24l2.52-7.63 4.32-1.8 7.44 3.4 4.44-4.52-3.6-7.24 1.8-4.52 7.68-2.6v-6.35l-7.68-2.5-1.8-4.23 3.6-7.44-4.44-4.23z" fill="#c7e8ac"/><path d="M760.64 374.2c-6.96 0-12.6-5.72-12.6-12.66s5.64-12.57 12.6-12.57S773 354.6 773 361.54c.24 7.04-5.4 12.67-12.36 12.67zm24.48-43.73l-10.08 5.23-6.12-2.52-3.84-10.86h-9l-3.36 10.86-6.36 2.52-10.32-4.93-6.36 6.34 5.16 10.16-2.52 6.04-10.8 3.82v8.95l10.8 3.62 2.76 6.02-4.92 10.36 6.24 6.33 10.2-5.12 6.12 2.42 3.84 10.86h9l3.6-10.86 6-2.42 10.32 4.93 6.36-6.32-5.16-10.16 2.52-6.34 10.8-3.82v-9.05l-10.8-3.6-2.52-6.04 4.92-10.36-6.48-6.03z" fill="#c7e8ac"/><use xlink:href="#c" transform="translate(708.525 423.957)"/><path d="M847.96 336.7c-4.92 0-9-4.02-9-8.95 0-4.92 4.08-8.74 9-8.74 4.68 0 8.76 4.03 8.76 8.75 0 4.93-4.08 8.95-8.76 8.95zm17.16-30.77l-7.32 3.62-4.2-1.9-2.76-7.65h-6.24l-2.52 7.64-4.2 1.9-7.44-3.4-4.56 4.42 3.6 7.24-1.8 4.32-7.68 2.62v6.33l7.68 2.52 1.8 4.2-3.6 7.45 4.56 4.53 7.2-3.62 4.2 1.8 2.76 7.65h6.24l2.52-7.63 4.32-1.8 7.44 3.4 4.44-4.52-3.6-7.24 1.8-4.52 7.68-2.6v-6.35l-7.68-2.5-1.8-4.23 3.6-7.44-4.44-4.23z" fill="#f9d2de"/><path d="M900.64 374.2c-6.96 0-12.6-5.72-12.6-12.66s5.64-12.57 12.6-12.57S913 354.6 913 361.54c.24 7.04-5.4 12.67-12.36 12.67zm24.48-43.73l-10.08 5.23-6.12-2.52-3.84-10.86h-9l-3.36 10.86-6.36 2.52-10.32-4.93-6.36 6.34 5.16 10.16-2.52 6.04-10.8 3.82v8.95l10.8 3.62 2.76 6.02-4.92 10.36 6.24 6.33 10.2-5.12 6.12 2.42 3.84 10.86h9l3.6-10.86 6-2.42 10.32 4.93 6.36-6.32-5.16-10.16 2.52-6.34 10.8-3.82v-9.05l-10.8-3.6-2.52-6.04 4.92-10.36-6.48-6.03z" fill="#f9d2de"/><use xlink:href="#d" transform="translate(867.025 423.957)"/><path d="M816 553v-48h138v48m-280 0v-48h138v48m-422 0v-48h138v48" stroke="#5e5e5e" stroke-width="2" fill="#bfbfbf"/><path d="M390 537h142v-32h138v32h285v168H390z" stroke="#5e5e5e" stroke-width="2" fill="#fff"/><path d="M923 537h32v168h-32z" stroke="#5e5e5e" stroke-width="2" fill="#fff"/><path d="M927 541h24v24h-24z" stroke="#5e5e5e" stroke-width="2" fill="none"/><path d="M931.8 557.8h14.4l-7.2-9.6z" stroke="#5e5e5e" stroke-width="2" fill="#5e5e5e"/><path d="M927 569h24v56h-24zm4 24h16m-16 4h16m-16 4h16m-20 100h24v-24h-24z" stroke="#5e5e5e" stroke-width="2" fill="none"/><path d="M931.8 684.2h14.4l-7.2 9.6z" stroke="#5e5e5e" stroke-width="2" fill="#5e5e5e"/><use xlink:href="#e" transform="translate(428.45 527.956)"/><use xlink:href="#f" transform="translate(553.056 527.956)"/><use xlink:href="#g" transform="translate(711.235 527.956)"/><use xlink:href="#h" transform="translate(851.333 527.956)"/><path d="M460.37 503c0 .55-.45 1-1 1s-1-.45-1-1 .45-1 1-1 1 .45 1 1zm0-7.84c0 .55-.45 1-1 1s-1-.45-1-1 .45-1 1-1 1 .45 1 1zm0-7.84c0 .56-.45 1-1 1s-1-.44-1-1c0-.55.45-1 1-1s1 .45 1 1zm0-7.83c0 .54-.45 1-1 1s-1-.46-1-1c0-.57.45-1 1-1s1 .43 1 1zm-.35-7.5c0 .55-.45 1-1 1s-1-.45-1-1 .45-1 1-1 1 .45 1 1zm-.35-7.5c0 .57-.45 1-1 1-.56 0-1-.43-1-1 0-.54.44-1 1-1 .55 0 1 .46 1 1zm0-7.82c0 .55-.45 1-1 1-.56 0-1-.45-1-1 0-.56.44-1 1-1 .55 0 1 .44 1 1zm0-7.84c0 .55-.45 1-1 1-.56 0-1-.45-1-1s.44-1 1-1c.55 0 1 .45 1 1z"/><path d="M460.37 504h-2v-1.03h2z"/><path d="M458.67 441.03V440" stroke="#000" stroke-width="2" fill="none"/><path d="M601.24 503c0 .55-.45 1-1 1s-1-.45-1-1 .45-1 1-1 1 .45 1 1zm0-7.78c0 .55-.45 1-1 1s-1-.45-1-1 .45-1 1-1 1 .45 1 1zm0-7.78c0 .55-.45 1-1 1s-1-.45-1-1 .45-1 1-1 1 .45 1 1zm0-7.78c0 .55-.45 1-1 1s-1-.45-1-1 .45-1 1-1 1 .45 1 1zm-.12-7.66c0 .55-.45 1-1 1s-1-.45-1-1 .45-1 1-1 1 .45 1 1zm-.12-7.66c0 .55-.45 1-1 1s-1-.45-1-1 .45-1 1-1 1 .45 1 1zm0-7.78c0 .55-.45 1-1 1s-1-.45-1-1 .45-1 1-1 1 .45 1 1zm0-7.78c0 .55-.45 1-1 1s-1-.45-1-1 .45-1 1-1 1 .45 1 1z"/><path d="M601.24 504h-2v-1.03h2z"/><path d="M600 441.03V440" stroke="#000" stroke-width="2" fill="none"/><path d="M743.44 503c0 .55-.45 1-1 1-.56 0-1-.45-1-1s.44-1 1-1c.55 0 1 .45 1 1zm0-7.78c0 .55-.45 1-1 1-.56 0-1-.45-1-1s.44-1 1-1c.55 0 1 .45 1 1zm0-7.78c0 .55-.45 1-1 1-.56 0-1-.45-1-1s.44-1 1-1c.55 0 1 .45 1 1zm0-7.78c0 .56-.45 1-1 1-.56 0-1-.44-1-1 0-.55.44-1 1-1 .55 0 1 .45 1 1zm.1-7.66c0 .55-.44 1-1 1-.54 0-1-.45-1-1s.46-1 1-1c.56 0 1 .45 1 1zm.13-7.66c0 .55-.45 1-1 1-.56 0-1-.45-1-1 0-.56.44-1 1-1 .55 0 1 .44 1 1zm0-7.78c0 .55-.45 1-1 1-.56 0-1-.45-1-1s.44-1 1-1c.55 0 1 .45 1 1zm0-7.78c0 .55-.45 1-1 1-.56 0-1-.45-1-1s.44-1 1-1c.55 0 1 .45 1 1z"/><path d="M743.44 504h-2v-1.03h2z"/><path d="M742.67 441.03V440" stroke="#000" stroke-width="2" fill="none"/><path d="M880.32 503c0 .55-.45 1-1 1s-1-.45-1-1 .45-1 1-1 1 .45 1 1zm0-7.84c0 .56-.45 1-1 1s-1-.44-1-1c0-.55.45-1 1-1s1 .45 1 1zm0-7.83c0 .55-.45 1-1 1s-1-.45-1-1 .45-1 1-1 1 .45 1 1zm0-7.84c0 .55-.45 1-1 1s-1-.45-1-1c0-.56.45-1 1-1s1 .44 1 1zm.34-7.5c0 .55-.45 1-1 1s-1-.45-1-1 .45-1 1-1 1 .45 1 1zm.34-7.5c0 .56-.45 1-1 1s-1-.44-1-1c0-.55.45-1 1-1s1 .45 1 1zm0-7.83c0 .55-.45 1-1 1s-1-.45-1-1 .45-1 1-1 1 .45 1 1zm0-7.83c0 .55-.45 1-1 1s-1-.45-1-1c0-.56.45-1 1-1s1 .44 1 1z"/><path d="M880.32 504h-2v-1.03h2z"/><path d="M880 441.03V440" stroke="#000" stroke-width="2" fill="none"/><path d="M420 560h475v125H420zm475 40H420" stroke="#5e5e5e" stroke-width="2" fill="#fff"/><path d="M859 564h32v32h-32zm8 8l16 16m0-16l-16 16" stroke="#5e5e5e" stroke-width="2" fill="none"/><path d="M728.64 827.96l-3.7 15.72-3.83 15.72-11.7-11.04-11.8-11.16 7.2-1.92c-6.98-10.68-18.9-17.76-32.2-17.76-8.43 0-15.96 2.52-22.38 7.2v-.24l3.5-15.84-15.42 4.92-3.83 1.32c10.24-9.36 23.3-14.88 37.92-14.88 21.48 0 40.5 12.36 49.6 30.36l6.64-2.4z" fill="#7f7f7f"/><path d="M728.76 855.56c0 30.72-25.1 56.04-56.03 56.04h-2.03l-2.25 8.4-9.45-9.96-1.58-1.8-11.02-11.76 15.64-3.72.67-.24 15.1-3.84-1.6 5.16c19.6-1.8 35.12-18.24 35.12-38.4v-1.56l11.7 11.04 3.7-15.72 1.36-4.8c.45 3.84.68 7.2.68 11.16z" fill="#7f7f7f"/><path d="M656.64 891.2l-15.76 3.84 11.03 11.64 1.36 1.32c-21.5-7.8-37.02-28.56-37.02-52.68 0-10.44 2.93-20.4 7.77-28.56l-5.28-4.92 11.25-3.48 4.05-1.32 15.53-4.8-3.38 14.76-.22.72-3.6 15.72-4.62-4.68c-2.25 5.04-3.82 10.68-3.82 16.44 0 15.96 9.8 29.64 23.75 35.4l-1 .6z" fill="#7f7f7f"/><use xlink:href="#i" transform="translate(642.768 943.4)"/><use xlink:href="#j" transform="translate(615.843 965)"/><path d="M540 135.56h240v60H540z" fill="none"/><use xlink:href="#k" transform="translate(554.792 171.013)"/><use xlink:href="#l" transform="translate(639.52 171.013)"/><path d="M660.98 196.56c0 .55-.45 1-1 1-.56 0-1-.45-1-1s.44-1 1-1c.55 0 1 .45 1 1zm-1.86 7.8c0 .54-.45 1-1 1s-1-.46-1-1c0-.57.45-1 1-1s1 .43 1 1zm-4.35 6.73c0 .54-.45 1-1 1s-1-.46-1-1c0-.56.45-1 1-1s1 .44 1 1zm-5.83 5.53c0 .56-.44 1-1 1-.55 0-1-.44-1-1 0-.55.45-1 1-1 .56 0 1 .45 1 1zm-6.6 4.6c0 .56-.44 1-1 1-.55 0-1-.44-1-1 0-.54.45-1 1-1 .56 0 1 .46 1 1zm-7.02 3.95c0 .55-.45 1-1 1s-1-.45-1-1c0-.56.45-1 1-1s1 .44 1 1zm-7.28 3.43c0 .56-.45 1-1 1s-1-.44-1-1c0-.55.45-1 1-1s1 .45 1 1zm-7.44 3.08c0 .55-.45 1-1 1-.56 0-1-.45-1-1 0-.56.44-1 1-1 .55 0 1 .44 1 1zm-7.56 2.8c0 .54-.44 1-1 1-.55 0-1-.46-1-1 0-.56.45-1 1-1 .56 0 1 .44 1 1zm-7.6 2.63c0 .56-.45 1-1 1-.56 0-1-.44-1-1 0-.55.44-1 1-1 .55 0 1 .45 1 1zm-7.7 2.35c0 .55-.46 1-1 1-.56 0-1-.45-1-1 0-.56.44-1 1-1 .54 0 1 .44 1 1zm-7.73 2.3c0 .55-.43 1-1 1-.54 0-1-.45-1-1s.46-1 1-1c.57 0 1 .45 1 1zm-7.7 2.3c0 .56-.45 1-1 1s-1-.44-1-1c0-.54.45-1 1-1s1 .46 1 1zm-7.76 2.16c0 .56-.45 1-1 1s-1-.44-1-1c0-.54.45-1 1-1s1 .46 1 1zm-7.76 2.16c0 .55-.45 1-1 1-.56 0-1-.45-1-1s.44-1 1-1c.55 0 1 .45 1 1zm-7.76 2.15c0 .56-.45 1-1 1-.56 0-1-.44-1-1 0-.54.44-1 1-1 .55 0 1 .46 1 1zm-7.77 2.16c0 .55-.44 1-1 1-.55 0-1-.45-1-1s.45-1 1-1c.56 0 1 .45 1 1zm-7.76 2.15c0 .56-.45 1-1 1-.56 0-1-.44-1-1 0-.54.44-1 1-1 .55 0 1 .46 1 1zm-7.77 2.16c0 .55-.45 1-1 1s-1-.45-1-1c0-.56.45-1 1-1s1 .44 1 1zm-7.76 2.15c0 .56-.45 1-1 1s-1-.44-1-1c0-.55.45-1 1-1s1 .45 1 1zm-7.76 2.16c0 .55-.44 1-1 1-.54 0-1-.45-1-1 0-.56.46-1 1-1 .56 0 1 .44 1 1zm-7.75 2.14c0 .56-.45 1-1 1s-1-.44-1-1c0-.55.45-1 1-1s1 .45 1 1zm-7.76 2.15c0 .56-.46 1-1 1-.56 0-1-.44-1-1 0-.55.44-1 1-1 .54 0 1 .45 1 1zm-7.63 2.6c0 .56-.45 1-1 1s-1-.44-1-1c0-.54.45-1 1-1s1 .46 1 1zm-7.57 2.75c0 .55-.45 1-1 1-.56 0-1-.45-1-1 0-.56.44-1 1-1 .55 0 1 .44 1 1zm-7.47 3c0 .56-.45 1-1 1s-1-.44-1-1c0-.54.45-1 1-1s1 .46 1 1zm-7.3 3.4c0 .54-.46 1-1 1-.56 0-1-.46-1-1 0-.56.44-1 1-1 .54 0 1 .44 1 1zm-7.1 3.82c0 .55-.44 1-1 1-.54 0-1-.45-1-1s.46-1 1-1c.56 0 1 .45 1 1zm-6.7 4.47c0 .54-.43 1-1 1-.54 0-1-.46-1-1 0-.57.46-1 1-1 .57 0 1 .43 1 1z"/><path d="M660.98 196.6l-2-.04.02-1h2z"/><path d="M448.08 304.56l1.4-14.94 8.5 3.68z" stroke="#000" stroke-width="2"/><path d="M661.02 196.56c0 .55-.45 1-1 1s-1-.45-1-1 .45-1 1-1 1 .45 1 1zm.7 7.95c0 .56-.44 1-1 1-.55 0-1-.44-1-1 0-.54.45-1 1-1 .56 0 1 .46 1 1zm1.96 7.75c0 .55-.45 1-1 1s-1-.45-1-1 .45-1 1-1 1 .45 1 1zm3.18 7.32c0 .55-.45 1-1 1s-1-.45-1-1 .45-1 1-1 1 .45 1 1zm4.27 6.74c0 .57-.45 1-1 1s-1-.43-1-1c0-.54.45-1 1-1s1 .46 1 1zm5.12 6.14c0 .55-.44 1-1 1-.55 0-1-.45-1-1s.45-1 1-1c.56 0 1 .45 1 1zm5.77 5.53c0 .55-.45 1-1 1-.56 0-1-.45-1-1s.44-1 1-1c.55 0 1 .45 1 1zm6.17 5.06c0 .55-.45 1-1 1-.56 0-1-.45-1-1s.44-1 1-1c.55 0 1 .45 1 1zm6.46 4.7c0 .54-.44 1-1 1-.55 0-1-.46-1-1 0-.56.45-1 1-1 .56 0 1 .44 1 1zm6.67 4.4c0 .54-.44 1-1 1-.55 0-1-.46-1-1 0-.56.45-1 1-1 .56 0 1 .44 1 1zm6.7 4.33c0 .55-.44 1-1 1-.54 0-1-.45-1-1s.46-1 1-1c.56 0 1 .45 1 1zm6.75 4.3c0 .55-.45 1-1 1s-1-.45-1-1c0-.56.45-1 1-1s1 .44 1 1zm6.73 4.3c0 .55-.43 1-1 1-.54 0-1-.45-1-1 0-.56.46-1 1-1 .57 0 1 .44 1 1zm6.75 4.3c0 .55-.45 1-1 1s-1-.45-1-1c0-.56.45-1 1-1s1 .44 1 1zm6.54 4.58c0 .55-.46 1-1 1-.56 0-1-.45-1-1s.44-1 1-1c.54 0 1 .45 1 1zm6.23 4.98c0 .55-.44 1-1 1-.55 0-1-.45-1-1s.45-1 1-1c.56 0 1 .45 1 1zm5.85 5.44c0 .55-.44 1-1 1-.55 0-1-.45-1-1s.45-1 1-1c.56 0 1 .45 1 1zm5.27 6c0 .55-.44 1-1 1-.55 0-1-.45-1-1 0-.56.45-1 1-1 .56 0 1 .44 1 1zm4.45 6.62c0 .56-.44 1-1 1-.55 0-1-.44-1-1 0-.55.45-1 1-1 .56 0 1 .45 1 1zm3.4 7.22c0 .55-.44 1-1 1-.55 0-1-.45-1-1s.45-1 1-1c.56 0 1 .45 1 1z"/><path d="M661.02 196.56l-2 .05-.02-1.04h2z"/><path d="M761.64 319.14l-7.04-13.25 9.13-1.62z" stroke="#000" stroke-width="2"/><path d="M1040 300h160v405h-160z" fill="none"/><path d="M1040 705c5.52 0 10-4.48 10-10V512.5c0-5.52 4.48-10 10-10-5.52 0-10-4.48-10-10V310c0-5.52-4.48-10-10-10" fill="none"/><path d="M1041 705c0 .55-.45 1-1 1s-1-.45-1-1 .45-1 1-1 1 .45 1 1zm7-3c0 .54-.46 1-1 1-.56 0-1-.46-1-1 0-.56.44-1 1-1 .54 0 1 .44 1 1zm3-7c0 .55-.45 1-1 1s-1-.45-1-1 .45-1 1-1 1 .45 1 1zm0-7.93c0 .55-.45 1-1 1s-1-.45-1-1c0-.56.45-1 1-1s1 .44 1 1zm0-7.94c0 .55-.45 1-1 1s-1-.45-1-1 .45-1 1-1 1 .45 1 1zm0-7.93c0 .55-.45 1-1 1s-1-.45-1-1c0-.56.45-1 1-1s1 .44 1 1zm0-7.94c0 .55-.45 1-1 1s-1-.45-1-1 .45-1 1-1 1 .45 1 1zm0-7.93c0 .55-.45 1-1 1s-1-.45-1-1c0-.56.45-1 1-1s1 .44 1 1zm0-7.94c0 .54-.45 1-1 1s-1-.46-1-1c0-.56.45-1 1-1s1 .44 1 1zm0-7.94c0 .55-.45 1-1 1s-1-.45-1-1c0-.56.45-1 1-1s1 .44 1 1zm0-7.94c0 .55-.45 1-1 1s-1-.45-1-1 .45-1 1-1 1 .45 1 1zm0-7.93c0 .54-.45 1-1 1s-1-.46-1-1c0-.57.45-1 1-1s1 .43 1 1zm0-7.95c0 .55-.45 1-1 1s-1-.45-1-1 .45-1 1-1 1 .45 1 1zm0-7.93c0 .55-.45 1-1 1s-1-.45-1-1 .45-1 1-1 1 .45 1 1zm0-7.94c0 .55-.45 1-1 1s-1-.45-1-1 .45-1 1-1 1 .45 1 1zm0-7.93c0 .55-.45 1-1 1s-1-.45-1-1 .45-1 1-1 1 .45 1 1zm0-7.94c0 .57-.45 1-1 1s-1-.43-1-1c0-.54.45-1 1-1s1 .46 1 1zm0-7.92c0 .55-.45 1-1 1s-1-.45-1-1 .45-1 1-1 1 .45 1 1zm0-7.94c0 .56-.45 1-1 1s-1-.44-1-1c0-.55.45-1 1-1s1 .45 1 1zm0-7.93c0 .56-.45 1-1 1s-1-.44-1-1c0-.54.45-1 1-1s1 .46 1 1zm0-7.93c0 .56-.45 1-1 1s-1-.44-1-1c0-.55.45-1 1-1s1 .45 1 1zm0-7.93c0 .55-.45 1-1 1s-1-.45-1-1 .45-1 1-1 1 .45 1 1zm0-7.94c0 .56-.45 1-1 1s-1-.44-1-1c0-.55.45-1 1-1s1 .45 1 1zm0-7.93c0 .55-.45 1-1 1s-1-.45-1-1 .45-1 1-1 1 .45 1 1zm0-7.94c0 .56-.45 1-1 1s-1-.44-1-1c0-.55.45-1 1-1s1 .45 1 1zm0-7.93c0 .55-.45 1-1 1s-1-.45-1-1 .45-1 1-1 1 .45 1 1zm3-7c0 .56-.44 1-1 1-.54 0-1-.44-1-1 0-.54.46-1 1-1 .56 0 1 .46 1 1zm7-3c0 .55-.45 1-1 1s-1-.45-1-1 .45-1 1-1 1 .45 1 1zm-7-3c0 .54-.44 1-1 1-.54 0-1-.46-1-1 0-.56.46-1 1-1 .56 0 1 .44 1 1zm-3-7c0 .55-.45 1-1 1s-1-.45-1-1 .45-1 1-1 1 .45 1 1zm0-7.93c0 .55-.45 1-1 1s-1-.45-1-1c0-.56.45-1 1-1s1 .44 1 1zm0-7.94c0 .55-.45 1-1 1s-1-.45-1-1 .45-1 1-1 1 .45 1 1zm0-7.93c0 .55-.45 1-1 1s-1-.45-1-1c0-.56.45-1 1-1s1 .44 1 1zm0-7.94c0 .55-.45 1-1 1s-1-.45-1-1 .45-1 1-1 1 .45 1 1zm0-7.93c0 .55-.45 1-1 1s-1-.45-1-1c0-.56.45-1 1-1s1 .44 1 1zm0-7.94c0 .54-.45 1-1 1s-1-.46-1-1c0-.56.45-1 1-1s1 .44 1 1zm0-7.94c0 .55-.45 1-1 1s-1-.45-1-1c0-.56.45-1 1-1s1 .44 1 1zm0-7.94c0 .55-.45 1-1 1s-1-.45-1-1 .45-1 1-1 1 .45 1 1zm0-7.93c0 .54-.45 1-1 1s-1-.46-1-1c0-.57.45-1 1-1s1 .43 1 1zm0-7.95c0 .55-.45 1-1 1s-1-.45-1-1 .45-1 1-1 1 .45 1 1zm0-7.93c0 .55-.45 1-1 1s-1-.45-1-1 .45-1 1-1 1 .45 1 1zm0-7.94c0 .55-.45 1-1 1s-1-.45-1-1 .45-1 1-1 1 .45 1 1zm0-7.93c0 .55-.45 1-1 1s-1-.45-1-1 .45-1 1-1 1 .45 1 1zm0-7.94c0 .57-.45 1-1 1s-1-.43-1-1c0-.54.45-1 1-1s1 .46 1 1zm0-7.92c0 .55-.45 1-1 1s-1-.45-1-1 .45-1 1-1 1 .45 1 1zm0-7.94c0 .56-.45 1-1 1s-1-.44-1-1c0-.55.45-1 1-1s1 .45 1 1zm0-7.93c0 .56-.45 1-1 1s-1-.44-1-1c0-.54.45-1 1-1s1 .46 1 1zm0-7.93c0 .56-.45 1-1 1s-1-.44-1-1c0-.55.45-1 1-1s1 .45 1 1zm0-7.93c0 .55-.45 1-1 1s-1-.45-1-1 .45-1 1-1 1 .45 1 1zm0-7.94c0 .56-.45 1-1 1s-1-.44-1-1c0-.55.45-1 1-1s1 .45 1 1zm0-7.93c0 .55-.45 1-1 1s-1-.45-1-1 .45-1 1-1 1 .45 1 1zm0-7.94c0 .56-.45 1-1 1s-1-.44-1-1c0-.55.45-1 1-1s1 .45 1 1zm0-7.93c0 .55-.45 1-1 1s-1-.45-1-1 .45-1 1-1 1 .45 1 1zm-2.93-7.07c0 .55-.45 1-1 1s-1-.45-1-1 .45-1 1-1 1 .45 1 1z"/><use xlink:href="#m" transform="translate(1075 506.989)"/><use xlink:href="#n" transform="translate(1139.84 506.989)"/><path d="M672.5 707v54.5" stroke="#000" stroke-width="2" fill="none"/><path d="M673.5 707.03h-2V706h2z"/><path d="M672.5 776.76l-4.64-14.26h9.28z" stroke="#000" stroke-width="2"/><path d="M669.68 981v60.5m0-60.47V980" stroke="#000" stroke-width="2" fill="none"/><path d="M669.68 1056.76l-4.63-14.26h9.27z" stroke="#000" stroke-width="2"/><path d="M261 1579h440v22.5h-2V1581H259V985.4h2zm318-722.44H261v61.1h-2v-63.1h320z"/><path d="M580 856.56h-1.03v-2H580zm120 760.2l-4.64-14.26h9.28z"/><path d="M700 1620l-6-18.5h12zm-3.26-16.5l3.26 10.03 3.26-10.03z"/><use xlink:href="#o" transform="translate(260.005 926.74)"/><use xlink:href="#o" transform="translate(191.13 945.674)"/><use xlink:href="#p" transform="translate(218.08 967.274)"/><use xlink:href="#q" transform="translate(260.005 981.763)"/><path d="M438.64 1730.3c-3.28 0-6-2.78-6-6.17 0-3.4 2.72-6.03 6-6.03 3.12 0 5.84 2.77 5.84 6.03 0 3.4-2.72 6.17-5.84 6.17zm11.44-21.2l-4.88 2.48-2.8-1.3-1.84-5.28h-4.16l-1.68 5.27-2.8 1.3-4.96-2.34-3.04 3.05 2.4 5-1.2 2.97-5.12 1.8v4.37l5.12 1.73 1.2 2.9-2.4 5.14 3.04 3.1 4.8-2.5 2.8 1.26 1.84 5.27h4.16l1.68-5.27 2.88-1.25 4.96 2.37 2.96-3.12-2.4-5 1.2-3.1 5.12-1.8v-4.38l-5.12-1.73-1.2-2.9 2.4-5.14-2.96-2.9z" fill="#c1e4f7"/><path d="M473.76 1756.15c-4.64 0-8.4-3.95-8.4-8.73 0-4.8 3.76-8.67 8.4-8.67 4.64 0 8.24 3.88 8.24 8.67.16 4.85-3.6 8.73-8.24 8.73zm16.32-30.15l-6.72 3.6-4.08-1.73-2.56-7.48h-6l-2.24 7.47-4.24 1.73-6.88-3.4-4.24 4.37 3.44 7-1.68 4.16-7.2 2.64v6.16l7.2 2.5 1.84 4.16-3.28 7.13 4.16 4.36 6.8-3.54 4.08 1.66 2.56 7.5h6l2.4-7.5 4-1.66 6.88 3.4 4.24-4.37-3.44-7 1.68-4.38 7.2-2.63v-6.25l-7.2-2.5-1.68-4.15 3.28-7.14-4.32-4.16z" fill="#c1e4f7"/><use xlink:href="#a" transform="translate(437.525 1797.707)"/><path d="M627.96 1710.45c-4.92 0-9-4.02-9-8.95 0-4.92 4.08-8.74 9-8.74 4.68 0 8.76 4.02 8.76 8.74 0 4.93-4.08 8.95-8.76 8.95zm17.16-30.77l-7.32 3.62-4.2-1.9-2.76-7.65h-6.24l-2.52 7.64-4.2 1.9-7.44-3.42-4.56 4.43 3.6 7.25-1.8 4.32-7.68 2.62v6.32l7.68 2.52 1.8 4.22-3.6 7.44 4.56 4.53 7.2-3.62 4.2 1.82 2.76 7.64h6.24l2.52-7.64 4.32-1.8 7.44 3.4 4.44-4.52-3.6-7.24 1.8-4.53 7.68-2.6v-6.35l-7.68-2.5-1.8-4.23 3.6-7.44-4.44-4.22z" fill="#c7e8ac"/><path d="M680.64 1747.96c-6.96 0-12.6-5.73-12.6-12.67 0-6.95 5.64-12.58 12.6-12.58s12.36 5.63 12.36 12.57c.24 7.03-5.4 12.66-12.36 12.66zm24.48-43.74l-10.08 5.23-6.12-2.52-3.84-10.86h-9l-3.36 10.86-6.36 2.52-10.32-4.93-6.36 6.34 5.16 10.15-2.52 6.05-10.8 3.82v8.95l10.8 3.62 2.76 6.03-4.92 10.36 6.24 6.33 10.2-5.13 6.12 2.42 3.84 10.86h9l3.6-10.85 6-2.42 10.32 4.93 6.36-6.33-5.16-10.16 2.52-6.34 10.8-3.82v-9.04l-10.8-3.62-2.52-6.03 4.92-10.35-6.48-6.03z" fill="#c7e8ac"/><use xlink:href="#c" transform="translate(628.525 1797.707)"/><path d="M806 1926.75v-48h138v48m-280 0v-48h138v48m-422 0v-48h138v48" stroke="#5e5e5e" stroke-width="2" fill="#bfbfbf"/><path d="M380 1910.75h142v-32h138v32h285v168H380z" stroke="#5e5e5e" stroke-width="2" fill="#fff"/><path d="M913 1910.75h32v136h-32z" stroke="#5e5e5e" stroke-width="2" fill="#fff"/><path d="M917 1914.75h24v24h-24z" stroke="#5e5e5e" stroke-width="2" fill="none"/><path d="M921.8 1931.55h14.4l-7.2-9.6z" stroke="#5e5e5e" stroke-width="2" fill="#5e5e5e"/><path d="M917 1942.75h24v40h-24zm4 16h16m-16 4h16m-16 4h16m-20 76h24v-24h-24z" stroke="#5e5e5e" stroke-width="2" fill="none"/><path d="M921.8 2025.95h14.4l-7.2 9.6z" stroke="#5e5e5e" stroke-width="2" fill="#5e5e5e"/><path d="M380 2046.75v32h533v-32z" stroke="#5e5e5e" stroke-width="2" fill="#fff"/><path d="M384 2050.75v24h24v-24z" stroke="#5e5e5e" stroke-width="2" fill="none"/><path d="M400.8 2055.55v14.4l-9.6-7.2z" stroke="#5e5e5e" stroke-width="2" fill="#5e5e5e"/><path d="M412 2050.75h238.5v24H412zm115.25 4v16m4-16v16m4-16v16m373.75-20v24h-24v-24z" stroke="#5e5e5e" stroke-width="2" fill="none"/><path d="M892.2 2055.55v14.4l9.6-7.2z" stroke="#5e5e5e" stroke-width="2" fill="#5e5e5e"/><use xlink:href="#e" transform="translate(418.45 1901.706)"/><use xlink:href="#g" transform="translate(559.235 1901.706)"/><use xlink:href="#f" transform="translate(685.056 1901.706)"/><use xlink:href="#h" transform="translate(841.333 1901.706)"/><path d="M479.67 1876.75c0 .55-.45 1-1 1-.56 0-1-.45-1-1s.44-1 1-1c.55 0 1 .45 1 1zm0-7.75c0 .55-.45 1-1 1-.56 0-1-.45-1-1s.44-1 1-1c.55 0 1 .45 1 1zm0-7.75c0 .55-.45 1-1 1-.56 0-1-.45-1-1s.44-1 1-1c.55 0 1 .45 1 1zm0-7.75c0 .55-.45 1-1 1-.56 0-1-.45-1-1s.44-1 1-1c.55 0 1 .45 1 1zm0-7.75c0 .55-.45 1-1 1-.56 0-1-.45-1-1s.44-1 1-1c.55 0 1 .45 1 1zm0-7.75c0 .55-.45 1-1 1-.56 0-1-.45-1-1s.44-1 1-1c.55 0 1 .45 1 1zm0-7.75c0 .55-.45 1-1 1-.56 0-1-.45-1-1s.44-1 1-1c.55 0 1 .45 1 1zm0-7.75c0 .55-.45 1-1 1-.56 0-1-.45-1-1s.44-1 1-1c.55 0 1 .45 1 1z"/><path d="M479.67 1877.75h-2v-1.03h2z"/><path d="M478.67 1814.78v-1.03" stroke="#000" stroke-width="2" fill="none"/><path d="M663.6 1908.75c0 .55-.43 1-1 1-.54 0-1-.45-1-1s.46-1 1-1c.57 0 1 .45 1 1zm0-7.84c0 .56-.43 1-1 1-.54 0-1-.44-1-1 0-.54.46-1 1-1 .57 0 1 .46 1 1zm0-7.83c0 .56-.43 1-1 1-.54 0-1-.44-1-1 0-.55.46-1 1-1 .57 0 1 .45 1 1zm0-7.83c0 .55-.43 1-1 1-.54 0-1-.45-1-1 0-.56.46-1 1-1 .57 0 1 .44 1 1zm0-7.84c0 .55-.43 1-1 1-.54 0-1-.45-1-1s.46-1 1-1c.57 0 1 .45 1 1zm0-7.84c0 .55-.43 1-1 1-.54 0-1-.45-1-1s.46-1 1-1c.57 0 1 .45 1 1zm.04-7.8c0 .54-.45 1-1 1s-1-.46-1-1c0-.56.45-1 1-1s1 .44 1 1zm.03-7.82c0 .55-.45 1-1 1-.56 0-1-.45-1-1s.44-1 1-1c.55 0 1 .45 1 1zm0-7.84c0 .55-.45 1-1 1-.56 0-1-.45-1-1s.44-1 1-1c.55 0 1 .45 1 1zm0-7.84c0 .56-.45 1-1 1-.56 0-1-.44-1-1 0-.55.44-1 1-1 .55 0 1 .45 1 1zm0-7.83c0 .55-.45 1-1 1-.56 0-1-.45-1-1 0-.56.44-1 1-1 .55 0 1 .44 1 1zm0-7.84c0 .54-.45 1-1 1-.56 0-1-.46-1-1 0-.56.44-1 1-1 .55 0 1 .44 1 1z"/><path d="M663 1909.75h-1.4v-1.03h1.4z"/><path d="M662.67 1814.78v-1.03" stroke="#000" stroke-width="2" fill="none"/><path d="M410 1933.75h145V2020H410zm145 40H410" stroke="#5e5e5e" stroke-width="2" fill="#fff"/><path d="M519 1937.75h32v32h-32zm8 8l16 16m0-16l-16 16" stroke="#5e5e5e" stroke-width="2" fill="none"/><path d="M840.97 1730.3c-3.7 0-6.75-2.78-6.75-6.17 0-3.4 3.06-6.03 6.75-6.03 3.5 0 6.57 2.77 6.57 6.03 0 3.4-3.06 6.17-6.57 6.17zm12.87-21.2l-5.5 2.48-3.14-1.3-2.07-5.28h-4.68l-1.9 5.27-3.14 1.3-5.57-2.34-3.42 3.05 2.7 5-1.34 2.97-5.76 1.8v4.37l5.76 1.73 1.35 2.9-2.7 5.14 3.43 3.1 5.4-2.5 3.15 1.26 2.07 5.27h4.68l1.9-5.27 3.23-1.25 5.58 2.37 3.33-3.12-2.7-5 1.35-3.1 5.76-1.8v-4.38l-5.76-1.73-1.35-2.9 2.7-5.14-3.33-2.9z" fill="#ffdba9"/><path d="M880.48 1756.15c-5.22 0-9.45-3.95-9.45-8.73 0-4.8 4.23-8.67 9.45-8.67 5.22 0 9.27 3.88 9.27 8.67.18 4.85-4.05 8.73-9.27 8.73zm18.36-30.15l-7.56 3.6-4.6-1.73-2.87-7.48h-6.74l-2.52 7.47-4.77 1.73-7.74-3.4-4.77 4.37 3.87 7-1.9 4.16-8.1 2.64v6.16l8.1 2.5 2.08 4.16-3.68 7.13 4.68 4.36 7.65-3.54 4.6 1.66 2.87 7.5h6.75l2.7-7.5 4.5-1.66 7.74 3.4 4.78-4.37-3.87-7 1.9-4.38 8.1-2.63v-6.25l-8.1-2.5-1.9-4.15 3.7-7.14-4.86-4.16z" fill="#ffdba9"/><use xlink:href="#r" transform="translate(809.1 1797.707)"/><use xlink:href="#q" transform="translate(876 1797.707)"/><path d="M851.24 1876.75c0 .55-.45 1-1 1s-1-.45-1-1 .45-1 1-1 1 .45 1 1zm0-7.78c0 .55-.45 1-1 1s-1-.45-1-1 .45-1 1-1 1 .45 1 1zm0-7.78c0 .54-.45 1-1 1s-1-.46-1-1c0-.56.45-1 1-1s1 .44 1 1zm0-7.8c0 .56-.45 1-1 1s-1-.44-1-1c0-.54.45-1 1-1s1 .46 1 1zm-.12-7.65c0 .55-.45 1-1 1s-1-.45-1-1 .45-1 1-1 1 .45 1 1zm-.12-7.66c0 .54-.45 1-1 1s-1-.46-1-1c0-.56.45-1 1-1s1 .44 1 1zm0-7.8c0 .56-.45 1-1 1s-1-.44-1-1c0-.54.45-1 1-1s1 .46 1 1zm0-7.77c0 .55-.45 1-1 1s-1-.45-1-1 .45-1 1-1 1 .45 1 1z"/><path d="M850.24 1876.72v1.03m-.24-62.97v-1.03" stroke="#000" stroke-width="2" fill="none"/><path d="M512.62 1703.67c-5.74 0-10.5-4.5-10.5-10.04 0-5.52 4.76-9.8 10.5-9.8 5.46 0 10.22 4.5 10.22 9.8 0 5.53-4.76 10.04-10.22 10.04zm20.02-34.5l-8.54 4.05-4.9-2.15-3.22-8.57h-7.28l-2.94 8.57-4.9 2.15-8.68-3.84-5.32 4.96 4.2 8.13-2.1 4.85-8.96 2.93v7.1l8.96 2.83 2.1 4.74-4.2 8.34 5.32 5.08 8.4-4.06 4.9 2.03 3.22 8.58h7.28l2.94-8.57 5.04-2.02 8.68 3.83 5.18-5.06-4.2-8.12 2.1-5.08 8.96-2.93v-7.1l-8.96-2.82-2.1-4.74 4.2-8.35-5.18-4.74z" fill="#99d5ca"/><path d="M574.08 1745.75c-8.12 0-14.7-6.43-14.7-14.2 0-7.8 6.58-14.1 14.7-14.1s14.42 6.3 14.42 14.1c.28 7.88-6.3 14.2-14.42 14.2zm28.56-49.07l-11.76 5.87-7.14-2.82-4.48-12.2h-10.5l-3.92 12.2-7.42 2.82-12.04-5.53-7.42 7.1 6.02 11.4-2.94 6.77-12.6 4.27v10.04l12.6 4.08 3.22 6.76-5.74 11.62 7.28 7.1 11.9-5.74 7.14 2.7 4.48 12.2h10.5l4.2-12.2 7-2.7 12.04 5.52 7.42-7.1-6.02-11.4 2.94-7.1 12.6-4.3v-10.14l-12.6-4.06-2.94-6.77 5.74-11.62-7.56-6.77z" fill="#99d5ca"/><use xlink:href="#b" transform="translate(514.55 1798.707)"/><path d="M712.62 1703.3c-5.74 0-10.5-4.46-10.5-9.94 0-5.48 4.76-9.73 10.5-9.73 5.46 0 10.22 4.47 10.22 9.73 0 5.48-4.76 9.95-10.22 9.95zm20.02-34.2l-8.54 4.02-4.9-2.12-3.22-8.5h-7.28l-2.94 8.5-4.9 2.12-8.68-3.8-5.32 4.92 4.2 8.05-2.1 4.8-8.96 2.9v7.05l8.96 2.8 2.1 4.7-4.2 8.26 5.32 5.04 8.4-4.02 4.9 2 3.22 8.5h7.28l2.94-8.5 5.04-2 8.68 3.8 5.18-5.03-4.2-8.06 2.1-5.03 8.96-2.9v-7.04l-8.96-2.8-2.1-4.7 4.2-8.27-5.18-4.7z" fill="#f9d2de"/><path d="M774.08 1745c-8.12 0-14.7-6.36-14.7-14.07 0-7.72 6.58-13.98 14.7-13.98s14.42 6.26 14.42 13.98c.28 7.82-6.3 14.08-14.42 14.08zm28.56-48.62l-11.76 5.8-7.14-2.78-4.48-12.08h-10.5l-3.92 12.08-7.42 2.8-12.04-5.5-7.42 7.06 6.02 11.3-2.94 6.7-12.6 4.25v9.96l12.6 4.02 3.22 6.7-5.74 11.53 7.28 7.05 11.9-5.7 7.14 2.68 4.48 12.08h10.5l4.2-12.07 7-2.68 12.04 5.48 7.42-7.05-6.02-11.3 2.94-7.03 12.6-4.25v-10.06l-12.6-4.03-2.94-6.7 5.74-11.5-7.56-6.72z" fill="#f9d2de"/><use xlink:href="#d" transform="translate(737.025 1797.707)"/><path d="M561.24 1877.75c0 .55-.45 1-1 1s-1-.45-1-1 .45-1 1-1 1 .45 1 1zm0-7.78c0 .55-.45 1-1 1s-1-.45-1-1 .45-1 1-1 1 .45 1 1zm0-7.78c0 .54-.45 1-1 1s-1-.46-1-1c0-.56.45-1 1-1s1 .44 1 1zm0-7.8c0 .56-.45 1-1 1s-1-.44-1-1c0-.54.45-1 1-1s1 .46 1 1zm-.12-7.65c0 .55-.45 1-1 1s-1-.45-1-1 .45-1 1-1 1 .45 1 1zm-.12-7.66c0 .54-.45 1-1 1s-1-.46-1-1c0-.56.45-1 1-1s1 .44 1 1zm0-7.8c0 .56-.45 1-1 1s-1-.44-1-1c0-.54.45-1 1-1s1 .46 1 1zm0-7.77c0 .55-.45 1-1 1s-1-.45-1-1 .45-1 1-1 1 .45 1 1z"/><path d="M560.24 1877.72v1.03m-.24-62.97v-1.03" stroke="#000" stroke-width="2" fill="none"/><path d="M740.32 1876.75c0 .55-.45 1-1 1s-1-.45-1-1 .45-1 1-1 1 .45 1 1zm0-7.84c0 .57-.45 1-1 1s-1-.43-1-1c0-.54.45-1 1-1s1 .46 1 1zm0-7.82c0 .55-.45 1-1 1s-1-.45-1-1 .45-1 1-1 1 .45 1 1zm0-7.84c0 .56-.45 1-1 1s-1-.44-1-1c0-.55.45-1 1-1s1 .45 1 1zm.34-7.5c0 .56-.45 1-1 1s-1-.44-1-1c0-.54.45-1 1-1s1 .46 1 1zm.34-7.48c0 .55-.45 1-1 1s-1-.45-1-1c0-.56.45-1 1-1s1 .44 1 1zm0-7.84c0 .55-.45 1-1 1s-1-.45-1-1 .45-1 1-1 1 .45 1 1zm0-7.83c0 .54-.45 1-1 1s-1-.46-1-1c0-.57.45-1 1-1s1 .43 1 1z"/><path d="M739.32 1876.72v1.03m.68-62.97v-1.03" stroke="#000" stroke-width="2" fill="none"/><path d="M447.96 1135.45c-4.92 0-9-4.02-9-8.95 0-4.92 4.08-8.74 9-8.74 4.68 0 8.76 4.02 8.76 8.74 0 4.93-4.08 8.95-8.76 8.95zm17.16-30.77l-7.32 3.62-4.2-1.9-2.76-7.65h-6.24l-2.52 7.64-4.2 1.9-7.44-3.42-4.56 4.43 3.6 7.25-1.8 4.32-7.68 2.62v6.32l7.68 2.52 1.8 4.22-3.6 7.44 4.56 4.53 7.2-3.62 4.2 1.82 2.76 7.64h6.24l2.52-7.64 4.32-1.8 7.44 3.4 4.44-4.52-3.6-7.24 1.8-4.53 7.68-2.6v-6.35l-7.68-2.5-1.8-4.23 3.6-7.44-4.44-4.22z" fill="#c1e4f7"/><path d="M500.64 1172.96c-6.96 0-12.6-5.73-12.6-12.67 0-6.95 5.64-12.58 12.6-12.58s12.36 5.63 12.36 12.57c.24 7.03-5.4 12.66-12.36 12.66zm24.48-43.74l-10.08 5.23-6.12-2.52-3.84-10.86h-9l-3.36 10.86-6.36 2.52-10.32-4.93-6.36 6.34 5.16 10.15-2.52 6.05-10.8 3.82v8.95l10.8 3.62 2.76 6.03-4.92 10.36 6.24 6.33 10.2-5.13 6.12 2.42 3.84 10.86h9l3.6-10.85 6-2.42 10.32 4.93 6.36-6.33-5.16-10.16 2.52-6.34 10.8-3.82v-9.04l-10.8-3.62-2.52-6.03 4.92-10.35-6.48-6.03z" fill="#c1e4f7"/><use xlink:href="#a" transform="translate(457.525 1222.707)"/><path d="M627.96 1135.45c-4.92 0-9-4.02-9-8.95 0-4.92 4.08-8.74 9-8.74 4.68 0 8.76 4.02 8.76 8.74 0 4.93-4.08 8.95-8.76 8.95zm17.16-30.77l-7.32 3.62-4.2-1.9-2.76-7.65h-6.24l-2.52 7.64-4.2 1.9-7.44-3.42-4.56 4.43 3.6 7.25-1.8 4.32-7.68 2.62v6.32l7.68 2.52 1.8 4.22-3.6 7.44 4.56 4.53 7.2-3.62 4.2 1.82 2.76 7.64h6.24l2.52-7.64 4.32-1.8 7.44 3.4 4.44-4.52-3.6-7.24 1.8-4.53 7.68-2.6v-6.35l-7.68-2.5-1.8-4.23 3.6-7.44-4.44-4.22z" fill="#c7e8ac"/><path d="M680.64 1172.96c-6.96 0-12.6-5.73-12.6-12.67 0-6.95 5.64-12.58 12.6-12.58s12.36 5.63 12.36 12.57c.24 7.03-5.4 12.66-12.36 12.66zm24.48-43.74l-10.08 5.23-6.12-2.52-3.84-10.86h-9l-3.36 10.86-6.36 2.52-10.32-4.93-6.36 6.34 5.16 10.15-2.52 6.05-10.8 3.82v8.95l10.8 3.62 2.76 6.03-4.92 10.36 6.24 6.33 10.2-5.13 6.12 2.42 3.84 10.86h9l3.6-10.85 6-2.42 10.32 4.93 6.36-6.33-5.16-10.16 2.52-6.34 10.8-3.82v-9.04l-10.8-3.62-2.52-6.03 4.92-10.35-6.48-6.03z" fill="#c7e8ac"/><use xlink:href="#c" transform="translate(628.525 1222.707)"/><path d="M569 1351.75v-48h185v48m-374 0v-48h185v48" stroke="#5e5e5e" stroke-width="2" fill="#bfbfbf"/><path d="M380 1335.75h378v-32h185v32h2v168H380z" stroke="#5e5e5e" stroke-width="2" fill="#fff"/><path d="M913 1335.75h32v168h-32z" stroke="#5e5e5e" stroke-width="2" fill="#fff"/><path d="M917 1339.75h24v24h-24z" stroke="#5e5e5e" stroke-width="2" fill="none"/><path d="M921.8 1356.55h14.4l-7.2-9.6z" stroke="#5e5e5e" stroke-width="2" fill="#5e5e5e"/><path d="M917 1367.75h24v56h-24zm4 24h16m-16 4h16m-16 4h16m-20 100h24v-24h-24z" stroke="#5e5e5e" stroke-width="2" fill="none"/><path d="M921.8 1482.95h14.4l-7.2 9.6z" stroke="#5e5e5e" stroke-width="2" fill="#5e5e5e"/><use xlink:href="#e" transform="translate(441.95 1326.706)"/><use xlink:href="#g" transform="translate(629.735 1326.706)"/><use xlink:href="#s" transform="translate(773.285 1326.706)"/><use xlink:href="#t" transform="translate(856.703 1326.706)"/><path d="M479.67 1301.75c0 .55-.45 1-1 1-.56 0-1-.45-1-1s.44-1 1-1c.55 0 1 .45 1 1zm0-7.75c0 .55-.45 1-1 1-.56 0-1-.45-1-1s.44-1 1-1c.55 0 1 .45 1 1zm0-7.75c0 .55-.45 1-1 1-.56 0-1-.45-1-1s.44-1 1-1c.55 0 1 .45 1 1zm0-7.75c0 .55-.45 1-1 1-.56 0-1-.45-1-1s.44-1 1-1c.55 0 1 .45 1 1zm0-7.75c0 .55-.45 1-1 1-.56 0-1-.45-1-1s.44-1 1-1c.55 0 1 .45 1 1zm0-7.75c0 .55-.45 1-1 1-.56 0-1-.45-1-1s.44-1 1-1c.55 0 1 .45 1 1zm0-7.75c0 .55-.45 1-1 1-.56 0-1-.45-1-1s.44-1 1-1c.55 0 1 .45 1 1zm0-7.75c0 .55-.45 1-1 1-.56 0-1-.45-1-1s.44-1 1-1c.55 0 1 .45 1 1z"/><path d="M479.67 1302.75h-2v-1.03h2z"/><path d="M478.67 1239.78v-1.03" stroke="#000" stroke-width="2" fill="none"/><path d="M663.67 1301.75c0 .55-.45 1-1 1-.56 0-1-.45-1-1s.44-1 1-1c.55 0 1 .45 1 1zm0-7.75c0 .55-.45 1-1 1-.56 0-1-.45-1-1s.44-1 1-1c.55 0 1 .45 1 1zm0-7.75c0 .55-.45 1-1 1-.56 0-1-.45-1-1s.44-1 1-1c.55 0 1 .45 1 1zm0-7.75c0 .55-.45 1-1 1-.56 0-1-.45-1-1s.44-1 1-1c.55 0 1 .45 1 1zm0-7.75c0 .55-.45 1-1 1-.56 0-1-.45-1-1s.44-1 1-1c.55 0 1 .45 1 1zm0-7.75c0 .55-.45 1-1 1-.56 0-1-.45-1-1s.44-1 1-1c.55 0 1 .45 1 1zm0-7.75c0 .55-.45 1-1 1-.56 0-1-.45-1-1s.44-1 1-1c.55 0 1 .45 1 1zm0-7.75c0 .55-.45 1-1 1-.56 0-1-.45-1-1s.44-1 1-1c.55 0 1 .45 1 1z"/><path d="M663.67 1302.75h-2v-1.03h2z"/><path d="M662.67 1239.78v-1.03" stroke="#000" stroke-width="2" fill="none"/><path d="M400 1358.75h245v125H400zm245 40H400" stroke="#5e5e5e" stroke-width="2" fill="#fff"/><path d="M609 1362.75h32v32h-32zm8 8l16 16m0-16l-16 16" stroke="#5e5e5e" stroke-width="2" fill="none"/><path d="M817.96 1135.45c-4.92 0-9-4.02-9-8.95 0-4.92 4.08-8.74 9-8.74 4.68 0 8.76 4.02 8.76 8.74 0 4.93-4.08 8.95-8.76 8.95zm17.16-30.77l-7.32 3.62-4.2-1.9-2.76-7.65h-6.24l-2.52 7.64-4.2 1.9-7.44-3.42-4.56 4.43 3.6 7.25-1.8 4.32-7.68 2.62v6.32l7.68 2.52 1.8 4.22-3.6 7.44 4.56 4.53 7.2-3.62 4.2 1.82 2.76 7.64h6.24l2.52-7.64 4.32-1.8 7.44 3.4 4.44-4.52-3.6-7.24 1.8-4.53 7.68-2.6v-6.35l-7.68-2.5-1.8-4.23 3.6-7.44-4.44-4.22z" fill="#ffdba9"/><path d="M870.64 1172.96c-6.96 0-12.6-5.73-12.6-12.67 0-6.95 5.64-12.58 12.6-12.58s12.36 5.63 12.36 12.57c.24 7.03-5.4 12.66-12.36 12.66zm24.48-43.74l-10.08 5.23-6.12-2.52-3.84-10.86h-9l-3.36 10.86-6.36 2.52-10.32-4.93-6.36 6.34 5.16 10.15-2.52 6.05-10.8 3.82v8.95l10.8 3.62 2.76 6.03-4.92 10.36 6.24 6.33 10.2-5.13 6.12 2.42 3.84 10.86h9l3.6-10.85 6-2.42 10.32 4.93 6.36-6.33-5.16-10.16 2.52-6.34 10.8-3.82v-9.04l-10.8-3.62-2.52-6.03 4.92-10.35-6.48-6.03z" fill="#ffdba9"/><use xlink:href="#r" transform="translate(794.1 1222.707)"/><use xlink:href="#q" transform="translate(861 1222.707)"/><path d="M851.24 1301.75c0 .55-.45 1-1 1s-1-.45-1-1 .45-1 1-1 1 .45 1 1zm0-7.78c0 .55-.45 1-1 1s-1-.45-1-1 .45-1 1-1 1 .45 1 1zm0-7.78c0 .54-.45 1-1 1s-1-.46-1-1c0-.56.45-1 1-1s1 .44 1 1zm0-7.8c0 .56-.45 1-1 1s-1-.44-1-1c0-.54.45-1 1-1s1 .46 1 1zm-.12-7.65c0 .55-.45 1-1 1s-1-.45-1-1 .45-1 1-1 1 .45 1 1zm-.12-7.66c0 .54-.45 1-1 1s-1-.46-1-1c0-.56.45-1 1-1s1 .44 1 1zm0-7.8c0 .56-.45 1-1 1s-1-.44-1-1c0-.54.45-1 1-1s1 .46 1 1zm0-7.77c0 .55-.45 1-1 1s-1-.45-1-1 .45-1 1-1 1 .45 1 1z"/><path d="M850.24 1301.72v1.03m-.24-62.97v-1.03" stroke="#000" stroke-width="2" fill="none"/><path d="M1020 1098.75h160v405h-160z" fill="none"/><path d="M1020 1503.75c5.52 0 10-4.48 10-10v-182.5c0-5.52 4.48-10 10-10-5.52 0-10-4.48-10-10v-182.5c0-5.52-4.48-10-10-10" fill="none"/><path d="M1021 1503.75c0 .55-.45 1-1 1s-1-.45-1-1 .45-1 1-1 1 .45 1 1zm7-3c0 .54-.46 1-1 1-.56 0-1-.46-1-1 0-.56.44-1 1-1 .54 0 1 .44 1 1zm3-7c0 .55-.45 1-1 1s-1-.45-1-1 .45-1 1-1 1 .45 1 1zm0-7.93c0 .55-.45 1-1 1s-1-.45-1-1c0-.56.45-1 1-1s1 .44 1 1zm0-7.94c0 .55-.45 1-1 1s-1-.45-1-1 .45-1 1-1 1 .45 1 1zm0-7.93c0 .55-.45 1-1 1s-1-.45-1-1c0-.56.45-1 1-1s1 .44 1 1zm0-7.94c0 .56-.45 1-1 1s-1-.44-1-1c0-.54.45-1 1-1s1 .46 1 1zm0-7.92c0 .55-.45 1-1 1s-1-.45-1-1c0-.56.45-1 1-1s1 .44 1 1zm0-7.94c0 .55-.45 1-1 1s-1-.45-1-1 .45-1 1-1 1 .45 1 1zm0-7.93c0 .56-.45 1-1 1s-1-.44-1-1c0-.55.45-1 1-1s1 .45 1 1zm0-7.93c0 .55-.45 1-1 1s-1-.45-1-1 .45-1 1-1 1 .45 1 1zm0-7.93c0 .55-.45 1-1 1s-1-.45-1-1c0-.56.45-1 1-1s1 .44 1 1zm0-7.94c0 .55-.45 1-1 1s-1-.45-1-1 .45-1 1-1 1 .45 1 1zm0-7.93c0 .55-.45 1-1 1s-1-.45-1-1 .45-1 1-1 1 .45 1 1zm0-7.94c0 .55-.45 1-1 1s-1-.45-1-1 .45-1 1-1 1 .45 1 1zm0-7.93c0 .55-.45 1-1 1s-1-.45-1-1 .45-1 1-1 1 .45 1 1zm0-7.94c0 .56-.45 1-1 1s-1-.44-1-1c0-.55.45-1 1-1s1 .45 1 1zm0-7.93c0 .55-.45 1-1 1s-1-.45-1-1 .45-1 1-1 1 .45 1 1zm0-7.94c0 .55-.45 1-1 1s-1-.45-1-1c0-.56.45-1 1-1s1 .44 1 1zm0-7.94c0 .55-.45 1-1 1s-1-.45-1-1 .45-1 1-1 1 .45 1 1zm0-7.94c0 .56-.45 1-1 1s-1-.44-1-1c0-.55.45-1 1-1s1 .45 1 1zm0-7.93c0 .54-.45 1-1 1s-1-.46-1-1c0-.56.45-1 1-1s1 .44 1 1zm0-7.95c0 .56-.45 1-1 1s-1-.44-1-1c0-.55.45-1 1-1s1 .45 1 1zm0-7.93c0 .55-.45 1-1 1s-1-.45-1-1 .45-1 1-1 1 .45 1 1zm0-7.94c0 .56-.45 1-1 1s-1-.44-1-1c0-.55.45-1 1-1s1 .45 1 1zm0-7.93c0 .55-.45 1-1 1s-1-.45-1-1 .45-1 1-1 1 .45 1 1zm3-7c0 .56-.44 1-1 1-.54 0-1-.44-1-1 0-.54.46-1 1-1 .56 0 1 .46 1 1zm7-3c0 .55-.45 1-1 1s-1-.45-1-1 .45-1 1-1 1 .45 1 1zm-7-3c0 .54-.44 1-1 1-.54 0-1-.46-1-1 0-.56.46-1 1-1 .56 0 1 .44 1 1zm-3-7c0 .55-.45 1-1 1s-1-.45-1-1 .45-1 1-1 1 .45 1 1zm0-7.93c0 .55-.45 1-1 1s-1-.45-1-1c0-.56.45-1 1-1s1 .44 1 1zm0-7.94c0 .55-.45 1-1 1s-1-.45-1-1 .45-1 1-1 1 .45 1 1zm0-7.93c0 .55-.45 1-1 1s-1-.45-1-1c0-.56.45-1 1-1s1 .44 1 1zm0-7.94c0 .56-.45 1-1 1s-1-.44-1-1c0-.54.45-1 1-1s1 .46 1 1zm0-7.92c0 .55-.45 1-1 1s-1-.45-1-1c0-.56.45-1 1-1s1 .44 1 1zm0-7.94c0 .55-.45 1-1 1s-1-.45-1-1 .45-1 1-1 1 .45 1 1zm0-7.93c0 .56-.45 1-1 1s-1-.44-1-1c0-.55.45-1 1-1s1 .45 1 1zm0-7.93c0 .55-.45 1-1 1s-1-.45-1-1 .45-1 1-1 1 .45 1 1zm0-7.93c0 .55-.45 1-1 1s-1-.45-1-1c0-.56.45-1 1-1s1 .44 1 1zm0-7.94c0 .55-.45 1-1 1s-1-.45-1-1 .45-1 1-1 1 .45 1 1zm0-7.93c0 .55-.45 1-1 1s-1-.45-1-1 .45-1 1-1 1 .45 1 1zm0-7.94c0 .55-.45 1-1 1s-1-.45-1-1 .45-1 1-1 1 .45 1 1zm0-7.93c0 .55-.45 1-1 1s-1-.45-1-1 .45-1 1-1 1 .45 1 1zm0-7.94c0 .56-.45 1-1 1s-1-.44-1-1c0-.55.45-1 1-1s1 .45 1 1zm0-7.93c0 .55-.45 1-1 1s-1-.45-1-1 .45-1 1-1 1 .45 1 1zm0-7.94c0 .55-.45 1-1 1s-1-.45-1-1c0-.56.45-1 1-1s1 .44 1 1zm0-7.94c0 .55-.45 1-1 1s-1-.45-1-1 .45-1 1-1 1 .45 1 1zm0-7.94c0 .56-.45 1-1 1s-1-.44-1-1c0-.55.45-1 1-1s1 .45 1 1zm0-7.93c0 .54-.45 1-1 1s-1-.46-1-1c0-.56.45-1 1-1s1 .44 1 1zm0-7.95c0 .56-.45 1-1 1s-1-.44-1-1c0-.55.45-1 1-1s1 .45 1 1zm0-7.93c0 .55-.45 1-1 1s-1-.45-1-1 .45-1 1-1 1 .45 1 1zm0-7.94c0 .56-.45 1-1 1s-1-.44-1-1c0-.55.45-1 1-1s1 .45 1 1zm0-7.93c0 .55-.45 1-1 1s-1-.45-1-1 .45-1 1-1 1 .45 1 1zm-2.93-7.07c0 .55-.45 1-1 1s-1-.45-1-1 .45-1 1-1 1 .45 1 1z"/><use xlink:href="#m" transform="translate(1055 1305.739)"/><use xlink:href="#u" transform="translate(1119.84 1305.739)"/><path d="M1020 1673.75h160v405h-160z" fill="none"/><path d="M1020 2078.75c5.52 0 10-4.48 10-10v-182.5c0-5.52 4.48-10 10-10-5.52 0-10-4.48-10-10v-182.5c0-5.52-4.48-10-10-10" fill="none"/><path d="M1021 2078.75c0 .55-.45 1-1 1s-1-.45-1-1 .45-1 1-1 1 .45 1 1zm7-3c0 .54-.46 1-1 1-.56 0-1-.46-1-1 0-.56.44-1 1-1 .54 0 1 .44 1 1zm3-7c0 .55-.45 1-1 1s-1-.45-1-1 .45-1 1-1 1 .45 1 1zm0-7.93c0 .55-.45 1-1 1s-1-.45-1-1c0-.56.45-1 1-1s1 .44 1 1zm0-7.94c0 .55-.45 1-1 1s-1-.45-1-1 .45-1 1-1 1 .45 1 1zm0-7.93c0 .55-.45 1-1 1s-1-.45-1-1c0-.56.45-1 1-1s1 .44 1 1zm0-7.94c0 .56-.45 1-1 1s-1-.44-1-1c0-.54.45-1 1-1s1 .46 1 1zm0-7.92c0 .55-.45 1-1 1s-1-.45-1-1c0-.56.45-1 1-1s1 .44 1 1zm0-7.94c0 .55-.45 1-1 1s-1-.45-1-1 .45-1 1-1 1 .45 1 1zm0-7.93c0 .56-.45 1-1 1s-1-.44-1-1c0-.55.45-1 1-1s1 .45 1 1zm0-7.93c0 .55-.45 1-1 1s-1-.45-1-1 .45-1 1-1 1 .45 1 1zm0-7.93c0 .55-.45 1-1 1s-1-.45-1-1c0-.56.45-1 1-1s1 .44 1 1zm0-7.94c0 .55-.45 1-1 1s-1-.45-1-1 .45-1 1-1 1 .45 1 1zm0-7.93c0 .55-.45 1-1 1s-1-.45-1-1 .45-1 1-1 1 .45 1 1zm0-7.94c0 .55-.45 1-1 1s-1-.45-1-1 .45-1 1-1 1 .45 1 1zm0-7.93c0 .55-.45 1-1 1s-1-.45-1-1 .45-1 1-1 1 .45 1 1zm0-7.94c0 .56-.45 1-1 1s-1-.44-1-1c0-.55.45-1 1-1s1 .45 1 1zm0-7.93c0 .55-.45 1-1 1s-1-.45-1-1 .45-1 1-1 1 .45 1 1zm0-7.94c0 .55-.45 1-1 1s-1-.45-1-1c0-.56.45-1 1-1s1 .44 1 1zm0-7.94c0 .55-.45 1-1 1s-1-.45-1-1 .45-1 1-1 1 .45 1 1zm0-7.94c0 .56-.45 1-1 1s-1-.44-1-1c0-.55.45-1 1-1s1 .45 1 1zm0-7.93c0 .54-.45 1-1 1s-1-.46-1-1c0-.56.45-1 1-1s1 .44 1 1zm0-7.95c0 .56-.45 1-1 1s-1-.44-1-1c0-.55.45-1 1-1s1 .45 1 1zm0-7.93c0 .55-.45 1-1 1s-1-.45-1-1 .45-1 1-1 1 .45 1 1zm0-7.94c0 .56-.45 1-1 1s-1-.44-1-1c0-.55.45-1 1-1s1 .45 1 1zm0-7.93c0 .55-.45 1-1 1s-1-.45-1-1 .45-1 1-1 1 .45 1 1zm3-7c0 .56-.44 1-1 1-.54 0-1-.44-1-1 0-.54.46-1 1-1 .56 0 1 .46 1 1zm7-3c0 .55-.45 1-1 1s-1-.45-1-1 .45-1 1-1 1 .45 1 1zm-7-3c0 .54-.44 1-1 1-.54 0-1-.46-1-1 0-.56.46-1 1-1 .56 0 1 .44 1 1zm-3-7c0 .55-.45 1-1 1s-1-.45-1-1 .45-1 1-1 1 .45 1 1zm0-7.93c0 .55-.45 1-1 1s-1-.45-1-1c0-.56.45-1 1-1s1 .44 1 1zm0-7.94c0 .55-.45 1-1 1s-1-.45-1-1 .45-1 1-1 1 .45 1 1zm0-7.93c0 .55-.45 1-1 1s-1-.45-1-1c0-.56.45-1 1-1s1 .44 1 1zm0-7.94c0 .56-.45 1-1 1s-1-.44-1-1c0-.54.45-1 1-1s1 .46 1 1zm0-7.92c0 .55-.45 1-1 1s-1-.45-1-1c0-.56.45-1 1-1s1 .44 1 1zm0-7.94c0 .55-.45 1-1 1s-1-.45-1-1 .45-1 1-1 1 .45 1 1zm0-7.93c0 .56-.45 1-1 1s-1-.44-1-1c0-.55.45-1 1-1s1 .45 1 1zm0-7.93c0 .55-.45 1-1 1s-1-.45-1-1 .45-1 1-1 1 .45 1 1zm0-7.93c0 .55-.45 1-1 1s-1-.45-1-1c0-.56.45-1 1-1s1 .44 1 1zm0-7.94c0 .55-.45 1-1 1s-1-.45-1-1 .45-1 1-1 1 .45 1 1zm0-7.93c0 .55-.45 1-1 1s-1-.45-1-1 .45-1 1-1 1 .45 1 1zm0-7.94c0 .55-.45 1-1 1s-1-.45-1-1 .45-1 1-1 1 .45 1 1zm0-7.93c0 .55-.45 1-1 1s-1-.45-1-1 .45-1 1-1 1 .45 1 1zm0-7.94c0 .56-.45 1-1 1s-1-.44-1-1c0-.55.45-1 1-1s1 .45 1 1zm0-7.93c0 .55-.45 1-1 1s-1-.45-1-1 .45-1 1-1 1 .45 1 1zm0-7.94c0 .55-.45 1-1 1s-1-.45-1-1c0-.56.45-1 1-1s1 .44 1 1zm0-7.94c0 .55-.45 1-1 1s-1-.45-1-1 .45-1 1-1 1 .45 1 1zm0-7.94c0 .56-.45 1-1 1s-1-.44-1-1c0-.55.45-1 1-1s1 .45 1 1zm0-7.93c0 .54-.45 1-1 1s-1-.46-1-1c0-.56.45-1 1-1s1 .44 1 1zm0-7.95c0 .56-.45 1-1 1s-1-.44-1-1c0-.55.45-1 1-1s1 .45 1 1zm0-7.93c0 .55-.45 1-1 1s-1-.45-1-1 .45-1 1-1 1 .45 1 1zm0-7.94c0 .56-.45 1-1 1s-1-.44-1-1c0-.55.45-1 1-1s1 .45 1 1zm0-7.93c0 .55-.45 1-1 1s-1-.45-1-1 .45-1 1-1 1 .45 1 1zm-2.93-7.07c0 .55-.45 1-1 1s-1-.45-1-1 .45-1 1-1 1 .45 1 1z"/><use xlink:href="#m" transform="translate(1055 1880.739)"/><use xlink:href="#u" transform="translate(1119.84 1880.739)"/><path d="M555 1933.75h145V2020H555zm145 40H555" stroke="#5e5e5e" stroke-width="2" fill="#fff"/><path d="M664 1937.75h32v32h-32zm8 8l16 16m0-16l-16 16" stroke="#5e5e5e" stroke-width="2" fill="none"/><path d="M480 1960h145v86.25H480zm145 40H480" stroke="#5e5e5e" stroke-width="2" fill="#fff"/><path d="M589 1964h32v32h-32zm8 8l16 16m0-16l-16 16" stroke="#5e5e5e" stroke-width="2" fill="none"/><path d="M705 1920h190v115H705zm190 40H705" stroke="#5e5e5e" stroke-width="2" fill="#fff"/><path d="M859 1924h32v32h-32zm8 8l16 16m0-16l-16 16" stroke="#5e5e5e" stroke-width="2" fill="none"/><path d="M660 1358.75h235v125H660zm235 40H660" stroke="#5e5e5e" stroke-width="2" fill="#fff"/><path d="M859 1362.75h32v32h-32zm8 8l16 16m0-16l-16 16" stroke="#5e5e5e" stroke-width="2" fill="none"/><path d="M133.88 589.3h12.4v-12.47h-4.25v4.78c-4.13-3.55-8.75-5.27-14.2-5.27-11.97.02-21.68 9.78-21.68 21.82h4.25c0-9.7 7.83-17.54 17.5-17.54 4.46 0 8.23 1.47 11.56 4.4h-5.58zm-6.01 26.42c-4.46 0-8.23-1.44-11.56-4.42h5.6v-4.26h-12.4v12.44h4.24v-4.77c4.14 3.6 8.75 5.32 14.2 5.3 12-.02 21.73-9.8 21.68-21.85h-4.25c0 9.7-7.83 17.57-17.5 17.57z" fill="#99d2f2"/><path d="M164.3 567.6c-.8-6.5-4.2-11.2-9.5-12.8-3.8-1.13-7.5-.4-10.6 2.12-1.5-3.38-3.3-6.04-6-8.7-7.8-8.15-19.1-10.48-29.5-5.9-9.6 4.58-15.4 13.6-15.7 24.35v1.46c-8.2 2.46-13.4 9.96-13 18.52v1.52c.9 10.42 9.4 18.25 19.8 18.12h2.1v-4.26h-2.1c-8.1.13-14.9-6.04-15.5-14.13v-1.25c-.5-7.24 4.3-13.47 11.4-14.93 1.1-.27 1.8-1.26 1.6-2.33-.1-1-.1-1.8-.1-2.8.2-8.95 5-16.5 13.1-20.43 8.7-3.9 18.4-2 24.9 4.98 3 3.05 4.9 6.23 6.2 10.22.2.46.4.8.8 1.06.9.66 2.3.46 3-.47 1.9-2.85 5.2-3.98 8.5-3.05 3.7 1.07 6.1 4.85 6.5 10.1-.1 1.2.6 2.25 1.7 2.45 4.2.73 13.8 3.65 13.8 15.33 0 13.93-13.5 15.26-13.8 15.33H156v4.25h6.1c6.2-.53 17.9-5.17 17.9-19.57 0-11.4-7.8-17.25-15.7-19.18z" fill="#99d2f2"/><path d="M151.8 604.38h-43.04l-15.86-.73-7.2-5.23-3.66-6.76-.67-6.76 2.3-6.7 6.35-6.7 4.7-1.47 1.54-12.66L105 547.1l12.02-4.17 12.3 1.96 7.4 5.1 5.38 8.72 3.27.37 5.76-2.1 7.3 1.9 3.85 10.4 10.48 5.1 4.42 8.04.3 7.32-3.47 8.3-8.45 6.32z" fill="none"/><path d="M112.7 600.78h33.92l-2.55 8.9-6.38 6.13-9.25 2.33-9.07-2.48-6.85-4.96z" fill="none"/><use xlink:href="#v" transform="translate(86.525 643.4)"/><use xlink:href="#w" transform="translate(87.55 665)"/><use xlink:href="#x" transform="translate(96.525 686.6)"/><path d="M181.52 591.56c0 .55-.44 1-1 1-.55 0-1-.45-1-1 0-.56.45-1 1-1 .56 0 1 .44 1 1zm7.92 0c0 .55-.45 1-1 1s-1-.45-1-1c0-.56.45-1 1-1s1 .44 1 1zm7.9 0c0 .55-.43 1-1 1-.54 0-1-.45-1-1 0-.56.46-1 1-1 .57 0 1 .44 1 1zm7.93 0c0 .55-.45 1-1 1s-1-.45-1-1c0-.56.45-1 1-1s1 .44 1 1zm7.92 0c0 .55-.46 1-1 1-.57 0-1-.45-1-1 0-.56.43-1 1-1 .54 0 1 .44 1 1zm7.9 0c0 .55-.45 1-1 1s-1-.45-1-1c0-.56.45-1 1-1s1 .44 1 1zm7.92 0c0 .55-.45 1-1 1-.56 0-1-.45-1-1 0-.56.44-1 1-1 .55 0 1 .44 1 1zm7.9 0c0 .55-.44 1-1 1-.54 0-1-.45-1-1 0-.56.46-1 1-1 .56 0 1 .44 1 1zm7.93 0c0 .55-.45 1-1 1s-1-.45-1-1c0-.56.45-1 1-1s1 .44 1 1zm7.9 0c0 .55-.43 1-1 1-.54 0-1-.45-1-1 0-.56.46-1 1-1 .57 0 1 .44 1 1zm7.93 0c0 .55-.45 1-1 1s-1-.45-1-1c0-.56.45-1 1-1s1 .44 1 1zm7.9 0c0 .55-.43 1-1 1-.54 0-1-.45-1-1 0-.56.46-1 1-1 .57 0 1 .44 1 1zm7.93 0c0 .55-.44 1-1 1-.54 0-1-.45-1-1 0-.56.46-1 1-1 .56 0 1 .44 1 1zm7.93 0c0 .55-.45 1-1 1-.56 0-1-.45-1-1 0-.56.44-1 1-1 .55 0 1 .44 1 1zm7.9 0c0 .55-.44 1-1 1-.54 0-1-.45-1-1 0-.56.46-1 1-1 .56 0 1 .44 1 1zm7.93 0c0 .55-.45 1-1 1s-1-.45-1-1c0-.56.45-1 1-1s1 .44 1 1zm7.9 0c0 .55-.43 1-1 1-.54 0-1-.45-1-1 0-.56.46-1 1-1 .57 0 1 .44 1 1zm7.93 0c0 .55-.46 1-1 1-.56 0-1-.45-1-1 0-.56.44-1 1-1 .54 0 1 .44 1 1zm7.9 0c0 .55-.44 1-1 1-.55 0-1-.45-1-1 0-.56.45-1 1-1 .56 0 1 .44 1 1zm7.92 0c0 .55-.45 1-1 1s-1-.45-1-1c0-.56.45-1 1-1s1 .44 1 1zm7.92 0c0 .55-.45 1-1 1-.56 0-1-.45-1-1 0-.56.44-1 1-1 .55 0 1 .44 1 1zm7.9 0c0 .55-.44 1-1 1-.54 0-1-.45-1-1 0-.56.46-1 1-1 .56 0 1 .44 1 1zm7.93 0c0 .55-.45 1-1 1-.56 0-1-.45-1-1 0-.56.44-1 1-1 .55 0 1 .44 1 1zm7.9 0c0 .55-.44 1-1 1-.54 0-1-.45-1-1 0-.56.46-1 1-1 .56 0 1 .44 1 1z" fill="#333"/><path d="M180.55 592.56h-1.37l.34-1 .1-1h.93zm-4.03-.54v-1.46h.6z" fill="#333"/><path d="M385.76 591.56l-14.26 4.63v-9.28z" stroke="#333" stroke-width="2" fill="#333"/><path d="M124.88 1389.3h12.4v-12.47h-4.25v4.78c-4.13-3.55-8.75-5.27-14.2-5.27-11.97.02-21.68 9.78-21.68 21.82h4.25c0-9.7 7.83-17.54 17.5-17.54 4.46 0 8.23 1.47 11.56 4.4h-5.58zm-6.01 26.42c-4.46 0-8.23-1.44-11.56-4.42h5.6v-4.26h-12.4v12.44h4.24v-4.77c4.14 3.6 8.75 5.32 14.2 5.3 12-.02 21.73-9.8 21.68-21.85h-4.25c0 9.7-7.83 17.57-17.5 17.57z" fill="#99d2f2"/><path d="M155.3 1367.6c-.8-6.5-4.2-11.2-9.5-12.8-3.8-1.13-7.5-.4-10.6 2.12-1.5-3.38-3.3-6.04-6-8.7-7.8-8.15-19.1-10.48-29.5-5.9-9.6 4.58-15.4 13.6-15.7 24.35v1.46c-8.2 2.46-13.4 9.96-13 18.52v1.52c.9 10.42 9.4 18.25 19.8 18.12h2.1v-4.26h-2.1c-8.1.13-14.9-6.04-15.5-14.13v-1.25c-.5-7.24 4.3-13.47 11.4-14.93 1.1-.27 1.8-1.26 1.6-2.33-.1-1-.1-1.8-.1-2.8.2-8.95 5-16.5 13.1-20.43 8.7-3.9 18.4-2 24.9 4.98 3 3.05 4.9 6.23 6.2 10.22.2.46.4.8.8 1.06.9.66 2.3.46 3-.47 1.9-2.85 5.2-3.98 8.5-3.05 3.7 1.07 6.1 4.85 6.5 10.1-.1 1.2.6 2.25 1.7 2.45 4.2.73 13.8 3.65 13.8 15.33 0 13.93-13.5 15.26-13.8 15.33H147v4.25h6.1c6.2-.53 17.9-5.17 17.9-19.57 0-11.4-7.8-17.25-15.7-19.18z" fill="#99d2f2"/><path d="M142.8 1404.38H99.77l-15.86-.73-7.2-5.23-3.66-6.76-.67-6.76 2.3-6.7 6.35-6.7 4.7-1.47 1.54-12.66L96 1347.1l12.02-4.17 12.3 1.96 7.4 5.1 5.38 8.72 3.27.37 5.76-2.1 7.3 1.9 3.85 10.4 10.48 5.1 4.42 8.04.3 7.32-3.47 8.3-8.45 6.32z" fill="none"/><path d="M103.7 1400.78h33.92l-2.55 8.9-6.38 6.13-9.25 2.33-9.07-2.48-6.85-4.96z" fill="none"/><use xlink:href="#v" transform="translate(77.525 1443.4)"/><use xlink:href="#w" transform="translate(78.55 1465)"/><use xlink:href="#x" transform="translate(87.525 1486.6)"/><path d="M172.52 1391.56c0 .55-.44 1-1 1-.55 0-1-.45-1-1 0-.56.45-1 1-1 .56 0 1 .44 1 1zm7.92 0c0 .55-.45 1-1 1s-1-.45-1-1c0-.56.45-1 1-1s1 .44 1 1zm7.9 0c0 .55-.43 1-1 1-.54 0-1-.45-1-1 0-.56.46-1 1-1 .57 0 1 .44 1 1zm7.93 0c0 .55-.45 1-1 1s-1-.45-1-1c0-.56.45-1 1-1s1 .44 1 1zm7.92 0c0 .55-.46 1-1 1-.57 0-1-.45-1-1 0-.56.43-1 1-1 .54 0 1 .44 1 1zm7.9 0c0 .55-.45 1-1 1s-1-.45-1-1c0-.56.45-1 1-1s1 .44 1 1zm7.92 0c0 .55-.45 1-1 1-.56 0-1-.45-1-1 0-.56.44-1 1-1 .55 0 1 .44 1 1zm7.9 0c0 .55-.44 1-1 1-.54 0-1-.45-1-1 0-.56.46-1 1-1 .56 0 1 .44 1 1zm7.93 0c0 .55-.45 1-1 1s-1-.45-1-1c0-.56.45-1 1-1s1 .44 1 1zm7.9 0c0 .55-.43 1-1 1-.54 0-1-.45-1-1 0-.56.46-1 1-1 .57 0 1 .44 1 1zm7.93 0c0 .55-.45 1-1 1s-1-.45-1-1c0-.56.45-1 1-1s1 .44 1 1zm7.9 0c0 .55-.43 1-1 1-.54 0-1-.45-1-1 0-.56.46-1 1-1 .57 0 1 .44 1 1zm7.93 0c0 .55-.44 1-1 1-.54 0-1-.45-1-1 0-.56.46-1 1-1 .56 0 1 .44 1 1zm7.93 0c0 .55-.45 1-1 1-.56 0-1-.45-1-1 0-.56.44-1 1-1 .55 0 1 .44 1 1zm7.9 0c0 .55-.44 1-1 1-.54 0-1-.45-1-1 0-.56.46-1 1-1 .56 0 1 .44 1 1zm7.93 0c0 .55-.45 1-1 1s-1-.45-1-1c0-.56.45-1 1-1s1 .44 1 1zm7.9 0c0 .55-.43 1-1 1-.54 0-1-.45-1-1 0-.56.46-1 1-1 .57 0 1 .44 1 1zm7.93 0c0 .55-.46 1-1 1-.56 0-1-.45-1-1 0-.56.44-1 1-1 .54 0 1 .44 1 1zm7.9 0c0 .55-.44 1-1 1-.55 0-1-.45-1-1 0-.56.45-1 1-1 .56 0 1 .44 1 1zm7.92 0c0 .55-.45 1-1 1s-1-.45-1-1c0-.56.45-1 1-1s1 .44 1 1zm7.92 0c0 .55-.45 1-1 1-.56 0-1-.45-1-1 0-.56.44-1 1-1 .55 0 1 .44 1 1zm7.9 0c0 .55-.44 1-1 1-.54 0-1-.45-1-1 0-.56.46-1 1-1 .56 0 1 .44 1 1zm7.93 0c0 .55-.45 1-1 1-.56 0-1-.45-1-1 0-.56.44-1 1-1 .55 0 1 .44 1 1zm7.9 0c0 .55-.44 1-1 1-.54 0-1-.45-1-1 0-.56.46-1 1-1 .56 0 1 .44 1 1z" fill="#333"/><path d="M171.55 1392.56h-1.37l.34-1 .1-1h.93zm-4.03-.54v-1.46h.6z" fill="#333"/><path d="M376.76 1391.56l-14.26 4.63v-9.28z" stroke="#333" stroke-width="2" fill="#333"/><path d="M124.88 1949.3h12.4v-12.47h-4.25v4.78c-4.13-3.55-8.75-5.27-14.2-5.27-11.97.02-21.68 9.78-21.68 21.82h4.25c0-9.7 7.83-17.54 17.5-17.54 4.46 0 8.23 1.47 11.56 4.4h-5.58zm-6.01 26.42c-4.46 0-8.23-1.44-11.56-4.42h5.6v-4.26h-12.4v12.44h4.24v-4.77c4.14 3.6 8.75 5.32 14.2 5.3 12-.02 21.73-9.8 21.68-21.85h-4.25c0 9.7-7.83 17.57-17.5 17.57z" fill="#99d2f2"/><path d="M155.3 1927.6c-.8-6.5-4.2-11.2-9.5-12.8-3.8-1.13-7.5-.4-10.6 2.12-1.5-3.38-3.3-6.04-6-8.7-7.8-8.15-19.1-10.48-29.5-5.9-9.6 4.58-15.4 13.6-15.7 24.35v1.46c-8.2 2.46-13.4 9.96-13 18.52v1.52c.9 10.42 9.4 18.25 19.8 18.12h2.1v-4.26h-2.1c-8.1.13-14.9-6.04-15.5-14.13v-1.25c-.5-7.24 4.3-13.47 11.4-14.93 1.1-.27 1.8-1.26 1.6-2.33-.1-1-.1-1.8-.1-2.8.2-8.95 5-16.5 13.1-20.43 8.7-3.9 18.4-2 24.9 4.98 3 3.05 4.9 6.23 6.2 10.22.2.46.4.8.8 1.06.9.66 2.3.46 3-.47 1.9-2.85 5.2-3.98 8.5-3.05 3.7 1.07 6.1 4.85 6.5 10.1-.1 1.2.6 2.25 1.7 2.45 4.2.73 13.8 3.65 13.8 15.33 0 13.93-13.5 15.26-13.8 15.33H147v4.25h6.1c6.2-.53 17.9-5.17 17.9-19.57 0-11.4-7.8-17.25-15.7-19.18z" fill="#99d2f2"/><path d="M142.8 1964.38H99.77l-15.86-.73-7.2-5.23-3.66-6.76-.67-6.76 2.3-6.7 6.35-6.7 4.7-1.47 1.54-12.66L96 1907.1l12.02-4.17 12.3 1.96 7.4 5.1 5.38 8.72 3.27.37 5.76-2.1 7.3 1.9 3.85 10.4 10.48 5.1 4.42 8.04.3 7.32-3.47 8.3-8.45 6.32z" fill="none"/><path d="M103.7 1960.78h33.92l-2.55 8.9-6.38 6.13-9.25 2.33-9.07-2.48-6.85-4.96z" fill="none"/><use xlink:href="#v" transform="translate(77.525 2003.4)"/><use xlink:href="#w" transform="translate(78.55 2025)"/><use xlink:href="#x" transform="translate(87.525 2046.6)"/><path d="M172.52 1951.56c0 .55-.44 1-1 1-.55 0-1-.45-1-1 0-.56.45-1 1-1 .56 0 1 .44 1 1zm7.92 0c0 .55-.45 1-1 1s-1-.45-1-1c0-.56.45-1 1-1s1 .44 1 1zm7.9 0c0 .55-.43 1-1 1-.54 0-1-.45-1-1 0-.56.46-1 1-1 .57 0 1 .44 1 1zm7.93 0c0 .55-.45 1-1 1s-1-.45-1-1c0-.56.45-1 1-1s1 .44 1 1zm7.92 0c0 .55-.46 1-1 1-.57 0-1-.45-1-1 0-.56.43-1 1-1 .54 0 1 .44 1 1zm7.9 0c0 .55-.45 1-1 1s-1-.45-1-1c0-.56.45-1 1-1s1 .44 1 1zm7.92 0c0 .55-.45 1-1 1-.56 0-1-.45-1-1 0-.56.44-1 1-1 .55 0 1 .44 1 1zm7.9 0c0 .55-.44 1-1 1-.54 0-1-.45-1-1 0-.56.46-1 1-1 .56 0 1 .44 1 1zm7.93 0c0 .55-.45 1-1 1s-1-.45-1-1c0-.56.45-1 1-1s1 .44 1 1zm7.9 0c0 .55-.43 1-1 1-.54 0-1-.45-1-1 0-.56.46-1 1-1 .57 0 1 .44 1 1zm7.93 0c0 .55-.45 1-1 1s-1-.45-1-1c0-.56.45-1 1-1s1 .44 1 1zm7.9 0c0 .55-.43 1-1 1-.54 0-1-.45-1-1 0-.56.46-1 1-1 .57 0 1 .44 1 1zm7.93 0c0 .55-.44 1-1 1-.54 0-1-.45-1-1 0-.56.46-1 1-1 .56 0 1 .44 1 1zm7.93 0c0 .55-.45 1-1 1-.56 0-1-.45-1-1 0-.56.44-1 1-1 .55 0 1 .44 1 1zm7.9 0c0 .55-.44 1-1 1-.54 0-1-.45-1-1 0-.56.46-1 1-1 .56 0 1 .44 1 1zm7.93 0c0 .55-.45 1-1 1s-1-.45-1-1c0-.56.45-1 1-1s1 .44 1 1zm7.9 0c0 .55-.43 1-1 1-.54 0-1-.45-1-1 0-.56.46-1 1-1 .57 0 1 .44 1 1zm7.93 0c0 .55-.46 1-1 1-.56 0-1-.45-1-1 0-.56.44-1 1-1 .54 0 1 .44 1 1zm7.9 0c0 .55-.44 1-1 1-.55 0-1-.45-1-1 0-.56.45-1 1-1 .56 0 1 .44 1 1zm7.92 0c0 .55-.45 1-1 1s-1-.45-1-1c0-.56.45-1 1-1s1 .44 1 1zm7.92 0c0 .55-.45 1-1 1-.56 0-1-.45-1-1 0-.56.44-1 1-1 .55 0 1 .44 1 1zm7.9 0c0 .55-.44 1-1 1-.54 0-1-.45-1-1 0-.56.46-1 1-1 .56 0 1 .44 1 1zm7.93 0c0 .55-.45 1-1 1-.56 0-1-.45-1-1 0-.56.44-1 1-1 .55 0 1 .44 1 1zm7.9 0c0 .55-.44 1-1 1-.54 0-1-.45-1-1 0-.56.46-1 1-1 .56 0 1 .44 1 1z" fill="#333"/><path d="M171.55 1952.56h-1.37l.34-1 .1-1h.93zm-4.03-.54v-1.46h.6z" fill="#333"/><path d="M376.76 1951.56l-14.26 4.63v-9.28z" stroke="#333" stroke-width="2" fill="#333"/><defs><path d="M185-189c-5-48-123-54-124 2 14 75 158 14 163 119 3 78-121 87-175 55-17-10-28-26-33-46l33-7c5 56 141 63 141-1 0-78-155-14-162-118-5-82 145-84 179-34 5 7 8 16 11 25" id="y"/><path d="M141-36C126-15 110 5 73 4 37 3 15-17 15-53c-1-64 63-63 125-63 3-35-9-54-41-54-24 1-41 7-42 31l-33-3c5-37 33-52 76-52 45 0 72 20 72 64v82c-1 20 7 32 28 27v20c-31 9-61-2-59-35zM48-53c0 20 12 33 32 33 41-3 63-29 60-74-43 2-92-5-92 41" id="z"/><path d="M24 0v-261h32V0H24" id="A"/><path d="M100-194c63 0 86 42 84 106H49c0 40 14 67 53 68 26 1 43-12 49-29l28 8c-11 28-37 45-77 45C44 4 14-33 15-96c1-61 26-98 85-98zm52 81c6-60-76-77-97-28-3 7-6 17-6 28h103" id="B"/><path d="M135-143c-3-34-86-38-87 0 15 53 115 12 119 90S17 21 10-45l28-5c4 36 97 45 98 0-10-56-113-15-118-90-4-57 82-63 122-42 12 7 21 19 24 35" id="C"/><path d="M33 0v-248h34V0H33" id="D"/><path d="M117-194c89-4 53 116 60 194h-32v-121c0-31-8-49-39-48C34-167 62-67 57 0H25l-1-190h30c1 10-1 24 2 32 11-22 29-35 61-36" id="E"/><path d="M108 0H70L1-190h34L89-25l56-165h34" id="F"/><path d="M100-194c62-1 85 37 85 99 1 63-27 99-86 99S16-35 15-95c0-66 28-99 85-99zM99-20c44 1 53-31 53-75 0-43-8-75-51-75s-53 32-53 75 10 74 51 75" id="G"/><path d="M24-231v-30h32v30H24zM24 0v-190h32V0H24" id="H"/><path d="M96-169c-40 0-48 33-48 73s9 75 48 75c24 0 41-14 43-38l32 2c-6 37-31 61-74 61-59 0-76-41-82-99-10-93 101-131 147-64 4 7 5 14 7 22l-32 3c-4-21-16-35-41-35" id="I"/><path d="M177-190C167-65 218 103 67 71c-23-6-38-20-44-43l32-5c15 47 100 32 89-28v-30C133-14 115 1 83 1 29 1 15-40 15-95c0-56 16-97 71-98 29-1 48 16 59 35 1-10 0-23 2-32h30zM94-22c36 0 50-32 50-73 0-42-14-75-50-75-39 0-46 34-46 75s6 73 46 73" id="J"/><path d="M84 4C-5 8 30-112 23-190h32v120c0 31 7 50 39 49 72-2 45-101 50-169h31l1 190h-30c-1-10 1-25-2-33-11 22-28 36-60 37" id="K"/><path d="M115-194c55 1 70 41 70 98S169 2 115 4C84 4 66-9 55-30l1 105H24l-1-265h31l2 30c10-21 28-34 59-34zm-8 174c40 0 45-34 45-75s-6-73-45-74c-42 0-51 32-51 76 0 43 10 73 51 73" id="L"/><path d="M114-163C36-179 61-72 57 0H25l-1-190h30c1 12-1 29 2 39 6-27 23-49 58-41v29" id="M"/><path d="M59-47c-2 24 18 29 38 22v24C64 9 27 4 27-40v-127H5v-23h24l9-43h21v43h35v23H59v120" id="N"/><path d="M127-220V0H93v-220H8v-28h204v28h-85" id="O"/><path d="M30 0v-248h33v221h125V0H30" id="P"/><path d="M85-194c31 0 48 13 60 33l-1-100h32l1 261h-30c-2-10 0-23-3-31C134-8 116 4 85 4 32 4 16-35 15-94c0-66 23-100 70-100zm9 24c-40 0-46 34-46 75 0 40 6 74 45 74 42 0 51-32 51-76 0-42-9-74-50-73" id="Q"/><path d="M212-179c-10-28-35-45-73-45-59 0-87 40-87 99 0 60 29 101 89 101 43 0 62-24 78-52l27 14C228-24 195 4 139 4 59 4 22-46 18-125c-6-104 99-153 187-111 19 9 31 26 39 46" id="R"/><path d="M205 0l-28-72H64L36 0H1l101-248h38L239 0h-34zm-38-99l-47-123c-12 45-31 82-46 123h93" id="S"/><path d="M179-190L93 31C79 59 56 82 12 73V49c39 6 53-20 64-50L1-190h34L92-34l54-156h33" id="T"/><path d="M210-169c-67 3-38 105-44 169h-31v-121c0-29-5-50-35-48C34-165 62-65 56 0H25l-1-190h30c1 10-1 24 2 32 10-44 99-50 107 0 11-21 27-35 58-36 85-2 47 119 55 194h-31v-121c0-29-5-49-35-48" id="U"/><path d="M9 0v-24l116-142H16v-24h144v24L44-24h123V0H9" id="V"/><path d="M190 0L58-211 59 0H30v-248h39L202-35l-2-213h31V0h-41" id="W"/><path d="M63-220v92h138v28H63V0H30v-248h175v28H63" id="X"/><path d="M33-154v-36h34v36H33zM33 0v-36h34V0H33" id="Y"/><path d="M140-251c81 0 123 46 123 126C263-46 219 4 140 4 59 4 17-45 17-125s42-126 123-126zm0 227c63 0 89-41 89-101s-29-99-89-99c-61 0-89 39-89 99S79-25 140-24" id="Z"/><path d="M160-131c35 5 61 23 61 61C221 17 115-2 30 0v-248c76 3 177-17 177 60 0 33-19 50-47 57zm-97-11c50-1 110 9 110-42 0-47-63-36-110-37v79zm0 115c55-2 124 14 124-45 0-56-70-42-124-44v89" id="aa"/><path d="M16-82v-28h88v28H16" id="ab"/><path d="M30-248c87 1 191-15 191 75 0 78-77 80-158 76V0H30v-248zm33 125c57 0 124 11 124-50 0-59-68-47-124-48v98" id="ac"/><path d="M101-234c-31-9-42 10-38 44h38v23H63V0H32v-167H5v-23h27c-7-52 17-82 69-68v24" id="ad"/><path d="M240 0l2-218c-23 76-54 145-80 218h-23L58-218 59 0H30v-248h44l77 211c21-75 51-140 76-211h43V0h-30" id="ae"/><path d="M232-93c-1 65-40 97-104 97C67 4 28-28 28-90v-158h33c8 89-33 224 67 224 102 0 64-133 71-224h33v155" id="af"/><g id="a"><use transform="scale(.05)" xlink:href="#y"/><use transform="translate(12) scale(.05)" xlink:href="#z"/><use transform="translate(22) scale(.05)" xlink:href="#A"/><use transform="translate(25.95) scale(.05)" xlink:href="#B"/><use transform="translate(35.95) scale(.05)" xlink:href="#C"/></g><g id="b"><use transform="scale(.05)" xlink:href="#D"/><use transform="translate(5) scale(.05)" xlink:href="#E"/><use transform="translate(15) scale(.05)" xlink:href="#F"/><use transform="translate(24) scale(.05)" xlink:href="#G"/><use transform="translate(34) scale(.05)" xlink:href="#H"/><use transform="translate(37.95) scale(.05)" xlink:href="#I"/><use transform="translate(46.95) scale(.05)" xlink:href="#H"/><use transform="translate(50.9) scale(.05)" xlink:href="#E"/><use transform="translate(60.9) scale(.05)" xlink:href="#J"/></g><g id="c"><use transform="scale(.05)" xlink:href="#y"/><use transform="translate(12) scale(.05)" xlink:href="#K"/><use transform="translate(22) scale(.05)" xlink:href="#L"/><use transform="translate(32) scale(.05)" xlink:href="#L"/><use transform="translate(42) scale(.05)" xlink:href="#G"/><use transform="translate(52) scale(.05)" xlink:href="#M"/><use transform="translate(57.95) scale(.05)" xlink:href="#N"/></g><g id="d"><use transform="scale(.05)" xlink:href="#D"/><use transform="translate(5) scale(.05)" xlink:href="#G"/><use transform="translate(15) scale(.05)" xlink:href="#O"/></g><g id="e"><use transform="scale(.06235)" xlink:href="#P"/><use transform="translate(12.47) scale(.06235)" xlink:href="#B"/><use transform="translate(24.938) scale(.06235)" xlink:href="#z"/><use transform="translate(37.407) scale(.06235)" xlink:href="#Q"/><use transform="translate(49.877) scale(.06235)" xlink:href="#C"/></g><g id="f"><use transform="scale(.06235)" xlink:href="#R"/><use transform="translate(16.148) scale(.06235)" xlink:href="#G"/><use transform="translate(28.617) scale(.06235)" xlink:href="#E"/><use transform="translate(41.086) scale(.06235)" xlink:href="#N"/><use transform="translate(47.32) scale(.06235)" xlink:href="#M"/><use transform="translate(54.74) scale(.06235)" xlink:href="#z"/><use transform="translate(67.209) scale(.06235)" xlink:href="#I"/><use transform="translate(78.43) scale(.06235)" xlink:href="#N"/><use transform="translate(84.665) scale(.06235)" xlink:href="#C"/></g><g id="g"><use transform="scale(.06235)" xlink:href="#R"/><use transform="translate(16.148) scale(.06235)" xlink:href="#z"/><use transform="translate(28.617) scale(.06235)" xlink:href="#C"/><use transform="translate(39.839) scale(.06235)" xlink:href="#B"/><use transform="translate(52.308) scale(.06235)" xlink:href="#C"/></g><g id="h"><use transform="scale(.06235)" xlink:href="#S"/><use transform="translate(14.963) scale(.06235)" xlink:href="#C"/><use transform="translate(26.185) scale(.06235)" xlink:href="#C"/><use transform="translate(37.407) scale(.06235)" xlink:href="#B"/><use transform="translate(49.877) scale(.06235)" xlink:href="#N"/><use transform="translate(56.111) scale(.06235)" xlink:href="#C"/></g><g id="i"><use transform="scale(.05)" xlink:href="#y"/><use transform="translate(12) scale(.05)" xlink:href="#T"/><use transform="translate(21) scale(.05)" xlink:href="#C"/><use transform="translate(30) scale(.05)" xlink:href="#N"/><use transform="translate(35) scale(.05)" xlink:href="#B"/><use transform="translate(45) scale(.05)" xlink:href="#U"/></g><g id="j"><use transform="scale(.05)" xlink:href="#R"/><use transform="translate(12.95) scale(.05)" xlink:href="#K"/><use transform="translate(22.95) scale(.05)" xlink:href="#C"/><use transform="translate(31.95) scale(.05)" xlink:href="#N"/><use transform="translate(36.95) scale(.05)" xlink:href="#G"/><use transform="translate(46.95) scale(.05)" xlink:href="#U"/><use transform="translate(61.9) scale(.05)" xlink:href="#H"/><use transform="translate(65.85) scale(.05)" xlink:href="#V"/><use transform="translate(74.85) scale(.05)" xlink:href="#z"/><use transform="translate(84.85) scale(.05)" xlink:href="#N"/><use transform="translate(89.85) scale(.05)" xlink:href="#H"/><use transform="translate(93.8) scale(.05)" xlink:href="#G"/><use transform="translate(103.8) scale(.05)" xlink:href="#E"/></g><g id="k"><use transform="scale(.06235)" xlink:href="#W"/><use transform="translate(16.148) scale(.06235)" xlink:href="#B"/><use transform="translate(28.617) scale(.06235)" xlink:href="#B"/><use transform="translate(41.086) scale(.06235)" xlink:href="#Q"/><use transform="translate(53.555) scale(.06235)" xlink:href="#B"/><use transform="translate(66.024) scale(.06235)" xlink:href="#Q"/></g><g id="l"><use transform="scale(.06235)" xlink:href="#X"/><use transform="translate(13.654) scale(.06235)" xlink:href="#K"/><use transform="translate(26.123) scale(.06235)" xlink:href="#E"/><use transform="translate(38.592) scale(.06235)" xlink:href="#I"/><use transform="translate(49.814) scale(.06235)" xlink:href="#N"/><use transform="translate(56.049) scale(.06235)" xlink:href="#H"/><use transform="translate(60.974) scale(.06235)" xlink:href="#G"/><use transform="translate(73.443) scale(.06235)" xlink:href="#E"/><use transform="translate(85.912) scale(.06235)" xlink:href="#z"/><use transform="translate(98.381) scale(.06235)" xlink:href="#A"/><use transform="translate(103.307) scale(.06235)" xlink:href="#H"/><use transform="translate(108.232) scale(.06235)" xlink:href="#N"/><use transform="translate(114.467) scale(.06235)" xlink:href="#T"/></g><g id="m"><use transform="scale(.06235)" xlink:href="#y"/><use transform="translate(14.963) scale(.06235)" xlink:href="#N"/><use transform="translate(21.198) scale(.06235)" xlink:href="#z"/><use transform="translate(33.667) scale(.06235)" xlink:href="#N"/><use transform="translate(39.901) scale(.06235)" xlink:href="#B"/><use transform="translate(52.37) scale(.06235)" xlink:href="#Y"/></g><g id="n"><use transform="scale(.06235)" xlink:href="#Z"/><use transform="translate(17.457) scale(.06235)" xlink:href="#Z"/><use transform="translate(34.914) scale(.06235)" xlink:href="#aa"/></g><g id="o"><use transform="scale(.05)" xlink:href="#W"/><use transform="translate(12.95) scale(.05)" xlink:href="#G"/><use transform="translate(22.95) scale(.05)" xlink:href="#E"/><use transform="translate(32.95) scale(.05)" xlink:href="#ab"/><use transform="translate(38.9) scale(.05)" xlink:href="#ac"/><use transform="translate(50.9) scale(.05)" xlink:href="#M"/><use transform="translate(56.85) scale(.05)" xlink:href="#G"/><use transform="translate(66.85) scale(.05)" xlink:href="#ad"/><use transform="translate(71.85) scale(.05)" xlink:href="#B"/><use transform="translate(81.85) scale(.05)" xlink:href="#C"/><use transform="translate(90.85) scale(.05)" xlink:href="#C"/><use transform="translate(99.85) scale(.05)" xlink:href="#H"/><use transform="translate(103.8) scale(.05)" xlink:href="#G"/><use transform="translate(113.8) scale(.05)" xlink:href="#E"/><use transform="translate(123.8) scale(.05)" xlink:href="#z"/><use transform="translate(133.8) scale(.05)" xlink:href="#A"/></g><g id="p"><use transform="scale(.05)" xlink:href="#R"/><use transform="translate(12.95) scale(.05)" xlink:href="#G"/><use transform="translate(22.95) scale(.05)" xlink:href="#E"/><use transform="translate(32.95) scale(.05)" xlink:href="#N"/><use transform="translate(37.95) scale(.05)" xlink:href="#M"/><use transform="translate(43.9) scale(.05)" xlink:href="#z"/><use transform="translate(53.9) scale(.05)" xlink:href="#I"/><use transform="translate(62.9) scale(.05)" xlink:href="#N"/><use transform="translate(67.9) scale(.05)" xlink:href="#G"/><use transform="translate(77.9) scale(.05)" xlink:href="#M"/></g><g id="r"><use transform="scale(.05)" xlink:href="#R"/><use transform="translate(12.95) scale(.05)" xlink:href="#K"/><use transform="translate(22.95) scale(.05)" xlink:href="#C"/><use transform="translate(31.95) scale(.05)" xlink:href="#N"/><use transform="translate(36.95) scale(.05)" xlink:href="#G"/><use transform="translate(46.95) scale(.05)" xlink:href="#U"/></g><g id="q"><use transform="scale(.05)" xlink:href="#ae"/><use transform="translate(14.95) scale(.05)" xlink:href="#J"/><use transform="translate(24.95) scale(.05)" xlink:href="#U"/><use transform="translate(39.9) scale(.05)" xlink:href="#N"/></g><g id="s"><use transform="scale(.06235)" xlink:href="#R"/><use transform="translate(16.148) scale(.06235)" xlink:href="#K"/><use transform="translate(28.617) scale(.06235)" xlink:href="#C"/><use transform="translate(39.839) scale(.06235)" xlink:href="#N"/><use transform="translate(46.073) scale(.06235)" xlink:href="#G"/><use transform="translate(58.543) scale(.06235)" xlink:href="#U"/></g><g id="t"><use transform="scale(.06235)" xlink:href="#y"/><use transform="translate(14.963) scale(.06235)" xlink:href="#I"/><use transform="translate(26.185) scale(.06235)" xlink:href="#M"/><use transform="translate(33.604) scale(.06235)" xlink:href="#B"/><use transform="translate(46.073) scale(.06235)" xlink:href="#B"/><use transform="translate(58.543) scale(.06235)" xlink:href="#E"/></g><g id="u"><use transform="scale(.06235)" xlink:href="#aa"/><use transform="translate(14.963) scale(.06235)" xlink:href="#K"/><use transform="translate(27.432) scale(.06235)" xlink:href="#H"/><use transform="translate(32.357) scale(.06235)" xlink:href="#A"/><use transform="translate(37.283) scale(.06235)" xlink:href="#N"/></g><g id="v"><use transform="scale(.05)" xlink:href="#S"/><use transform="translate(12) scale(.05)" xlink:href="#K"/><use transform="translate(22) scale(.05)" xlink:href="#N"/><use transform="translate(27) scale(.05)" xlink:href="#G"/><use transform="translate(37) scale(.05)" xlink:href="#U"/><use transform="translate(51.95) scale(.05)" xlink:href="#z"/><use transform="translate(61.95) scale(.05)" xlink:href="#N"/><use transform="translate(66.95) scale(.05)" xlink:href="#B"/><use transform="translate(76.95) scale(.05)" xlink:href="#Q"/></g><g id="w"><use transform="scale(.05)" xlink:href="#y"/><use transform="translate(12) scale(.05)" xlink:href="#z"/><use transform="translate(22) scale(.05)" xlink:href="#A"/><use transform="translate(25.95) scale(.05)" xlink:href="#B"/><use transform="translate(35.95) scale(.05)" xlink:href="#C"/><use transform="translate(44.95) scale(.05)" xlink:href="#ad"/><use transform="translate(49.95) scale(.05)" xlink:href="#G"/><use transform="translate(59.95) scale(.05)" xlink:href="#M"/><use transform="translate(65.9) scale(.05)" xlink:href="#I"/><use transform="translate(74.9) scale(.05)" xlink:href="#B"/></g><g id="x"><use transform="scale(.05)" xlink:href="#af"/><use transform="translate(12.95) scale(.05)" xlink:href="#L"/><use transform="translate(22.95) scale(.05)" xlink:href="#Q"/><use transform="translate(32.95) scale(.05)" xlink:href="#z"/><use transform="translate(42.95) scale(.05)" xlink:href="#N"/><use transform="translate(47.95) scale(.05)" xlink:href="#B"/><use transform="translate(57.95) scale(.05)" xlink:href="#C"/></g></defs></g></svg>