<svg xmlns="http://www.w3.org/2000/svg" xmlns:xlink="http://www.w3.org/1999/xlink" xmlns:lucid="lucid" width="680" height="860"><g transform="translate(-300 -100)" lucid:page-tab-id="6l_cqYRHvH8q"><path d="M775.2 360h140l20 20v80h-160z" fill="#ffeca9"/><path d="M786.87 360h7.77m7.78 0h7.78m7.78 0h7.78m7.77 0h7.78m7.8 0h7.77m7.77 0h7.78m7.78 0h7.78m7.78 0h7.77m7.78 0h3.9l2.5 2.5m5 5l5 5m5 5l2.5 2.5v4m0 8v8m0 8v8m0 8v8m0 8v8m0 8v4h-4m-8 0h-8m-8 0h-8m-8 0h-8m-8 0h-8m-8 0h-8m-8 0h-8m-8 0h-8m-8 0h-8m-8 0h-8m-8 0h-4v-4.17m0-8.33v-8.33m0-8.34v-8.33m0-8.33v-8.34m0-8.33v-8.33m0-8.34v-8.33m0-8.33V360h3.9" stroke="#fcc438" stroke-width="2" fill="none"/><path d="M915.2 360.95V380h19.05" fill="#ffeca9"/><path d="M915.2 360.95v4.76m0 9.54V380h4.76m9.53 0h4.75" stroke="#fcc438" stroke-width="2" fill="none"/><use xlink:href="#a" transform="translate(805.748 401.754)"/><use xlink:href="#b" transform="translate(892.207 401.754)"/><use xlink:href="#c" transform="translate(787.793 427.354)"/><use xlink:href="#d" transform="translate(881.126 427.354)"/><path d="M520 280h140l20 20v80H520z" stroke="#ef8d22" stroke-width="2" fill="#ffdba9"/><path d="M660 280.95V300h19.05" stroke="#ef8d22" stroke-width="2" fill="#ffdba9"/><use xlink:href="#e" transform="translate(558.815 321.754)"/><use xlink:href="#b" transform="translate(628.74 321.754)"/><use xlink:href="#f" transform="translate(538.37 347.354)"/><use xlink:href="#g" transform="translate(637.926 347.354)"/><path d="M320 280h120v580H320z" stroke="#3aa6dd" stroke-width="2" fill="#c1e4f7"/><use xlink:href="#h" transform="translate(333.4 566.587)"/><use xlink:href="#i" transform="translate(357.7 588.188)"/><path d="M520 520h140l20 20v80H520z" stroke="#ef8d22" stroke-width="2" fill="#ffdba9"/><path d="M660 520.95V540h19.05" stroke="#ef8d22" stroke-width="2" fill="#ffdba9"/><use xlink:href="#e" transform="translate(558.815 561.754)"/><use xlink:href="#b" transform="translate(628.74 561.754)"/><use xlink:href="#f" transform="translate(538.37 587.354)"/><use xlink:href="#j" transform="translate(637.926 587.354)"/><path d="M520 760h140l20 20v80H520z" stroke="#ef8d22" stroke-width="2" fill="#ffdba9"/><path d="M660 760.95V780h19.05" stroke="#ef8d22" stroke-width="2" fill="#ffdba9"/><use xlink:href="#e" transform="translate(558.815 801.754)"/><use xlink:href="#b" transform="translate(628.74 801.754)"/><use xlink:href="#f" transform="translate(538.37 827.354)"/><use xlink:href="#k" transform="translate(637.926 827.354)"/><path d="M441.3 569.05l72-221.45" stroke="#000" stroke-width="2" fill="none"/><path d="M442.27 569.33l-1.25 3.83H441v-4.24z"/><path d="M518 333.08v15l-8.82-2.87z" stroke="#000" stroke-width="2"/><path d="M442 570h58.5" stroke="#000" stroke-width="2" fill="none"/><path d="M442.03 571H441v-2h1.03z"/><path d="M515.76 570l-14.26 4.64v-9.28z" stroke="#000" stroke-width="2"/><path d="M441.3 570.95l72 221.45" stroke="#000" stroke-width="2" fill="none"/><path d="M442.27 570.67l-1.27.4v-4.22h.02z"/><path d="M518 806.92l-8.82-12.13 8.82-2.88z" stroke="#000" stroke-width="2"/><path d="M775.2 520h140l20 20v80h-160z" fill="#ffeca9"/><path d="M786.87 520h7.77m7.78 0h7.78m7.78 0h7.78m7.77 0h7.78m7.8 0h7.77m7.77 0h7.78m7.78 0h7.78m7.78 0h7.77m7.78 0h3.9l2.5 2.5m5 5l5 5m5 5l2.5 2.5v4m0 8v8m0 8v8m0 8v8m0 8v8m0 8v4h-4m-8 0h-8m-8 0h-8m-8 0h-8m-8 0h-8m-8 0h-8m-8 0h-8m-8 0h-8m-8 0h-8m-8 0h-8m-8 0h-4v-4.17m0-8.33v-8.33m0-8.34v-8.33m0-8.33v-8.34m0-8.33v-8.33m0-8.34v-8.33m0-8.33V520h3.9" stroke="#fcc438" stroke-width="2" fill="none"/><path d="M915.2 520.95V540h19.05" fill="#ffeca9"/><path d="M915.2 520.95v4.76m0 9.54V540h4.76m9.53 0h4.75" stroke="#fcc438" stroke-width="2" fill="none"/><use xlink:href="#a" transform="translate(805.748 561.754)"/><use xlink:href="#b" transform="translate(892.207 561.754)"/><use xlink:href="#c" transform="translate(796.681 587.354)"/><use xlink:href="#j" transform="translate(890.015 587.354)"/><path d="M775.2 680h140l20 20v80h-160z" fill="#ffeca9"/><path d="M786.87 680h7.77m7.78 0h7.78m7.78 0h7.78m7.77 0h7.78m7.8 0h7.77m7.77 0h7.78m7.78 0h7.78m7.78 0h7.77m7.78 0h3.9l2.5 2.5m5 5l5 5m5 5l2.5 2.5v4m0 8v8m0 8v8m0 8v8m0 8v8m0 8v4h-4m-8 0h-8m-8 0h-8m-8 0h-8m-8 0h-8m-8 0h-8m-8 0h-8m-8 0h-8m-8 0h-8m-8 0h-8m-8 0h-4v-4.17m0-8.33v-8.33m0-8.34v-8.33m0-8.33v-8.34m0-8.33v-8.33m0-8.34v-8.33m0-8.33V680h3.9" stroke="#fcc438" stroke-width="2" fill="none"/><path d="M915.2 680.95V700h19.05" fill="#ffeca9"/><path d="M915.2 680.95v4.76m0 9.54V700h4.76m9.53 0h4.75" stroke="#fcc438" stroke-width="2" fill="none"/><use xlink:href="#a" transform="translate(805.748 721.754)"/><use xlink:href="#b" transform="translate(892.207 721.754)"/><use xlink:href="#c" transform="translate(787.793 747.354)"/><use xlink:href="#l" transform="translate(881.126 747.354)"/><path d="M681.76 330.65l8.7 7.48m8.72 7.48l17.42 14.96m8.72 7.48L742.74 383m8.7 7.47l8.72 7.48" stroke="#000" stroke-width="2" fill="none"/><path d="M682.43 329.9l-1.3 1.53-.13-.1v-2.65z"/><path d="M771.74 407.9l-13.84-5.78 6.04-7.04z" stroke="#000" stroke-width="2"/><path d="M682 570h12.28m12.3 0h24.55m12.3 0h12.27" stroke="#000" stroke-width="2" fill="none"/><path d="M682.03 571H681v-2h1.03z"/><path d="M770.96 570l-14.26 4.64v-9.28z" stroke="#000" stroke-width="2"/><path d="M681.76 809.35l8.7-7.48m8.72-7.48l17.42-14.96m8.72-7.48L742.74 757m8.7-7.47l8.72-7.48" stroke="#000" stroke-width="2" fill="none"/><path d="M682.43 810.1l-1.43 1.2v-2.64l.13-.1z"/><path d="M771.74 732.1l-7.8 12.82-6.04-7.04z" stroke="#000" stroke-width="2"/><path d="M775.2 200h140l20 20v80h-160z" fill="#ffeca9"/><path d="M786.87 200h7.77m7.78 0h7.78m7.78 0h7.78m7.77 0h7.78m7.8 0h7.77m7.77 0h7.78m7.78 0h7.78m7.78 0h7.77m7.78 0h3.9l2.5 2.5m5 5l5 5m5 5l2.5 2.5v4m0 8v8m0 8v8m0 8v8m0 8v8m0 8v4h-4m-8 0h-8m-8 0h-8m-8 0h-8m-8 0h-8m-8 0h-8m-8 0h-8m-8 0h-8m-8 0h-8m-8 0h-8m-8 0h-4v-4.17m0-8.33v-8.33m0-8.34v-8.33m0-8.33v-8.34m0-8.33v-8.33m0-8.34v-8.33m0-8.33V200h3.9" stroke="#fcc438" stroke-width="2" fill="none"/><path d="M915.2 200.95V220h19.05" fill="#ffeca9"/><path d="M915.2 200.95v4.76m0 9.54V220h4.76m9.53 0h4.75" stroke="#fcc438" stroke-width="2" fill="none"/><use xlink:href="#a" transform="translate(805.748 241.754)"/><use xlink:href="#b" transform="translate(892.207 241.754)"/><use xlink:href="#c" transform="translate(787.793 267.354)"/><use xlink:href="#m" transform="translate(881.126 267.354)"/><path d="M775.2 840h140l20 20v80h-160z" fill="#ffeca9"/><path d="M786.87 840h7.77m7.78 0h7.78m7.78 0h7.78m7.77 0h7.78m7.8 0h7.77m7.77 0h7.78m7.78 0h7.78m7.78 0h7.77m7.78 0h3.9l2.5 2.5m5 5l5 5m5 5l2.5 2.5v4m0 8v8m0 8v8m0 8v8m0 8v8m0 8v4h-4m-8 0h-8m-8 0h-8m-8 0h-8m-8 0h-8m-8 0h-8m-8 0h-8m-8 0h-8m-8 0h-8m-8 0h-8m-8 0h-4v-4.17m0-8.33v-8.33m0-8.34v-8.33m0-8.33v-8.34m0-8.33v-8.33m0-8.34v-8.33m0-8.33V840h3.9" stroke="#fcc438" stroke-width="2" fill="none"/><path d="M915.2 840.95V860h19.05" fill="#ffeca9"/><path d="M915.2 840.95v4.76m0 9.54V860h4.76m9.53 0h4.75" stroke="#fcc438" stroke-width="2" fill="none"/><use xlink:href="#a" transform="translate(805.748 881.754)"/><use xlink:href="#b" transform="translate(892.207 881.754)"/><use xlink:href="#c" transform="translate(787.793 907.354)"/><use xlink:href="#n" transform="translate(881.126 907.354)"/><path d="M681.76 329.35l8.7-7.48m8.72-7.48l17.42-14.96m8.72-7.48L742.74 277m8.7-7.47l8.72-7.48" stroke="#000" stroke-width="2" fill="none"/><path d="M682.43 330.1l-1.43 1.2v-2.64l.13-.1z"/><path d="M771.74 252.1l-7.8 12.82-6.04-7.04z" stroke="#000" stroke-width="2"/><path d="M681.76 810.65l8.7 7.48m8.72 7.48l17.42 14.96m8.72 7.48L742.74 863m8.7 7.47l8.72 7.48" stroke="#000" stroke-width="2" fill="none"/><path d="M682.43 809.9l-1.3 1.53-.13-.1v-2.65z"/><path d="M771.74 887.9l-13.84-5.78 6.04-7.04z" stroke="#000" stroke-width="2"/><path d="M500 180h460v300H500z" fill="none"/><path d="M501 180c0 .55-.45 1-1 1s-1-.45-1-1 .45-1 1-1 1 .45 1 1zm7.93 0c0 .55-.45 1-1 1s-1-.45-1-1 .45-1 1-1 1 .45 1 1zm7.93 0c0 .55-.45 1-1 1s-1-.45-1-1 .45-1 1-1 1 .45 1 1zm7.93 0c0 .55-.45 1-1 1-.56 0-1-.45-1-1s.44-1 1-1c.55 0 1 .45 1 1zm7.92 0c0 .55-.44 1-1 1-.55 0-1-.45-1-1s.45-1 1-1c.56 0 1 .45 1 1zm7.94 0c0 .55-.45 1-1 1-.56 0-1-.45-1-1s.44-1 1-1c.55 0 1 .45 1 1zm7.93 0c0 .55-.46 1-1 1-.57 0-1-.45-1-1s.43-1 1-1c.54 0 1 .45 1 1zm7.92 0c0 .55-.45 1-1 1-.56 0-1-.45-1-1s.44-1 1-1c.55 0 1 .45 1 1zm7.93 0c0 .55-.45 1-1 1s-1-.45-1-1 .45-1 1-1 1 .45 1 1zm7.93 0c0 .55-.45 1-1 1s-1-.45-1-1 .45-1 1-1 1 .45 1 1zm7.93 0c0 .55-.44 1-1 1-.54 0-1-.45-1-1s.46-1 1-1c.56 0 1 .45 1 1zm7.94 0c0 .55-.45 1-1 1s-1-.45-1-1 .45-1 1-1 1 .45 1 1zm7.93 0c0 .55-.45 1-1 1s-1-.45-1-1 .45-1 1-1 1 .45 1 1zm7.93 0c0 .55-.44 1-1 1-.55 0-1-.45-1-1s.45-1 1-1c.56 0 1 .45 1 1zm7.93 0c0 .55-.44 1-1 1-.55 0-1-.45-1-1s.45-1 1-1c.56 0 1 .45 1 1zm7.94 0c0 .55-.45 1-1 1-.56 0-1-.45-1-1s.44-1 1-1c.55 0 1 .45 1 1zm7.93 0c0 .55-.45 1-1 1-.56 0-1-.45-1-1s.44-1 1-1c.55 0 1 .45 1 1zm7.93 0c0 .55-.45 1-1 1s-1-.45-1-1 .45-1 1-1 1 .45 1 1zm7.93 0c0 .55-.45 1-1 1s-1-.45-1-1 .45-1 1-1 1 .45 1 1zm7.93 0c0 .55-.46 1-1 1-.56 0-1-.45-1-1s.44-1 1-1c.54 0 1 .45 1 1zm7.92 0c0 .55-.45 1-1 1s-1-.45-1-1 .45-1 1-1 1 .45 1 1zm7.93 0c0 .55-.45 1-1 1s-1-.45-1-1 .45-1 1-1 1 .45 1 1zm7.93 0c0 .55-.44 1-1 1-.55 0-1-.45-1-1s.45-1 1-1c.56 0 1 .45 1 1zm7.93 0c0 .55-.43 1-1 1-.54 0-1-.45-1-1s.46-1 1-1c.57 0 1 .45 1 1zm7.94 0c0 .55-.44 1-1 1-.55 0-1-.45-1-1s.45-1 1-1c.56 0 1 .45 1 1zm7.94 0c0 .55-.45 1-1 1-.56 0-1-.45-1-1s.44-1 1-1c.55 0 1 .45 1 1zm7.93 0c0 .55-.44 1-1 1-.55 0-1-.45-1-1s.45-1 1-1c.56 0 1 .45 1 1zm7.94 0c0 .55-.45 1-1 1s-1-.45-1-1 .45-1 1-1 1 .45 1 1zm7.93 0c0 .55-.45 1-1 1s-1-.45-1-1 .45-1 1-1 1 .45 1 1zm7.93 0c0 .55-.45 1-1 1s-1-.45-1-1 .45-1 1-1 1 .45 1 1zm7.93 0c0 .55-.45 1-1 1s-1-.45-1-1 .45-1 1-1 1 .45 1 1zm7.93 0c0 .55-.45 1-1 1s-1-.45-1-1 .45-1 1-1 1 .45 1 1zm7.93 0c0 .55-.45 1-1 1-.56 0-1-.45-1-1s.44-1 1-1c.55 0 1 .45 1 1zm7.92 0c0 .55-.44 1-1 1-.55 0-1-.45-1-1s.45-1 1-1c.56 0 1 .45 1 1zm7.94 0c0 .55-.45 1-1 1-.56 0-1-.45-1-1s.44-1 1-1c.55 0 1 .45 1 1zm7.93 0c0 .55-.46 1-1 1-.57 0-1-.45-1-1s.43-1 1-1c.54 0 1 .45 1 1zm7.92 0c0 .55-.45 1-1 1-.56 0-1-.45-1-1s.44-1 1-1c.55 0 1 .45 1 1zm7.93 0c0 .55-.45 1-1 1s-1-.45-1-1 .45-1 1-1 1 .45 1 1zm7.93 0c0 .55-.45 1-1 1s-1-.45-1-1 .45-1 1-1 1 .45 1 1zm7.93 0c0 .55-.44 1-1 1-.54 0-1-.45-1-1s.46-1 1-1c.56 0 1 .45 1 1zm7.94 0c0 .55-.45 1-1 1s-1-.45-1-1 .45-1 1-1 1 .45 1 1zm7.93 0c0 .55-.45 1-1 1s-1-.45-1-1 .45-1 1-1 1 .45 1 1zm7.93 0c0 .55-.44 1-1 1-.55 0-1-.45-1-1s.45-1 1-1c.56 0 1 .45 1 1zm7.93 0c0 .55-.44 1-1 1-.55 0-1-.45-1-1s.45-1 1-1c.56 0 1 .45 1 1zm7.94 0c0 .55-.45 1-1 1-.56 0-1-.45-1-1s.44-1 1-1c.55 0 1 .45 1 1zm7.93 0c0 .55-.45 1-1 1-.56 0-1-.45-1-1s.44-1 1-1c.55 0 1 .45 1 1zm7.93 0c0 .55-.45 1-1 1s-1-.45-1-1 .45-1 1-1 1 .45 1 1zm7.93 0c0 .55-.45 1-1 1s-1-.45-1-1 .45-1 1-1 1 .45 1 1zm7.93 0c0 .55-.46 1-1 1-.56 0-1-.45-1-1s.44-1 1-1c.54 0 1 .45 1 1zm7.92 0c0 .55-.45 1-1 1s-1-.45-1-1 .45-1 1-1 1 .45 1 1zm7.93 0c0 .55-.45 1-1 1s-1-.45-1-1 .45-1 1-1 1 .45 1 1zm7.93 0c0 .55-.44 1-1 1-.55 0-1-.45-1-1s.45-1 1-1c.56 0 1 .45 1 1zm7.93 0c0 .55-.43 1-1 1-.54 0-1-.45-1-1s.46-1 1-1c.57 0 1 .45 1 1zm7.94 0c0 .55-.44 1-1 1-.55 0-1-.45-1-1s.45-1 1-1c.56 0 1 .45 1 1zm7.94 0c0 .55-.45 1-1 1-.56 0-1-.45-1-1s.44-1 1-1c.55 0 1 .45 1 1zm7.93 0c0 .55-.44 1-1 1-.55 0-1-.45-1-1s.45-1 1-1c.56 0 1 .45 1 1zm7.94 0c0 .55-.45 1-1 1s-1-.45-1-1 .45-1 1-1 1 .45 1 1zm7.93 0c0 .55-.45 1-1 1s-1-.45-1-1 .45-1 1-1 1 .45 1 1zm7.93 0c0 .55-.45 1-1 1s-1-.45-1-1 .45-1 1-1 1 .45 1 1zm0 7.9c0 .55-.45 1-1 1s-1-.45-1-1c0-.56.45-1 1-1s1 .44 1 1zm0 7.9c0 .54-.45 1-1 1s-1-.46-1-1c0-.56.45-1 1-1s1 .44 1 1zm0 7.88c0 .56-.45 1-1 1s-1-.44-1-1c0-.55.45-1 1-1s1 .45 1 1zm0 7.9c0 .55-.45 1-1 1s-1-.45-1-1 .45-1 1-1 1 .45 1 1zm0 7.9c0 .55-.45 1-1 1s-1-.45-1-1c0-.56.45-1 1-1s1 .44 1 1zm0 7.9c0 .54-.45 1-1 1s-1-.46-1-1c0-.56.45-1 1-1s1 .44 1 1zm0 7.88c0 .56-.45 1-1 1s-1-.44-1-1c0-.55.45-1 1-1s1 .45 1 1zm0 7.9c0 .55-.45 1-1 1s-1-.45-1-1 .45-1 1-1 1 .45 1 1zm0 7.9c0 .54-.45 1-1 1s-1-.46-1-1c0-.56.45-1 1-1s1 .44 1 1zm0 7.9c0 .54-.45 1-1 1s-1-.46-1-1c0-.56.45-1 1-1s1 .44 1 1zm0 7.88c0 .55-.45 1-1 1s-1-.45-1-1 .45-1 1-1 1 .45 1 1zm0 7.9c0 .55-.45 1-1 1s-1-.45-1-1c0-.56.45-1 1-1s1 .44 1 1zm0 7.9c0 .54-.45 1-1 1s-1-.46-1-1c0-.56.45-1 1-1s1 .44 1 1zm0 7.9c0 .54-.45 1-1 1s-1-.46-1-1c0-.57.45-1 1-1s1 .43 1 1zm0 7.88c0 .55-.45 1-1 1s-1-.45-1-1 .45-1 1-1 1 .45 1 1zm0 7.9c0 .55-.45 1-1 1s-1-.45-1-1c0-.56.45-1 1-1s1 .44 1 1zm0 7.9c0 .54-.45 1-1 1s-1-.46-1-1c0-.56.45-1 1-1s1 .44 1 1zm0 7.9c0 .54-.45 1-1 1s-1-.46-1-1c0-.57.45-1 1-1s1 .43 1 1zm0 7.88c0 .55-.45 1-1 1s-1-.45-1-1 .45-1 1-1 1 .45 1 1zm0 7.9c0 .55-.45 1-1 1s-1-.45-1-1c0-.56.45-1 1-1s1 .44 1 1zm0 7.9c0 .54-.45 1-1 1s-1-.46-1-1c0-.56.45-1 1-1s1 .44 1 1zm0 7.88c0 .56-.45 1-1 1s-1-.44-1-1c0-.55.45-1 1-1s1 .45 1 1zm0 7.9c0 .55-.45 1-1 1s-1-.45-1-1 .45-1 1-1 1 .45 1 1zm0 7.9c0 .55-.45 1-1 1s-1-.45-1-1c0-.56.45-1 1-1s1 .44 1 1zm0 7.9c0 .54-.45 1-1 1s-1-.46-1-1c0-.56.45-1 1-1s1 .44 1 1zm0 7.88c0 .56-.45 1-1 1s-1-.44-1-1c0-.55.45-1 1-1s1 .45 1 1zm0 7.9c0 .55-.45 1-1 1s-1-.45-1-1 .45-1 1-1 1 .45 1 1zm0 7.9c0 .54-.45 1-1 1s-1-.46-1-1c0-.56.45-1 1-1s1 .44 1 1zm0 7.9c0 .54-.45 1-1 1s-1-.46-1-1c0-.56.45-1 1-1s1 .44 1 1zm0 7.88c0 .55-.45 1-1 1s-1-.45-1-1 .45-1 1-1 1 .45 1 1zm0 7.9c0 .55-.45 1-1 1s-1-.45-1-1c0-.56.45-1 1-1s1 .44 1 1zm0 7.9c0 .54-.45 1-1 1s-1-.46-1-1c0-.56.45-1 1-1s1 .44 1 1zm0 7.9c0 .54-.45 1-1 1s-1-.46-1-1c0-.57.45-1 1-1s1 .43 1 1zm0 7.88c0 .55-.45 1-1 1s-1-.45-1-1 .45-1 1-1 1 .45 1 1zm0 7.9c0 .55-.45 1-1 1s-1-.45-1-1c0-.56.45-1 1-1s1 .44 1 1zm0 7.9c0 .54-.45 1-1 1s-1-.46-1-1c0-.56.45-1 1-1s1 .44 1 1zm0 7.9c0 .54-.45 1-1 1s-1-.46-1-1c0-.57.45-1 1-1s1 .43 1 1zm0 7.88c0 .55-.45 1-1 1s-1-.45-1-1 .45-1 1-1 1 .45 1 1zm-7.93 0c0 .55-.45 1-1 1s-1-.45-1-1 .45-1 1-1 1 .45 1 1zm-7.93 0c0 .55-.45 1-1 1s-1-.45-1-1 .45-1 1-1 1 .45 1 1zm-7.93 0c0 .55-.44 1-1 1-.55 0-1-.45-1-1s.45-1 1-1c.56 0 1 .45 1 1zm-7.92 0c0 .55-.45 1-1 1-.56 0-1-.45-1-1s.44-1 1-1c.55 0 1 .45 1 1zm-7.94 0c0 .55-.44 1-1 1-.55 0-1-.45-1-1s.45-1 1-1c.56 0 1 .45 1 1zm-7.93 0c0 .55-.43 1-1 1-.54 0-1-.45-1-1s.46-1 1-1c.57 0 1 .45 1 1zm-7.92 0c0 .55-.44 1-1 1-.55 0-1-.45-1-1s.45-1 1-1c.56 0 1 .45 1 1zm-7.93 0c0 .55-.45 1-1 1s-1-.45-1-1 .45-1 1-1 1 .45 1 1zm-7.93 0c0 .55-.45 1-1 1s-1-.45-1-1 .45-1 1-1 1 .45 1 1zm-7.93 0c0 .55-.46 1-1 1-.56 0-1-.45-1-1s.44-1 1-1c.54 0 1 .45 1 1zm-7.94 0c0 .55-.45 1-1 1s-1-.45-1-1 .45-1 1-1 1 .45 1 1zm-7.93 0c0 .55-.45 1-1 1s-1-.45-1-1 .45-1 1-1 1 .45 1 1zm-7.93 0c0 .55-.45 1-1 1-.56 0-1-.45-1-1s.44-1 1-1c.55 0 1 .45 1 1zm-7.93 0c0 .55-.45 1-1 1-.56 0-1-.45-1-1s.44-1 1-1c.55 0 1 .45 1 1zm-7.94 0c0 .55-.44 1-1 1-.55 0-1-.45-1-1s.45-1 1-1c.56 0 1 .45 1 1zm-7.93 0c0 .55-.44 1-1 1-.55 0-1-.45-1-1s.45-1 1-1c.56 0 1 .45 1 1zm-7.93 0c0 .55-.45 1-1 1s-1-.45-1-1 .45-1 1-1 1 .45 1 1zm-7.93 0c0 .55-.45 1-1 1s-1-.45-1-1 .45-1 1-1 1 .45 1 1zm-7.93 0c0 .55-.44 1-1 1-.54 0-1-.45-1-1s.46-1 1-1c.56 0 1 .45 1 1zm-7.92 0c0 .55-.45 1-1 1s-1-.45-1-1 .45-1 1-1 1 .45 1 1zm-7.93 0c0 .55-.45 1-1 1s-1-.45-1-1 .45-1 1-1 1 .45 1 1zm-7.93 0c0 .55-.45 1-1 1-.56 0-1-.45-1-1s.44-1 1-1c.55 0 1 .45 1 1zm-7.93 0c0 .55-.46 1-1 1-.57 0-1-.45-1-1s.43-1 1-1c.54 0 1 .45 1 1zm-7.94 0c0 .55-.45 1-1 1-.56 0-1-.45-1-1s.44-1 1-1c.55 0 1 .45 1 1zm-7.94 0c0 .55-.44 1-1 1-.55 0-1-.45-1-1s.45-1 1-1c.56 0 1 .45 1 1zm-7.93 0c0 .55-.45 1-1 1-.56 0-1-.45-1-1s.44-1 1-1c.55 0 1 .45 1 1zm-7.94 0c0 .55-.45 1-1 1s-1-.45-1-1 .45-1 1-1 1 .45 1 1zm-7.93 0c0 .55-.45 1-1 1s-1-.45-1-1 .45-1 1-1 1 .45 1 1zm-7.93 0c0 .55-.45 1-1 1s-1-.45-1-1 .45-1 1-1 1 .45 1 1zm-7.93 0c0 .55-.45 1-1 1s-1-.45-1-1 .45-1 1-1 1 .45 1 1zm-7.93 0c0 .55-.45 1-1 1s-1-.45-1-1 .45-1 1-1 1 .45 1 1zm-7.93 0c0 .55-.44 1-1 1-.55 0-1-.45-1-1s.45-1 1-1c.56 0 1 .45 1 1zm-7.92 0c0 .55-.45 1-1 1-.56 0-1-.45-1-1s.44-1 1-1c.55 0 1 .45 1 1zm-7.94 0c0 .55-.44 1-1 1-.55 0-1-.45-1-1s.45-1 1-1c.56 0 1 .45 1 1zm-7.93 0c0 .55-.43 1-1 1-.54 0-1-.45-1-1s.46-1 1-1c.57 0 1 .45 1 1zm-7.92 0c0 .55-.44 1-1 1-.55 0-1-.45-1-1s.45-1 1-1c.56 0 1 .45 1 1zm-7.93 0c0 .55-.45 1-1 1s-1-.45-1-1 .45-1 1-1 1 .45 1 1zm-7.93 0c0 .55-.45 1-1 1s-1-.45-1-1 .45-1 1-1 1 .45 1 1zm-7.93 0c0 .55-.46 1-1 1-.56 0-1-.45-1-1s.44-1 1-1c.54 0 1 .45 1 1zm-7.94 0c0 .55-.45 1-1 1s-1-.45-1-1 .45-1 1-1 1 .45 1 1zm-7.93 0c0 .55-.45 1-1 1s-1-.45-1-1 .45-1 1-1 1 .45 1 1zm-7.93 0c0 .55-.45 1-1 1-.56 0-1-.45-1-1s.44-1 1-1c.55 0 1 .45 1 1zm-7.93 0c0 .55-.45 1-1 1-.56 0-1-.45-1-1s.44-1 1-1c.55 0 1 .45 1 1zm-7.94 0c0 .55-.44 1-1 1-.55 0-1-.45-1-1s.45-1 1-1c.56 0 1 .45 1 1zm-7.93 0c0 .55-.44 1-1 1-.55 0-1-.45-1-1s.45-1 1-1c.56 0 1 .45 1 1zm-7.93 0c0 .55-.45 1-1 1s-1-.45-1-1 .45-1 1-1 1 .45 1 1zm-7.93 0c0 .55-.45 1-1 1s-1-.45-1-1 .45-1 1-1 1 .45 1 1zm-7.93 0c0 .55-.44 1-1 1-.54 0-1-.45-1-1s.46-1 1-1c.56 0 1 .45 1 1zm-7.92 0c0 .55-.45 1-1 1s-1-.45-1-1 .45-1 1-1 1 .45 1 1zm-7.93 0c0 .55-.45 1-1 1s-1-.45-1-1 .45-1 1-1 1 .45 1 1zm-7.93 0c0 .55-.45 1-1 1-.56 0-1-.45-1-1s.44-1 1-1c.55 0 1 .45 1 1zm-7.93 0c0 .55-.46 1-1 1-.57 0-1-.45-1-1s.43-1 1-1c.54 0 1 .45 1 1zm-7.94 0c0 .55-.45 1-1 1-.56 0-1-.45-1-1s.44-1 1-1c.55 0 1 .45 1 1zm-7.94 0c0 .55-.44 1-1 1-.55 0-1-.45-1-1s.45-1 1-1c.56 0 1 .45 1 1zm-7.93 0c0 .55-.45 1-1 1-.56 0-1-.45-1-1s.44-1 1-1c.55 0 1 .45 1 1zm-7.94 0c0 .55-.45 1-1 1s-1-.45-1-1 .45-1 1-1 1 .45 1 1zm-7.93 0c0 .55-.45 1-1 1s-1-.45-1-1 .45-1 1-1 1 .45 1 1zm-7.93 0c0 .55-.45 1-1 1s-1-.45-1-1 .45-1 1-1 1 .45 1 1zm0-7.9c0 .56-.45 1-1 1s-1-.44-1-1c0-.55.45-1 1-1s1 .45 1 1zm0-7.9c0 .56-.45 1-1 1s-1-.44-1-1c0-.54.45-1 1-1s1 .46 1 1zm0-7.88c0 .55-.45 1-1 1s-1-.45-1-1c0-.56.45-1 1-1s1 .44 1 1zm0-7.9c0 .55-.45 1-1 1s-1-.45-1-1 .45-1 1-1 1 .45 1 1zm0-7.9c0 .56-.45 1-1 1s-1-.44-1-1c0-.55.45-1 1-1s1 .45 1 1zm0-7.9c0 .56-.45 1-1 1s-1-.44-1-1c0-.54.45-1 1-1s1 .46 1 1zm0-7.88c0 .55-.45 1-1 1s-1-.45-1-1c0-.56.45-1 1-1s1 .44 1 1zm0-7.9c0 .55-.45 1-1 1s-1-.45-1-1 .45-1 1-1 1 .45 1 1zm0-7.9c0 .56-.45 1-1 1s-1-.44-1-1c0-.54.45-1 1-1s1 .46 1 1zm0-7.9c0 .56-.45 1-1 1s-1-.44-1-1c0-.54.45-1 1-1s1 .46 1 1zm0-7.88c0 .55-.45 1-1 1s-1-.45-1-1 .45-1 1-1 1 .45 1 1zm0-7.9c0 .56-.45 1-1 1s-1-.44-1-1c0-.55.45-1 1-1s1 .45 1 1zm0-7.9c0 .56-.45 1-1 1s-1-.44-1-1c0-.54.45-1 1-1s1 .46 1 1zm0-7.9c0 .57-.45 1-1 1s-1-.43-1-1c0-.54.45-1 1-1s1 .46 1 1zm0-7.88c0 .55-.45 1-1 1s-1-.45-1-1 .45-1 1-1 1 .45 1 1zm0-7.9c0 .56-.45 1-1 1s-1-.44-1-1c0-.55.45-1 1-1s1 .45 1 1zm0-7.9c0 .56-.45 1-1 1s-1-.44-1-1c0-.54.45-1 1-1s1 .46 1 1zm0-7.9c0 .57-.45 1-1 1s-1-.43-1-1c0-.54.45-1 1-1s1 .46 1 1zm0-7.88c0 .55-.45 1-1 1s-1-.45-1-1 .45-1 1-1 1 .45 1 1zm0-7.9c0 .56-.45 1-1 1s-1-.44-1-1c0-.55.45-1 1-1s1 .45 1 1zm0-7.9c0 .56-.45 1-1 1s-1-.44-1-1c0-.54.45-1 1-1s1 .46 1 1zm0-7.88c0 .55-.45 1-1 1s-1-.45-1-1c0-.56.45-1 1-1s1 .44 1 1zm0-7.9c0 .55-.45 1-1 1s-1-.45-1-1 .45-1 1-1 1 .45 1 1zm0-7.9c0 .56-.45 1-1 1s-1-.44-1-1c0-.55.45-1 1-1s1 .45 1 1zm0-7.9c0 .56-.45 1-1 1s-1-.44-1-1c0-.54.45-1 1-1s1 .46 1 1zm0-7.88c0 .55-.45 1-1 1s-1-.45-1-1c0-.56.45-1 1-1s1 .44 1 1zm0-7.9c0 .55-.45 1-1 1s-1-.45-1-1 .45-1 1-1 1 .45 1 1zm0-7.9c0 .56-.45 1-1 1s-1-.44-1-1c0-.54.45-1 1-1s1 .46 1 1zm0-7.9c0 .56-.45 1-1 1s-1-.44-1-1c0-.54.45-1 1-1s1 .46 1 1zm0-7.88c0 .55-.45 1-1 1s-1-.45-1-1 .45-1 1-1 1 .45 1 1zm0-7.9c0 .56-.45 1-1 1s-1-.44-1-1c0-.55.45-1 1-1s1 .45 1 1zm0-7.9c0 .56-.45 1-1 1s-1-.44-1-1c0-.54.45-1 1-1s1 .46 1 1zm0-7.9c0 .57-.45 1-1 1s-1-.43-1-1c0-.54.45-1 1-1s1 .46 1 1zm0-7.88c0 .55-.45 1-1 1s-1-.45-1-1 .45-1 1-1 1 .45 1 1zm0-7.9c0 .56-.45 1-1 1s-1-.44-1-1c0-.55.45-1 1-1s1 .45 1 1zm0-7.9c0 .56-.45 1-1 1s-1-.44-1-1c0-.54.45-1 1-1s1 .46 1 1zm0-7.9c0 .57-.45 1-1 1s-1-.43-1-1c0-.54.45-1 1-1s1 .46 1 1zm0-7.88c0 .55-.45 1-1 1s-1-.45-1-1 .45-1 1-1 1 .45 1 1z"/><path d="M600 120h240v60H600z" fill="none"/><use xlink:href="#o" transform="translate(668.075 139.4)"/><use xlink:href="#p" transform="translate(729.975 139.4)"/><use xlink:href="#q" transform="translate(638.718 163.667)"/><use xlink:href="#r" transform="translate(711.775 163.667)"/><use xlink:href="#s" transform="translate(727.275 163.667)"/><path d="M697.6 540h60v26.6h-60z" fill="none"/><use xlink:href="#t" transform="translate(722.35 559.4)"/><defs><path d="M33 0v-248h34V0H33" id="u"/><path d="M117-194c89-4 53 116 60 194h-32v-121c0-31-8-49-39-48C34-167 62-67 57 0H25l-1-190h30c1 10-1 24 2 32 11-22 29-35 61-36" id="v"/><path d="M96-169c-40 0-48 33-48 73s9 75 48 75c24 0 41-14 43-38l32 2c-6 37-31 61-74 61-59 0-76-41-82-99-10-93 101-131 147-64 4 7 5 14 7 22l-32 3c-4-21-16-35-41-35" id="w"/><path d="M100-194c62-1 85 37 85 99 1 63-27 99-86 99S16-35 15-95c0-66 28-99 85-99zM99-20c44 1 53-31 53-75 0-43-8-75-51-75s-53 32-53 75 10 74 51 75" id="x"/><path d="M210-169c-67 3-38 105-44 169h-31v-121c0-29-5-50-35-48C34-165 62-65 56 0H25l-1-190h30c1 10-1 24 2 32 10-44 99-50 107 0 11-21 27-35 58-36 85-2 47 119 55 194h-31v-121c0-29-5-49-35-48" id="y"/><path d="M100-194c63 0 86 42 84 106H49c0 40 14 67 53 68 26 1 43-12 49-29l28 8c-11 28-37 45-77 45C44 4 14-33 15-96c1-61 26-98 85-98zm52 81c6-60-76-77-97-28-3 7-6 17-6 28h103" id="z"/><path d="M135-143c-3-34-86-38-87 0 15 53 115 12 119 90S17 21 10-45l28-5c4 36 97 45 98 0-10-56-113-15-118-90-4-57 82-63 122-42 12 7 21 19 24 35" id="A"/><path d="M118-107v75H92v-75H18v-26h74v-75h26v75h74v26h-74" id="ab"/><path d="M30 0v-248h33v221h125V0H30" id="B"/><path d="M24-231v-30h32v30H24zM24 0v-190h32V0H24" id="C"/><path d="M141-36C126-15 110 5 73 4 37 3 15-17 15-53c-1-64 63-63 125-63 3-35-9-54-41-54-24 1-41 7-42 31l-33-3c5-37 33-52 76-52 45 0 72 20 72 64v82c-1 20 7 32 28 27v20c-31 9-61-2-59-35zM48-53c0 20 12 33 32 33 41-3 63-29 60-74-43 2-92-5-92 41" id="D"/><path d="M115-194c53 0 69 39 70 98 0 66-23 100-70 100C84 3 66-7 56-30L54 0H23l1-261h32v101c10-23 28-34 59-34zm-8 174c40 0 45-34 45-75 0-40-5-75-45-74-42 0-51 32-51 76 0 43 10 73 51 73" id="E"/><path d="M24 0v-261h32V0H24" id="F"/><path d="M59-47c-2 24 18 29 38 22v24C64 9 27 4 27-40v-127H5v-23h24l9-43h21v43h35v23H59v120" id="G"/><path d="M158-156l-14 65h45v19h-49L124 0h-19l15-72H56L41 0H22l15-72H2v-19h39l14-65H11v-19h48l15-71h20l-16 71h64l16-71h19l-16 71h37v19h-40zm-83 0L61-91h63l14-65H75" id="H"/><path d="M27 0v-27h64v-190l-56 39v-29l58-41h29v221h61V0H27" id="I"/><path d="M33 0v-38h34V0H33" id="J"/><path d="M101-251c82-7 93 87 43 132L82-64C71-53 59-42 53-27h129V0H18c2-99 128-94 128-182 0-28-16-43-45-43s-46 15-49 41l-32-3c6-41 34-60 81-64" id="K"/><path d="M205 0l-28-72H64L36 0H1l101-248h38L239 0h-34zm-38-99l-47-123c-12 45-31 82-46 123h93" id="L"/><path d="M30 0v-248h187v28H63v79h144v27H63v87h162V0H30" id="M"/><path d="M141 0L90-78 38 0H4l68-98-65-92h35l48 74 47-74h35l-64 92 68 98h-35" id="N"/><path d="M115-194c55 1 70 41 70 98S169 2 115 4C84 4 66-9 55-30l1 105H24l-1-265h31l2 30c10-21 28-34 59-34zm-8 174c40 0 45-34 45-75s-6-73-45-74c-42 0-51 32-51 76 0 43 10 73 51 73" id="O"/><path d="M127-220V0H93v-220H8v-28h204v28h-85" id="P"/><path d="M114-163C36-179 61-72 57 0H25l-1-190h30c1 12-1 29 2 39 6-27 23-49 58-41v29" id="Q"/><path d="M137 0h-34L2-248h35l83 218 83-218h36" id="R"/><path d="M84 4C-5 8 30-112 23-190h32v120c0 31 7 50 39 49 72-2 45-101 50-169h31l1 190h-30c-1-10 1-25-2-33-11 22-28 36-60 37" id="S"/><path d="M126-127c33 6 58 20 58 59 0 88-139 92-164 29-3-8-5-16-6-25l32-3c6 27 21 44 54 44 32 0 52-15 52-46 0-38-36-46-79-43v-28c39 1 72-4 72-42 0-27-17-43-46-43-28 0-47 15-49 41l-32-3c6-42 35-63 81-64 48-1 79 21 79 65 0 36-21 52-52 59" id="T"/><path d="M30-248c118-7 216 8 213 122C240-48 200 0 122 0H30v-248zM63-27c89 8 146-16 146-99s-60-101-146-95v194" id="U"/><path d="M179-190L93 31C79 59 56 82 12 73V49c39 6 53-20 64-50L1-190h34L92-34l54-156h33" id="V"/><path fill="#222" d="M19 0v-28l95-102-92-89v-29h176v28H60l80 78v22L54-27h154V0H19" id="W"/><path fill="#222" d="M87 75C49 33 22-17 22-94c0-76 28-126 65-167h31c-38 41-64 92-64 168S80 34 118 75H87" id="X"/><path d="M33-261c38 41 65 92 65 168S71 34 33 75H2C39 34 66-17 66-93S39-220 2-261h31" id="Y"/><path d="M18-150v-26h174v26H18zm0 90v-26h174v26H18" id="ac"/><path d="M212-179c-10-28-35-45-73-45-59 0-87 40-87 99 0 60 29 101 89 101 43 0 62-24 78-52l27 14C228-24 195 4 139 4 59 4 22-46 18-125c-6-104 99-153 187-111 19 9 31 26 39 46" id="Z"/><path d="M85-194c31 0 48 13 60 33l-1-100h32l1 261h-30c-2-10 0-23-3-31C134-8 116 4 85 4 32 4 16-35 15-94c0-66 23-100 70-100zm9 24c-40 0-46 34-46 75 0 40 6 74 45 74 42 0 51-32 51-76 0-42-9-74-50-73" id="aa"/><g id="a"><use transform="rotate(.286) scale(.05926)" xlink:href="#u"/><use transform="translate(5.926) scale(.05926)" xlink:href="#v"/><use transform="translate(17.778) scale(.05926)" xlink:href="#w"/><use transform="translate(28.444) scale(.05926)" xlink:href="#x"/><use transform="translate(40.296) scale(.05926)" xlink:href="#y"/><use transform="translate(58.015) scale(.05926)" xlink:href="#z"/><use transform="translate(69.867) scale(.05926)" xlink:href="#A"/></g><g id="c"><use transform="rotate(.286) scale(.05926)" xlink:href="#B"/><use transform="translate(11.852) scale(.05926)" xlink:href="#C"/><use transform="translate(16.533) scale(.05926)" xlink:href="#D"/><use transform="translate(28.385) scale(.05926)" xlink:href="#E"/><use transform="translate(40.237) scale(.05926)" xlink:href="#C"/><use transform="translate(44.919) scale(.05926)" xlink:href="#F"/><use transform="translate(49.6) scale(.05926)" xlink:href="#C"/><use transform="translate(54.281) scale(.05926)" xlink:href="#G"/><use transform="translate(60.207) scale(.05926)" xlink:href="#C"/><use transform="translate(64.889) scale(.05926)" xlink:href="#z"/><use transform="translate(76.74) scale(.05926)" xlink:href="#A"/></g><g id="d"><use transform="rotate(.286) scale(.05926)" xlink:href="#H"/><use transform="translate(11.852) scale(.05926)" xlink:href="#I"/><use transform="translate(23.704) scale(.05926)" xlink:href="#J"/><use transform="translate(29.63) scale(.05926)" xlink:href="#K"/></g><g id="e"><use transform="rotate(.286) scale(.05926)" xlink:href="#L"/><use transform="translate(14.222) scale(.05926)" xlink:href="#A"/><use transform="translate(24.889) scale(.05926)" xlink:href="#A"/><use transform="translate(35.556) scale(.05926)" xlink:href="#z"/><use transform="translate(47.407) scale(.05926)" xlink:href="#G"/><use transform="translate(53.333) scale(.05926)" xlink:href="#A"/></g><g id="f"><use transform="rotate(.286) scale(.05926)" xlink:href="#M"/><use transform="translate(14.222) scale(.05926)" xlink:href="#N"/><use transform="translate(24.889) scale(.05926)" xlink:href="#O"/><use transform="translate(36.74) scale(.05926)" xlink:href="#z"/><use transform="translate(48.593) scale(.05926)" xlink:href="#v"/><use transform="translate(60.444) scale(.05926)" xlink:href="#A"/><use transform="translate(71.111) scale(.05926)" xlink:href="#z"/><use transform="translate(82.963) scale(.05926)" xlink:href="#A"/></g><g id="g"><use transform="rotate(.286) scale(.05926)" xlink:href="#H"/><use transform="translate(11.852) scale(.05926)" xlink:href="#I"/></g><g id="h"><use transform="scale(.05)" xlink:href="#P"/><use transform="translate(10.3) scale(.05)" xlink:href="#Q"/><use transform="translate(16.25) scale(.05)" xlink:href="#D"/><use transform="translate(26.25) scale(.05)" xlink:href="#v"/><use transform="translate(36.25) scale(.05)" xlink:href="#A"/><use transform="translate(45.25) scale(.05)" xlink:href="#D"/><use transform="translate(55.25) scale(.05)" xlink:href="#w"/><use transform="translate(64.25) scale(.05)" xlink:href="#G"/><use transform="translate(69.25) scale(.05)" xlink:href="#C"/><use transform="translate(73.2) scale(.05)" xlink:href="#x"/><use transform="translate(83.2) scale(.05)" xlink:href="#v"/></g><g id="i"><use transform="scale(.05)" xlink:href="#R"/><use transform="translate(10.65) scale(.05)" xlink:href="#D"/><use transform="translate(20.65) scale(.05)" xlink:href="#F"/><use transform="translate(24.6) scale(.05)" xlink:href="#S"/><use transform="translate(34.6) scale(.05)" xlink:href="#z"/></g><g id="j"><use transform="rotate(.286) scale(.05926)" xlink:href="#H"/><use transform="translate(11.852) scale(.05926)" xlink:href="#K"/></g><g id="k"><use transform="rotate(.286) scale(.05926)" xlink:href="#H"/><use transform="translate(11.852) scale(.05926)" xlink:href="#T"/></g><g id="l"><use transform="rotate(.286) scale(.05926)" xlink:href="#H"/><use transform="translate(11.852) scale(.05926)" xlink:href="#T"/><use transform="translate(23.704) scale(.05926)" xlink:href="#J"/><use transform="translate(29.63) scale(.05926)" xlink:href="#I"/></g><g id="m"><use transform="rotate(.286) scale(.05926)" xlink:href="#H"/><use transform="translate(11.852) scale(.05926)" xlink:href="#I"/><use transform="translate(23.704) scale(.05926)" xlink:href="#J"/><use transform="translate(29.63) scale(.05926)" xlink:href="#I"/></g><g id="n"><use transform="rotate(.286) scale(.05926)" xlink:href="#H"/><use transform="translate(11.852) scale(.05926)" xlink:href="#T"/><use transform="translate(23.704) scale(.05926)" xlink:href="#J"/><use transform="translate(29.63) scale(.05926)" xlink:href="#K"/></g><g id="o"><use transform="scale(.05)" xlink:href="#U"/><use transform="translate(12.95) scale(.05)" xlink:href="#x"/><use transform="translate(22.95) scale(.05)" xlink:href="#S"/><use transform="translate(32.95) scale(.05)" xlink:href="#E"/><use transform="translate(42.95) scale(.05)" xlink:href="#F"/><use transform="translate(46.9) scale(.05)" xlink:href="#z"/></g><g id="p"><use transform="scale(.05)" xlink:href="#M"/><use transform="translate(12) scale(.05)" xlink:href="#v"/><use transform="translate(22) scale(.05)" xlink:href="#G"/><use transform="translate(27) scale(.05)" xlink:href="#Q"/><use transform="translate(32.95) scale(.05)" xlink:href="#V"/></g><g id="q"><use transform="rotate(.286) scale(.05926)" xlink:href="#W"/><use transform="translate(13.156) scale(.05926)" xlink:href="#X"/><use transform="translate(20.207) scale(.05)" xlink:href="#U"/><use transform="translate(33.157) scale(.05)" xlink:href="#z"/><use transform="translate(43.157) scale(.05)" xlink:href="#E"/><use transform="translate(53.157) scale(.05)" xlink:href="#C"/><use transform="translate(57.107) scale(.05)" xlink:href="#G"/><use transform="translate(62.107) scale(.05)" xlink:href="#Y"/></g><g id="s"><use transform="rotate(.286) scale(.05926)" xlink:href="#W"/><use transform="translate(13.156) scale(.05926)" xlink:href="#X"/><use transform="translate(20.207) scale(.05)" xlink:href="#Z"/><use transform="translate(33.157) scale(.05)" xlink:href="#Q"/><use transform="translate(39.107) scale(.05)" xlink:href="#z"/><use transform="translate(49.107) scale(.05)" xlink:href="#aa"/><use transform="translate(59.107) scale(.05)" xlink:href="#C"/><use transform="translate(63.057) scale(.05)" xlink:href="#G"/><use transform="translate(68.057) scale(.05)" xlink:href="#Y"/></g><use transform="rotate(.286) scale(.05926)" xlink:href="#ab" id="b"/><use transform="scale(.05)" xlink:href="#ac" id="r"/><use transform="scale(.05)" xlink:href="#ac" id="t"/></defs></g></svg>