<svg xmlns="http://www.w3.org/2000/svg" xmlns:xlink="http://www.w3.org/1999/xlink" xmlns:lucid="lucid" width="740" height="900"><g transform="translate(-180 -80)" lucid:page-tab-id="0_0"><path d="M200 100h200v100H200z" stroke="#3aa6dd" stroke-width="2" fill="#c1e4f7"/><use xlink:href="#a" transform="translate(223.65 153.15)"/><use xlink:href="#b" transform="translate(270.6 153.15)"/><use xlink:href="#c" transform="translate(313.45 153.15)"/><path d="M900 316.3c0 6.63-26.86 12-60 12s-60-5.37-60-12v-96c0-6.63 26.86-12 60-12s60 5.37 60 12z" stroke="#7ab648" stroke-width="2" fill="#c7e8ac"/><path d="M900 220.3c0 6.63-26.86 12-60 12s-60-5.37-60-12" stroke="#7ab648" stroke-width="2" fill="none"/><use xlink:href="#d" transform="translate(793.325 273.2)"/><use xlink:href="#e" transform="translate(821.675 273.2)"/><use xlink:href="#f" transform="translate(830 294.8)"/><path d="M200 228.3h200v283.4H200z" stroke="#3aa6dd" stroke-width="2" fill="#c1e4f7"/><use xlink:href="#g" transform="translate(210.95 371.856)"/><use xlink:href="#h" transform="translate(309.15 371.856)"/><use xlink:href="#i" transform="translate(325.15 371.856)"/><path d="M200 550h200v280H200z" stroke="#3aa6dd" stroke-width="2" fill="#c1e4f7"/><use xlink:href="#g" transform="translate(210.45 691.744)"/><use xlink:href="#j" transform="translate(308.65 691.744)"/><use xlink:href="#i" transform="translate(325.65 691.744)"/><path d="M200 860h200v100H200z" stroke="#3aa6dd" stroke-width="2" fill="#c1e4f7"/><use xlink:href="#a" transform="translate(211.675 913.15)"/><use xlink:href="#b" transform="translate(258.625 913.15)"/><use xlink:href="#k" transform="translate(301.475 913.15)"/><path d="M900 598c0 6.63-26.86 12-60 12s-60-5.37-60-12v-96c0-6.63 26.86-12 60-12s60 5.37 60 12z" stroke="#7ab648" stroke-width="2" fill="#c7e8ac"/><path d="M900 502c0 6.63-26.86 12-60 12s-60-5.37-60-12" stroke="#7ab648" stroke-width="2" fill="none"/><use xlink:href="#d" transform="translate(793.325 554.9)"/><use xlink:href="#e" transform="translate(821.675 554.9)"/><use xlink:href="#l" transform="translate(830 576.5)"/><path d="M900 838c0 6.63-26.86 12-60 12s-60-5.37-60-12v-96c0-6.63 26.86-12 60-12s60 5.37 60 12z" stroke="#7ab648" stroke-width="2" fill="#c7e8ac"/><path d="M900 742c0 6.63-26.86 12-60 12s-60-5.37-60-12" stroke="#7ab648" stroke-width="2" fill="none"/><use xlink:href="#d" transform="translate(793.325 794.9)"/><use xlink:href="#e" transform="translate(821.675 794.9)"/><use xlink:href="#m" transform="translate(830 816.5)"/><path d="M300 202v6.8" stroke="#000" stroke-width="2" fill="none"/><path d="M301 202.03h-2V201h2z"/><path d="M300 224.06l-4.64-14.26h9.28z" stroke="#000" stroke-width="2"/><path d="M300 513.7v16.8" stroke="#000" stroke-width="2" fill="none"/><path d="M301 513.73h-2v-1.03h2z"/><path d="M300 545.76l-4.64-14.26h9.28z" stroke="#000" stroke-width="2"/><path d="M300 832v8.5" stroke="#000" stroke-width="2" fill="none"/><path d="M301 832.03h-2V831h2z"/><path d="M300 855.76l-4.64-14.26h9.28z" stroke="#000" stroke-width="2"/><path d="M420 228.3h124l16 16v64H420z" stroke="#fcc438" stroke-width="2" fill="#ffeca9"/><path d="M544 229.25v15.05h15.05" stroke="#fcc438" stroke-width="2" fill="#ffeca9"/><use xlink:href="#n" transform="translate(435.048 259.117)"/><use xlink:href="#o" transform="translate(521.507 259.117)"/><use xlink:href="#p" transform="translate(430.296 284.717)"/><use xlink:href="#q" transform="translate(523.63 284.717)"/><path d="M420 424.9h122.64L560 442.26v69.44H420z" stroke="#ef8d22" stroke-width="2" fill="#ffdba9"/><path d="M542.64 425.85v16.4h16.4" stroke="#ef8d22" stroke-width="2" fill="#ffdba9"/><use xlink:href="#r" transform="translate(448.815 458.998)"/><use xlink:href="#o" transform="translate(518.74 458.998)"/><use xlink:href="#s" transform="translate(427.185 484.598)"/><use xlink:href="#t" transform="translate(526.74 484.598)"/><path d="M420 550h124l16 16v64H420z" stroke="#fcc438" stroke-width="2" fill="#ffeca9"/><path d="M544 550.95V566h15.05" stroke="#fcc438" stroke-width="2" fill="#ffeca9"/><use xlink:href="#n" transform="translate(435.048 580.817)"/><use xlink:href="#o" transform="translate(521.507 580.817)"/><use xlink:href="#p" transform="translate(430.296 606.417)"/><use xlink:href="#u" transform="translate(523.63 606.417)"/><path d="M420 650h124l16 16v64H420z" stroke="#ef8d22" stroke-width="2" fill="#ffdba9"/><path d="M544 650.95V666h15.05" stroke="#ef8d22" stroke-width="2" fill="#ffdba9"/><use xlink:href="#r" transform="translate(443.315 680.817)"/><use xlink:href="#o" transform="translate(513.24 680.817)"/><use xlink:href="#s" transform="translate(427.185 706.417)"/><use xlink:href="#v" transform="translate(526.74 706.417)"/><path d="M420 750h124l16 16v64H420z" stroke="#ef8d22" stroke-width="2" fill="#ffdba9"/><path d="M544 750.95V766h15.05" stroke="#ef8d22" stroke-width="2" fill="#ffdba9"/><use xlink:href="#r" transform="translate(443.315 780.817)"/><use xlink:href="#o" transform="translate(513.24 780.817)"/><use xlink:href="#s" transform="translate(427.185 806.417)"/><use xlink:href="#w" transform="translate(526.74 806.417)"/><path d="M562 268.3h9.46m9.45 0h18.9m9.46 0h18.9m9.46 0h18.9m9.46 0h18.9m9.45 0h18.9m9.46 0h18.9m9.45 0h9.45" stroke="#fcc438" stroke-width="2" fill="none"/><path d="M562.03 269.3H561v-2h1.03z" fill="#fcc438"/><path d="M775.76 268.3l-14.26 4.64v-9.28z" stroke="#fcc438" stroke-width="2" fill="#fcc438"/><path d="M562 468.32l1.3.03 2.23.14 2.2.22 2.14.32 2.1.4m9.54 3l1 .43 2.15 1 2.16 1.14 2.22 1.3 2.26 1.42 2.32 1.62 2.4 1.82 2.4 1.98m7.18 6.98l1.08 1.15 3.05 3.53 3.28 4.13 3.53 4.87 1.4 2.12m5.36 8.48l1.4 2.34 4.88 8.87 3.2 6.47m4.3 9.07l5.22 11.8 2.62 6.66m3.68 9.33l3.55 9.03 3.5 9.75m3.4 9.46l6.75 18.88m3.38 9.45l6.77 18.88m3.38 9.44l6.76 18.9m3.4 9.43l6.75 18.9m3.74 9.28l4.82 10.86 3.63 7.33m4.65 8.88l2.28 4.16 4.3 7.1 3.86 5.84v.02m6.03 8.02l.76.96 3.04 3.53 2.87 3.06 2.73 2.65 2.6 2.34 2.06 1.7m8.23 5.7l1.36.8 2.15 1.12 2.14 1 2.1.9 1.28.47" stroke="#ef8d22" stroke-width="2" fill="none"/><path d="M562.05 467.32l-.04 2-1-.02v-2z" fill="#ef8d22"/><path d="M775.8 789.44l-14.84 2.07 1.62-9.12z" stroke="#ef8d22" stroke-width="2" fill="#ef8d22"/><path d="M562 589.98l1.3-.03 2.23-.14 2.2-.22 2.14-.32 2.1-.4m9.54-3l1-.43 2.15-1 2.16-1.14 2.22-1.3 2.26-1.42 2.32-1.62 2.4-1.82 2.4-1.98m7.18-6.98l1.08-1.15 3.05-3.53 3.28-4.13 3.53-4.87 1.4-2.12m5.36-8.48l1.4-2.34 4.88-8.87 3.2-6.47m4.3-9.07l5.22-11.8 2.62-6.66m3.68-9.33l3.55-9.03 3.5-9.75m3.4-9.46l6.75-18.88m3.38-9.45l6.77-18.88m3.38-9.44l6.76-18.9m3.4-9.43l6.75-18.9m3.74-9.28l4.82-10.86 3.63-7.33m4.65-8.88l2.28-4.16 4.3-7.1 3.86-5.84v-.02m6.03-8.02l.76-.96 3.04-3.53 2.87-3.06 2.73-2.65 2.6-2.34 2.06-1.7m8.23-5.7l1.36-.8 2.15-1.12 2.14-1 2.1-.9 1.28-.47" stroke="#fcc438" stroke-width="2" fill="none"/><path d="M562.05 590.98L561 591v-2l1-.02z" fill="#fcc438"/><path d="M775.8 268.86l-13.22 7.06-1.62-9.13z" stroke="#fcc438" stroke-width="2" fill="#fcc438"/><path d="M562 689.98l4.17-.1 4.87-.3 1.4-.14m10.34-1.5l1.54-.3 4.1-.96 3.96-1.1 3.9-1.27 3.8-1.4 2.64-1.12m9.37-4.63l3.05-1.76 3.85-2.46 3.96-2.75 4.12-3.14 2.17-1.8m7.8-6.95l4.28-4.17 6.12-6.53 3.9-4.54m6.73-8l13.14-16.26m6.57-8.13l13.14-16.27m7-7.75l.73-.78 5.2-5.1 4.7-4.23 4.35-3.6.47-.36m8.5-6.1l2.95-1.87 3.8-2.18 3.75-1.96 3.75-1.77 3.77-1.6.5-.18m9.94-3.26l1.23-.34 4.08-.96 4.24-.8.65-.1" stroke="#ef8d22" stroke-width="2" fill="none"/><path d="M562.05 690.98L561 691v-2l1-.02z" fill="#ef8d22"/><path d="M775.77 550.25L761.92 556l-.73-9.25z" stroke="#ef8d22" stroke-width="2" fill="#ef8d22"/><path d="M562 790h9.46m9.45 0h18.9m9.46 0h18.9m9.46 0h18.9m9.46 0h18.9m9.45 0h18.9m9.46 0h18.9m9.45 0h9.45" stroke="#ef8d22" stroke-width="2" fill="none"/><path d="M562.03 791H561v-2h1.03z" fill="#ef8d22"/><path d="M775.76 790l-14.26 4.64v-9.28z" stroke="#ef8d22" stroke-width="2" fill="#ef8d22"/><path d="M420 328.3h124l16 16v64H420z" stroke="#fcc438" stroke-width="2" fill="#ffeca9"/><path d="M544 329.25v15.05h15.05" stroke="#fcc438" stroke-width="2" fill="#ffeca9"/><use xlink:href="#n" transform="translate(435.048 359.117)"/><use xlink:href="#o" transform="translate(521.507 359.117)"/><use xlink:href="#p" transform="translate(430.296 384.717)"/><use xlink:href="#x" transform="translate(523.63 384.717)"/><path d="M562 368.32l3 .06 3.85.24 3.47.37m10.17 1.9l.4.08 3.3.92 3.25 1.06 3.2 1.2 3.2 1.33L599 377l2.7 1.4m8.78 5.44l1.55 1.08 3.43 2.6 3.57 2.96 3.73 3.36 3.46 3.4m7 7.6l2.4 2.8 5.3 6.7 4.97 6.86m5.8 8.57l4.47 6.75 6.66 10.7m5.47 8.77l10.93 17.56m5.47 8.78l8 12.83 3.27 4.52m6.24 8.24l2.16 2.7 4.67 5.42 4.24 4.53 2.77 2.7m7.74 6.87l.74.6 3.43 2.6 3.34 2.33 3.26 2.08 3.22 1.86 3.2 1.67.14.08m9.54 4l3.14 1.02 3.3.92 3.36.8.16.02" stroke="#fcc438" stroke-width="2" fill="none"/><path d="M562.05 367.32l-.04 2-1-.02v-2z" fill="#fcc438"/><path d="M775.78 549.67l-14.66 3.18.93-9.23z" stroke="#fcc438" stroke-width="2" fill="#fcc438"/><defs><path d="M212-179c-10-28-35-45-73-45-59 0-87 40-87 99 0 60 29 101 89 101 43 0 62-24 78-52l27 14C228-24 195 4 139 4 59 4 22-46 18-125c-6-104 99-153 187-111 19 9 31 26 39 46" id="y"/><path d="M141-36C126-15 110 5 73 4 37 3 15-17 15-53c-1-64 63-63 125-63 3-35-9-54-41-54-24 1-41 7-42 31l-33-3c5-37 33-52 76-52 45 0 72 20 72 64v82c-1 20 7 32 28 27v20c-31 9-61-2-59-35zM48-53c0 20 12 33 32 33 41-3 63-29 60-74-43 2-92-5-92 41" id="z"/><path d="M135-143c-3-34-86-38-87 0 15 53 115 12 119 90S17 21 10-45l28-5c4 36 97 45 98 0-10-56-113-15-118-90-4-57 82-63 122-42 12 7 21 19 24 35" id="A"/><path d="M106-169C34-169 62-67 57 0H25v-261h32l-1 103c12-21 28-36 61-36 89 0 53 116 60 194h-32v-121c2-32-8-49-39-48" id="B"/><path d="M63-220v92h138v28H63V0H30v-248h175v28H63" id="C"/><path d="M24 0v-261h32V0H24" id="D"/><path d="M100-194c62-1 85 37 85 99 1 63-27 99-86 99S16-35 15-95c0-66 28-99 85-99zM99-20c44 1 53-31 53-75 0-43-8-75-51-75s-53 32-53 75 10 74 51 75" id="E"/><path d="M206 0h-36l-40-164L89 0H53L-1-190h32L70-26l43-164h34l41 164 42-164h31" id="F"/><path d="M33 0v-248h34V0H33" id="G"/><path d="M117-194c89-4 53 116 60 194h-32v-121c0-31-8-49-39-48C34-167 62-67 57 0H25l-1-190h30c1 10-1 24 2 32 11-22 29-35 61-36" id="H"/><path d="M24-231v-30h32v30H24zM24 0v-190h32V0H24" id="I"/><path d="M59-47c-2 24 18 29 38 22v24C64 9 27 4 27-40v-127H5v-23h24l9-43h21v43h35v23H59v120" id="J"/><path d="M100-194c63 0 86 42 84 106H49c0 40 14 67 53 68 26 1 43-12 49-29l28 8c-11 28-37 45-77 45C44 4 14-33 15-96c1-61 26-98 85-98zm52 81c6-60-76-77-97-28-3 7-6 17-6 28h103" id="K"/><path d="M85-194c31 0 48 13 60 33l-1-100h32l1 261h-30c-2-10 0-23-3-31C134-8 116 4 85 4 32 4 16-35 15-94c0-66 23-100 70-100zm9 24c-40 0-46 34-46 75 0 40 6 74 45 74 42 0 51-32 51-76 0-42-9-74-50-73" id="L"/><path d="M143 4C61 4 22-44 18-125c-5-107 100-154 193-111 17 8 29 25 37 43l-32 9c-13-25-37-40-76-40-61 0-88 39-88 99 0 61 29 100 91 101 35 0 62-11 79-27v-45h-74v-28h105v86C228-13 192 4 143 4" id="M"/><path d="M30 0v-248h33v221h125V0H30" id="N"/><path d="M205 0l-28-72H64L36 0H1l101-248h38L239 0h-34zm-38-99l-47-123c-12 45-31 82-46 123h93" id="O"/><path d="M96-169c-40 0-48 33-48 73s9 75 48 75c24 0 41-14 43-38l32 2c-6 37-31 61-74 61-59 0-76-41-82-99-10-93 101-131 147-64 4 7 5 14 7 22l-32 3c-4-21-16-35-41-35" id="P"/><path d="M84 4C-5 8 30-112 23-190h32v120c0 31 7 50 39 49 72-2 45-101 50-169h31l1 190h-30c-1-10 1-25-2-33-11 22-28 36-60 37" id="Q"/><path d="M158-156l-14 65h45v19h-49L124 0h-19l15-72H56L41 0H22l15-72H2v-19h39l14-65H11v-19h48l15-71h20l-16 71h64l16-71h19l-16 71h37v19h-40zm-83 0L61-91h63l14-65H75" id="R"/><path d="M27 0v-27h64v-190l-56 39v-29l58-41h29v221h61V0H27" id="S"/><path d="M127-220V0H93v-220H8v-28h204v28h-85" id="T"/><path d="M114-163C36-179 61-72 57 0H25l-1-190h30c1 12-1 29 2 39 6-27 23-49 58-41v29" id="U"/><path d="M160-131c35 5 61 23 61 61C221 17 115-2 30 0v-248c76 3 177-17 177 60 0 33-19 50-47 57zm-97-11c50-1 110 9 110-42 0-47-63-36-110-37v79zm0 115c55-2 124 14 124-45 0-56-70-42-124-44v89" id="ac"/><path d="M210-169c-67 3-38 105-44 169h-31v-121c0-29-5-50-35-48C34-165 62-65 56 0H25l-1-190h30c1 10-1 24 2 32 10-44 99-50 107 0 11-21 27-35 58-36 85-2 47 119 55 194h-31v-121c0-29-5-49-35-48" id="V"/><path d="M115-194c55 1 70 41 70 98S169 2 115 4C84 4 66-9 55-30l1 105H24l-1-265h31l2 30c10-21 28-34 59-34zm-8 174c40 0 45-34 45-75s-6-73-45-74c-42 0-51 32-51 76 0 43 10 73 51 73" id="W"/><path d="M101-251c82-7 93 87 43 132L82-64C71-53 59-42 53-27h129V0H18c2-99 128-94 128-182 0-28-16-43-45-43s-46 15-49 41l-32-3c6-41 34-60 81-64" id="X"/><path d="M126-127c33 6 58 20 58 59 0 88-139 92-164 29-3-8-5-16-6-25l32-3c6 27 21 44 54 44 32 0 52-15 52-46 0-38-36-46-79-43v-28c39 1 72-4 72-42 0-27-17-43-46-43-28 0-47 15-49 41l-32-3c6-42 35-63 81-64 48-1 79 21 79 65 0 36-21 52-52 59" id="Y"/><path d="M118-107v75H92v-75H18v-26h74v-75h26v75h74v26h-74" id="ad"/><path d="M115-194c53 0 69 39 70 98 0 66-23 100-70 100C84 3 66-7 56-30L54 0H23l1-261h32v101c10-23 28-34 59-34zm-8 174c40 0 45-34 45-75 0-40-5-75-45-74-42 0-51 32-51 76 0 43 10 73 51 73" id="Z"/><path d="M30 0v-248h187v28H63v79h144v27H63v87h162V0H30" id="aa"/><path d="M141 0L90-78 38 0H4l68-98-65-92h35l48 74 47-74h35l-64 92 68 98h-35" id="ab"/><g id="a"><use transform="scale(.05)" xlink:href="#y"/><use transform="translate(12.95) scale(.05)" xlink:href="#z"/><use transform="translate(22.95) scale(.05)" xlink:href="#A"/><use transform="translate(31.95) scale(.05)" xlink:href="#B"/></g><g id="b"><use transform="scale(.05)" xlink:href="#C"/><use transform="translate(10.95) scale(.05)" xlink:href="#D"/><use transform="translate(14.9) scale(.05)" xlink:href="#E"/><use transform="translate(24.9) scale(.05)" xlink:href="#F"/></g><g id="c"><use transform="scale(.05)" xlink:href="#G"/><use transform="translate(5) scale(.05)" xlink:href="#H"/><use transform="translate(15) scale(.05)" xlink:href="#I"/><use transform="translate(18.95) scale(.05)" xlink:href="#J"/><use transform="translate(23.95) scale(.05)" xlink:href="#I"/><use transform="translate(27.9) scale(.05)" xlink:href="#z"/><use transform="translate(37.9) scale(.05)" xlink:href="#J"/><use transform="translate(42.9) scale(.05)" xlink:href="#K"/><use transform="translate(52.9) scale(.05)" xlink:href="#L"/></g><g id="d"><use transform="scale(.05)" xlink:href="#M"/><use transform="translate(14) scale(.05)" xlink:href="#N"/></g><g id="e"><use transform="scale(.05)" xlink:href="#O"/><use transform="translate(12) scale(.05)" xlink:href="#P"/><use transform="translate(21) scale(.05)" xlink:href="#P"/><use transform="translate(30) scale(.05)" xlink:href="#E"/><use transform="translate(40) scale(.05)" xlink:href="#Q"/><use transform="translate(50) scale(.05)" xlink:href="#H"/><use transform="translate(60) scale(.05)" xlink:href="#J"/></g><g id="f"><use transform="scale(.05)" xlink:href="#R"/><use transform="translate(10) scale(.05)" xlink:href="#S"/></g><g id="g"><use transform="scale(.05)" xlink:href="#T"/><use transform="translate(10.3) scale(.05)" xlink:href="#U"/><use transform="translate(16.25) scale(.05)" xlink:href="#z"/><use transform="translate(26.25) scale(.05)" xlink:href="#H"/><use transform="translate(36.25) scale(.05)" xlink:href="#A"/><use transform="translate(45.25) scale(.05)" xlink:href="#z"/><use transform="translate(55.25) scale(.05)" xlink:href="#P"/><use transform="translate(64.25) scale(.05)" xlink:href="#J"/><use transform="translate(69.25) scale(.05)" xlink:href="#I"/><use transform="translate(73.2) scale(.05)" xlink:href="#E"/><use transform="translate(83.2) scale(.05)" xlink:href="#H"/></g><g id="i"><use transform="scale(.05)" xlink:href="#y"/><use transform="translate(12.95) scale(.05)" xlink:href="#U"/><use transform="translate(18.9) scale(.05)" xlink:href="#K"/><use transform="translate(28.9) scale(.05)" xlink:href="#z"/><use transform="translate(38.9) scale(.05)" xlink:href="#J"/><use transform="translate(43.9) scale(.05)" xlink:href="#K"/><use transform="translate(53.9) scale(.05)" xlink:href="#L"/></g><g id="k"><use transform="scale(.05)" xlink:href="#y"/><use transform="translate(12.95) scale(.05)" xlink:href="#E"/><use transform="translate(22.95) scale(.05)" xlink:href="#V"/><use transform="translate(37.9) scale(.05)" xlink:href="#W"/><use transform="translate(47.9) scale(.05)" xlink:href="#D"/><use transform="translate(51.85) scale(.05)" xlink:href="#K"/><use transform="translate(61.85) scale(.05)" xlink:href="#J"/><use transform="translate(66.85) scale(.05)" xlink:href="#K"/><use transform="translate(76.85) scale(.05)" xlink:href="#L"/></g><g id="l"><use transform="scale(.05)" xlink:href="#R"/><use transform="translate(10) scale(.05)" xlink:href="#X"/></g><g id="m"><use transform="scale(.05)" xlink:href="#R"/><use transform="translate(10) scale(.05)" xlink:href="#Y"/></g><g id="n"><use transform="rotate(.286) scale(.05926)" xlink:href="#G"/><use transform="translate(5.926) scale(.05926)" xlink:href="#H"/><use transform="translate(17.778) scale(.05926)" xlink:href="#P"/><use transform="translate(28.444) scale(.05926)" xlink:href="#E"/><use transform="translate(40.296) scale(.05926)" xlink:href="#V"/><use transform="translate(58.015) scale(.05926)" xlink:href="#K"/><use transform="translate(69.867) scale(.05926)" xlink:href="#A"/></g><g id="p"><use transform="rotate(.286) scale(.05926)" xlink:href="#N"/><use transform="translate(11.852) scale(.05926)" xlink:href="#I"/><use transform="translate(16.533) scale(.05926)" xlink:href="#z"/><use transform="translate(28.385) scale(.05926)" xlink:href="#Z"/><use transform="translate(40.237) scale(.05926)" xlink:href="#I"/><use transform="translate(44.919) scale(.05926)" xlink:href="#D"/><use transform="translate(49.6) scale(.05926)" xlink:href="#I"/><use transform="translate(54.281) scale(.05926)" xlink:href="#J"/><use transform="translate(60.207) scale(.05926)" xlink:href="#I"/><use transform="translate(64.889) scale(.05926)" xlink:href="#K"/><use transform="translate(76.74) scale(.05926)" xlink:href="#A"/></g><g id="q"><use transform="rotate(.286) scale(.05926)" xlink:href="#O"/><use transform="translate(14.222) scale(.05926)" xlink:href="#S"/></g><g id="r"><use transform="rotate(.286) scale(.05926)" xlink:href="#O"/><use transform="translate(14.222) scale(.05926)" xlink:href="#A"/><use transform="translate(24.889) scale(.05926)" xlink:href="#A"/><use transform="translate(35.556) scale(.05926)" xlink:href="#K"/><use transform="translate(47.407) scale(.05926)" xlink:href="#J"/><use transform="translate(53.333) scale(.05926)" xlink:href="#A"/></g><g id="s"><use transform="rotate(.286) scale(.05926)" xlink:href="#aa"/><use transform="translate(14.222) scale(.05926)" xlink:href="#ab"/><use transform="translate(24.889) scale(.05926)" xlink:href="#W"/><use transform="translate(36.74) scale(.05926)" xlink:href="#K"/><use transform="translate(48.593) scale(.05926)" xlink:href="#H"/><use transform="translate(60.444) scale(.05926)" xlink:href="#A"/><use transform="translate(71.111) scale(.05926)" xlink:href="#K"/><use transform="translate(82.963) scale(.05926)" xlink:href="#A"/></g><g id="t"><use transform="rotate(.286) scale(.05926)" xlink:href="#O"/><use transform="translate(14.222) scale(.05926)" xlink:href="#Y"/></g><g id="u"><use transform="rotate(.286) scale(.05926)" xlink:href="#ac"/><use transform="translate(14.222) scale(.05926)" xlink:href="#S"/></g><g id="v"><use transform="rotate(.286) scale(.05926)" xlink:href="#ac"/><use transform="translate(14.222) scale(.05926)" xlink:href="#X"/></g><g id="w"><use transform="rotate(.286) scale(.05926)" xlink:href="#ac"/><use transform="translate(14.222) scale(.05926)" xlink:href="#Y"/></g><g id="x"><use transform="rotate(.286) scale(.05926)" xlink:href="#O"/><use transform="translate(14.222) scale(.05926)" xlink:href="#X"/></g><use transform="scale(.05)" xlink:href="#O" id="h"/><use transform="scale(.05)" xlink:href="#ac" id="j"/><use transform="rotate(.286) scale(.05926)" xlink:href="#ad" id="o"/></defs></g></svg>