<svg xmlns="http://www.w3.org/2000/svg" xmlns:xlink="http://www.w3.org/1999/xlink" xmlns:lucid="lucid" width="3426" height="1333"><g transform="translate(-117 -80)" lucid:page-tab-id="JB11K~WdzsxB"><path d="M2936.75 516.83c-53.43 0-96.75-38.5-96.75-86 0-38 26.2-70.05 66.85-81.8-2.35-111.7 158.9-133.2 223.4-90.2 32.25-64.5 193.5-43 193.5 21.5 96.75-21.5 193.5 64.5 129 172 64.5 86 0 193.5-129 150.5-32.25 55.9-161.25 55.9-193.5 0-64.5 43-193.5 21.5-193.5-86z" stroke="#c1e4f7" stroke-width="2" fill="#c1e4f7"/><use xlink:href="#a" transform="translate(3192.01 235.233)"/><use xlink:href="#b" transform="translate(3011.01 256.833)"/><use xlink:href="#c" transform="translate(2953.01 278.433)"/><use xlink:href="#c" transform="translate(2928.01 300.033)"/><use xlink:href="#d" transform="translate(2915.01 321.633)"/><use xlink:href="#a" transform="translate(3090.01 321.633)"/><use xlink:href="#b" transform="translate(3185.91 321.633)"/><use xlink:href="#c" transform="translate(3237.91 321.633)"/><path d="M180 1014.67c0-1.66 1.34-3 3-3h784c1.66 0 3 1.34 3 3v334c0 1.65-1.34 3-3 3H183c-1.66 0-3-1.35-3-3z" stroke="#834187" stroke-width="2" fill="#d1bcd2" fill-opacity=".5"/><path d="M960 1021.67h-15v20h15z" stroke="#834187" fill="#d1bcd2" fill-opacity=".5"/><path d="M950 1025h-10v3.33h10zm0 10h-10v3.33h10z" stroke="#834187" fill="#d1bcd2" fill-opacity=".5"/><use xlink:href="#d" transform="translate(490.48 1031.077)"/><use xlink:href="#e" transform="translate(534.38 1031.077)"/><path d="M220 1054.67c0-1.66 1.34-3 3-3h714c1.66 0 3 1.34 3 3v114c0 1.65-1.34 3-3 3H223c-1.66 0-3-1.35-3-3z" stroke="#834187" stroke-width="2" fill="#d1bcd2"/><path d="M200 1074.67c0-1.66 1.34-3 3-3h34c1.66 0 3 1.34 3 3v14c0 1.65-1.34 3-3 3h-34c-1.66 0-3-1.35-3-3zm0 60c0-1.66 1.34-3 3-3h34c1.66 0 3 1.34 3 3v14c0 1.65-1.34 3-3 3h-34c-1.66 0-3-1.35-3-3z" stroke="#834187" stroke-width="2" fill="#d1bcd2"/><use xlink:href="#f" transform="translate(457.325 1115.267)"/><use xlink:href="#g" transform="translate(560.025 1115.267)"/><use xlink:href="#h" transform="translate(681.825 1115.267)"/><path d="M620 1319.67c0 6.62-26.86 12-60 12s-60-5.38-60-12v-96c0-6.63 26.86-12 60-12s60 5.37 60 12z" stroke="#834187" stroke-width="2" fill="#d1bcd2"/><path d="M620 1223.67c0 6.62-26.86 12-60 12s-60-5.38-60-12" stroke="#834187" stroke-width="2" fill="none"/><use xlink:href="#i" transform="translate(520.075 1287.317)"/><path d="M850 1319.67c0 6.62-26.86 12-60 12s-60-5.38-60-12v-96c0-6.63 26.86-12 60-12s60 5.37 60 12z" stroke="#834187" stroke-width="2" fill="#d1bcd2"/><path d="M850 1223.67c0 6.62-26.86 12-60 12s-60-5.38-60-12" stroke="#834187" stroke-width="2" fill="none"/><use xlink:href="#i" transform="translate(750.075 1287.317)"/><path d="M390 1319.67c0 6.62-26.86 12-60 12s-60-5.38-60-12v-96c0-6.63 26.86-12 60-12s60 5.37 60 12z" stroke="#834187" stroke-width="2" fill="#d1bcd2"/><path d="M390 1223.67c0 6.62-26.86 12-60 12s-60-5.38-60-12" stroke="#834187" stroke-width="2" fill="none"/><use xlink:href="#i" transform="translate(290.075 1287.317)"/><path d="M1042.5 853c0-1.66 1.34-3 3-3h554c1.66 0 3 1.34 3 3v195.67c0 1.65-1.34 3-3 3h-554c-1.66 0-3-1.35-3-3z" stroke="#de5f85" stroke-width="2" fill="#f9d2de" fill-opacity=".5"/><path d="M1592.5 860h-15v20h15z" stroke="#de5f85" fill="#f9d2de" fill-opacity=".5"/><path d="M1582.5 863.33h-10v3.34h10zm0 10h-10v3.34h10z" stroke="#de5f85" fill="#f9d2de" fill-opacity=".5"/><use xlink:href="#j" transform="translate(1224.205 869.41)"/><use xlink:href="#k" transform="translate(1327.855 869.41)"/><path d="M1562.5 998c0 6.63-26.86 12-60 12s-60-5.37-60-12v-96c0-6.63 26.86-12 60-12s60 5.37 60 12z" stroke="#de5f85" stroke-width="2" fill="#f5b5c8"/><path d="M1562.5 902c0 6.63-26.86 12-60 12s-60-5.37-60-12" stroke="#de5f85" stroke-width="2" fill="none"/><use xlink:href="#i" transform="translate(1462.575 965.65)"/><path d="M1082.5 893c0-1.66 1.34-3 3-3h234c1.66 0 3 1.34 3 3v114c0 1.66-1.34 3-3 3h-234c-1.66 0-3-1.34-3-3z" stroke="#de5f85" stroke-width="2" fill="#f5b5c8"/><path d="M1062.5 913c0-1.66 1.34-3 3-3h34c1.66 0 3 1.34 3 3v14c0 1.66-1.34 3-3 3h-34c-1.66 0-3-1.34-3-3zm0 60c0-1.66 1.34-3 3-3h34c1.66 0 3 1.34 3 3v14c0 1.66-1.34 3-3 3h-34c-1.66 0-3-1.34-3-3z" stroke="#de5f85" stroke-width="2" fill="#f5b5c8"/><use xlink:href="#l" transform="translate(1156.65 932)"/><use xlink:href="#m" transform="translate(1147.1 953.6)"/><use xlink:href="#h" transform="translate(1168.075 975.2)"/><path d="M1342 950h81" stroke="#de5f85" stroke-width="2" fill="none"/><path d="M1326.74 950l14.26-4.64v9.28zm111.52 0l-14.26 4.64v-9.28z" stroke="#de5f85" stroke-width="2" fill="#de5f85"/><path d="M392 1271.67h106" stroke="#333" stroke-width="2" fill="none"/><path d="M392.03 1272.67H391v-2h1.03zm106.97 0h-1.03v-2H499z" fill="#333"/><path d="M622 1271.67h106" stroke="#333" stroke-width="2" fill="none"/><path d="M622.03 1272.67H621v-2h1.03zm106.97 0h-1.03v-2H729z" fill="#333"/><path d="M330 1209.67v-36" stroke="#333" stroke-width="2" fill="none"/><path d="M331 1210.7l-1-.03-1 .03v-1.06h2zm0-37h-2v-1.03h2z" fill="#333"/><path d="M560 1209.67v-36" stroke="#333" stroke-width="2" fill="none"/><path d="M561 1210.7l-1-.03-1 .03v-1.06h2zm0-37h-2v-1.03h2z" fill="#333"/><path d="M790 1209.67v-36" stroke="#333" stroke-width="2" fill="none"/><path d="M791 1210.7l-1-.03-1 .03v-1.06h2zm0-37h-2v-1.03h2z" fill="#333"/><path d="M180 273c0-1.66 1.34-3 3-3h604c1.66 0 3 1.34 3 3v274c0 1.66-1.34 3-3 3H183c-1.66 0-3-1.34-3-3z" stroke="#7ab648" stroke-width="2" fill="#c7e8ac" fill-opacity=".5"/><path d="M780 280h-15v20h15z" stroke="#7ab648" fill="#c7e8ac" fill-opacity=".5"/><path d="M770 283.33h-10v3.34h10zm0 10h-10v3.34h10z" stroke="#7ab648" fill="#c7e8ac" fill-opacity=".5"/><use xlink:href="#n" transform="translate(407.355 289.41)"/><use xlink:href="#o" transform="translate(497.155 289.41)"/><path d="M715 458c0 6.63-26.86 12-60 12s-60-5.37-60-12v-96c0-6.63 26.86-12 60-12s60 5.37 60 12z" stroke="#7ab648" stroke-width="2" fill="#a3d977"/><path d="M715 362c0 6.63-26.86 12-60 12s-60-5.37-60-12" stroke="#7ab648" stroke-width="2" fill="none"/><use xlink:href="#i" transform="translate(615.075 425.65)"/><path d="M275 353c0-1.66 1.34-3 3-3h209c1.66 0 3 1.34 3 3v114c0 1.66-1.34 3-3 3H278c-1.66 0-3-1.34-3-3z" stroke="#7ab648" stroke-width="2" fill="#a3d977"/><path d="M255 373c0-1.66 1.34-3 3-3h34c1.66 0 3 1.34 3 3v14c0 1.66-1.34 3-3 3h-34c-1.66 0-3-1.34-3-3zm0 60c0-1.66 1.34-3 3-3h34c1.66 0 3 1.34 3 3v14c0 1.66-1.34 3-3 3h-34c-1.66 0-3-1.34-3-3z" stroke="#7ab648" stroke-width="2" fill="#a3d977"/><use xlink:href="#l" transform="translate(335.65 392)"/><use xlink:href="#m" transform="translate(326.1 413.6)"/><use xlink:href="#h" transform="translate(347.075 435.2)"/><path d="M509.5 410h66" stroke="#333" stroke-width="2" fill="none"/><path d="M494.24 410l14.26-4.64v9.28zm96.52 0l-14.26 4.64v-9.28z" stroke="#333" stroke-width="2" fill="#333"/><path d="M200 643c0-1.66 1.34-3 3-3h1396.5c1.66 0 3 1.34 3 3v114c0 1.66-1.34 3-3 3H203c-1.66 0-3-1.34-3-3z" stroke="#ef8d22" stroke-width="2" fill="#ffdba9"/><path d="M180 663c0-1.66 1.34-3 3-3h34c1.66 0 3 1.34 3 3v14c0 1.66-1.34 3-3 3h-34c-1.66 0-3-1.34-3-3zm0 60c0-1.66 1.34-3 3-3h34c1.66 0 3 1.34 3 3v14c0 1.66-1.34 3-3 3h-34c-1.66 0-3-1.34-3-3z" stroke="#ef8d22" stroke-width="2" fill="#ffdba9"/><use xlink:href="#p" transform="translate(909.525 703.6)"/><use xlink:href="#q" transform="translate(951.475 703.6)"/><path d="M312.77 489.5v10.92m0 10.9v21.85m0 10.9v21.85m0 10.9v21.84m0 10.92v10.92" stroke="#333" stroke-width="2" fill="none"/><path d="M312.77 474.24l4.64 14.26h-9.26zm0 161.52l-4.63-14.26h9.27z" stroke="#333" stroke-width="2" fill="#333"/><path d="M1124.7 779.5v10.1m0 10.12v20.22m0 10.12v20.22m0 10.1v10.12" stroke="#333" stroke-width="2" fill="none"/><path d="M1124.7 764.24l4.65 14.26h-9.27zm0 121.52l-4.62-14.26h9.27z" stroke="#333" stroke-width="2" fill="#333"/><path d="M200 854.67c0-1.66 1.34-3 3-3h764c1.66 0 3 1.34 3 3v114c0 1.65-1.34 3-3 3H203c-1.66 0-3-1.35-3-3z" stroke="#ef8d22" stroke-width="2" fill="#ffdba9"/><path d="M180 874.67c0-1.66 1.34-3 3-3h34c1.66 0 3 1.34 3 3v14c0 1.65-1.34 3-3 3h-34c-1.66 0-3-1.35-3-3zm0 60c0-1.66 1.34-3 3-3h34c1.66 0 3 1.34 3 3v14c0 1.65-1.34 3-3 3h-34c-1.66 0-3-1.35-3-3z" stroke="#ef8d22" stroke-width="2" fill="#ffdba9"/><use xlink:href="#r" transform="translate(338 915.267)"/><use xlink:href="#s" transform="translate(508 915.267)"/><use xlink:href="#t" transform="translate(546.55 915.267)"/><path d="M341.58 472v328H575v32.16" stroke="#333" stroke-width="2" fill="none"/><path d="M342.58 472.03h-2V471h2z" fill="#333"/><path d="M575 847.43l-4.64-14.27h9.28z" stroke="#333" stroke-width="2" fill="#333"/><path d="M932.5 576.67h64.33l10.67 10.66V630h-75z" fill="#ffdba9"/><path d="M940 576.67h6.44m4.3 0h6.42m4.3 0h6.42m4.3 0h6.43m4.3 0h6.43m4.3 0h3.2l1.6 1.6m2.14 2.13l3.2 3.2m2.13 2.13l1.6 1.6v3.2m0 4.27v6.4m0 4.27v6.4m0 4.26v6.4m0 4.27v3.2h-2.8m-3.76 0h-5.63m-3.74 0h-5.62m-3.75 0h-5.64m-3.75 0h-5.6m-3.76 0h-5.63m-3.74 0h-5.62m-3.75 0h-5.64m-3.75 0h-2.8v-3.2m0-4.27v-6.4m0-4.26v-6.4m0-4.27v-6.4m0-4.27v-6.4m0-4.26v-3.2h3.22" stroke="#ef8d22" stroke-width="2" fill="none"/><path d="M996.83 577.62v9.7h9.72" fill="#ffdba9"/><path d="M996.83 577.62v2.9m0 3.9v2.9h2.92m3.88 0h2.92" stroke="#ef8d22" stroke-width="2" fill="none"/><path d="M945 590h64.33l10.67 10.67v42.66h-75z" fill="#ffdba9"/><path d="M952.5 590h6.44m4.3 0h6.42m4.3 0h6.42m4.3 0h6.43m4.3 0h6.43m4.3 0h3.2l1.6 1.6m2.14 2.13l3.2 3.2m2.13 2.14l1.6 1.6v3.2m0 4.26v6.4m0 4.27v6.4m0 4.27v6.4m0 4.26v3.2h-2.8m-3.76 0h-5.63m-3.74 0h-5.62m-3.75 0h-5.64m-3.75 0h-5.6m-3.76 0h-5.63m-3.74 0h-5.62m-3.75 0h-5.64m-3.75 0H945v-3.2m0-4.26v-6.4m0-4.27v-6.4m0-4.27v-6.4m0-4.26v-6.4m0-4.27V590h3.22" stroke="#ef8d22" stroke-width="2" fill="none"/><path d="M1009.33 590.95v9.72h9.72" fill="#ffdba9"/><path d="M1009.33 590.95v2.92m0 3.88v2.92h2.92m3.88 0h2.92" stroke="#ef8d22" stroke-width="2" fill="none"/><path d="M920 603.33h64.33L995 614v42.67h-75z" fill="#ffdba9"/><path d="M927.5 603.33h6.44m4.3 0h6.42m4.3 0h6.42m4.3 0h6.43m4.3 0h6.43m4.3 0h3.2l1.6 1.6m2.14 2.14l3.2 3.2m2.13 2.13l1.6 1.6v3.2m0 4.27v6.4m0 4.26v6.4m0 4.27v6.4m0 4.27v3.2h-2.8m-3.76 0h-5.63m-3.74 0h-5.62m-3.75 0h-5.64m-3.75 0h-5.6m-3.76 0h-5.63m-3.74 0h-5.62m-3.75 0h-5.64m-3.75 0H920v-3.2m0-4.27v-6.4m0-4.27v-6.4m0-4.26v-6.4m0-4.27v-6.4m0-4.27v-3.2h3.22" stroke="#ef8d22" stroke-width="2" fill="none"/><path d="M984.33 604.3v9.7h9.72" fill="#ffdba9"/><path d="M984.33 604.3v2.9m0 3.9v2.9h2.92m3.88 0h2.92" stroke="#ef8d22" stroke-width="2" fill="none"/><use xlink:href="#u" transform="translate(938.05 633.733)"/><path d="M372.5 590h64.33l10.67 10.67v42.66h-75z" fill="#ffdba9"/><path d="M380 590h6.44m4.3 0h6.42m4.3 0h6.42m4.3 0h6.43m4.3 0h6.43m4.3 0h3.2l1.6 1.6m2.14 2.13l3.2 3.2m2.13 2.14l1.6 1.6v3.2m0 4.26v6.4m0 4.27v6.4m0 4.27v6.4m0 4.26v3.2h-2.8m-3.76 0h-5.63m-3.74 0h-5.62m-3.75 0h-5.64m-3.75 0h-5.6m-3.76 0h-5.63m-3.74 0h-5.62m-3.75 0h-5.64m-3.75 0h-2.8v-3.2m0-4.26v-6.4m0-4.27v-6.4m0-4.27v-6.4m0-4.26v-6.4m0-4.27V590h3.22" stroke="#ef8d22" stroke-width="2" fill="none"/><path d="M436.83 590.95v9.72h9.72" fill="#ffdba9"/><path d="M436.83 590.95v2.92m0 3.88v2.92h2.92m3.88 0h2.92" stroke="#ef8d22" stroke-width="2" fill="none"/><path d="M385 603.33h64.33L460 614v42.67h-75z" fill="#ffdba9"/><path d="M392.5 603.33h6.44m4.3 0h6.42m4.3 0h6.42m4.3 0h6.43m4.3 0h6.43m4.3 0h3.2l1.6 1.6m2.14 2.14l3.2 3.2m2.13 2.13l1.6 1.6v3.2m0 4.27v6.4m0 4.26v6.4m0 4.27v6.4m0 4.27v3.2h-2.8m-3.76 0h-5.63m-3.74 0h-5.62m-3.75 0h-5.64m-3.75 0h-5.6m-3.76 0h-5.63m-3.74 0h-5.62m-3.75 0h-5.64m-3.75 0H385v-3.2m0-4.27v-6.4m0-4.27v-6.4m0-4.26v-6.4m0-4.27v-6.4m0-4.27v-3.2h3.22" stroke="#ef8d22" stroke-width="2" fill="none"/><path d="M449.33 604.3v9.7h9.72" fill="#ffdba9"/><path d="M449.33 604.3v2.9m0 3.9v2.9h2.92m3.88 0h2.92" stroke="#ef8d22" stroke-width="2" fill="none"/><path d="M360 616.67h64.33L435 627.33V670h-75z" fill="#ffdba9"/><path d="M367.5 616.67h6.44m4.3 0h6.42m4.3 0h6.42m4.3 0h6.43m4.3 0h6.43m4.3 0h3.2l1.6 1.6m2.14 2.13l3.2 3.2m2.13 2.13l1.6 1.6v3.2m0 4.27v6.4m0 4.27v6.4m0 4.26v6.4m0 4.27v3.2h-2.8m-3.76 0h-5.63m-3.74 0h-5.62m-3.75 0h-5.64m-3.75 0h-5.6m-3.76 0h-5.63m-3.74 0h-5.62m-3.75 0h-5.64m-3.75 0H360v-3.2m0-4.27v-6.4m0-4.26v-6.4m0-4.27v-6.4m0-4.27v-6.4m0-4.26v-3.2h3.22" stroke="#ef8d22" stroke-width="2" fill="none"/><path d="M424.33 617.62v9.7h9.72" fill="#ffdba9"/><path d="M424.33 617.62v2.9m0 3.9v2.9h2.92m3.88 0h2.92" stroke="#ef8d22" stroke-width="2" fill="none"/><use xlink:href="#u" transform="translate(378.05 647.067)"/><path d="M212.5 520h64.33l10.67 10.67v42.66h-75z" fill="#c7e8ac"/><path d="M220 520h6.44m4.3 0h6.42m4.3 0h6.42m4.3 0h6.43m4.3 0h6.43m4.3 0h3.2l1.6 1.6m2.14 2.13l3.2 3.2m2.13 2.14l1.6 1.6v3.2m0 4.26v6.4m0 4.27v6.4m0 4.27v6.4m0 4.26v3.2h-2.8m-3.76 0h-5.63m-3.74 0h-5.62m-3.75 0h-5.64m-3.75 0h-5.6m-3.76 0h-5.63m-3.74 0h-5.62m-3.75 0h-5.64m-3.75 0h-2.8v-3.2m0-4.26v-6.4m0-4.27v-6.4m0-4.27v-6.4m0-4.26v-6.4m0-4.27V520h3.22" stroke="#7ab648" stroke-width="2" fill="none"/><path d="M276.83 520.95v9.72h9.72" fill="#c7e8ac"/><path d="M276.83 520.95v2.92m0 3.88v2.92h2.92m3.88 0h2.92" stroke="#7ab648" stroke-width="2" fill="none"/><path d="M225 533.33h64.33L300 544v42.67h-75z" fill="#c7e8ac"/><path d="M232.5 533.33h6.44m4.3 0h6.42m4.3 0h6.42m4.3 0h6.43m4.3 0h6.43m4.3 0h3.2l1.6 1.6m2.14 2.14l3.2 3.2m2.13 2.13l1.6 1.6v3.2m0 4.27v6.4m0 4.26v6.4m0 4.27v6.4m0 4.27v3.2h-2.8m-3.76 0h-5.63m-3.74 0h-5.62m-3.75 0h-5.64m-3.75 0h-5.6m-3.76 0h-5.63m-3.74 0h-5.62m-3.75 0h-5.64m-3.75 0H225v-3.2m0-4.27v-6.4m0-4.27v-6.4m0-4.26v-6.4m0-4.27v-6.4m0-4.27v-3.2h3.22" stroke="#7ab648" stroke-width="2" fill="none"/><path d="M289.33 534.3v9.7h9.72" fill="#c7e8ac"/><path d="M289.33 534.3v2.9m0 3.9v2.9h2.92m3.88 0h2.92" stroke="#7ab648" stroke-width="2" fill="none"/><path d="M200 546.67h64.33L275 557.33V600h-75z" fill="#c7e8ac"/><path d="M207.5 546.67h6.44m4.3 0h6.42m4.3 0h6.42m4.3 0h6.43m4.3 0h6.43m4.3 0h3.2l1.6 1.6m2.14 2.13l3.2 3.2m2.13 2.13l1.6 1.6v3.2m0 4.27v6.4m0 4.27v6.4m0 4.26v6.4m0 4.27v3.2h-2.8m-3.76 0h-5.63m-3.74 0h-5.62m-3.75 0h-5.64m-3.75 0h-5.6m-3.76 0h-5.63m-3.74 0h-5.62m-3.75 0h-5.64m-3.75 0H200v-3.2m0-4.27v-6.4m0-4.26v-6.4m0-4.27v-6.4m0-4.27v-6.4m0-4.26v-3.2h3.22" stroke="#7ab648" stroke-width="2" fill="none"/><path d="M264.33 547.62v9.7h9.72" fill="#c7e8ac"/><path d="M264.33 547.62v2.9m0 3.9v2.9h2.92m3.88 0h2.92" stroke="#7ab648" stroke-width="2" fill="none"/><use xlink:href="#v" transform="translate(219.55 577.067)"/><path d="M1150 776.67h64.33l10.67 10.66V830h-75z" fill="#f9d2de"/><path d="M1157.5 776.67h6.44m4.3 0h6.42m4.3 0h6.42m4.3 0h6.43m4.3 0h6.43m4.3 0h3.2l1.6 1.6m2.14 2.13l3.2 3.2m2.13 2.13l1.6 1.6v3.2m0 4.27v6.4m0 4.27v6.4m0 4.26v6.4m0 4.27v3.2h-2.8m-3.76 0h-5.63m-3.74 0h-5.62m-3.75 0h-5.64m-3.75 0h-5.6m-3.76 0h-5.63m-3.74 0h-5.62m-3.75 0h-5.64m-3.75 0h-2.8v-3.2m0-4.27v-6.4m0-4.26v-6.4m0-4.27v-6.4m0-4.27v-6.4m0-4.26v-3.2h3.22" stroke="#de5f85" stroke-width="2" fill="none"/><path d="M1214.33 777.62v9.7h9.72" fill="#f9d2de"/><path d="M1214.33 777.62v2.9m0 3.9v2.9h2.92m3.88 0h2.92" stroke="#de5f85" stroke-width="2" fill="none"/><path d="M1162.5 790h64.33l10.67 10.67v42.66h-75z" fill="#f9d2de"/><path d="M1170 790h6.44m4.3 0h6.42m4.3 0h6.42m4.3 0h6.43m4.3 0h6.43m4.3 0h3.2l1.6 1.6m2.14 2.13l3.2 3.2m2.13 2.14l1.6 1.6v3.2m0 4.26v6.4m0 4.27v6.4m0 4.27v6.4m0 4.26v3.2h-2.8m-3.76 0h-5.63m-3.74 0h-5.62m-3.75 0h-5.64m-3.75 0h-5.6m-3.76 0h-5.63m-3.74 0h-5.62m-3.75 0h-5.64m-3.75 0h-2.8v-3.2m0-4.26v-6.4m0-4.27v-6.4m0-4.27v-6.4m0-4.26v-6.4m0-4.27V790h3.22" stroke="#de5f85" stroke-width="2" fill="none"/><path d="M1226.83 790.95v9.72h9.72" fill="#f9d2de"/><path d="M1226.83 790.95v2.92m0 3.88v2.92h2.92m3.88 0h2.92" stroke="#de5f85" stroke-width="2" fill="none"/><path d="M1137.5 803.33h64.33L1212.5 814v42.67h-75z" fill="#f9d2de"/><path d="M1145 803.33h6.44m4.3 0h6.42m4.3 0h6.42m4.3 0h6.43m4.3 0h6.43m4.3 0h3.2l1.6 1.6m2.14 2.14l3.2 3.2m2.13 2.13l1.6 1.6v3.2m0 4.27v6.4m0 4.26v6.4m0 4.27v6.4m0 4.27v3.2h-2.8m-3.76 0h-5.63m-3.74 0h-5.62m-3.75 0h-5.64m-3.75 0h-5.6m-3.76 0h-5.63m-3.74 0h-5.62m-3.75 0h-5.64m-3.75 0h-2.8v-3.2m0-4.27v-6.4m0-4.27v-6.4m0-4.26v-6.4m0-4.27v-6.4m0-4.27v-3.2h3.22" stroke="#de5f85" stroke-width="2" fill="none"/><path d="M1201.83 804.3v9.7h9.72" fill="#f9d2de"/><path d="M1201.83 804.3v2.9m0 3.9v2.9h2.92m3.88 0h2.92" stroke="#de5f85" stroke-width="2" fill="none"/><use xlink:href="#v" transform="translate(1157.05 833.733)"/><path d="M772.5 972.67v59.5" stroke="#333" stroke-width="2" fill="none"/><path d="M773.5 972.7h-2v-.03h2z" fill="#333"/><path d="M772.5 1047.43l-4.64-14.27h9.28z" stroke="#333" stroke-width="2" fill="#333"/><path d="M377.5 972.67v59.5" stroke="#333" stroke-width="2" fill="none"/><path d="M378.5 972.7h-2v-.03h2z" fill="#333"/><path d="M377.5 1047.43l-4.64-14.27h9.28z" stroke="#333" stroke-width="2" fill="#333"/><path d="M932.5 1285h64.33l10.67 10.67v42.66h-75z" fill="#d1bcd2"/><path d="M940 1285h6.44m4.3 0h6.42m4.3 0h6.42m4.3 0h6.43m4.3 0h6.43m4.3 0h3.2l1.6 1.6m2.14 2.13l3.2 3.2m2.13 2.14l1.6 1.6v3.2m0 4.26v6.4m0 4.27v6.4m0 4.27v6.4m0 4.26v3.2h-2.8m-3.76 0h-5.63m-3.74 0h-5.62m-3.75 0h-5.64m-3.75 0h-5.6m-3.76 0h-5.63m-3.74 0h-5.62m-3.75 0h-5.64m-3.75 0h-2.8v-3.2m0-4.26v-6.4m0-4.27v-6.4m0-4.27v-6.4m0-4.26v-6.4m0-4.27v-3.2h3.22" stroke="#834187" stroke-width="2" fill="none"/><path d="M996.83 1285.95v9.72h9.72" fill="#d1bcd2"/><path d="M996.83 1285.95v2.92m0 3.88v2.92h2.92m3.88 0h2.92" stroke="#834187" stroke-width="2" fill="none"/><path d="M945 1298.33h64.33L1020 1309v42.67h-75z" fill="#d1bcd2"/><path d="M952.5 1298.33h6.44m4.3 0h6.42m4.3 0h6.42m4.3 0h6.43m4.3 0h6.43m4.3 0h3.2l1.6 1.6m2.14 2.14l3.2 3.2m2.13 2.13l1.6 1.6v3.2m0 4.27v6.4m0 4.26v6.4m0 4.27v6.4m0 4.27v3.2h-2.8m-3.76 0h-5.63m-3.74 0h-5.62m-3.75 0h-5.64m-3.75 0h-5.6m-3.76 0h-5.63m-3.74 0h-5.62m-3.75 0h-5.64m-3.75 0H945v-3.2m0-4.27v-6.4m0-4.27v-6.4m0-4.26v-6.4m0-4.27v-6.4m0-4.27v-3.2h3.22" stroke="#834187" stroke-width="2" fill="none"/><path d="M1009.33 1299.3v9.7h9.72" fill="#d1bcd2"/><path d="M1009.33 1299.3v2.9m0 3.9v2.9h2.92m3.88 0h2.92" stroke="#834187" stroke-width="2" fill="none"/><path d="M920 1311.67h64.33l10.67 10.66V1365h-75z" fill="#d1bcd2"/><path d="M927.5 1311.67h6.44m4.3 0h6.42m4.3 0h6.42m4.3 0h6.43m4.3 0h6.43m4.3 0h3.2l1.6 1.6m2.14 2.13l3.2 3.2m2.13 2.13l1.6 1.6v3.2m0 4.27v6.4m0 4.27v6.4m0 4.26v6.4m0 4.27v3.2h-2.8m-3.76 0h-5.63m-3.74 0h-5.62m-3.75 0h-5.64m-3.75 0h-5.6m-3.76 0h-5.63m-3.74 0h-5.62m-3.75 0h-5.64m-3.75 0H920v-3.2m0-4.27v-6.4m0-4.26v-6.4m0-4.27v-6.4m0-4.27v-6.4m0-4.26v-3.2h3.22" stroke="#834187" stroke-width="2" fill="none"/><path d="M984.33 1312.62v9.7h9.72" fill="#d1bcd2"/><path d="M984.33 1312.62v2.9m0 3.9v2.9h2.92m3.88 0h2.92" stroke="#834187" stroke-width="2" fill="none"/><use xlink:href="#u" transform="translate(938.05 1342.067)"/><path d="M972 1272.8h154.42v-243.3" stroke="#333" stroke-width="2" fill="none"/><path d="M972.03 1273.8H971v-2h1.03z" fill="#333"/><path d="M1126.42 1014.24l4.63 14.26h-9.27z" stroke="#333" stroke-width="2" fill="#333"/><path d="M976.75 421c-53.43 0-96.75-38.5-96.75-86 0-38 26.2-70.05 66.85-81.8-2.35-111.7 158.9-133.2 223.4-90.2 32.25-64.5 193.5-43 193.5 21.5 96.75-21.5 193.5 64.5 129 172 64.5 86 0 193.5-129 150.5-32.25 55.9-161.25 55.9-193.5 0-64.5 43-193.5 21.5-193.5-86z" stroke="#c1e4f7" stroke-width="2" fill="#c1e4f7"/><use xlink:href="#a" transform="translate(1232.01 139.4)"/><use xlink:href="#b" transform="translate(1051.01 161)"/><use xlink:href="#c" transform="translate(993.01 182.6)"/><use xlink:href="#c" transform="translate(968.01 204.2)"/><use xlink:href="#d" transform="translate(955.01 225.8)"/><use xlink:href="#a" transform="translate(1130.01 225.8)"/><use xlink:href="#b" transform="translate(1225.91 225.8)"/><use xlink:href="#c" transform="translate(1277.91 225.8)"/><path d="M1442.5 378c0 6.63-26.86 12-60 12s-60-5.37-60-12v-96c0-6.63 26.86-12 60-12s60 5.37 60 12z" stroke="#3aa6dd" stroke-width="2" fill="#99d2f2"/><path d="M1442.5 282c0 6.63-26.86 12-60 12s-60-5.37-60-12" stroke="#3aa6dd" stroke-width="2" fill="none"/><use xlink:href="#i" transform="translate(1342.575 345.65)"/><path d="M982.5 273c0-1.66 1.34-3 3-3h234c1.66 0 3 1.34 3 3v114c0 1.66-1.34 3-3 3h-234c-1.66 0-3-1.34-3-3z" stroke="#3aa6dd" stroke-width="2" fill="#99d2f2"/><path d="M962.5 293c0-1.66 1.34-3 3-3h34c1.66 0 3 1.34 3 3v14c0 1.66-1.34 3-3 3h-34c-1.66 0-3-1.34-3-3zm0 60c0-1.66 1.34-3 3-3h34c1.66 0 3 1.34 3 3v14c0 1.66-1.34 3-3 3h-34c-1.66 0-3-1.34-3-3z" stroke="#3aa6dd" stroke-width="2" fill="#99d2f2"/><use xlink:href="#l" transform="translate(1056.65 312)"/><use xlink:href="#m" transform="translate(1047.1 333.6)"/><use xlink:href="#r" transform="translate(1036.15 355.2)"/><use xlink:href="#w" transform="translate(1116 355.2)"/><use xlink:href="#x" transform="translate(1133.95 355.2)"/><path d="M1034.67 392v408H575v32.16" stroke="#333" stroke-width="2" fill="none"/><path d="M1035.67 392.03h-2V391h2z" fill="#333"/><path d="M575 847.43l-4.64-14.27h9.28z" stroke="#333" stroke-width="2" fill="#333"/><path d="M1242 330h61" stroke="#333" stroke-width="2" fill="none"/><path d="M1226.74 330l14.26-4.64v9.28zm91.52 0l-14.26 4.64v-9.28z" stroke="#333" stroke-width="2" fill="#333"/><path d="M1225 510h64.33l10.67 10.67v42.66h-75z" fill="#c7e8ac"/><path d="M1232.5 510h6.44m4.3 0h6.42m4.3 0h6.42m4.3 0h6.43m4.3 0h6.43m4.3 0h3.2l1.6 1.6m2.14 2.13l3.2 3.2m2.13 2.14l1.6 1.6v3.2m0 4.26v6.4m0 4.27v6.4m0 4.27v6.4m0 4.26v3.2h-2.8m-3.76 0h-5.63m-3.74 0h-5.62m-3.75 0h-5.64m-3.75 0h-5.6m-3.76 0h-5.63m-3.74 0h-5.62m-3.75 0h-5.64m-3.75 0h-2.8v-3.2m0-4.26v-6.4m0-4.27v-6.4m0-4.27v-6.4m0-4.26v-6.4m0-4.27V510h3.22" stroke="#7ab648" stroke-width="2" fill="none"/><path d="M1289.33 510.95v9.72h9.72" fill="#c7e8ac"/><path d="M1289.33 510.95v2.92m0 3.88v2.92h2.92m3.88 0h2.92" stroke="#7ab648" stroke-width="2" fill="none"/><path d="M1237.5 523.33h64.33L1312.5 534v42.67h-75z" fill="#c7e8ac"/><path d="M1245 523.33h6.44m4.3 0h6.42m4.3 0h6.42m4.3 0h6.43m4.3 0h6.43m4.3 0h3.2l1.6 1.6m2.14 2.14l3.2 3.2m2.13 2.13l1.6 1.6v3.2m0 4.27v6.4m0 4.26v6.4m0 4.27v6.4m0 4.27v3.2h-2.8m-3.76 0h-5.63m-3.74 0h-5.62m-3.75 0h-5.64m-3.75 0h-5.6m-3.76 0h-5.63m-3.74 0h-5.62m-3.75 0h-5.64m-3.75 0h-2.8v-3.2m0-4.27v-6.4m0-4.27v-6.4m0-4.26v-6.4m0-4.27v-6.4m0-4.27v-3.2h3.22" stroke="#7ab648" stroke-width="2" fill="none"/><path d="M1301.83 524.3v9.7h9.72" fill="#c7e8ac"/><path d="M1301.83 524.3v2.9m0 3.9v2.9h2.92m3.88 0h2.92" stroke="#7ab648" stroke-width="2" fill="none"/><path d="M1212.5 536.67h64.33l10.67 10.66V590h-75z" fill="#c7e8ac"/><path d="M1220 536.67h6.44m4.3 0h6.42m4.3 0h6.42m4.3 0h6.43m4.3 0h6.43m4.3 0h3.2l1.6 1.6m2.14 2.13l3.2 3.2m2.13 2.13l1.6 1.6v3.2m0 4.27v6.4m0 4.27v6.4m0 4.26v6.4m0 4.27v3.2h-2.8m-3.76 0h-5.63m-3.74 0h-5.62m-3.75 0h-5.64m-3.75 0h-5.6m-3.76 0h-5.63m-3.74 0h-5.62m-3.75 0h-5.64m-3.75 0h-2.8v-3.2m0-4.27v-6.4m0-4.26v-6.4m0-4.27v-6.4m0-4.27v-6.4m0-4.26v-3.2h3.22" stroke="#7ab648" stroke-width="2" fill="none"/><path d="M1276.83 537.62v9.7h9.72" fill="#c7e8ac"/><path d="M1276.83 537.62v2.9m0 3.9v2.9h2.92m3.88 0h2.92" stroke="#7ab648" stroke-width="2" fill="none"/><use xlink:href="#v" transform="translate(1232.05 567.067)"/><path d="M1105 510h64.33l10.67 10.67v42.66h-75z" fill="#c1e4f7"/><path d="M1112.5 510h6.44m4.3 0h6.42m4.3 0h6.42m4.3 0h6.43m4.3 0h6.43m4.3 0h3.2l1.6 1.6m2.14 2.13l3.2 3.2m2.13 2.14l1.6 1.6v3.2m0 4.26v6.4m0 4.27v6.4m0 4.27v6.4m0 4.26v3.2h-2.8m-3.76 0h-5.63m-3.74 0h-5.62m-3.75 0h-5.64m-3.75 0h-5.6m-3.76 0h-5.63m-3.74 0h-5.62m-3.75 0h-5.64m-3.75 0h-2.8v-3.2m0-4.26v-6.4m0-4.27v-6.4m0-4.27v-6.4m0-4.26v-6.4m0-4.27V510h3.22" stroke="#3aa6dd" stroke-width="2" fill="none"/><path d="M1169.33 510.95v9.72h9.72" fill="#c1e4f7"/><path d="M1169.33 510.95v2.92m0 3.88v2.92h2.92m3.88 0h2.92" stroke="#3aa6dd" stroke-width="2" fill="none"/><path d="M1117.5 523.33h64.33L1192.5 534v42.67h-75z" fill="#c1e4f7"/><path d="M1125 523.33h6.44m4.3 0h6.42m4.3 0h6.42m4.3 0h6.43m4.3 0h6.43m4.3 0h3.2l1.6 1.6m2.14 2.14l3.2 3.2m2.13 2.13l1.6 1.6v3.2m0 4.27v6.4m0 4.26v6.4m0 4.27v6.4m0 4.27v3.2h-2.8m-3.76 0h-5.63m-3.74 0h-5.62m-3.75 0h-5.64m-3.75 0h-5.6m-3.76 0h-5.63m-3.74 0h-5.62m-3.75 0h-5.64m-3.75 0h-2.8v-3.2m0-4.27v-6.4m0-4.27v-6.4m0-4.26v-6.4m0-4.27v-6.4m0-4.27v-3.2h3.22" stroke="#3aa6dd" stroke-width="2" fill="none"/><path d="M1181.83 524.3v9.7h9.72" fill="#c1e4f7"/><path d="M1181.83 524.3v2.9m0 3.9v2.9h2.92m3.88 0h2.92" stroke="#3aa6dd" stroke-width="2" fill="none"/><path d="M1092.5 536.67h64.33l10.67 10.66V590h-75z" fill="#c1e4f7"/><path d="M1100 536.67h6.44m4.3 0h6.42m4.3 0h6.42m4.3 0h6.43m4.3 0h6.43m4.3 0h3.2l1.6 1.6m2.14 2.13l3.2 3.2m2.13 2.13l1.6 1.6v3.2m0 4.27v6.4m0 4.27v6.4m0 4.26v6.4m0 4.27v3.2h-2.8m-3.76 0h-5.63m-3.74 0h-5.62m-3.75 0h-5.64m-3.75 0h-5.6m-3.76 0h-5.63m-3.74 0h-5.62m-3.75 0h-5.64m-3.75 0h-2.8v-3.2m0-4.27v-6.4m0-4.26v-6.4m0-4.27v-6.4m0-4.27v-6.4m0-4.26v-3.2h3.22" stroke="#3aa6dd" stroke-width="2" fill="none"/><path d="M1156.83 537.62v9.7h9.72" fill="#c1e4f7"/><path d="M1156.83 537.62v2.9m0 3.9v2.9h2.92m3.88 0h2.92" stroke="#3aa6dd" stroke-width="2" fill="none"/><use xlink:href="#v" transform="translate(1112.05 567.067)"/><path d="M1068.52 409.5v10.05m0 10.05v20.1m0 10.04v20.1m0 10.04v20.1m0 10.04v20.1m0 10.05v20.1m0 10.04v20.1m0 10.05v10.05" stroke="#333" stroke-width="2" fill="none"/><path d="M1068.52 394.24l4.63 14.26h-9.27zm0 241.52l-4.64-14.26h9.27z" stroke="#333" stroke-width="2" fill="#333"/><path d="M2140 1035.5c0-1.66 1.34-3 3-3h784c1.66 0 3 1.34 3 3v334c0 1.66-1.34 3-3 3h-784c-1.66 0-3-1.34-3-3z" stroke="#834187" stroke-width="2" fill="#d1bcd2" fill-opacity=".5"/><path d="M2920 1042.5h-15v20h15z" stroke="#834187" fill="#d1bcd2" fill-opacity=".5"/><path d="M2910 1045.83h-10v3.34h10zm0 10h-10v3.34h10z" stroke="#834187" fill="#d1bcd2" fill-opacity=".5"/><use xlink:href="#d" transform="translate(2450.48 1051.91)"/><use xlink:href="#e" transform="translate(2494.38 1051.91)"/><path d="M2180 1075.5c0-1.66 1.34-3 3-3h714c1.66 0 3 1.34 3 3v114c0 1.66-1.34 3-3 3h-714c-1.66 0-3-1.34-3-3z" stroke="#834187" stroke-width="2" fill="#d1bcd2"/><path d="M2160 1095.5c0-1.66 1.34-3 3-3h34c1.66 0 3 1.34 3 3v14c0 1.66-1.34 3-3 3h-34c-1.66 0-3-1.34-3-3zm0 60c0-1.66 1.34-3 3-3h34c1.66 0 3 1.34 3 3v14c0 1.66-1.34 3-3 3h-34c-1.66 0-3-1.34-3-3z" stroke="#834187" stroke-width="2" fill="#d1bcd2"/><use xlink:href="#f" transform="translate(2417.325 1136.1)"/><use xlink:href="#g" transform="translate(2520.025 1136.1)"/><use xlink:href="#h" transform="translate(2641.825 1136.1)"/><path d="M2580 1340.5c0 6.63-26.86 12-60 12s-60-5.37-60-12v-96c0-6.63 26.86-12 60-12s60 5.37 60 12z" stroke="#834187" stroke-width="2" fill="#d1bcd2"/><path d="M2580 1244.5c0 6.63-26.86 12-60 12s-60-5.37-60-12" stroke="#834187" stroke-width="2" fill="none"/><use xlink:href="#i" transform="translate(2480.075 1308.15)"/><path d="M2810 1340.5c0 6.63-26.86 12-60 12s-60-5.37-60-12v-96c0-6.63 26.86-12 60-12s60 5.37 60 12z" stroke="#834187" stroke-width="2" fill="#d1bcd2"/><path d="M2810 1244.5c0 6.63-26.86 12-60 12s-60-5.37-60-12" stroke="#834187" stroke-width="2" fill="none"/><use xlink:href="#i" transform="translate(2710.075 1308.15)"/><path d="M2350 1340.5c0 6.63-26.86 12-60 12s-60-5.37-60-12v-96c0-6.63 26.86-12 60-12s60 5.37 60 12z" stroke="#834187" stroke-width="2" fill="#d1bcd2"/><path d="M2350 1244.5c0 6.63-26.86 12-60 12s-60-5.37-60-12" stroke="#834187" stroke-width="2" fill="none"/><use xlink:href="#i" transform="translate(2250.075 1308.15)"/><path d="M2140 623c0-1.66 1.34-3 3-3h604c1.66 0 3 1.34 3 3v274c0 1.66-1.34 3-3 3h-604c-1.66 0-3-1.34-3-3z" stroke="#de5f85" stroke-width="2" fill="#f9d2de" fill-opacity=".5"/><path d="M2740 630h-15v20h15z" stroke="#de5f85" fill="#f9d2de" fill-opacity=".5"/><path d="M2730 633.33h-10v3.34h10zm0 10h-10v3.34h10z" stroke="#de5f85" fill="#f9d2de" fill-opacity=".5"/><use xlink:href="#j" transform="translate(2346.705 639.41)"/><use xlink:href="#k" transform="translate(2450.355 639.41)"/><path d="M2660 810.5c0 6.63-26.86 12-60 12s-60-5.37-60-12v-96c0-6.63 26.86-12 60-12s60 5.37 60 12z" stroke="#de5f85" stroke-width="2" fill="#f5b5c8"/><path d="M2660 714.5c0 6.63-26.86 12-60 12s-60-5.37-60-12" stroke="#de5f85" stroke-width="2" fill="none"/><use xlink:href="#i" transform="translate(2560.075 778.15)"/><path d="M2235 705.5c0-1.66 1.34-3 3-3h209c1.66 0 3 1.34 3 3v114c0 1.66-1.34 3-3 3h-209c-1.66 0-3-1.34-3-3z" stroke="#de5f85" stroke-width="2" fill="#f5b5c8"/><path d="M2215 725.5c0-1.66 1.34-3 3-3h34c1.66 0 3 1.34 3 3v14c0 1.66-1.34 3-3 3h-34c-1.66 0-3-1.34-3-3zm0 60c0-1.66 1.34-3 3-3h34c1.66 0 3 1.34 3 3v14c0 1.66-1.34 3-3 3h-34c-1.66 0-3-1.34-3-3z" stroke="#de5f85" stroke-width="2" fill="#f5b5c8"/><use xlink:href="#l" transform="translate(2295.65 744.5)"/><use xlink:href="#m" transform="translate(2286.1 766.1)"/><use xlink:href="#h" transform="translate(2307.075 787.7)"/><path d="M2469.5 762.5h51" stroke="#de5f85" stroke-width="2" fill="none"/><path d="M2454.24 762.5l14.26-4.64v9.28zm81.52 0l-14.26 4.64v-9.28z" stroke="#de5f85" stroke-width="2" fill="#de5f85"/><path d="M2352 1292.5h106" stroke="#333" stroke-width="2" fill="none"/><path d="M2352.03 1293.5H2351v-2h1.03zm106.97 0h-1.03v-2h1.03z" fill="#333"/><path d="M2582 1292.5h106" stroke="#333" stroke-width="2" fill="none"/><path d="M2582.03 1293.5H2581v-2h1.03zm106.97 0h-1.03v-2h1.03z" fill="#333"/><path d="M2290 1230.5v-36" stroke="#333" stroke-width="2" fill="none"/><path d="M2291 1231.54l-1-.04-1 .03v-1.06h2zm0-37.01h-2v-1.03h2z" fill="#333"/><path d="M2520 1230.5v-36" stroke="#333" stroke-width="2" fill="none"/><path d="M2521 1231.54l-1-.04-1 .03v-1.06h2zm0-37.01h-2v-1.03h2z" fill="#333"/><path d="M2750 1230.5v-36" stroke="#333" stroke-width="2" fill="none"/><path d="M2751 1231.54l-1-.04-1 .03v-1.06h2zm0-37.01h-2v-1.03h2z" fill="#333"/><path d="M2140 293.83c0-1.65 1.34-3 3-3h604c1.66 0 3 1.35 3 3v274c0 1.66-1.34 3-3 3h-604c-1.66 0-3-1.34-3-3z" stroke="#7ab648" stroke-width="2" fill="#c7e8ac" fill-opacity=".5"/><path d="M2740 300.83h-15v20h15z" stroke="#7ab648" fill="#c7e8ac" fill-opacity=".5"/><path d="M2730 304.17h-10v3.33h10zm0 10h-10v3.33h10z" stroke="#7ab648" fill="#c7e8ac" fill-opacity=".5"/><use xlink:href="#n" transform="translate(2367.355 310.243)"/><use xlink:href="#o" transform="translate(2457.155 310.243)"/><path d="M2675 478.83c0 6.63-26.86 12-60 12s-60-5.37-60-12v-96c0-6.62 26.86-12 60-12s60 5.38 60 12z" stroke="#7ab648" stroke-width="2" fill="#a3d977"/><path d="M2675 382.83c0 6.63-26.86 12-60 12s-60-5.37-60-12" stroke="#7ab648" stroke-width="2" fill="none"/><use xlink:href="#i" transform="translate(2575.075 446.483)"/><path d="M2235 373.83c0-1.65 1.34-3 3-3h209c1.66 0 3 1.35 3 3v114c0 1.66-1.34 3-3 3h-209c-1.66 0-3-1.34-3-3z" stroke="#7ab648" stroke-width="2" fill="#a3d977"/><path d="M2215 393.83c0-1.65 1.34-3 3-3h34c1.66 0 3 1.35 3 3v14c0 1.66-1.34 3-3 3h-34c-1.66 0-3-1.34-3-3zm0 60c0-1.65 1.34-3 3-3h34c1.66 0 3 1.35 3 3v14c0 1.66-1.34 3-3 3h-34c-1.66 0-3-1.34-3-3z" stroke="#7ab648" stroke-width="2" fill="#a3d977"/><use xlink:href="#l" transform="translate(2295.65 412.833)"/><use xlink:href="#m" transform="translate(2286.1 434.433)"/><use xlink:href="#h" transform="translate(2307.075 456.033)"/><path d="M2469.5 430.83h66" stroke="#333" stroke-width="2" fill="none"/><path d="M2454.24 430.83l14.26-4.63v9.27zm96.52 0l-14.26 4.64v-9.27z" stroke="#333" stroke-width="2" fill="#333"/><path d="M3015 913.33h64.33L3090 924v42.67h-75z" fill="#ffdba9"/><path d="M3022.5 913.33h6.44m4.3 0h6.42m4.3 0h6.42m4.3 0h6.43m4.3 0h6.43m4.3 0h3.2l1.6 1.6m2.14 2.14l3.2 3.2m2.13 2.13l1.6 1.6v3.2m0 4.27v6.4m0 4.26v6.4m0 4.27v6.4m0 4.27v3.2h-2.8m-3.76 0h-5.63m-3.74 0h-5.62m-3.75 0h-5.64m-3.75 0h-5.6m-3.76 0h-5.63m-3.74 0h-5.62m-3.75 0h-5.64m-3.75 0h-2.8v-3.2m0-4.27v-6.4m0-4.27v-6.4m0-4.26v-6.4m0-4.27v-6.4m0-4.27v-3.2h3.22" stroke="#ef8d22" stroke-width="2" fill="none"/><path d="M3079.33 914.3v9.7h9.72" fill="#ffdba9"/><path d="M3079.33 914.3v2.9m0 3.9v2.9h2.92m3.88 0h2.92" stroke="#ef8d22" stroke-width="2" fill="none"/><path d="M3027.5 926.67h64.33l10.67 10.66V980h-75z" fill="#ffdba9"/><path d="M3035 926.67h6.44m4.3 0h6.42m4.3 0h6.42m4.3 0h6.43m4.3 0h6.43m4.3 0h3.2l1.6 1.6m2.14 2.13l3.2 3.2m2.13 2.13l1.6 1.6v3.2m0 4.27v6.4m0 4.27v6.4m0 4.26v6.4m0 4.27v3.2h-2.8m-3.76 0h-5.63m-3.74 0h-5.62m-3.75 0h-5.64m-3.75 0h-5.6m-3.76 0h-5.63m-3.74 0h-5.62m-3.75 0h-5.64m-3.75 0h-2.8v-3.2m0-4.27v-6.4m0-4.26v-6.4m0-4.27v-6.4m0-4.27v-6.4m0-4.26v-3.2h3.22" stroke="#ef8d22" stroke-width="2" fill="none"/><path d="M3091.83 927.62v9.7h9.72" fill="#ffdba9"/><path d="M3091.83 927.62v2.9m0 3.9v2.9h2.92m3.88 0h2.92" stroke="#ef8d22" stroke-width="2" fill="none"/><path d="M3002.5 940h64.33l10.67 10.67v42.66h-75z" fill="#ffdba9"/><path d="M3010 940h6.44m4.3 0h6.42m4.3 0h6.42m4.3 0h6.43m4.3 0h6.43m4.3 0h3.2l1.6 1.6m2.14 2.13l3.2 3.2m2.13 2.14l1.6 1.6v3.2m0 4.26v6.4m0 4.27v6.4m0 4.27v6.4m0 4.26v3.2h-2.8m-3.76 0h-5.63m-3.74 0h-5.62m-3.75 0h-5.64m-3.75 0h-5.6m-3.76 0h-5.63m-3.74 0h-5.62m-3.75 0h-5.64m-3.75 0h-2.8v-3.2m0-4.26v-6.4m0-4.27v-6.4m0-4.27v-6.4m0-4.26v-6.4m0-4.27V940h3.22" stroke="#ef8d22" stroke-width="2" fill="none"/><path d="M3066.83 940.95v9.72h9.72" fill="#ffdba9"/><path d="M3066.83 940.95v2.92m0 3.88v2.92h2.92m3.88 0h2.92" stroke="#ef8d22" stroke-width="2" fill="none"/><use xlink:href="#u" transform="translate(3020.55 970.4)"/><path d="M2772.5 300h64.33l10.67 10.67v42.66h-75z" fill="#c7e8ac"/><path d="M2780 300h6.44m4.3 0h6.42m4.3 0h6.42m4.3 0h6.43m4.3 0h6.43m4.3 0h3.2l1.6 1.6m2.14 2.13l3.2 3.2m2.13 2.14l1.6 1.6v3.2m0 4.26v6.4m0 4.27v6.4m0 4.27v6.4m0 4.26v3.2h-2.8m-3.76 0h-5.63m-3.74 0h-5.62m-3.75 0h-5.64m-3.75 0h-5.6m-3.76 0h-5.63m-3.74 0h-5.62m-3.75 0h-5.64m-3.75 0h-2.8v-3.2m0-4.26v-6.4m0-4.27v-6.4m0-4.27v-6.4m0-4.26v-6.4m0-4.27V300h3.22" stroke="#7ab648" stroke-width="2" fill="none"/><path d="M2836.83 300.95v9.72h9.72" fill="#c7e8ac"/><path d="M2836.83 300.95v2.92m0 3.88v2.92h2.92m3.88 0h2.92" stroke="#7ab648" stroke-width="2" fill="none"/><path d="M2785 313.33h64.33L2860 324v42.67h-75z" fill="#c7e8ac"/><path d="M2792.5 313.33h6.44m4.3 0h6.42m4.3 0h6.42m4.3 0h6.43m4.3 0h6.43m4.3 0h3.2l1.6 1.6m2.14 2.14l3.2 3.2m2.13 2.13l1.6 1.6v3.2m0 4.27v6.4m0 4.26v6.4m0 4.27v6.4m0 4.27v3.2h-2.8m-3.76 0h-5.63m-3.74 0h-5.62m-3.75 0h-5.64m-3.75 0h-5.6m-3.76 0h-5.63m-3.74 0h-5.62m-3.75 0h-5.64m-3.75 0h-2.8v-3.2m0-4.27v-6.4m0-4.27v-6.4m0-4.26v-6.4m0-4.27v-6.4m0-4.27v-3.2h3.22" stroke="#7ab648" stroke-width="2" fill="none"/><path d="M2849.33 314.3v9.7h9.72" fill="#c7e8ac"/><path d="M2849.33 314.3v2.9m0 3.9v2.9h2.92m3.88 0h2.92" stroke="#7ab648" stroke-width="2" fill="none"/><path d="M2760 326.67h64.33l10.67 10.66V380h-75z" fill="#c7e8ac"/><path d="M2767.5 326.67h6.44m4.3 0h6.42m4.3 0h6.42m4.3 0h6.43m4.3 0h6.43m4.3 0h3.2l1.6 1.6m2.14 2.13l3.2 3.2m2.13 2.13l1.6 1.6v3.2m0 4.27v6.4m0 4.27v6.4m0 4.26v6.4m0 4.27v3.2h-2.8m-3.76 0h-5.63m-3.74 0h-5.62m-3.75 0h-5.64m-3.75 0h-5.6m-3.76 0h-5.63m-3.74 0h-5.62m-3.75 0h-5.64m-3.75 0h-2.8v-3.2m0-4.27v-6.4m0-4.26v-6.4m0-4.27v-6.4m0-4.27v-6.4m0-4.26v-3.2h3.22" stroke="#7ab648" stroke-width="2" fill="none"/><path d="M2824.33 327.62v9.7h9.72" fill="#c7e8ac"/><path d="M2824.33 327.62v2.9m0 3.9v2.9h2.92m3.88 0h2.92" stroke="#7ab648" stroke-width="2" fill="none"/><use xlink:href="#v" transform="translate(2779.55 357.067)"/><path d="M2773.75 570.83h64.33l10.67 10.67v42.67h-75z" fill="#f9d2de"/><path d="M2781.26 570.83h6.43m4.28 0h6.43m4.3 0h6.43m4.3 0h6.43m4.28 0h6.44m4.3 0h3.2l1.6 1.6m2.14 2.14l3.2 3.2m2.13 2.13l1.6 1.6v3.2m0 4.27v6.4m0 4.26v6.4m0 4.27v6.4m0 4.27v3.2h-2.8m-3.76 0h-5.64m-3.75 0h-5.6m-3.76 0h-5.63m-3.74 0h-5.62m-3.75 0h-5.64m-3.75 0h-5.6m-3.76 0h-5.63m-3.74 0h-2.8v-3.2m0-4.27v-6.4m0-4.27v-6.4m0-4.26v-6.4m0-4.27v-6.4m0-4.27v-3.2h3.2" stroke="#de5f85" stroke-width="2" fill="none"/><path d="M2838.08 571.8v9.7h9.72" fill="#f9d2de"/><path d="M2838.08 571.8v2.9m0 3.9v2.9h2.92m3.88 0h2.92" stroke="#de5f85" stroke-width="2" fill="none"/><path d="M2786.25 584.17h64.33l10.67 10.66v42.67h-75z" fill="#f9d2de"/><path d="M2793.76 584.17h6.43m4.28 0h6.43m4.3 0h6.43m4.3 0h6.43m4.28 0h6.44m4.3 0h3.2l1.6 1.6m2.14 2.13l3.2 3.2m2.13 2.13l1.6 1.6v3.2m0 4.27v6.4m0 4.27v6.4m0 4.26v6.4m0 4.27v3.2h-2.8m-3.76 0h-5.64m-3.75 0h-5.6m-3.76 0h-5.63m-3.74 0h-5.62m-3.75 0h-5.64m-3.75 0h-5.6m-3.76 0h-5.63m-3.74 0h-2.8v-3.2m0-4.27v-6.4m0-4.26v-6.4m0-4.27v-6.4m0-4.27v-6.4m0-4.26v-3.2h3.2" stroke="#de5f85" stroke-width="2" fill="none"/><path d="M2850.58 585.12v9.7h9.72" fill="#f9d2de"/><path d="M2850.58 585.12v2.9m0 3.9v2.9h2.92m3.88 0h2.92" stroke="#de5f85" stroke-width="2" fill="none"/><path d="M2761.25 597.5h64.33l10.67 10.67v42.66h-75z" fill="#f9d2de"/><path d="M2768.76 597.5h6.43m4.28 0h6.43m4.3 0h6.43m4.3 0h6.43m4.28 0h6.44m4.3 0h3.2l1.6 1.6m2.14 2.13l3.2 3.2m2.13 2.14l1.6 1.6v3.2m0 4.26v6.4m0 4.27v6.4m0 4.27v6.4m0 4.26v3.2h-2.8m-3.76 0h-5.64m-3.75 0h-5.6m-3.76 0h-5.63m-3.74 0h-5.62m-3.75 0h-5.64m-3.75 0h-5.6m-3.76 0h-5.63m-3.74 0h-2.8v-3.2m0-4.26v-6.4m0-4.27v-6.4m0-4.27v-6.4m0-4.26v-6.4m0-4.27v-3.2h3.2" stroke="#de5f85" stroke-width="2" fill="none"/><path d="M2825.58 598.45v9.72h9.72" fill="#f9d2de"/><path d="M2825.58 598.45v2.92m0 3.88v2.92h2.92m3.88 0h2.92" stroke="#de5f85" stroke-width="2" fill="none"/><use xlink:href="#v" transform="translate(2780.8 627.9)"/><path d="M2295 966.67h64.33l10.67 10.66V1020h-75z" fill="#d1bcd2"/><path d="M2302.5 966.67h6.44m4.3 0h6.42m4.3 0h6.42m4.3 0h6.43m4.3 0h6.43m4.3 0h3.2l1.6 1.6m2.14 2.13l3.2 3.2m2.13 2.13l1.6 1.6v3.2m0 4.27v6.4m0 4.27v6.4m0 4.26v6.4m0 4.27v3.2h-2.8m-3.76 0h-5.63m-3.74 0h-5.62m-3.75 0h-5.64m-3.75 0h-5.6m-3.76 0h-5.63m-3.74 0h-5.62m-3.75 0h-5.64m-3.75 0h-2.8v-3.2m0-4.27v-6.4m0-4.26v-6.4m0-4.27v-6.4m0-4.27v-6.4m0-4.26v-3.2h3.22" stroke="#834187" stroke-width="2" fill="none"/><path d="M2359.33 967.62v9.7h9.72" fill="#d1bcd2"/><path d="M2359.33 967.62v2.9m0 3.9v2.9h2.92m3.88 0h2.92" stroke="#834187" stroke-width="2" fill="none"/><path d="M2307.5 980h64.33l10.67 10.67v42.66h-75z" fill="#d1bcd2"/><path d="M2315 980h6.44m4.3 0h6.42m4.3 0h6.42m4.3 0h6.43m4.3 0h6.43m4.3 0h3.2l1.6 1.6m2.14 2.13l3.2 3.2m2.13 2.14l1.6 1.6v3.2m0 4.26v6.4m0 4.27v6.4m0 4.27v6.4m0 4.26v3.2h-2.8m-3.76 0h-5.63m-3.74 0h-5.62m-3.75 0h-5.64m-3.75 0h-5.6m-3.76 0h-5.63m-3.74 0h-5.62m-3.75 0h-5.64m-3.75 0h-2.8v-3.2m0-4.26v-6.4m0-4.27v-6.4m0-4.27v-6.4m0-4.26v-6.4m0-4.27V980h3.22" stroke="#834187" stroke-width="2" fill="none"/><path d="M2371.83 980.95v9.72h9.72" fill="#d1bcd2"/><path d="M2371.83 980.95v2.92m0 3.88v2.92h2.92m3.88 0h2.92" stroke="#834187" stroke-width="2" fill="none"/><path d="M2282.5 993.33h64.33l10.67 10.67v42.67h-75z" fill="#d1bcd2"/><path d="M2290 993.33h6.44m4.3 0h6.42m4.3 0h6.42m4.3 0h6.43m4.3 0h6.43m4.3 0h3.2l1.6 1.6m2.14 2.14l3.2 3.2m2.13 2.13l1.6 1.6v3.2m0 4.27v6.4m0 4.26v6.4m0 4.27v6.4m0 4.27v3.2h-2.8m-3.76 0h-5.63m-3.74 0h-5.62m-3.75 0h-5.64m-3.75 0h-5.6m-3.76 0h-5.63m-3.74 0h-5.62m-3.75 0h-5.64m-3.75 0h-2.8v-3.2m0-4.27v-6.4m0-4.27v-6.4m0-4.26v-6.4m0-4.27v-6.4m0-4.27v-3.2h3.22" stroke="#834187" stroke-width="2" fill="none"/><path d="M2346.83 994.3v9.7h9.72" fill="#d1bcd2"/><path d="M2346.83 994.3v2.9m0 3.9v2.9h2.92m3.88 0h2.92" stroke="#834187" stroke-width="2" fill="none"/><use xlink:href="#u" transform="translate(2300.55 1023.733)"/><path d="M2272.77 1030.5V842" stroke="#333" stroke-width="2" fill="none"/><path d="M2273.77 1031.5h-2v-1.03h2z" fill="#333"/><path d="M2272.77 826.74l4.64 14.26h-9.26z" stroke="#333" stroke-width="2" fill="#333"/><path d="M3402.5 478c0 6.63-26.86 12-60 12s-60-5.37-60-12v-96c0-6.63 26.86-12 60-12s60 5.37 60 12z" stroke="#3aa6dd" stroke-width="2" fill="#99d2f2"/><path d="M3402.5 382c0 6.63-26.86 12-60 12s-60-5.37-60-12" stroke="#3aa6dd" stroke-width="2" fill="none"/><use xlink:href="#i" transform="translate(3302.575 445.65)"/><path d="M2942.5 373c0-1.66 1.34-3 3-3h234c1.66 0 3 1.34 3 3v114c0 1.66-1.34 3-3 3h-234c-1.66 0-3-1.34-3-3z" stroke="#3aa6dd" stroke-width="2" fill="#99d2f2"/><path d="M2922.5 393c0-1.66 1.34-3 3-3h34c1.66 0 3 1.34 3 3v14c0 1.66-1.34 3-3 3h-34c-1.66 0-3-1.34-3-3zm0 60c0-1.66 1.34-3 3-3h34c1.66 0 3 1.34 3 3v14c0 1.66-1.34 3-3 3h-34c-1.66 0-3-1.34-3-3z" stroke="#3aa6dd" stroke-width="2" fill="#99d2f2"/><use xlink:href="#l" transform="translate(3016.65 412)"/><use xlink:href="#m" transform="translate(3007.1 433.6)"/><use xlink:href="#r" transform="translate(2996.15 455.2)"/><use xlink:href="#w" transform="translate(3076 455.2)"/><use xlink:href="#x" transform="translate(3093.95 455.2)"/><path d="M2994.67 492v468H2715v94" stroke="#333" stroke-width="2" fill="none"/><path d="M2995.67 492.03h-2V491h2z" fill="#333"/><path d="M2715 1069.26l-4.64-14.26h9.28z" stroke="#333" stroke-width="2" fill="#333"/><path d="M3202 430h61" stroke="#333" stroke-width="2" fill="none"/><path d="M3186.74 430l14.26-4.64v9.28zm91.52 0l-14.26 4.64v-9.28z" stroke="#333" stroke-width="2" fill="#333"/><path d="M1760 766.67h181.5v-32.5l58.5 65-58.5 65v-32.5H1760z" stroke="#3aa6dd" stroke-width="2" fill="#c1e4f7"/><use xlink:href="#y" transform="translate(1834.575 802.723)"/><use xlink:href="#z" transform="translate(1876.525 802.723)"/><use xlink:href="#A" transform="translate(1886.525 802.723)"/><path d="M2392.23 492.83v9.88m0 9.9v19.23h.53m9.88 0h19.76m9.88 0h19.77m9.88 0h19.76m9.87 0h19.77m9.88 0h19.76m9.88 0h19.77m9.88 0h19.77m9.88 0h19.77m9.88 0h19.76m9.88 0h19.76m9.9 0h19.75m9.88 0h19.76m9.88 0h19.76m9.88 0h19.76m2.22-7.66V504.4m0-9.88v-19.76m0-9.88V445.1m0-9.87v-19.76m0-9.88v-5.83h13.94m9.9 0h19.75m9.87 0h19.76m9.9 0h9.87" stroke="#333" stroke-width="2" fill="none"/><path d="M2393.23 492.86h-2v-1.03h2z" fill="#333"/><path d="M2918.26 399.77L2904 404.4v-9.27z" stroke="#333" stroke-width="2" fill="#333"/><path d="M2392.23 824.5v9.93m0 9.92v19.15h.7m9.94 0h19.85m9.93 0h19.85m9.93 0h19.86m9.9 0h19.87m9.93 0h19.85m9.93 0h19.85m9.93 0h19.86m9.92 0h19.86m9.93 0h19.85m9.93 0h19.86m9.93 0h19.85m9.92 0h19.86m9.93 0h19.85m9.94 0h19.85m9.92 0h19.86m9.92 0h19.86m.54-9.4v-19.84m0-9.93v-19.85m0-9.93V774.7m0-9.93V744.9m0-9.92v-19.85m0-9.93v-19.85m0-9.93v-19.86m0-9.92v-19.86m0-9.93V596m0-9.93v-19.85m0-9.93v-19.87m0-9.92v-19.85m0-9.92v-19.86m0-9.93v-6.7h13.14m9.93 0h9.93" stroke="#333" stroke-width="2" fill="none"/><path d="M2393.23 824.53h-2v-1.03h2z" fill="#333"/><path d="M2918.26 460.23l-14.26 4.64v-9.27z" stroke="#333" stroke-width="2" fill="#333"/><defs><path fill="#333" d="M169-182c-1-43-94-46-97-3 18 66 151 10 154 114 3 95-165 93-204 36-6-8-10-19-12-30l50-8c3 46 112 56 116 5-17-69-150-10-154-114-4-87 153-88 188-35 5 8 8 18 10 28" id="B"/><path fill="#333" d="M133-34C117-15 103 5 69 4 32 3 11-16 11-54c-1-60 55-63 116-61 1-26-3-47-28-47-18 1-26 9-28 27l-52-2c7-38 36-58 82-57s74 22 75 68l1 82c-1 14 12 18 25 15v27c-30 8-71 5-69-32zm-48 3c29 0 43-24 42-57-32 0-66-3-65 30 0 17 8 27 23 27" id="C"/><path fill="#333" d="M25 0v-261h50V0H25" id="D"/><path fill="#333" d="M185-48c-13 30-37 53-82 52C43 2 14-33 14-96s30-98 90-98c62 0 83 45 84 108H66c0 31 8 55 39 56 18 0 30-7 34-22zm-45-69c5-46-57-63-70-21-2 6-4 13-4 21h74" id="E"/><path fill="#333" d="M137-138c1-29-70-34-71-4 15 46 118 7 119 86 1 83-164 76-172 9l43-7c4 19 20 25 44 25 33 8 57-30 24-41C81-84 22-81 20-136c-2-80 154-74 161-7" id="F"/><path fill="#333" d="M121-226c-27-7-43 5-38 36h38v33H83V0H34v-157H6v-33h28c-9-59 32-81 87-68v32" id="G"/><path fill="#333" d="M110-194c64 0 96 36 96 99 0 64-35 99-97 99-61 0-95-36-95-99 0-62 34-99 96-99zm-1 164c35 0 45-28 45-65 0-40-10-65-43-65-34 0-45 26-45 65 0 36 10 65 43 65" id="H"/><path fill="#333" d="M135-150c-39-12-60 13-60 57V0H25l-1-190h47c2 13-1 29 3 40 6-28 27-53 61-41v41" id="I"/><path fill="#333" d="M190-63c-7 42-38 67-86 67-59 0-84-38-90-98-12-110 154-137 174-36l-49 2c-2-19-15-32-35-32-30 0-35 28-38 64-6 74 65 87 74 30" id="J"/><path fill="#333" d="M67-125c0 53 21 87 73 88 37 1 54-22 65-47l45 17C233-25 199 4 140 4 58 4 20-42 15-125 8-235 124-281 211-232c18 10 29 29 36 50l-46 12c-8-25-30-41-62-41-52 0-71 34-72 86" id="K"/><path fill="#333" d="M85 4C-2 5 27-109 22-190h50c7 57-23 150 33 157 60-5 35-97 40-157h50l1 190h-47c-2-12 1-28-3-38-12 25-28 42-61 42" id="L"/><path fill="#333" d="M88-194c31-1 46 15 58 34l-1-101h50l1 261h-48c-2-10 0-23-3-31C134-8 116 4 84 4 32 4 16-41 15-95c0-56 19-97 73-99zm17 164c33 0 40-30 41-66 1-37-9-64-41-64s-38 30-39 65c0 43 13 65 39 65" id="M"/><path fill="#333" d="M24-248c120-7 223 5 221 122C244-46 201 0 124 0H24v-248zM76-40c74 7 117-18 117-86 0-67-45-88-117-82v168" id="N"/><path fill="#333" d="M115-3C79 11 28 4 28-45v-112H4v-33h27l15-45h31v45h36v33H77v99c-1 23 16 31 38 25v30" id="O"/><path fill="#333" d="M275 0h-61l-44-196L126 0H64L0-248h53L97-49l45-199h58l43 199 44-199h52" id="P"/><path fill="#333" d="M114-157C55-157 80-60 75 0H25v-261h50l-1 109c12-26 28-41 61-42 86-1 58 113 63 194h-50c-7-57 23-157-34-157" id="Q"/><path fill="#333" d="M199 0l-22-63H83L61 0H9l90-248h61L250 0h-51zm-33-102l-36-108c-10 38-24 72-36 108h72" id="R"/><path fill="#333" d="M135-194c53 0 70 44 70 98 0 56-19 98-73 100-31 1-45-17-59-34 3 33 2 69 2 105H25l-1-265h48c2 10 0 23 3 31 11-24 29-35 60-35zM114-30c33 0 39-31 40-66 0-38-9-64-40-64-56 0-55 130 0 130" id="S"/><path fill="#333" d="M25-224v-37h50v37H25zM25 0v-190h50V0H25" id="T"/><path fill="#333" d="M135-194c87-1 58 113 63 194h-50c-7-57 23-157-34-157-59 0-34 97-39 157H25l-1-190h47c2 12-1 28 3 38 12-26 28-41 61-42" id="U"/><path fill="#333" d="M24-248c93 1 206-16 204 79-1 75-69 88-152 82V0H24v-248zm52 121c47 0 100 7 100-41 0-47-54-39-100-39v80" id="V"/><path fill="#333" d="M195-6C206 82 75 100 31 46c-4-6-6-13-8-21l49-6c3 16 16 24 34 25 40 0 42-37 40-79-11 22-30 35-61 35-53 0-70-43-70-97 0-56 18-96 73-97 30 0 46 14 59 34l2-30h47zm-90-29c32 0 41-27 41-63 0-35-9-62-40-62-32 0-39 29-40 63 0 36 9 62 39 62" id="W"/><path fill="#333" d="M220-157c-53 9-28 100-34 157h-49v-107c1-27-5-49-29-50C55-147 81-57 75 0H25l-1-190h47c2 12-1 28 3 38 10-53 101-56 108 0 13-22 24-43 59-42 82 1 51 116 57 194h-49v-107c-1-25-5-48-29-50" id="X"/><path fill="#333" d="M24 0v-248h52V0H24" id="Y"/><path fill="#333" d="M135-194c52 0 70 43 70 98 0 56-19 99-73 100-30 1-46-15-58-35L72 0H24l1-261h50v104c11-23 29-37 60-37zM114-30c31 0 40-27 40-66 0-37-7-63-39-63s-41 28-41 65c0 36 8 64 40 64" id="Z"/><path fill="#333" d="M123 10C108 53 80 86 19 72V37c35 8 53-11 59-39L3-190h52l48 148c12-52 28-100 44-148h51" id="aa"/><path fill="#333" d="M230 0l2-204L168 0h-37L68-204 70 0H24v-248h70l56 185 57-185h69V0h-46" id="ab"/><path fill="#333" d="M147 0L96-86 75-71V0H25v-261h50v150l67-79h53l-66 74L201 0h-54" id="ac"/><path fill="#333" d="M136-208V0H84v-208H4v-40h212v40h-80" id="ad"/><path fill="#333" d="M24 0v-248h195v40H76v63h132v40H76v65h150V0H24" id="ae"/><path fill="#333" d="M182-130c37 4 62 22 62 59C244 23 116-4 24 0v-248c84 5 203-23 205 63 0 31-19 50-47 55zM76-148c40-3 101 13 101-30 0-44-60-28-101-31v61zm0 110c48-3 116 14 116-37 0-48-69-32-116-35v72" id="af"/><path fill="#333" d="M128 0H69L1-190h53L99-40l48-150h52" id="ag"/><path fill="#333" d="M24 0v-248h52v208h133V0H24" id="ah"/><path fill="#333" d="M168-19C124 19 11 11 16-68c3-43 29-60 59-75-25-44-12-111 53-106 37 3 64 15 64 52 0 43-40 52-69 68 12 22 27 41 43 59 14-19 21-38 28-64l37 13c-8 29-19 52-34 74 12 10 32 16 52 10v35c-28 11-65-2-81-17zm-58-139c19-9 43-14 43-39 0-14-10-22-25-22-34 0-33 41-18 61zM60-68c-3 40 55 47 79 25-18-20-34-42-48-67-18 8-30 20-31 42" id="ai"/><path fill="#333" d="M4 7l51-268h42L46 7H4" id="aj"/><g id="a"><use transform="scale(.05)" xlink:href="#B"/><use transform="translate(12) scale(.05)" xlink:href="#C"/><use transform="translate(22) scale(.05)" xlink:href="#D"/><use transform="translate(27) scale(.05)" xlink:href="#E"/><use transform="translate(37) scale(.05)" xlink:href="#F"/><use transform="translate(47) scale(.05)" xlink:href="#G"/><use transform="translate(52.95) scale(.05)" xlink:href="#H"/><use transform="translate(63.9) scale(.05)" xlink:href="#I"/><use transform="translate(70.9) scale(.05)" xlink:href="#J"/><use transform="translate(80.9) scale(.05)" xlink:href="#E"/></g><g id="b"><use transform="scale(.05)" xlink:href="#B"/><use transform="translate(12) scale(.05)" xlink:href="#C"/><use transform="translate(22) scale(.05)" xlink:href="#D"/><use transform="translate(27) scale(.05)" xlink:href="#E"/><use transform="translate(37) scale(.05)" xlink:href="#F"/></g><g id="c"><use transform="scale(.05)" xlink:href="#K"/><use transform="translate(12.95) scale(.05)" xlink:href="#D"/><use transform="translate(17.95) scale(.05)" xlink:href="#H"/><use transform="translate(28.9) scale(.05)" xlink:href="#L"/><use transform="translate(39.85) scale(.05)" xlink:href="#M"/></g><g id="d"><use transform="scale(.05)" xlink:href="#N"/><use transform="translate(12.95) scale(.05)" xlink:href="#C"/><use transform="translate(22.95) scale(.05)" xlink:href="#O"/><use transform="translate(28.9) scale(.05)" xlink:href="#C"/></g><g id="e"><use transform="scale(.05)" xlink:href="#P"/><use transform="translate(16.3) scale(.05)" xlink:href="#C"/><use transform="translate(26.3) scale(.05)" xlink:href="#I"/><use transform="translate(33.3) scale(.05)" xlink:href="#E"/><use transform="translate(43.3) scale(.05)" xlink:href="#Q"/><use transform="translate(54.25) scale(.05)" xlink:href="#H"/><use transform="translate(65.2) scale(.05)" xlink:href="#L"/><use transform="translate(76.15) scale(.05)" xlink:href="#F"/><use transform="translate(86.15) scale(.05)" xlink:href="#E"/></g><g id="f"><use transform="scale(.05)" xlink:href="#R"/><use transform="translate(12.95) scale(.05)" xlink:href="#S"/><use transform="translate(23.9) scale(.05)" xlink:href="#S"/><use transform="translate(34.85) scale(.05)" xlink:href="#D"/><use transform="translate(39.85) scale(.05)" xlink:href="#T"/><use transform="translate(44.85) scale(.05)" xlink:href="#J"/><use transform="translate(54.85) scale(.05)" xlink:href="#C"/><use transform="translate(64.85) scale(.05)" xlink:href="#O"/><use transform="translate(70.8) scale(.05)" xlink:href="#T"/><use transform="translate(75.8) scale(.05)" xlink:href="#H"/><use transform="translate(86.75) scale(.05)" xlink:href="#U"/></g><g id="g"><use transform="scale(.05)" xlink:href="#V"/><use transform="translate(12) scale(.05)" xlink:href="#I"/><use transform="translate(19) scale(.05)" xlink:href="#H"/><use transform="translate(29.95) scale(.05)" xlink:href="#W"/><use transform="translate(40.9) scale(.05)" xlink:href="#I"/><use transform="translate(47.9) scale(.05)" xlink:href="#C"/><use transform="translate(57.9) scale(.05)" xlink:href="#X"/><use transform="translate(73.9) scale(.05)" xlink:href="#X"/><use transform="translate(89.9) scale(.05)" xlink:href="#T"/><use transform="translate(94.9) scale(.05)" xlink:href="#U"/><use transform="translate(105.85) scale(.05)" xlink:href="#W"/></g><g id="h"><use transform="scale(.05)" xlink:href="#Y"/><use transform="translate(5) scale(.05)" xlink:href="#U"/><use transform="translate(15.95) scale(.05)" xlink:href="#O"/><use transform="translate(21.9) scale(.05)" xlink:href="#E"/><use transform="translate(31.9) scale(.05)" xlink:href="#I"/><use transform="translate(38.9) scale(.05)" xlink:href="#G"/><use transform="translate(44.85) scale(.05)" xlink:href="#C"/><use transform="translate(54.85) scale(.05)" xlink:href="#J"/><use transform="translate(64.85) scale(.05)" xlink:href="#E"/></g><g id="i"><use transform="scale(.05)" xlink:href="#N"/><use transform="translate(12.95) scale(.05)" xlink:href="#C"/><use transform="translate(22.95) scale(.05)" xlink:href="#O"/><use transform="translate(28.9) scale(.05)" xlink:href="#C"/><use transform="translate(38.9) scale(.05)" xlink:href="#Z"/><use transform="translate(49.85) scale(.05)" xlink:href="#C"/><use transform="translate(59.85) scale(.05)" xlink:href="#F"/><use transform="translate(69.85) scale(.05)" xlink:href="#E"/></g><g id="j"><use transform="scale(.05)" xlink:href="#R"/><use transform="translate(12.95) scale(.05)" xlink:href="#J"/><use transform="translate(22.95) scale(.05)" xlink:href="#J"/><use transform="translate(32.95) scale(.05)" xlink:href="#H"/><use transform="translate(43.9) scale(.05)" xlink:href="#L"/><use transform="translate(54.85) scale(.05)" xlink:href="#U"/><use transform="translate(65.8) scale(.05)" xlink:href="#O"/><use transform="translate(71.75) scale(.05)" xlink:href="#T"/><use transform="translate(76.75) scale(.05)" xlink:href="#U"/><use transform="translate(87.7) scale(.05)" xlink:href="#W"/></g><g id="k"><use transform="scale(.05)" xlink:href="#B"/><use transform="translate(12) scale(.05)" xlink:href="#aa"/><use transform="translate(22) scale(.05)" xlink:href="#F"/><use transform="translate(32) scale(.05)" xlink:href="#O"/><use transform="translate(37.95) scale(.05)" xlink:href="#E"/><use transform="translate(47.95) scale(.05)" xlink:href="#X"/></g><g id="l"><use transform="scale(.05)" xlink:href="#R"/><use transform="translate(12.95) scale(.05)" xlink:href="#S"/><use transform="translate(23.9) scale(.05)" xlink:href="#S"/><use transform="translate(34.85) scale(.05)" xlink:href="#D"/><use transform="translate(39.85) scale(.05)" xlink:href="#T"/><use transform="translate(44.85) scale(.05)" xlink:href="#J"/><use transform="translate(54.85) scale(.05)" xlink:href="#C"/><use transform="translate(64.85) scale(.05)" xlink:href="#O"/><use transform="translate(70.8) scale(.05)" xlink:href="#T"/><use transform="translate(75.8) scale(.05)" xlink:href="#H"/><use transform="translate(86.75) scale(.05)" xlink:href="#U"/></g><g id="m"><use transform="scale(.05)" xlink:href="#V"/><use transform="translate(12) scale(.05)" xlink:href="#I"/><use transform="translate(19) scale(.05)" xlink:href="#H"/><use transform="translate(29.95) scale(.05)" xlink:href="#W"/><use transform="translate(40.9) scale(.05)" xlink:href="#I"/><use transform="translate(47.9) scale(.05)" xlink:href="#C"/><use transform="translate(57.9) scale(.05)" xlink:href="#X"/><use transform="translate(73.9) scale(.05)" xlink:href="#X"/><use transform="translate(89.9) scale(.05)" xlink:href="#T"/><use transform="translate(94.9) scale(.05)" xlink:href="#U"/><use transform="translate(105.85) scale(.05)" xlink:href="#W"/></g><g id="n"><use transform="scale(.05)" xlink:href="#ab"/><use transform="translate(14.95) scale(.05)" xlink:href="#C"/><use transform="translate(24.95) scale(.05)" xlink:href="#I"/><use transform="translate(31.95) scale(.05)" xlink:href="#ac"/><use transform="translate(41.95) scale(.05)" xlink:href="#E"/><use transform="translate(51.95) scale(.05)" xlink:href="#O"/><use transform="translate(57.9) scale(.05)" xlink:href="#T"/><use transform="translate(62.9) scale(.05)" xlink:href="#U"/><use transform="translate(73.85) scale(.05)" xlink:href="#W"/></g><g id="o"><use transform="scale(.05)" xlink:href="#ad"/><use transform="translate(9.6) scale(.05)" xlink:href="#H"/><use transform="translate(20.55) scale(.05)" xlink:href="#H"/><use transform="translate(31.5) scale(.05)" xlink:href="#D"/></g><g id="p"><use transform="scale(.05)" xlink:href="#ae"/><use transform="translate(12) scale(.05)" xlink:href="#B"/><use transform="translate(24) scale(.05)" xlink:href="#af"/></g><g id="q"><use transform="scale(.05)" xlink:href="#B"/><use transform="translate(12) scale(.05)" xlink:href="#E"/><use transform="translate(22) scale(.05)" xlink:href="#I"/><use transform="translate(29) scale(.05)" xlink:href="#ag"/><use transform="translate(39) scale(.05)" xlink:href="#T"/><use transform="translate(44) scale(.05)" xlink:href="#J"/><use transform="translate(54) scale(.05)" xlink:href="#E"/></g><g id="s"><use transform="scale(.05)" xlink:href="#ae"/><use transform="translate(12) scale(.05)" xlink:href="#ad"/><use transform="translate(22.95) scale(.05)" xlink:href="#ah"/></g><g id="t"><use transform="scale(.05)" xlink:href="#B"/><use transform="translate(12) scale(.05)" xlink:href="#E"/><use transform="translate(22) scale(.05)" xlink:href="#I"/><use transform="translate(29) scale(.05)" xlink:href="#ag"/><use transform="translate(39) scale(.05)" xlink:href="#T"/><use transform="translate(44) scale(.05)" xlink:href="#J"/><use transform="translate(54) scale(.05)" xlink:href="#E"/></g><g id="u"><use transform="scale(.05)" xlink:href="#N"/><use transform="translate(12.95) scale(.05)" xlink:href="#C"/><use transform="translate(22.95) scale(.05)" xlink:href="#O"/><use transform="translate(28.9) scale(.05)" xlink:href="#C"/></g><g id="v"><use transform="scale(.05)" xlink:href="#ab"/><use transform="translate(14.95) scale(.05)" xlink:href="#F"/><use transform="translate(24.95) scale(.05)" xlink:href="#W"/></g><g id="r"><use transform="scale(.05)" xlink:href="#Y"/><use transform="translate(5) scale(.05)" xlink:href="#U"/><use transform="translate(15.95) scale(.05)" xlink:href="#O"/><use transform="translate(21.9) scale(.05)" xlink:href="#E"/><use transform="translate(31.9) scale(.05)" xlink:href="#I"/><use transform="translate(38.9) scale(.05)" xlink:href="#G"/><use transform="translate(44.85) scale(.05)" xlink:href="#C"/><use transform="translate(54.85) scale(.05)" xlink:href="#J"/><use transform="translate(64.85) scale(.05)" xlink:href="#E"/></g><g id="x"><use transform="scale(.05)" xlink:href="#K"/><use transform="translate(12.95) scale(.05)" xlink:href="#H"/><use transform="translate(23.9) scale(.05)" xlink:href="#I"/><use transform="translate(30.9) scale(.05)" xlink:href="#E"/></g><g id="y"><use transform="scale(.05)" xlink:href="#ae"/><use transform="translate(12) scale(.05)" xlink:href="#B"/><use transform="translate(24) scale(.05)" xlink:href="#af"/></g><g id="A"><use transform="scale(.05)" xlink:href="#ae"/><use transform="translate(12) scale(.05)" xlink:href="#ad"/><use transform="translate(22.95) scale(.05)" xlink:href="#ah"/></g><use transform="scale(.05)" xlink:href="#ai" id="w"/><use transform="scale(.05)" xlink:href="#aj" id="z"/></defs></g></svg>