<svg xmlns="http://www.w3.org/2000/svg" xmlns:xlink="http://www.w3.org/1999/xlink" xmlns:lucid="lucid" width="1370" height="1162.27"><g transform="translate(0 -17.733)" lucid:page-tab-id="CqYvvHCuDyzU"><path d="M0 0h1870.4v1323.2H0z" fill="#fff"/><path d="M610 470c0 49.7-40.3 90-90 90s-90-40.3-90-90 40.3-90 90-90 90 40.3 90 90zm-310-62c0 6.63-26.86 12-60 12s-60-5.37-60-12v-96c0-6.63 26.86-12 60-12s60 5.37 60 12z" stroke="#de5f85" stroke-width="2" fill="#f9d2de"/><path d="M300 312c0 6.63-26.86 12-60 12s-60-5.37-60-12" stroke="#de5f85" stroke-width="2" fill="none"/><use xlink:href="#a" transform="translate(203.87 363.08)"/><use xlink:href="#b" transform="translate(251.191 363.08)"/><use xlink:href="#c" transform="translate(216.34 390.014)"/><path d="M1120 408c0 6.63-26.86 12-60 12s-60-5.37-60-12v-96c0-6.63 26.86-12 60-12s60 5.37 60 12z" stroke="#3aa6dd" stroke-width="2" fill="#c1e4f7"/><path d="M1120 312c0 6.63-26.86 12-60 12s-60-5.37-60-12" stroke="#3aa6dd" stroke-width="2" fill="none"/><use xlink:href="#a" transform="translate(1023.87 363.08)"/><use xlink:href="#d" transform="translate(1071.191 363.08)"/><use xlink:href="#c" transform="translate(1036.34 390.014)"/><path d="M492.25 430.65c0 6.77-5.48 12.25-12.25 12.25s-12.25-5.48-12.25-12.25 5.48-12.25 12.25-12.25 12.25 5.48 12.25 12.25z" stroke="#000" stroke-width="2" fill="#fff"/><path d="M480 442.9v34.3l30 39.2m-30-39.2l-30 39.2m0-61.25h60" stroke="#000" stroke-width="2" fill="none"/><path d="M450 418.4h60v120h-60z" fill="none"/><path d="M532.25 470.65c0 6.77-5.48 12.25-12.25 12.25s-12.25-5.48-12.25-12.25 5.48-12.25 12.25-12.25 12.25 5.48 12.25 12.25z" stroke="#000" stroke-width="2" fill="#fff"/><path d="M520 482.9v34.3l30 39.2m-30-39.2l-30 39.2m0-61.25h60" stroke="#000" stroke-width="2" fill="none"/><path d="M490 458.4h60v120h-60z" fill="none"/><path d="M572.25 410.65c0 6.77-5.48 12.25-12.25 12.25s-12.25-5.48-12.25-12.25 5.48-12.25 12.25-12.25 12.25 5.48 12.25 12.25z" stroke="#000" stroke-width="2" fill="#fff"/><path d="M560 422.9v34.3l30 39.2m-30-39.2l-30 39.2m0-61.25h60" stroke="#000" stroke-width="2" fill="none"/><path d="M530 398.4h60v120h-60z" fill="none"/><path d="M870 470c0 49.7-40.3 90-90 90s-90-40.3-90-90 40.3-90 90-90 90 40.3 90 90z" stroke="#3aa6dd" stroke-width="2" fill="#c1e4f7"/><path d="M752.25 430.65c0 6.77-5.48 12.25-12.25 12.25s-12.25-5.48-12.25-12.25 5.48-12.25 12.25-12.25 12.25 5.48 12.25 12.25z" stroke="#000" stroke-width="2" fill="#fff"/><path d="M740 442.9v34.3l30 39.2m-30-39.2l-30 39.2m0-61.25h60" stroke="#000" stroke-width="2" fill="none"/><path d="M710 418.4h60v120h-60z" fill="none"/><path d="M792.25 470.65c0 6.77-5.48 12.25-12.25 12.25s-12.25-5.48-12.25-12.25 5.48-12.25 12.25-12.25 12.25 5.48 12.25 12.25z" stroke="#000" stroke-width="2" fill="#fff"/><path d="M780 482.9v34.3l30 39.2m-30-39.2l-30 39.2m0-61.25h60" stroke="#000" stroke-width="2" fill="none"/><path d="M750 458.4h60v120h-60z" fill="none"/><path d="M832.25 410.65c0 6.77-5.48 12.25-12.25 12.25s-12.25-5.48-12.25-12.25 5.48-12.25 12.25-12.25 12.25 5.48 12.25 12.25z" stroke="#000" stroke-width="2" fill="#fff"/><path d="M820 422.9v34.3l30 39.2m-30-39.2l-30 39.2m0-61.25h60" stroke="#000" stroke-width="2" fill="none"/><path d="M790 398.4h60v120h-60z" fill="none"/><path d="M410.5 470h-1.98m-7.9 0h-3.95m-7.9 0h-3.95m-7.9 0h-3.96m-7.9 0h-3.95m-7.9 0h-3.94m-7.9 0h-3.95m-7.9 0h-3.95m-7.9 0h-3.95m-7.9 0h-3.95m-7.9 0H290m-7.9 0h-3.96m-7.9 0h-3.95m-7.9 0h-3.96m-7.9 0h-3.96m-7.9 0h-3.95m-7.9 0h-3.95m-7.9 0h-3.96m-7.9 0h-3.95m-7.9 0h-3.95m-7.9 0h-3.95m-7.9 0h-3.96m-7.9 0h-3.94m-7.9 0H139v-3.1m0-7.9v-3.95m0-7.9v-3.95m0-7.9v-3.95m0-7.9v-3.95m0-7.9v-3.96m0-7.9v-3.95m0-7.9v-3.96m0-7.9v-3.96m0-7.9v-3.95m7.67-.23h3.95m7.9 0h1.98" stroke="#000" stroke-width="2" fill="none"/><path d="M425.76 470l-14.26 4.64v-9.28zm-250-110l-14.26 4.64v-9.28z" stroke="#000" stroke-width="2"/><use xlink:href="#e" transform="translate(201.14 491.956)"/><path d="M889.5 470h1.98m7.9 0h3.95m7.9 0h3.95m7.9 0h3.96m7.9 0h3.95m7.9 0h3.94m7.9 0h3.95m7.9 0h3.95m7.9 0h3.95m7.9 0h3.95m7.9 0h3.96m7.9 0h3.96m7.9 0h3.95m7.9 0h3.96m7.9 0h3.96m7.9 0h3.95m7.9 0h3.95m7.9 0h3.96m7.9 0h3.95m7.9 0h3.95m7.9 0h3.95m7.9 0h3.96m7.9 0h3.94m7.9 0h.86v-3.1m0-7.9v-3.95m0-7.9v-3.95m0-7.9v-3.95m0-7.9v-3.95m0-7.9v-3.96m0-7.9v-3.95m0-7.9v-3.96m0-7.9v-3.96m0-7.9v-3.95m-7.67-.23h-3.95m-7.9 0h-1.98" stroke="#000" stroke-width="2" fill="none"/><path d="M874.24 470l14.26-4.64v9.28zm250-110l14.26-4.64v9.28z" stroke="#000" stroke-width="2"/><use xlink:href="#e" transform="translate(1041.33 491.956)"/><path d="M740 191.6c0 49.7-40.3 90-90 90s-90-40.3-90-90 40.3-90 90-90 90 40.3 90 90z" stroke="#7ab648" stroke-width="2" fill="#c7e8ac"/><path d="M622.25 152.25c0 6.77-5.48 12.25-12.25 12.25s-12.25-5.48-12.25-12.25S603.23 140 610 140s12.25 5.48 12.25 12.25z" stroke="#000" stroke-width="2" fill="#fff"/><path d="M610 164.5v34.3l30 39.2m-30-39.2L580 238m0-61.25h60" stroke="#000" stroke-width="2" fill="none"/><path d="M580 140h60v120h-60z" fill="none"/><path d="M662.25 192.25c0 6.77-5.48 12.25-12.25 12.25s-12.25-5.48-12.25-12.25S643.23 180 650 180s12.25 5.48 12.25 12.25z" stroke="#000" stroke-width="2" fill="#fff"/><path d="M650 204.5v34.3l30 39.2m-30-39.2L620 278m0-61.25h60" stroke="#000" stroke-width="2" fill="none"/><path d="M620 180h60v120h-60z" fill="none"/><path d="M702.25 132.25c0 6.77-5.48 12.25-12.25 12.25s-12.25-5.48-12.25-12.25S683.23 120 690 120s12.25 5.48 12.25 12.25z" stroke="#000" stroke-width="2" fill="#fff"/><path d="M690 144.5v34.3l30 39.2m-30-39.2L660 218m0-61.25h60" stroke="#000" stroke-width="2" fill="none"/><path d="M660 120h60v120h-60z" fill="none"/><path d="M520.34 360.18l.1-4.52.83-13.66 1.06-10.2 1.22-8.27 1.34-7.05 1.44-6.2 1.55-5.56 1.64-5.07 1.74-4.7 1.85-4.4 1.95-4.14 2.07-3.94 2.2-3.8 2.32-3.67 2.5-3.6 2.64-3.5 2.87-3.44 3.07-3.4 3.34-3.4 3.63-3.42 3.98-3.43 4.4-3.47 4.86-3.54.9-.63" stroke="#000" stroke-width="2" fill="none"/><path d="M510 378.37l10.37-19.82 9.64 20.18m-10.01-.18l.37-20" stroke="#000" stroke-width="2" fill="#fff"/><path d="M575.23 243.44l-.84.57-1.14-1.64.85-.58z"/><path d="M779.48 360.18l-.5-8.1-1-9.48-1.18-8.07-1.35-7.08-1.5-6.36-1.6-5.82-1.76-5.38-1.88-5.04-2-4.8-2.17-4.57-2.32-4.44-2.48-4.3-2.7-4.25-2.9-4.17-3.17-4.18-3.47-4.2-3.8-4.23-4.25-4.33-4.74-4.46-5.35-4.62-6.1-4.84-.13-.1" stroke="#000" stroke-width="2" fill="none"/><path d="M770 378.83l9.43-20.27 10.55 19.7m-9.98.29l-.57-20" stroke="#000" stroke-width="2" fill="#fff"/><path d="M723.75 246.6l-1.2 1.6-.82-.6 1.2-1.6z"/><path d="M540.5 191.6h-2m-8.06 0h-4.02m-8.05 0h-4.02m-8.05 0h-4.02m-8.05 0h-4.02m-8.04 0h-4.02m-8.05 0h-4.03m-8.05 0H454m-8.04 0h-4.03m-8.04 0h-4.04m-8.04 0h-4.03m-8.05 0h-4.03m-8.04 0h-4.03m-8.04 0h-4m-8.06 0h-4.02m-8.05 0h-4.02m-8.05 0h-4.02m-8.05 0h-4.02m-8.04 0h-4.02m-8.05 0h-4.03m-8.05 0h-4.02m-8.05 0h-4.02m-8.05 0h-4.02m-8.04 0h-4.03m-8.05 0h-4.03m-8.04 0h-4.03m-8.04 0h-4.02m-8.04 0h-4.02m-8.05 0h-4.02m-8.05 0h-4.02m-8.05 0h-4.02m-8.04 0h-4.02m-8.05 0h-4.03m-8.05 0h-4.02m-1.2 6.85v4.02m0 8.05v4.02m0 8.05v4m0 8.05v4.03m0 8.04v4.03m0 8.04v4.02m0 8.04v4.03m0 8.03v4.03m0 8.04v4.02m0 8.05v4.02m0 8.04v4.02m0 8.05v4.03m0 8.05v4.02m0 8.05v4.02m7.42.63h4.02m8.05 0h2" stroke="#000" stroke-width="2" fill="none"/><path d="M555.76 191.6l-14.26 4.64v-9.28zm-380 168.4l-14.26 4.64v-9.28z" stroke="#000" stroke-width="2"/><use xlink:href="#e" transform="translate(197.82 178.622)"/><path d="M759.5 191.6h2m8.06 0h4.02m8.05 0h4.02m8.05 0h4.02m8.05 0h4.02m8.04 0h4.02m8.05 0h4.03m8.05 0H846m8.04 0h4.03m8.04 0h4.04m8.04 0h4.03m8.05 0h4.03m8.04 0h4.03m8.04 0h4m8.06 0h4.02m8.05 0h4.02m8.05 0h4.02m8.05 0h4.02m8.04 0h4.02m8.05 0h4.03m8.05 0h4.02m8.05 0h4.02m8.05 0h4.02m8.04 0h4.03m8.05 0h4.03m8.04 0h4.03m8.04 0h4.02m8.04 0h4.02m8.05 0h4.02m8.05 0h4.02m8.05 0h4.02m8.04 0h4.02m8.05 0h4.03m8.05 0h4.02m1.2 6.85v4.02m0 8.05v4.02m0 8.05v4m0 8.05v4.03m0 8.04v4.03m0 8.04v4.02m0 8.04v4.03m0 8.03v4.03m0 8.04v4.02m0 8.05v4.02m0 8.04v4.02m0 8.05v4.03m0 8.05v4.02m0 8.05v4.02m-7.42.63h-4.02m-8.05 0h-2" stroke="#000" stroke-width="2" fill="none"/><path d="M744.24 191.6l14.26-4.64v9.28zm380 168.4l14.26-4.64v9.28z" stroke="#000" stroke-width="2"/><use xlink:href="#e" transform="translate(1036.98 178.622)"/><path d="M400 578.4h240v63.87H400z" fill="none"/><use xlink:href="#f" transform="translate(461.489 601.356)"/><use xlink:href="#g" transform="translate(473.272 628.289)"/><use xlink:href="#h" transform="translate(541.79 628.289)"/><path d="M660 578.4h240v63.87H660z" fill="none"/><use xlink:href="#f" transform="translate(721.489 601.356)"/><use xlink:href="#g" transform="translate(733.272 628.289)"/><use xlink:href="#i" transform="translate(801.79 628.289)"/><path d="M530 37.73h240v63.87H530z" fill="none"/><use xlink:href="#f" transform="translate(591.489 60.689)"/><use xlink:href="#g" transform="translate(603.272 87.622)"/><use xlink:href="#j" transform="translate(671.79 87.622)"/><path d="M720 1060h68l12 12v48h-80z" stroke="#000" stroke-width="2" fill="url(#k)"/><path d="M788 1060.95V1072h11.05" stroke="#000" stroke-width="2" fill="none"/><path d="M740 1080h68l12 12v48h-80z" stroke="#000" stroke-width="2" fill="url(#l)"/><path d="M808 1080.95V1092h11.05" stroke="#000" stroke-width="2" fill="none"/><path d="M760 1100h68l12 12v48h-80z" stroke="#000" stroke-width="2" fill="url(#m)"/><path d="M828 1100.95V1112h11.05" stroke="#000" stroke-width="2" fill="none"/><path d="M660 1000h240v60H660z" fill="none"/><use xlink:href="#n" transform="translate(697.86 1035.456)"/><use xlink:href="#o" transform="translate(748.858 1035.456)"/><use xlink:href="#p" transform="translate(802.413 1035.456)"/><use xlink:href="#q" transform="translate(814.882 1035.456)"/><path d="M700 840h180v100H700z" stroke="#000" stroke-width="2" fill="#c7e8ac"/><path d="M680 855h40v20h-40zm0 50h40v20h-40z" stroke="#000" stroke-width="2" fill="#c7e8ac"/><use xlink:href="#r" transform="translate(739.5 894.489)"/><use xlink:href="#s" transform="translate(795.611 894.489)"/><path d="M700 740h180v100H700z" stroke="#000" stroke-width="2" fill="#c7e8ac"/><path d="M680 755h40v20h-40zm0 50h40v20h-40z" stroke="#000" stroke-width="2" fill="#c7e8ac"/><use xlink:href="#t" transform="translate(739.718 794.489)"/><use xlink:href="#u" transform="translate(795.393 794.489)"/><path d="M1030 780h320v120h-320z" fill="none"/><path d="M1062 780h-32v120h32" fill="none"/><path d="M1063 780c0 .55-.45 1-1 1s-1-.45-1-1 .45-1 1-1 1 .45 1 1zm-8 0c0 .55-.45 1-1 1s-1-.45-1-1 .45-1 1-1 1 .45 1 1zm-8 0c0 .55-.45 1-1 1s-1-.45-1-1 .45-1 1-1 1 .45 1 1zm-8 0c0 .55-.45 1-1 1s-1-.45-1-1 .45-1 1-1 1 .45 1 1zm-8 0c0 .55-.45 1-1 1s-1-.45-1-1 .45-1 1-1 1 .45 1 1zm0 8c0 .55-.45 1-1 1s-1-.45-1-1 .45-1 1-1 1 .45 1 1zm0 8c0 .55-.45 1-1 1s-1-.45-1-1 .45-1 1-1 1 .45 1 1zm0 8c0 .55-.45 1-1 1s-1-.45-1-1 .45-1 1-1 1 .45 1 1zm0 8c0 .55-.45 1-1 1s-1-.45-1-1 .45-1 1-1 1 .45 1 1zm0 8c0 .55-.45 1-1 1s-1-.45-1-1 .45-1 1-1 1 .45 1 1zm0 8c0 .55-.45 1-1 1s-1-.45-1-1 .45-1 1-1 1 .45 1 1zm0 8c0 .55-.45 1-1 1s-1-.45-1-1 .45-1 1-1 1 .45 1 1zm0 8c0 .55-.45 1-1 1s-1-.45-1-1 .45-1 1-1 1 .45 1 1zm0 8c0 .55-.45 1-1 1s-1-.45-1-1 .45-1 1-1 1 .45 1 1zm0 8c0 .55-.45 1-1 1s-1-.45-1-1 .45-1 1-1 1 .45 1 1zm0 8c0 .55-.45 1-1 1s-1-.45-1-1 .45-1 1-1 1 .45 1 1zm0 8c0 .55-.45 1-1 1s-1-.45-1-1 .45-1 1-1 1 .45 1 1zm0 8c0 .55-.45 1-1 1s-1-.45-1-1 .45-1 1-1 1 .45 1 1zm0 8c0 .55-.45 1-1 1s-1-.45-1-1 .45-1 1-1 1 .45 1 1zm0 8c0 .55-.45 1-1 1s-1-.45-1-1 .45-1 1-1 1 .45 1 1zm8 0c0 .55-.45 1-1 1s-1-.45-1-1 .45-1 1-1 1 .45 1 1zm8 0c0 .55-.45 1-1 1s-1-.45-1-1 .45-1 1-1 1 .45 1 1zm8 0c0 .55-.45 1-1 1s-1-.45-1-1 .45-1 1-1 1 .45 1 1z"/><use xlink:href="#v" transform="translate(1055 844.489)"/><use xlink:href="#w" transform="translate(1069.963 844.489)"/><use xlink:href="#x" transform="translate(1148.519 844.489)"/><use xlink:href="#y" transform="translate(1246.838 844.489)"/><path d="M1029 840c0 .55-.45 1-1 1s-1-.45-1-1 .45-1 1-1 1 .45 1 1zm-8.1 0c0 .55-.46 1-1 1-.56 0-1-.45-1-1s.44-1 1-1c.54 0 1 .45 1 1zm-8.12 0c0 .55-.45 1-1 1s-1-.45-1-1 .45-1 1-1 1 .45 1 1zm-8.1 0c0 .55-.46 1-1 1-.57 0-1-.45-1-1s.43-1 1-1c.54 0 1 .45 1 1zm-8.12 0c0 .55-.45 1-1 1-.56 0-1-.45-1-1s.44-1 1-1c.55 0 1 .45 1 1zm-8.12 0c0 .55-.44 1-1 1-.55 0-1-.45-1-1s.45-1 1-1c.56 0 1 .45 1 1zm-8.1 0c0 .55-.45 1-1 1-.56 0-1-.45-1-1s.44-1 1-1c.55 0 1 .45 1 1zm-8.12 0c0 .55-.45 1-1 1s-1-.45-1-1 .45-1 1-1 1 .45 1 1zm-8.1 0c0 .55-.46 1-1 1-.56 0-1-.45-1-1s.44-1 1-1c.54 0 1 .45 1 1zm-8.12 0c0 .55-.45 1-1 1s-1-.45-1-1 .45-1 1-1 1 .45 1 1zm-8.1 0c0 .55-.46 1-1 1-.56 0-1-.45-1-1s.44-1 1-1c.54 0 1 .45 1 1zm-8.12 0c0 .55-.45 1-1 1s-1-.45-1-1 .45-1 1-1 1 .45 1 1zm-8.1 0c0 .55-.46 1-1 1-.57 0-1-.45-1-1s.43-1 1-1c.54 0 1 .45 1 1zm-8.12 0c0 .55-.45 1-1 1-.56 0-1-.45-1-1s.44-1 1-1c.55 0 1 .45 1 1zm-8.12 0c0 .55-.44 1-1 1-.55 0-1-.45-1-1s.45-1 1-1c.56 0 1 .45 1 1zm-8.1 0c0 .55-.45 1-1 1-.56 0-1-.45-1-1s.44-1 1-1c.55 0 1 .45 1 1zm-8.12 0c0 .55-.45 1-1 1s-1-.45-1-1 .45-1 1-1 1 .45 1 1zm-8.1 0c0 .55-.46 1-1 1-.56 0-1-.45-1-1s.44-1 1-1c.54 0 1 .45 1 1z"/><path d="M1029 841h-1.03v-2h1.03zm-148-2h1.03v2H881z"/><path d="M780 999v-39.5" stroke="#000" stroke-width="2" fill="none"/><path d="M781 1000h-2v-1.03h2z"/><path d="M780 944.24l4.64 14.26h-9.28z" stroke="#000" stroke-width="2"/><path d="M698 789.98l-2-.04m-7.9-.3l-3.97-.26m-7.88-.8l-1.9-.2-2.04-.3m-7.83-1.17l-3.9-.73m-7.77-1.54l-3.86-.9m-7.7-1.88l-3.83-1.06m-7.62-2.15l-3.77-1.23m-7.53-2.45l-2.1-.68-1.65-.63m-7.43-2.77l-3.73-1.38m-7.34-3l-3.65-1.54m-7.3-3.13l-3.57-1.7m-7.17-3.36l-3.6-1.7m-7.02-3.66l-3.5-1.84m-7.02-3.7l-3.43-1.98m-6.87-3.97l-3.43-1.98m-6.75-4.16l-3.35-2.12m-6.7-4.25l-1.28-.82-2-1.38m-6.52-4.52l-3.25-2.26m-6.42-4.65l-3.16-2.4m-6.32-4.8l-1.77-1.34-1.34-1.12m-6.12-5.05l-3.06-2.54m-5.98-5.2l-2.94-2.66m-5.86-5.35l-2.83-2.77m-5.66-5.54l-.53-.52-2.2-2.35m-5.43-5.78l-1.03-1.1-1.6-1.87m-5.2-6l-.64-.76-1.85-2.32m-4.9-6.23l-2.33-3.2m-4.55-6.5l-2.2-3.3m-4.13-6.77l-.12-.2-1.8-3.27m-3.64-7.04l-.47-.95-1.17-2.67m-3-7.33l-1.32-3.74m-2.17-7.63l-.2-.73-.65-3.14m-1.16-7.84l-.22-2.6-.06-1.35m.1-7.93l.17-2.1.25-1.84m1.56-7.77l.12-.42.7-2.36.36-1m3.08-7.3l.43-.87 1.23-2.24.22-.37m4.42-6.57l1.6-2.04.9-1.04m5.5-5.73l.07-.1 1.4-1.24" stroke="#000" stroke-width="2" fill="none"/><path d="M699 789v2l-1.05-.02.04-2z"/><path d="M440.1 519.94l-8.75 12.18-5.48-7.48z" stroke="#000" stroke-width="2"/><path d="M698 789.98l-1.97-.04m-7.82-.7l-1.8-.26-2.06-.4m-7.58-2l-.6-.2-2.3-.86-.77-.33m-7.04-3.5l-.68-.4-1.98-1.24-.66-.46m-6.15-4.88l-.66-.58-1.77-1.74-.4-.42m-5.06-6l-1.36-1.87-.88-1.32m-4-6.76l-1.5-3.02-.22-.5m-2.97-7.27l-1.14-3.26-.14-.46m-2.12-7.55l-.28-1.1-.58-2.73m-1.4-7.73l-.1-.48-.43-3.42m-.78-7.8l-.15-1.86-.1-2.07m-.2-7.85V695m.25-7.86l.1-2.64.12-1.28m.66-7.82l.02-.3.46-3.6m1.04-7.78l.66-3.87m1.42-7.73l.8-3.84m1.78-7.65l.98-3.8m2.1-7.57l1.14-3.76m2.43-7.46l1.3-3.7m2.75-7.36l1.45-3.65m3.08-7.22l1.6-3.58m3.43-7.07l1.75-3.52m3.76-6.9l1.13-2.04.82-1.37m4.07-6.7l2.17-3.28m4.46-6.46l2.3-3.2m4.87-6.16l.2-.25 2.35-2.75m5.27-5.82l1.33-1.42" stroke="#000" stroke-width="2" fill="none"/><path d="M699 789v2l-1.05-.02.04-2z"/><path d="M703.8 525.44l-7.54 12.96-6.18-6.9z" stroke="#000" stroke-width="2"/><path d="M698 889.98l-2-.04m-7.96-.3l-3.98-.27m-7.93-.8l-.92-.1-3.02-.45m-7.87-1.26l-3.9-.75m-7.8-1.68l-3.88-.9m-7.7-2.1l-3.8-1.07h-.03m-7.6-2.48l-3.2-1.04-.58-.2m-7.47-2.8l-3.4-1.25-.33-.15m-7.35-3.1l-3.67-1.54m-7.23-3.38l-3.6-1.7m-7.12-3.6l-3.53-1.84m-7.02-3.78l-3.45-2m-6.9-3.98l-1.18-.68-2.22-1.4m-6.73-4.28l-3.36-2.14m-6.6-4.48l-3.27-2.28m-6.54-4.57l-3.18-2.42m-6.35-4.82l-3.17-2.4m-6.18-5.05l-3.07-2.53m-6.13-5.1l-2.96-2.66m-5.92-5.32l-2.96-2.67m-5.76-5.5l-2.85-2.8m-5.7-5.57l-.5-.5-2.24-2.38m-5.46-5.8l-2.73-2.92m-5.3-5.96l-2.6-3m-5.2-6.05l-.1-.1-2.4-3.02m-4.94-6.25l-2.48-3.12m-4.7-6.43l-2.35-3.23m-4.57-6.53l-2.2-3.32m-4.38-6.66l-2.07-3.4m-4.13-6.83l-.28-.46-1.66-3.02m-3.83-7l-.52-.93-1.3-2.6m-3.54-7.15l-.27-.56-1.37-3.06m-3.2-7.3l-1.48-3.7m-2.82-7.46l-1.32-3.76m-2.4-7.6l-.68-2.3-.4-1.54m-1.9-7.74l-.83-3.9m-1.4-7.85v-.02l-.5-3.95m-.75-7.93l-.02-.16-.16-3.82m-.03-7.97l.17-3.98m.8-7.94l.17-1.38.45-2.56m1.65-7.8l.58-2.26.48-1.58m2.6-7.54l.87-2.25.64-1.43m3.53-7.15l1.04-1.9.94-1.57m4.4-6.64l1.22-1.68 1.2-1.5m5.2-6.05l1.8-1.92.96-.95m5.84-5.42l1.54-1.27" stroke="#000" stroke-width="2" fill="none"/><path d="M699 889v2l-1.05-.02.04-2z"/><path d="M440.08 519.9l-8.96 12.03-5.36-7.57z" stroke="#000" stroke-width="2"/><path d="M698 889.98l-2-.04m-7.9-.5l-2.47-.26-1.47-.2m-7.8-1.46l-2.1-.5-1.74-.48m-7.53-2.48l-.7-.26-2.98-1.25m-7.07-3.6l-1.75-1-1.65-1.04m-6.46-4.6l-2.53-2.08-.5-.46m-5.7-5.52l-1.25-1.33-1.4-1.62m-4.9-6.24l-.8-1.12-1.44-2.15m-4.1-6.8l-1.24-2.27-.6-1.23m-3.37-7.18l-.3-.7-1.2-3m-2.7-7.45l-.1-.32-1.04-3.47m-2.1-7.66l-.42-1.7-.45-2.16m-1.54-7.78l-.65-3.92m-1.05-7.86l-.3-2.36-.13-1.58m-.66-7.9v-.1l-.16-3.87m-.27-7.93v-3.97m.08-7.93l.17-3.96m.4-7.92l.34-3.96m.68-7.9l.5-3.94m1-7.87l.2-1.5.4-2.43m1.32-7.82l.66-3.9m1.64-7.78l.83-3.88m1.82-7.72l1-3.85m2-7.67l1.14-3.8m2.3-7.6l.8-2.7.4-1.08m2.6-7.5l1.3-3.74m2.83-7.4l1.45-3.7m3-7.34l1.62-3.62m3.23-7.25l.16-.35 1.6-3.2m3.5-7.12l1.1-2.16.73-1.36m3.82-6.95l1.78-3.25.14-.23m4.1-6.8l2.06-3.4m4.38-6.6l2.15-3.23.05-.08m4.66-6.42l1.64-2.27.73-.9m4.94-6.23l.6-.77 1.96-2.26m5.23-5.97l2.7-2.9m5.58-5.64l1.43-1.38" stroke="#000" stroke-width="2" fill="none"/><path d="M699 889v2l-1.05-.02.04-2z"/><path d="M703.78 525.4L696 538.24l-6.05-7.02z" stroke="#000" stroke-width="2"/><path d="M120 760h240v60H120z" fill="none"/><path d="M340 680H20v120h320z" fill="none"/><path d="M308 680h32v120h-32" fill="none"/><path d="M307 680c0 .55.45 1 1 1s1-.45 1-1-.45-1-1-1-1 .45-1 1zm8 0c0 .55.45 1 1 1s1-.45 1-1-.45-1-1-1-1 .45-1 1zm8 0c0 .55.45 1 1 1s1-.45 1-1-.45-1-1-1-1 .45-1 1zm8 0c0 .55.45 1 1 1s1-.45 1-1-.45-1-1-1-1 .45-1 1zm8 0c0 .55.45 1 1 1s1-.45 1-1-.45-1-1-1-1 .45-1 1zm0 8c0 .55.45 1 1 1s1-.45 1-1-.45-1-1-1-1 .45-1 1zm0 8c0 .55.45 1 1 1s1-.45 1-1-.45-1-1-1-1 .45-1 1zm0 8c0 .55.45 1 1 1s1-.45 1-1-.45-1-1-1-1 .45-1 1zm0 8c0 .55.45 1 1 1s1-.45 1-1-.45-1-1-1-1 .45-1 1zm0 8c0 .55.45 1 1 1s1-.45 1-1-.45-1-1-1-1 .45-1 1zm0 8c0 .55.45 1 1 1s1-.45 1-1-.45-1-1-1-1 .45-1 1zm0 8c0 .55.45 1 1 1s1-.45 1-1-.45-1-1-1-1 .45-1 1zm0 8c0 .55.45 1 1 1s1-.45 1-1-.45-1-1-1-1 .45-1 1zm0 8c0 .55.45 1 1 1s1-.45 1-1-.45-1-1-1-1 .45-1 1zm0 8c0 .55.45 1 1 1s1-.45 1-1-.45-1-1-1-1 .45-1 1zm0 8c0 .55.45 1 1 1s1-.45 1-1-.45-1-1-1-1 .45-1 1zm0 8c0 .55.45 1 1 1s1-.45 1-1-.45-1-1-1-1 .45-1 1zm0 8c0 .55.45 1 1 1s1-.45 1-1-.45-1-1-1-1 .45-1 1zm0 8c0 .55.45 1 1 1s1-.45 1-1-.45-1-1-1-1 .45-1 1zm0 8c0 .55.45 1 1 1s1-.45 1-1-.45-1-1-1-1 .45-1 1zm-8 0c0 .55.45 1 1 1s1-.45 1-1-.45-1-1-1-1 .45-1 1zm-8 0c0 .55.45 1 1 1s1-.45 1-1-.45-1-1-1-1 .45-1 1zm-8 0c0 .55.45 1 1 1s1-.45 1-1-.45-1-1-1-1 .45-1 1z"/><use xlink:href="#z" transform="translate(114.434 744.489)"/><use xlink:href="#A" transform="translate(209.075 744.489)"/><path d="M343 740c0 .55-.45 1-1 1s-1-.45-1-1 .45-1 1-1 1 .45 1 1zm7.88 0c0 .55-.45 1-1 1s-1-.45-1-1 .45-1 1-1 1 .45 1 1zm7.88 0c0 .55-.45 1-1 1s-1-.45-1-1 .45-1 1-1 1 .45 1 1zm7.88 0c0 .55-.45 1-1 1s-1-.45-1-1 .45-1 1-1 1 .45 1 1zm7.88 0c0 .55-.45 1-1 1-.56 0-1-.45-1-1s.44-1 1-1c.55 0 1 .45 1 1zm7.88 0c0 .55-.45 1-1 1-.56 0-1-.45-1-1s.44-1 1-1c.55 0 1 .45 1 1zm7.88 0c0 .55-.45 1-1 1-.56 0-1-.45-1-1s.44-1 1-1c.55 0 1 .45 1 1zm7.87 0c0 .55-.44 1-1 1-.55 0-1-.45-1-1s.45-1 1-1c.56 0 1 .45 1 1zm7.88 0c0 .55-.44 1-1 1-.55 0-1-.45-1-1s.45-1 1-1c.56 0 1 .45 1 1zm7.88 0c0 .55-.44 1-1 1-.54 0-1-.45-1-1s.46-1 1-1c.56 0 1 .45 1 1zm7.9 0c0 .55-.46 1-1 1-.56 0-1-.45-1-1s.44-1 1-1c.54 0 1 .45 1 1zm7.87 0c0 .55-.45 1-1 1s-1-.45-1-1 .45-1 1-1 1 .45 1 1zm7.88 0c0 .55-.45 1-1 1s-1-.45-1-1 .45-1 1-1 1 .45 1 1zm7.88 0c0 .55-.45 1-1 1s-1-.45-1-1 .45-1 1-1 1 .45 1 1z"/><path d="M342.03 741H341v-2h1.03z"/><path d="M444.4 740h1.03" stroke="#000" stroke-width="2" fill="none"/><defs><path d="M30-248c118-7 216 8 213 122C240-48 200 0 122 0H30v-248zM63-27c89 8 146-16 146-99s-60-101-146-95v194" id="B"/><path d="M100-194c63 0 86 42 84 106H49c0 40 14 67 53 68 26 1 43-12 49-29l28 8c-11 28-37 45-77 45C44 4 14-33 15-96c1-61 26-98 85-98zm52 81c6-60-76-77-97-28-3 7-6 17-6 28h103" id="C"/><path d="M115-194c55 1 70 41 70 98S169 2 115 4C84 4 66-9 55-30l1 105H24l-1-265h31l2 30c10-21 28-34 59-34zm-8 174c40 0 45-34 45-75s-6-73-45-74c-42 0-51 32-51 76 0 43 10 73 51 73" id="D"/><path d="M158-156l-14 65h45v19h-49L124 0h-19l15-72H56L41 0H22l15-72H2v-19h39l14-65H11v-19h48l15-71h20l-16 71h64l16-71h19l-16 71h37v19h-40zm-83 0L61-91h63l14-65H75" id="E"/><path d="M27 0v-27h64v-190l-56 39v-29l58-41h29v221h61V0H27" id="F"/><path d="M141-36C126-15 110 5 73 4 37 3 15-17 15-53c-1-64 63-63 125-63 3-35-9-54-41-54-24 1-41 7-42 31l-33-3c5-37 33-52 76-52 45 0 72 20 72 64v82c-1 20 7 32 28 27v20c-31 9-61-2-59-35zM48-53c0 20 12 33 32 33 41-3 63-29 60-74-43 2-92-5-92 41" id="G"/><path d="M59-47c-2 24 18 29 38 22v24C64 9 27 4 27-40v-127H5v-23h24l9-43h21v43h35v23H59v120" id="H"/><path d="M101-251c82-7 93 87 43 132L82-64C71-53 59-42 53-27h129V0H18c2-99 128-94 128-182 0-28-16-43-45-43s-46 15-49 41l-32-3c6-41 34-60 81-64" id="I"/><path d="M185-189c-5-48-123-54-124 2 14 75 158 14 163 119 3 78-121 87-175 55-17-10-28-26-33-46l33-7c5 56 141 63 141-1 0-78-155-14-162-118-5-82 145-84 179-34 5 7 8 16 11 25" id="J"/><path d="M106-169C34-169 62-67 57 0H25v-261h32l-1 103c12-21 28-36 61-36 89 0 53 116 60 194h-32v-121c2-32-8-49-39-48" id="K"/><path d="M114-163C36-179 61-72 57 0H25l-1-190h30c1 12-1 29 2 39 6-27 23-49 58-41v29" id="L"/><path d="M24-231v-30h32v30H24zM24 0v-190h32V0H24" id="M"/><path d="M117-194c89-4 53 116 60 194h-32v-121c0-31-8-49-39-48C34-167 62-67 57 0H25l-1-190h30c1 10-1 24 2 32 11-22 29-35 61-36" id="N"/><path d="M177-190C167-65 218 103 67 71c-23-6-38-20-44-43l32-5c15 47 100 32 89-28v-30C133-14 115 1 83 1 29 1 15-40 15-95c0-56 16-97 71-98 29-1 48 16 59 35 1-10 0-23 2-32h30zM94-22c36 0 50-32 50-73 0-42-14-75-50-75-39 0-46 34-46 75s6 73 46 73" id="O"/><path d="M135-143c-3-34-86-38-87 0 15 53 115 12 119 90S17 21 10-45l28-5c4 36 97 45 98 0-10-56-113-15-118-90-4-57 82-63 122-42 12 7 21 19 24 35" id="P"/><path d="M210-169c-67 3-38 105-44 169h-31v-121c0-29-5-50-35-48C34-165 62-65 56 0H25l-1-190h30c1 10-1 24 2 32 10-44 99-50 107 0 11-21 27-35 58-36 85-2 47 119 55 194h-31v-121c0-29-5-49-35-48" id="Q"/><path d="M143 4C61 4 22-44 18-125c-5-107 100-154 193-111 17 8 29 25 37 43l-32 9c-13-25-37-40-76-40-61 0-88 39-88 99 0 61 29 100 91 101 35 0 62-11 79-27v-45h-74v-28h105v86C228-13 192 4 143 4" id="R"/><path d="M100-194c62-1 85 37 85 99 1 63-27 99-86 99S16-35 15-95c0-66 28-99 85-99zM99-20c44 1 53-31 53-75 0-43-8-75-51-75s-53 32-53 75 10 74 51 75" id="S"/><path d="M84 4C-5 8 30-112 23-190h32v120c0 31 7 50 39 49 72-2 45-101 50-169h31l1 190h-30c-1-10 1-25-2-33-11 22-28 36-60 37" id="T"/><path d="M101-251c68 0 85 55 85 127S166 4 100 4C33 4 14-52 14-124c0-73 17-127 87-127zm-1 229c47 0 54-49 54-102s-4-102-53-102c-51 0-55 48-55 102 0 53 5 102 54 102" id="U"/><path d="M190 0L58-211 59 0H30v-248h39L202-35l-2-213h31V0h-41" id="V"/><path d="M206 0h-36l-40-164L89 0H53L-1-190h32L70-26l43-164h34l41 164 42-164h31" id="W"/><path d="M0 4l72-265h28L28 4H0" id="ae"/><path d="M232-93c-1 65-40 97-104 97C67 4 28-28 28-90v-158h33c8 89-33 224 67 224 102 0 64-133 71-224h33v155" id="X"/><path d="M179-190L93 31C79 59 56 82 12 73V49c39 6 53-20 64-50L1-190h34L92-34l54-156h33" id="Y"/><path d="M96-169c-40 0-48 33-48 73s9 75 48 75c24 0 41-14 43-38l32 2c-6 37-31 61-74 61-59 0-76-41-82-99-10-93 101-131 147-64 4 7 5 14 7 22l-32 3c-4-21-16-35-41-35" id="Z"/><path d="M205 0l-28-72H64L36 0H1l101-248h38L239 0h-34zm-38-99l-47-123c-12 45-31 82-46 123h93" id="aa"/><path d="M30-248c87 1 191-15 191 75 0 78-77 80-158 76V0H30v-248zm33 125c57 0 124 11 124-50 0-59-68-47-124-48v98" id="ab"/><path d="M80-196l47-18 7 23-49 13 32 44-20 13-27-46-27 45-21-12 33-44-49-13 8-23 47 19-2-53h23" id="af"/><path d="M108 0H70L1-190h34L89-25l56-165h34" id="ac"/><path d="M85-194c31 0 48 13 60 33l-1-100h32l1 261h-30c-2-10 0-23-3-31C134-8 116 4 85 4 32 4 16-35 15-94c0-66 23-100 70-100zm9 24c-40 0-46 34-46 75 0 40 6 74 45 74 42 0 51-32 51-76 0-42-9-74-50-73" id="ad"/><g id="a"><use transform="scale(.06235)" xlink:href="#B"/><use transform="translate(16.148) scale(.06235)" xlink:href="#C"/><use transform="translate(28.617) scale(.06235)" xlink:href="#D"/></g><g id="b"><use transform="scale(.06235)" xlink:href="#E"/><use transform="translate(12.47) scale(.06235)" xlink:href="#F"/></g><g id="c"><use transform="scale(.06235)" xlink:href="#B"/><use transform="translate(16.148) scale(.06235)" xlink:href="#G"/><use transform="translate(28.617) scale(.06235)" xlink:href="#H"/><use transform="translate(34.851) scale(.06235)" xlink:href="#G"/></g><g id="d"><use transform="scale(.06235)" xlink:href="#E"/><use transform="translate(12.47) scale(.06235)" xlink:href="#I"/></g><g id="e"><use transform="scale(.06235)" xlink:href="#J"/><use transform="translate(14.963) scale(.06235)" xlink:href="#K"/><use transform="translate(27.432) scale(.06235)" xlink:href="#G"/><use transform="translate(39.901) scale(.06235)" xlink:href="#L"/><use transform="translate(47.32) scale(.06235)" xlink:href="#M"/><use transform="translate(52.246) scale(.06235)" xlink:href="#N"/><use transform="translate(64.715) scale(.06235)" xlink:href="#O"/><use transform="translate(77.184) scale(.06235)" xlink:href="#P"/></g><g id="f"><use transform="scale(.06235)" xlink:href="#B"/><use transform="translate(16.148) scale(.06235)" xlink:href="#C"/><use transform="translate(28.617) scale(.06235)" xlink:href="#D"/><use transform="translate(41.086) scale(.06235)" xlink:href="#G"/><use transform="translate(53.555) scale(.06235)" xlink:href="#L"/><use transform="translate(60.974) scale(.06235)" xlink:href="#H"/><use transform="translate(67.209) scale(.06235)" xlink:href="#Q"/><use transform="translate(85.85) scale(.06235)" xlink:href="#C"/><use transform="translate(98.32) scale(.06235)" xlink:href="#N"/><use transform="translate(110.788) scale(.06235)" xlink:href="#H"/></g><g id="g"><use transform="scale(.06235)" xlink:href="#R"/><use transform="translate(17.457) scale(.06235)" xlink:href="#L"/><use transform="translate(24.876) scale(.06235)" xlink:href="#S"/><use transform="translate(37.345) scale(.06235)" xlink:href="#T"/><use transform="translate(49.814) scale(.06235)" xlink:href="#D"/></g><g id="h"><use transform="scale(.06235)" xlink:href="#E"/><use transform="translate(12.47) scale(.06235)" xlink:href="#F"/></g><g id="i"><use transform="scale(.06235)" xlink:href="#E"/><use transform="translate(12.47) scale(.06235)" xlink:href="#I"/></g><g id="j"><use transform="scale(.06235)" xlink:href="#E"/><use transform="translate(12.47) scale(.06235)" xlink:href="#U"/></g><g id="n"><use transform="scale(.06235)" xlink:href="#V"/><use transform="translate(16.148) scale(.06235)" xlink:href="#C"/><use transform="translate(28.617) scale(.06235)" xlink:href="#W"/></g><g id="o"><use transform="scale(.06235)" xlink:href="#B"/><use transform="translate(16.148) scale(.06235)" xlink:href="#G"/><use transform="translate(28.617) scale(.06235)" xlink:href="#H"/><use transform="translate(34.851) scale(.06235)" xlink:href="#G"/></g><g id="q"><use transform="scale(.06235)" xlink:href="#X"/><use transform="translate(16.148) scale(.06235)" xlink:href="#P"/><use transform="translate(27.37) scale(.06235)" xlink:href="#C"/><use transform="translate(39.839) scale(.06235)" xlink:href="#L"/></g><g id="r"><use transform="scale(.06235)" xlink:href="#J"/><use transform="translate(14.963) scale(.06235)" xlink:href="#Y"/><use transform="translate(26.185) scale(.06235)" xlink:href="#N"/><use transform="translate(38.654) scale(.06235)" xlink:href="#Z"/></g><g id="s"><use transform="scale(.06235)" xlink:href="#aa"/><use transform="translate(14.963) scale(.06235)" xlink:href="#ab"/><use transform="translate(29.926) scale(.06235)" xlink:href="#J"/></g><g id="t"><use transform="scale(.06235)" xlink:href="#aa"/><use transform="translate(14.527) scale(.06235)" xlink:href="#Y"/><use transform="translate(25.749) scale(.06235)" xlink:href="#N"/><use transform="translate(38.218) scale(.06235)" xlink:href="#Z"/></g><g id="u"><use transform="scale(.06235)" xlink:href="#aa"/><use transform="translate(14.963) scale(.06235)" xlink:href="#ab"/><use transform="translate(29.926) scale(.06235)" xlink:href="#J"/></g><g id="w"><use transform="scale(.06235)" xlink:href="#aa"/><use transform="translate(14.963) scale(.06235)" xlink:href="#Z"/><use transform="translate(26.185) scale(.06235)" xlink:href="#Z"/><use transform="translate(37.407) scale(.06235)" xlink:href="#C"/><use transform="translate(49.877) scale(.06235)" xlink:href="#P"/><use transform="translate(61.099) scale(.06235)" xlink:href="#P"/></g><g id="x"><use transform="scale(.06235)" xlink:href="#ab"/><use transform="translate(14.963) scale(.06235)" xlink:href="#L"/><use transform="translate(22.382) scale(.06235)" xlink:href="#S"/><use transform="translate(34.851) scale(.06235)" xlink:href="#ac"/><use transform="translate(46.073) scale(.06235)" xlink:href="#M"/><use transform="translate(50.999) scale(.06235)" xlink:href="#P"/><use transform="translate(62.221) scale(.06235)" xlink:href="#M"/><use transform="translate(67.146) scale(.06235)" xlink:href="#S"/><use transform="translate(79.615) scale(.06235)" xlink:href="#N"/></g><g id="y"><use transform="scale(.06235)" xlink:href="#J"/><use transform="translate(14.963) scale(.06235)" xlink:href="#Y"/><use transform="translate(26.185) scale(.06235)" xlink:href="#P"/><use transform="translate(37.407) scale(.06235)" xlink:href="#H"/><use transform="translate(43.642) scale(.06235)" xlink:href="#C"/><use transform="translate(56.111) scale(.06235)" xlink:href="#Q"/></g><g id="z"><use transform="scale(.06235)" xlink:href="#J"/><use transform="translate(14.963) scale(.06235)" xlink:href="#K"/><use transform="translate(27.432) scale(.06235)" xlink:href="#G"/><use transform="translate(39.901) scale(.06235)" xlink:href="#L"/><use transform="translate(47.32) scale(.06235)" xlink:href="#M"/><use transform="translate(52.246) scale(.06235)" xlink:href="#N"/><use transform="translate(64.715) scale(.06235)" xlink:href="#O"/><use transform="translate(77.184) scale(.06235)" xlink:href="#P"/></g><g id="A"><use transform="scale(.06235)" xlink:href="#R"/><use transform="translate(17.457) scale(.06235)" xlink:href="#C"/><use transform="translate(29.926) scale(.06235)" xlink:href="#N"/><use transform="translate(42.395) scale(.06235)" xlink:href="#C"/><use transform="translate(54.864) scale(.06235)" xlink:href="#L"/><use transform="translate(62.283) scale(.06235)" xlink:href="#G"/><use transform="translate(74.752) scale(.06235)" xlink:href="#H"/><use transform="translate(80.987) scale(.06235)" xlink:href="#C"/><use transform="translate(93.456) scale(.06235)" xlink:href="#ad"/></g><linearGradient gradientUnits="userSpaceOnUse" id="k" x1="720" y1="1120" x2="800" y2="1120"><stop offset="3.26%" stop-color="#f9d2de" stop-opacity=".5"/><stop offset="52.13%" stop-color="#c7e8ac" stop-opacity=".5"/><stop offset="100%" stop-color="#c1e4f7" stop-opacity=".5"/></linearGradient><linearGradient gradientUnits="userSpaceOnUse" id="l" x1="740" y1="1140" x2="820" y2="1140"><stop offset="3.26%" stop-color="#f9d2de" stop-opacity=".5"/><stop offset="52.13%" stop-color="#c7e8ac" stop-opacity=".5"/><stop offset="100%" stop-color="#c1e4f7" stop-opacity=".5"/></linearGradient><linearGradient gradientUnits="userSpaceOnUse" id="m" x1="760" y1="1160" x2="840" y2="1160"><stop offset="3.26%" stop-color="#f9d2de" stop-opacity=".5"/><stop offset="52.13%" stop-color="#c7e8ac" stop-opacity=".5"/><stop offset="100%" stop-color="#c1e4f7" stop-opacity=".5"/></linearGradient><use transform="scale(.06235)" xlink:href="#ae" id="p"/><use transform="scale(.06235)" xlink:href="#af" id="v"/></defs></g></svg>