<svg width="34" height="34" fill="none" xmlns="http://www.w3.org/2000/svg"><path d="M30.714.5h-27.5C1.694.5.5 1.826.5 3.357v27.357c0 1.552 1.214 2.786 2.714 2.786h27.5c1.48 0 2.786-1.214 2.786-2.786V3.357C33.5 1.805 32.215.5 30.714.5z" stroke="#5068E0"/><path d="M8.336 26h3.701V14.019h-3.7V26zM8 10.194c0 1.181.953 2.137 2.187 2.137 1.178 0 2.13-.956 2.13-2.137 0-1.182-.953-2.194-2.13-2.194A2.193 2.193 0 008 10.194zM22.243 26H26v-6.581c0-3.207-.729-5.738-4.486-5.738-1.794 0-3.028 1.013-3.533 1.969h-.056v-1.631h-3.533V26h3.701v-5.906c0-1.575.28-3.094 2.243-3.094 1.907 0 1.907 1.8 1.907 3.15V26z" fill="#5068E0"/></svg>