<svg width="34" height="34" fill="none" xmlns="http://www.w3.org/2000/svg"><path d="M30.714.5h-27.5C1.694.5.5 1.826.5 3.357v27.357c0 1.552 1.214 2.786 2.714 2.786h27.5c1.48 0 2.786-1.214 2.786-2.786V3.357C33.5 1.805 32.215.5 30.714.5z" stroke="#5068E0"/><path d="M17.018 17.939c.372 0 .716-.155 1.114-.512l7.88-6.996c-.335-.293-.96-.431-1.856-.431H9.572c-.76 0-1.295.13-1.594.398l7.926 7.029c.39.349.734.512 1.114.512zm-9.792 4.753l6.404-5.68-6.422-5.68c-.136.228-.208.618-.208 1.18v8.97c0 .577.072.983.226 1.21zm19.557-.008c.144-.236.217-.634.217-1.203v-8.97c0-.545-.073-.935-.2-1.154l-6.403 5.655 6.386 5.672zM9.844 24h14.583c.761 0 1.287-.13 1.586-.39l-6.531-5.802-.598.545c-.625.536-1.214.78-1.866.78-.661 0-1.25-.244-1.866-.78l-.607-.545-6.512 5.794c.344.268.942.398 1.811.398z" fill="#5068E0"/></svg>